<?xml version="1.0" encoding="UTF-8" standalone="no"?>
<svg
   viewBox="0 0 19 19"
   height="19"
   width="19"
   version="1.1"
   id="svg1"
   sodipodi:docname="grocery 2 test - Copy.svg"
   inkscape:version="1.4 (86a8ad7, 2024-10-11)"
   xmlns:inkscape="http://www.inkscape.org/namespaces/inkscape"
   xmlns:sodipodi="http://sodipodi.sourceforge.net/DTD/sodipodi-0.dtd"
   xmlns="http://www.w3.org/2000/svg"
   xmlns:svg="http://www.w3.org/2000/svg"
   xmlns:rdf="http://www.w3.org/1999/02/22-rdf-syntax-ns#"
   xmlns:cc="http://creativecommons.org/ns#"
   xmlns:dc="http://purl.org/dc/elements/1.1/">
  <defs
     id="defs1" />
  <sodipodi:namedview
     id="namedview1"
     pagecolor="#ffffff"
     bordercolor="#000000"
     borderopacity="0.25"
     inkscape:showpageshadow="2"
     inkscape:pageopacity="0.0"
     inkscape:pagecheckerboard="0"
     inkscape:deskcolor="#d1d1d1"
     inkscape:zoom="22.627417"
     inkscape:cx="11.689359"
     inkscape:cy="5.3253979"
     inkscape:window-width="2560"
     inkscape:window-height="1520"
     inkscape:window-x="-11"
     inkscape:window-y="-11"
     inkscape:window-maximized="1"
     inkscape:current-layer="svg1" />
  <title
     id="title1">grocery.svg</title>
  <rect
     fill="none"
     x="0"
     y="0"
     width="19"
     height="19"
     id="rect1" />
  <path
     id="path2"
     style="fill:#e68d00;fill-opacity:1;stroke-width:0.689839"
     d="M 9.109375 0.91210938 A 5.5952177 5.5952177 0 0 0 3.5136719 6.5078125 A 5.5952177 5.5952177 0 0 0 4.609375 9.8085938 L 4.5898438 9.8085938 L 6.8496094 13.462891 L 9.109375 17.119141 L 11.369141 13.462891 L 13.630859 9.8085938 L 13.609375 9.8085938 A 5.5952177 5.5952177 0 0 0 14.705078 6.5078125 A 5.5952177 5.5952177 0 0 0 9.109375 0.91210938 z " />
  <metadata
     id="metadata1">
    <rdf:RDF>
      <cc:Work
         rdf:about="">
        <dc:title>grocery.svg</dc:title>
      </cc:Work>
    </rdf:RDF>
  </metadata>
  <path
     fill="#000000"
     d="m 12.293433,2.8922491 c 0,0 -0.76363,-0.022628 -1.068387,0.2746053 -0.293003,0.2856993 -0.414054,0.5040105 -0.414054,1.0984209 H 5.7029075 l 0.7658912,2.6441496 c 0.00193,0.00404 0.00543,0.00784 0.00751,0.011804 0.1287349,0.3609952 0.4652499,0.620994 0.8667228,0.6360973 0.00164,7.158e-4 0.00751,0.00326 0.00751,0.00326 h 3.5698765 v 0.1094129 c 0,0 4.3e-4,0.165407 -0.109413,0.3850911 -0.109841,0.2196833 -0.164548,0.3293113 -0.603917,0.3293113 H 6.6372089 c -0.5492105,0 -0.5492105,0.823815 0,0.823815 h 0.6586235 0.054706 2.6913456 0.0547 0.05578 c 0.659053,0 1.152485,-0.3846621 1.317248,-0.7691089 0.164762,-0.384448 0.165192,-0.7133294 0.165192,-0.7133294 V 7.5605397 4.2652753 c 0,-0.2875665 0.12556,-0.5492104 0.384018,-0.5492104 h 0.302495 c 0.227483,0 0.411908,-0.1844249 0.411908,-0.4119078 0,-0.2274831 -0.184425,-0.411908 -0.411908,-0.411908 z m -2.196842,6.3159213 c -0.3295273,0 -0.5492106,0.2196841 -0.5492106,0.5492099 0,0.3295267 0.2196833,0.5492107 0.5492106,0.5492107 0.329526,0 0.54921,-0.219684 0.54921,-0.5492107 0,-0.3295258 -0.219684,-0.5492099 -0.54921,-0.5492099 z m -2.746052,0 c -0.3295262,0 -0.5492105,0.2196841 -0.5492105,0.5492099 0,0.3295267 0.2196841,0.5492107 0.5492105,0.5492107 0.3295263,0 0.5492104,-0.219684 0.5492104,-0.5492107 0,-0.3295258 -0.2196841,-0.5492099 -0.5492104,-0.5492099 z"
     id="path1"
     style="fill:#ffffff;fill-opacity:1;stroke-width:0.54921" />
</svg>
