<?xml version="1.0" encoding="UTF-8" standalone="no"?>
<!-- Created with Inkscape (http://www.inkscape.org/) -->

<svg
   width="64"
   height="64"
   viewBox="0 0 64 64"
   version="1.1"
   id="svg1"
   inkscape:version="1.4 (86a8ad7, 2024-10-11)"
   sodipodi:docname="04.svg"
   xml:space="preserve"
   xmlns:inkscape="http://www.inkscape.org/namespaces/inkscape"
   xmlns:sodipodi="http://sodipodi.sourceforge.net/DTD/sodipodi-0.dtd"
   xmlns="http://www.w3.org/2000/svg"
   xmlns:svg="http://www.w3.org/2000/svg"><sodipodi:namedview
     id="namedview1"
     pagecolor="#ffffff"
     bordercolor="#000000"
     borderopacity="0.25"
     inkscape:showpageshadow="2"
     inkscape:pageopacity="0.0"
     inkscape:pagecheckerboard="0"
     inkscape:deskcolor="#d1d1d1"
     inkscape:document-units="px"
     inkscape:zoom="2"
     inkscape:cx="12"
     inkscape:cy="-11.25"
     inkscape:window-width="1920"
     inkscape:window-height="1027"
     inkscape:window-x="-8"
     inkscape:window-y="-8"
     inkscape:window-maximized="1"
     inkscape:current-layer="layer1" /><defs
     id="defs1" /><g
     inkscape:label="Layer 1"
     inkscape:groupmode="layer"
     id="layer1"><circle
       id="path8784"
       style="fill:#ffffff;stroke:#000000;stroke-width:2;stroke-dasharray:none"
       cx="32"
       cy="32"
       r="29.748352" /><circle
       id="path8784-6"
       style="fill:#0000ff;stroke-width:0.0836939"
       cx="31.99984"
       cy="31.998972"
       r="26.961378" /><g
       id="g1"
       transform="translate(0.53033009,0.1887225)"><path
         d="m 42.149385,17.16195 c 0,0 -5.524442,-4.040393 -10.347912,-3.873728 -4.823469,0.166665 -7.802599,2.471784 -7.802599,2.471784 L 21.337142,10.93531 15.681575,23.078542 h 13.472872 l -2.660506,-3.659267 c 0,0 3.381086,-2.444824 6.209482,-1.77939 2.828396,0.665432 7.004815,3.024472 7.004815,3.024472 z"
         fill="#ffffff"
         id="path1"
         style="stroke-width:1.22548" /><path
         d="m 12.158334,32 c 0,0 -0.209556,6.841827 2.654379,10.725359 2.863935,3.885981 6.449675,5.039153 6.449675,5.039153 L 18.786929,52.687245 32,50.488743 24.384899,39.376136 22.870212,43.639563 c 0,0 -3.927648,-1.408071 -4.97788,-4.117596 -1.050232,-2.707074 -1.464443,-7.487654 -1.464443,-7.487654 z"
         fill="#ffffff"
         id="path2"
         style="stroke-width:1.22548" /><path
         d="m 38.974179,48.565972 c 0,0 6.25605,-2.776926 8.513375,-7.04158 2.261001,-4.263428 1.746302,-7.994999 1.746302,-7.994999 l 5.50851,0.09681 -7.708238,-10.954522 -6.714378,11.680003 4.499945,-0.484063 c 0,0 0.433818,4.150684 -1.553903,6.270756 -1.985269,2.118846 -6.112669,4.564894 -6.112669,4.564894 z"
         fill="#ffffff"
         id="path3"
         style="stroke-width:1.22548" /></g></g></svg>
