<?xml version="1.0" encoding="UTF-8" standalone="no"?>
<!-- Created with Inkscape (http://www.inkscape.org/) -->

<svg
   width="64"
   height="64"
   viewBox="0 0 64 64"
   version="1.1"
   id="svg1"
   inkscape:version="1.4 (86a8ad7, 2024-10-11)"
   sodipodi:docname="05.svg"
   xml:space="preserve"
   xmlns:inkscape="http://www.inkscape.org/namespaces/inkscape"
   xmlns:sodipodi="http://sodipodi.sourceforge.net/DTD/sodipodi-0.dtd"
   xmlns="http://www.w3.org/2000/svg"
   xmlns:svg="http://www.w3.org/2000/svg"><sodipodi:namedview
     id="namedview1"
     pagecolor="#ffffff"
     bordercolor="#000000"
     borderopacity="0.25"
     inkscape:showpageshadow="2"
     inkscape:pageopacity="0.0"
     inkscape:pagecheckerboard="0"
     inkscape:deskcolor="#d1d1d1"
     inkscape:document-units="px"
     inkscape:zoom="1"
     inkscape:cx="92"
     inkscape:cy="-23.5"
     inkscape:window-width="1920"
     inkscape:window-height="1027"
     inkscape:window-x="-8"
     inkscape:window-y="-8"
     inkscape:window-maximized="1"
     inkscape:current-layer="layer1" /><defs
     id="defs1" /><g
     inkscape:label="Layer 1"
     inkscape:groupmode="layer"
     id="layer1"><circle
       id="path8784"
       style="fill:#ffffff;stroke:#000000;stroke-width:2;stroke-dasharray:none"
       cx="32"
       cy="32"
       r="29.748352" /><circle
       id="path8784-6"
       style="fill:#0000ff;stroke-width:0.0836939"
       cx="31.99984"
       cy="31.998972"
       r="26.961378" /><flowRoot
       id="flowRoot3250"
       xml:space="preserve"
       style="line-height:0.01%;font-family:sans-serif;letter-spacing:0px;word-spacing:0px;fill:#000000"
       transform="translate(-697.1445,-487.53515)">
      <flowRegion
   id="flowRegion3252"
   style="font-family:sans-serif">
        <rect
   id="rect3254"
   y="353.59"
   width="194.45"
   x="141.42"
   height="178.99" />
      </flowRegion>
      <flowPara
   id="flowPara3256"
   style="font-size:10px;line-height:1.25;font-family:sans-serif" />
    </flowRoot><path
       id="path3258"
       sodipodi:nodetypes="ccccccccscscccsszccssccscccszzzsccssssssssccssscsssscccssssscccssssszcccccccc"
       style="fill:#ffffff;stroke:none;stroke-width:0.128382px"
       inkscape:connector-curvature="0"
       d="m 15.662447,45.897442 v -8.297867 l 5.815596,-3.39995 c 0,0 -0.342437,-1.548805 -0.697042,-2.258118 -0.204166,-1.010112 0.03367,-2.268773 0.175526,-2.836094 C 21.098365,28.538039 19.2086,25.330072 19.2086,25.330072 L 14.598646,27.599616 13.4639,26.252115 c 0,0 0.780141,-1.063828 1.063825,-1.205678 0.283689,-0.14185 0.446311,-1.459964 0.37538,-1.885552 -0.07092,-0.425536 0.03801,-0.914121 0.333845,-1.164133 0.499418,-0.422031 1.276583,-0.92199 1.276583,-0.92199 l 0.212768,-3.120591 1.489365,1.702094 c 0,0 0.913377,0.0043 1.489361,0 0.431381,-0.0032 1.627505,0.289618 2.37623,0.803738 0.66768,0.458466 2.053733,1.785028 2.504483,2.308186 0.450765,0.523133 1.52711,2.347985 1.52711,2.347985 l 2.808362,-1.554582 c 0,0 -0.250741,-0.576719 -0.52656,-1.053133 -0.258704,-0.446835 0.07522,-1.454316 0.325964,-1.654977 0.250741,-0.200598 0.100307,-0.702098 0.100307,-0.702098 0,0 -1.153441,-0.250743 -1.45432,-0.702097 -0.300887,-0.451341 -0.200594,-1.504514 -0.200594,-1.654978 0,-0.150451 -1.654979,-0.250743 -1.654979,-0.250743 v -0.451341 l 1.755247,-0.451341 c 0,0 0.52657,-0.626866 0.97791,-0.927768 0.451341,-0.300903 1.504515,-0.225671 1.980944,-0.02507 0.476414,0.200597 1.062439,0.94438 1.153423,1.253731 0.091,0.309362 0.25158,1.230043 -0.02508,1.680011 -0.276636,0.449967 -0.927752,0.777317 -0.927752,1.078207 v 0.45134 l 1.303852,-0.100298 c 0,0 3.610756,5.165336 3.911681,5.767193 0.300888,0.601792 0.275019,2.094686 0.250741,2.507436 -0.02508,0.426267 0.866265,-0.379242 1.404247,-0.501487 0.551648,-0.125374 2.532601,-0.125374 3.034064,-0.07522 0.501497,0.05015 1.916873,0.912144 2.407167,1.680012 0.261836,0.410066 0.702097,0.05015 1.930744,-0.275817 0.799422,-0.212087 2.95883,-0.150451 3.811414,0.30089 0.852535,0.451341 1.654978,2.256705 1.755246,3.059095 0.08087,0.646906 0.300902,4.839374 0.300902,4.839374 l -3.084132,-0.05015 c 0,0 -0.09401,-4.120303 -0.02508,-4.413143 0.06064,-0.257586 -0.08829,-0.643362 -0.651941,-1.153438 -0.238094,-0.215465 -1.153437,-0.451341 -1.805314,-0.401196 -0.651936,0.05015 -1.25373,0.200598 -1.25373,0.200598 0,0 0.05015,0.150451 0.2006,0.651938 0.150448,0.501488 0.351048,1.053134 0.351048,1.35405 0,0.300902 -0.100307,1.053133 -0.351048,1.203584 -0.250746,0.150451 0.727169,1.178512 0.977915,1.579744 0.250743,0.401196 2.432203,3.986916 2.432203,3.986916 v 8.174361 h -2.306905 c 0,0 -0.0694,-6.812096 0,-7.071044 0.06942,-0.259024 -0.300888,-1.053134 -0.802388,-1.053134 -0.501487,0 -2.356974,-0.852535 -2.858562,-1.303851 -0.501487,-0.451342 -1.654978,-1.60478 -1.90571,-1.85551 -0.250755,-0.250744 0,0.802389 0.2006,1.203585 0.2006,0.401194 1.103277,3.811415 1.103277,3.811415 l -3.560551,6.268655 h -2.908635 c 0,0 3.535521,-5.992889 3.68599,-6.343886 0.150448,-0.35105 0.376121,-0.677012 -0.175527,-1.329015 -0.344349,-0.406959 -2.581899,-3.394431 -2.90863,-4.212483 -0.06554,-0.164098 -1.654978,0.250744 -3.510489,0.300902 -1.855508,0.05015 -4.362944,-0.401194 -4.613807,-0.401194 -0.376107,0 -0.499584,0.05842 -0.300888,0.376122 0.198712,0.317694 0.677009,1.153438 0.777301,1.755243 0.100307,0.601794 0.07523,2.883598 0.07523,2.883598 l 2.708099,6.820313 h -2.356972 l -5.014871,-11.734919 -4.463345,2.6579 -0.100293,5.315801 z" /></g></svg>
