<?xml version="1.0" encoding="UTF-8" standalone="no"?>
<!-- Created with Inkscape (http://www.inkscape.org/) -->

<svg
   width="64"
   height="64"
   viewBox="0 0 64 64"
   version="1.1"
   id="svg1"
   inkscape:version="1.4 (86a8ad7, 2024-10-11)"
   sodipodi:docname="08.svg"
   xml:space="preserve"
   xmlns:inkscape="http://www.inkscape.org/namespaces/inkscape"
   xmlns:sodipodi="http://sodipodi.sourceforge.net/DTD/sodipodi-0.dtd"
   xmlns="http://www.w3.org/2000/svg"
   xmlns:svg="http://www.w3.org/2000/svg"><sodipodi:namedview
     id="namedview1"
     pagecolor="#ffffff"
     bordercolor="#000000"
     borderopacity="0.25"
     inkscape:showpageshadow="2"
     inkscape:pageopacity="0.0"
     inkscape:pagecheckerboard="0"
     inkscape:deskcolor="#d1d1d1"
     inkscape:document-units="px"
     inkscape:zoom="0.5"
     inkscape:cx="-252"
     inkscape:cy="67"
     inkscape:window-width="1920"
     inkscape:window-height="1027"
     inkscape:window-x="-8"
     inkscape:window-y="-8"
     inkscape:window-maximized="1"
     inkscape:current-layer="layer1" /><defs
     id="defs1" /><g
     inkscape:label="Layer 1"
     inkscape:groupmode="layer"
     id="layer1"><circle
       id="path8784"
       style="fill:#ffffff;stroke:#000000;stroke-width:2;stroke-dasharray:none"
       cx="32"
       cy="32"
       r="29.748352" /><circle
       id="path8784-6"
       style="fill:#0000ff;stroke-width:0.0836939"
       cx="31.99984"
       cy="31.998972"
       r="26.961378" /><g
       id="g2"
       transform="matrix(0.12241516,0,0,0.12241516,27.146466,5.4609019)"><path
         id="path10753"
         d="m 166.67385,162.47603 c -13.00222,0 -107.268456,3.25051 -107.268456,3.25051 0,0 -7.801259,-10.40174 -19.502694,-11.70198 -11.70198,-1.30022 -44.4772101,-4.62283 -49.0279601,-4.62283 -4.5507499,0 -15.9833259,0.0721 -19.2332899,0.0721 -3.25051,0 -7.223314,-7.64362 -19.923183,-7.64362 -10.401741,0 -14.873672,10.54591 -14.873672,18.99665 0,8.45129 11.012451,16.80756 15.888307,16.80756 4.875855,0 18.461482,9.55803 26.254187,20.27814 7.791612,10.7203 13.0318915,10.7203 20.60943632,10.7203 5.73940588,0 8.22156698,0.4529 8.45128888,7.15123 0.2375855,6.92405 -1.8388671,9.1015 -4.4391657,9.1015 -2.6004805,0 -4.6623343,7.15123 -4.6623343,14.30227 0,7.15124 7.1512305,25.35496 19.5026938,25.35496 12.35201,0 82.889182,-0.32505 82.889182,-0.32505 0,0 -1.625274,-42.58228 24.37928,-55.25884 25.8701,-12.61214 36.97211,-9.08057 43.55796,-10.72685 2.60048,-0.65008 -2.60048,-35.75615 -2.60048,-35.75615 z"
         sodipodi:nodetypes="ccsssssssssssscssc"
         style="fill:#ffffff;stroke-width:1.8203"
         inkscape:connector-curvature="0" /><circle
         id="path10755"
         style="fill:#ffffff;stroke-width:2.06531"
         cx="-86.202965"
         cy="252.82051"
         r="57.533703" /><circle
         id="path10757"
         style="fill:#0000ff;fill-opacity:1;stroke-width:1.33022"
         cx="-86.217216"
         cy="252.8407"
         r="37.056145" /><circle
         id="path10759"
         style="fill:#ffffff;stroke-width:0.746796"
         cx="-86.218681"
         cy="252.83493"
         r="20.803612" /><path
         id="path11269"
         d="m -82.634435,252.50807 c 0,0 50.708097,-73.78768 54.283166,-79.96396"
         sodipodi:nodetypes="cc"
         style="fill:#ffffff;stroke:#ffffff;stroke-width:18.203;stroke-linecap:round;stroke-opacity:1"
         inkscape:connector-curvature="0" /><path
         id="path11271"
         d="m -16.976214,154.66695 c 0,-12.02691 0.650102,-20.80421 32.505097,-26.97867"
         style="fill:none;stroke:#ffffff;stroke-width:9.1015;stroke-opacity:1"
         inkscape:connector-curvature="0" /><circle
         id="path11273"
         style="fill:#ffffff;stroke-width:2.06531"
         cx="159.04613"
         cy="252.82051"
         r="57.533703" /><circle
         id="path11275"
         style="fill:#0000ff;fill-opacity:1;stroke-width:1.33022"
         cx="159.01634"
         cy="252.8407"
         r="37.056145" /><circle
         id="path11277"
         style="fill:#ffffff;stroke-width:0.746796"
         cx="159.01578"
         cy="252.83493"
         r="20.803612" /><path
         id="path11279"
         d="M 223.03034,256.13047 H 92.937141"
         style="fill:#ffffff;stroke:#ffffff;stroke-width:14.5624;stroke-opacity:1"
         inkscape:connector-curvature="0" /><path
         id="path11283"
         d="M 160.32101,255.93024 130.85217,188.54819"
         style="fill:#ffffff;stroke:#ffffff;stroke-width:9.1015;stroke-opacity:1"
         inkscape:connector-curvature="0" /></g></g></svg>
