<?xml version="1.0" encoding="UTF-8" standalone="no"?>
<!-- Created with Inkscape (http://www.inkscape.org/) -->

<svg
   width="64"
   height="64"
   viewBox="0 0 64 64"
   version="1.1"
   id="svg1"
   inkscape:version="1.4 (86a8ad7, 2024-10-11)"
   sodipodi:docname="15.svg"
   xml:space="preserve"
   xmlns:inkscape="http://www.inkscape.org/namespaces/inkscape"
   xmlns:sodipodi="http://sodipodi.sourceforge.net/DTD/sodipodi-0.dtd"
   xmlns="http://www.w3.org/2000/svg"
   xmlns:svg="http://www.w3.org/2000/svg"><sodipodi:namedview
     id="namedview1"
     pagecolor="#ffffff"
     bordercolor="#000000"
     borderopacity="0.25"
     inkscape:showpageshadow="2"
     inkscape:pageopacity="0.0"
     inkscape:pagecheckerboard="0"
     inkscape:deskcolor="#d1d1d1"
     inkscape:document-units="px"
     inkscape:zoom="2"
     inkscape:cx="47"
     inkscape:cy="33.25"
     inkscape:window-width="1920"
     inkscape:window-height="1027"
     inkscape:window-x="-8"
     inkscape:window-y="-8"
     inkscape:window-maximized="1"
     inkscape:current-layer="layer1" /><defs
     id="defs1" /><g
     inkscape:label="Layer 1"
     inkscape:groupmode="layer"
     id="layer1"><circle
       id="path8784"
       style="fill:#ffffff;stroke:#000000;stroke-width:2;stroke-dasharray:none"
       cx="32"
       cy="32"
       r="29.748352" /><circle
       id="path8784-6"
       style="fill:#0000ff;stroke-width:0.0836939"
       cx="31.99984"
       cy="31.998972"
       r="26.961378" /><path
       d="m 14.499995,23.14 -1.2,-1.76 q 2.84,-2.52 6.8,-2.52 3.24,0 5.36,1.92 1.96,1.8 1.96,4.6 0,2 -1.2,3.56 -1.2,1.52 -3.16,2 2.52,0.6 3.96,2.32 1.44,1.72 1.44,4.16 0,4.04 -3.04,6.16 -2.24,1.52 -5.28,1.52 -3.84,0 -7.16,-2.64 l 1.28,-1.72 q 2.52,1.76 5.52,1.76 2.48,0 4,-1.4 1.52,-1.4 1.52,-3.72 0,-4.92 -5.88,-4.92 h -3.28 v -2.52 h 3.28 q 2.24,0 3.52,-1.16 1.32,-1.16 1.32,-3.2 0,-4.2 -4.68,-4.2 -2.44,0 -5.08,1.76 z m 36.520011,8.92 q 0,6.28 -2.76,9.88 -2.4,3.2 -6.32,3.2 -4.52,0 -7,-4.12 -2.08,-3.52 -2.08,-8.96 0,-6.08 2.76,-9.8 2.48,-3.4 6.32,-3.4 4.36,0 6.92,4.32 2.16,3.64 2.16,8.88 z m -9.12,-10.64 q -2.76,0 -4.32,2.76 -1.56,2.76 -1.56,7.64 0,5.2 1.68,8.08 1.56,2.64 4.2,2.64 2.76,0 4.36,-2.84 1.6,-2.88 1.6,-7.88 0,-5.12 -1.76,-7.88 -1.56,-2.52 -4.2,-2.52 z"
       id="text1"
       style="font-size:40px;line-height:1.5;font-family:Tajawal;-inkscape-font-specification:Tajawal;direction:rtl;fill:#ffffff;stroke:#ffffff;stroke-width:2;stroke-linejoin:round"
       aria-label="30" /></g></svg>
