<?xml version="1.0" encoding="UTF-8" standalone="no"?>
<!-- Created with Inkscape (http://www.inkscape.org/) -->

<svg
   width="64"
   height="64"
   viewBox="0 0 64 64"
   version="1.1"
   id="svg1"
   inkscape:version="1.4 (86a8ad7, 2024-10-11)"
   sodipodi:docname="16.svg"
   xml:space="preserve"
   xmlns:inkscape="http://www.inkscape.org/namespaces/inkscape"
   xmlns:sodipodi="http://sodipodi.sourceforge.net/DTD/sodipodi-0.dtd"
   xmlns="http://www.w3.org/2000/svg"
   xmlns:svg="http://www.w3.org/2000/svg"><sodipodi:namedview
     id="namedview1"
     pagecolor="#ffffff"
     bordercolor="#000000"
     borderopacity="0.25"
     inkscape:showpageshadow="2"
     inkscape:pageopacity="0.0"
     inkscape:pagecheckerboard="0"
     inkscape:deskcolor="#d1d1d1"
     inkscape:document-units="px"
     inkscape:zoom="8"
     inkscape:cx="40.125"
     inkscape:cy="32.0625"
     inkscape:window-width="2560"
     inkscape:window-height="1387"
     inkscape:window-x="-8"
     inkscape:window-y="-8"
     inkscape:window-maximized="1"
     inkscape:current-layer="layer1" /><defs
     id="defs1" /><g
     inkscape:label="Layer 1"
     inkscape:groupmode="layer"
     id="layer1"><g
       id="layer1-9"
       inkscape:label="Calque 1"
       transform="matrix(0.09422171,0,0,0.09422171,-25.631958,-10.567368)"><g
         id="g11649"><g
           id="g10138"
           transform="matrix(1.0262023,0,0,1.0262023,232.38686,49.444838)"><circle
             id="path8784-4"
             style="fill:#ffffff;stroke:#000000;stroke-width:10.28441108;stroke-dasharray:none"
             transform="matrix(0.99557,0,0,0.99557,292.08,-174.21)"
             cx="77.85714"
             cy="568.79077"
             r="322.14285" /><circle
             id="path8784-6-8"
             style="fill:none;stroke:#ff0000;stroke-width:110.5"
             transform="matrix(0.8145,0,0,0.8145,306.18,-71.219)"
             cx="77.85714"
             cy="568.79077"
             r="322.14285" /></g></g></g><rect
       style="fill:#000000;stroke-width:8"
       id="rect1"
       width="34.648232"
       height="7.3362327"
       x="14.676117"
       y="28.331884"
       ry="3.6681163" /><path
       id="text1"
       style="-inkscape-font-specification:'Almohanad long kaf';stroke-width:2.48109"
       d="M 37.414062 17.601562 C 37.37934 17.625869 37.249133 17.740451 37.023438 17.945312 C 36.832464 18.136286 36.717881 18.232422 36.679688 18.232422 C 36.596354 18.232422 36.414063 18.151477 36.132812 17.988281 C 35.851561 17.825087 35.669271 17.700522 35.585938 17.617188 C 35.342881 17.842883 35.046008 18.149738 34.695312 18.535156 C 34.789062 18.628906 34.98459 18.753906 35.283203 18.910156 C 35.560982 19.05599 35.774089 19.14974 35.919922 19.191406 C 36.135201 18.972656 36.343533 18.769532 36.544922 18.582031 C 36.610895 18.627171 36.822048 18.742188 37.179688 18.929688 C 37.537331 19.117188 37.732425 19.210938 37.763672 19.210938 C 37.867839 19.210938 38.159938 18.898439 38.642578 18.273438 L 37.414062 17.601562 z M 30.861328 17.701172 C 30.788411 17.701172 30.57487 17.867837 30.220703 18.201172 C 29.866535 18.534506 29.689453 18.73763 29.689453 18.810547 C 29.689453 18.862631 29.866535 19.031684 30.220703 19.316406 C 30.57487 19.60113 30.788411 19.742188 30.861328 19.742188 C 30.955078 19.742188 31.181422 19.603951 31.539062 19.326172 C 31.900175 19.048393 32.080078 18.86849 32.080078 18.785156 C 32.080078 18.753906 31.886937 18.566408 31.498047 18.222656 C 31.109155 17.875433 30.896048 17.701172 30.861328 17.701172 z M 38.064453 19.654297 C 37.606118 19.654297 37.116538 19.938367 36.595703 20.507812 C 36.074868 21.077259 35.814453 21.590059 35.814453 22.044922 C 35.814453 22.329645 35.965493 22.566839 36.267578 22.757812 C 36.527995 22.921007 36.809244 23.003906 37.111328 23.003906 C 37.437718 23.003906 37.718966 22.936199 37.955078 22.800781 L 38.466797 22.294922 C 38.567489 22.378256 38.643226 22.534505 38.695312 22.763672 C 38.719619 22.878255 38.743271 23.058159 38.767578 23.304688 L 34.423828 23.304688 L 34.279297 23.304688 L 33.205078 23.304688 L 33.658203 22.544922 C 33.724176 22.430339 33.757812 22.258464 33.757812 22.029297 C 33.757813 21.727212 33.698134 21.443143 33.580078 21.175781 C 33.430772 20.838975 33.224827 20.669922 32.960938 20.669922 C 32.585936 20.669922 32.130427 20.852212 31.595703 21.216797 C 31.147785 21.539715 30.777996 21.878255 30.486328 22.232422 C 30.26758 22.499781 30.155384 22.638018 30.148438 22.648438 C 30.04427 22.80816 29.992188 22.969184 29.992188 23.128906 L 29.992188 23.304688 L 25.748047 23.304688 C 25.470268 23.304688 25.246311 23.184462 25.076172 22.941406 C 24.919921 22.722656 24.841797 22.467883 24.841797 22.179688 C 24.841797 22.065104 24.865449 21.903212 24.914062 21.691406 C 24.962676 21.476128 24.986328 21.317492 24.986328 21.216797 L 24.966797 21.085938 C 24.796657 21.256077 24.643229 21.578991 24.507812 22.054688 C 24.386285 22.481772 24.326172 22.843532 24.326172 23.138672 C 24.326172 23.61784 24.466796 24.021266 24.748047 24.347656 C 25.03277 24.674046 25.410589 24.835938 25.882812 24.835938 L 34.414062 24.847656 L 34.414062 24.835938 L 39.314453 24.835938 C 39.397787 24.74566 39.48112 24.440757 39.564453 23.919922 C 39.63737 23.465059 39.673828 23.129341 39.673828 22.914062 C 39.673828 22.3342 39.54362 21.688371 39.283203 20.976562 C 38.949869 20.094615 38.543622 19.654297 38.064453 19.654297 z M 37.357422 20.880859 C 37.459202 20.885037 37.587239 20.967882 37.742188 21.128906 C 37.881077 21.267796 37.990451 21.403645 38.070312 21.539062 C 37.882812 21.584202 37.721355 21.607422 37.585938 21.607422 C 37.370659 21.607422 37.212023 21.563368 37.111328 21.476562 L 36.830078 21.248047 C 37.000218 21.015411 37.161675 20.893232 37.314453 20.882812 C 37.327908 20.880208 37.342882 20.880263 37.357422 20.880859 z M 31.960938 22.179688 C 32.169271 22.179687 32.335937 22.273437 32.460938 22.460938 C 32.572049 22.627604 32.626953 22.820312 32.626953 23.039062 C 32.474175 23.212675 32.234593 23.300781 31.908203 23.300781 C 31.74848 23.300781 31.555339 23.24349 31.326172 23.128906 C 31.062282 23.000434 30.929687 22.867839 30.929688 22.732422 C 30.929688 22.624783 31.075519 22.502605 31.367188 22.367188 C 31.634549 22.242188 31.832465 22.179688 31.960938 22.179688 z " /><path
       id="text2"
       style="-inkscape-font-specification:'Almohanad long kaf Bold';stroke-width:2.3627"
       d="M 42.542969 39.152344 C 42.494113 39.152344 42.342635 39.275256 42.087891 39.519531 C 41.833147 39.763809 41.705078 39.907345 41.705078 39.949219 C 41.705078 39.984115 41.833147 40.105074 42.087891 40.314453 C 42.342637 40.523832 42.494115 40.628906 42.542969 40.628906 C 42.609272 40.628906 42.771063 40.528571 43.029297 40.326172 C 43.28753 40.123775 43.416016 39.99292 43.416016 39.933594 C 43.416016 39.909166 43.279588 39.773155 43.003906 39.525391 C 42.728224 39.277625 42.574375 39.152344 42.542969 39.152344 z M 27.074219 39.314453 C 26.948591 39.401694 26.773702 39.604317 26.546875 39.921875 C 26.309579 40.253392 26.189453 40.481378 26.189453 40.603516 C 26.189453 40.732633 26.232654 40.84328 26.316406 40.9375 C 26.428075 41.070107 26.49789 41.234267 26.529297 41.429688 C 26.560704 41.621618 26.588435 41.811559 26.609375 42 L 26.871094 44.345703 C 26.871094 44.56904 26.724771 44.681641 26.431641 44.681641 L 25.833984 44.681641 L 25.71875 44.681641 L 25.357422 44.681641 C 25.127105 44.681641 24.945107 44.658648 24.8125 44.613281 C 24.592652 44.52953 24.438387 44.339589 24.347656 44.042969 C 24.302289 43.784735 24.255885 43.528182 24.207031 43.273438 L 23.824219 41.210938 C 23.691613 40.519987 23.602007 40.137736 23.556641 40.064453 C 23.256531 40.601859 22.961516 41.081659 22.671875 41.503906 C 22.671875 41.556251 22.692082 41.635961 22.730469 41.744141 C 22.772342 41.852317 22.792969 41.936767 22.792969 41.996094 L 21.5625 42.707031 C 21.16468 42.933859 20.89029 43.118227 20.740234 43.257812 C 20.59018 43.397399 20.407764 43.74676 20.191406 44.308594 C 19.975048 44.866937 19.867188 45.254344 19.867188 45.470703 C 20.045159 45.470703 20.453192 45.527003 21.091797 45.638672 C 21.315134 45.687525 21.540751 45.73393 21.767578 45.779297 C 22.120033 45.85258 22.343279 45.890625 22.4375 45.890625 C 22.615472 45.890625 22.795101 45.710996 22.976562 45.351562 C 23.182452 44.960719 23.321249 44.747784 23.394531 44.712891 C 23.453853 44.943207 23.512939 45.17161 23.572266 45.398438 C 23.649038 45.660161 23.746169 45.852888 23.861328 45.978516 C 24.007893 46.13904 24.210933 46.21875 24.472656 46.21875 L 25.71875 46.21875 L 25.71875 46.230469 L 32.722656 46.21875 L 33.267578 44.173828 C 33.267578 43.877208 33.039175 43.502899 32.582031 43.052734 C 32.128377 42.60257 31.751282 42.376953 31.451172 42.376953 C 31.2732 42.376953 30.896104 42.487183 30.320312 42.707031 C 29.856189 42.891983 29.476724 43.056143 29.183594 43.199219 C 28.300713 43.635425 27.707896 43.968902 27.404297 44.199219 C 27.613676 43.504779 27.71875 43.058285 27.71875 42.859375 C 27.71875 42.61161 27.693385 42.319381 27.644531 41.984375 C 27.864379 41.984375 28.071741 41.83011 28.263672 41.519531 C 28.316017 41.43229 28.434189 41.178524 28.619141 40.759766 C 27.917722 40.428249 27.489066 40.132817 27.332031 39.871094 C 27.178485 39.60588 27.091665 39.419142 27.074219 39.314453 z M 21.708984 39.472656 C 21.663619 39.497084 21.524822 39.630308 21.291016 39.871094 C 21.078146 40.083962 20.942552 40.189453 20.886719 40.189453 C 20.792498 40.189453 20.589459 40.097061 20.275391 39.912109 C 19.964812 39.727158 19.764559 39.591148 19.673828 39.503906 C 19.262049 39.912195 18.936515 40.253614 18.699219 40.529297 C 18.782971 40.623517 18.993536 40.759528 19.332031 40.9375 C 19.649589 41.105005 19.890257 41.212865 20.050781 41.261719 C 20.295057 41.003485 20.526246 40.774666 20.746094 40.572266 C 21.562671 41.050348 22.009165 41.289062 22.085938 41.289062 C 22.138282 41.289062 22.302443 41.130058 22.578125 40.8125 C 22.790994 40.564735 22.947628 40.372424 23.048828 40.236328 L 21.708984 39.472656 z M 43.453125 40.445312 C 43.40078 40.46974 43.26714 40.592652 43.050781 40.8125 C 42.862343 41.01141 42.737061 41.111328 42.677734 41.111328 C 42.593983 41.111328 42.406412 41.026878 42.113281 40.859375 C 41.823641 40.688382 41.636486 40.560314 41.552734 40.476562 C 41.291011 40.6999 40.980528 41.017493 40.621094 41.425781 C 40.704846 41.520002 40.904682 41.646117 41.21875 41.806641 C 41.51886 41.960187 41.742107 42.057736 41.888672 42.099609 C 41.90263 42.075182 41.972029 42.003414 42.097656 41.884766 L 42.552734 41.466797 C 42.605079 41.501694 42.820801 41.619866 43.201172 41.822266 C 43.585031 42.024666 43.787654 42.126953 43.808594 42.126953 C 43.9412 42.126953 44.246527 41.801418 44.724609 41.152344 L 43.453125 40.445312 z M 22.964844 42.716797 C 23.149796 43.519416 23.239402 43.962707 23.232422 44.042969 C 22.590327 44.042969 22.080007 43.979143 21.703125 43.853516 C 21.75896 43.752316 21.86919 43.657137 22.033203 43.566406 C 22.249564 43.458227 22.375263 43.386875 22.410156 43.355469 C 22.445053 43.324061 22.542601 43.211045 22.703125 43.015625 C 22.86714 42.816715 22.954377 42.716797 22.964844 42.716797 z M 45.300781 42.796875 C 45.189112 42.863178 44.991229 43.070957 44.705078 43.419922 C 44.418926 43.768887 44.278176 43.986978 44.285156 44.074219 L 44.328125 44.681641 L 43.285156 44.681641 C 43.278176 44.671167 43.275391 44.643436 43.275391 44.601562 C 43.275391 44.357287 43.413771 43.815615 43.689453 42.974609 C 43.581274 42.974609 43.434951 43.079683 43.25 43.289062 C 43.058069 43.550786 42.868545 43.812495 42.683594 44.074219 C 42.620782 44.199846 42.579534 44.395359 42.558594 44.664062 C 42.422498 44.681509 42.181413 44.691406 41.835938 44.691406 C 41.385771 44.691406 41.136744 44.65573 41.087891 44.585938 C 41.374042 43.710036 41.515625 43.163207 41.515625 42.943359 C 41.515625 42.852629 41.499737 42.806641 41.464844 42.806641 C 41.182182 43.134667 40.86696 43.509393 40.521484 43.931641 C 40.521484 43.879296 40.526223 43.938382 40.533203 44.109375 C 40.540182 44.294326 40.486252 44.486221 40.371094 44.681641 L 39.050781 44.681641 L 38.925781 44.681641 L 38.255859 44.681641 C 37.837102 44.681641 37.45248 44.481804 37.103516 44.083984 C 37.030233 44.000233 36.770894 43.620768 36.324219 42.947266 C 35.992702 43.442796 35.726254 43.868248 35.527344 44.220703 C 36.089177 44.831391 36.371094 45.234684 36.371094 45.433594 C 36.371094 45.604586 36.258077 45.791324 36.03125 45.990234 C 35.696243 46.276386 35.468257 46.456431 35.349609 46.533203 C 34.909914 46.882168 34.542714 47.110571 34.246094 47.21875 C 33.858742 47.354847 33.563727 47.423828 33.361328 47.423828 C 33.068197 47.423828 32.760084 47.35206 32.435547 47.208984 C 32.11101 47.065909 31.931797 46.994141 31.900391 46.994141 C 31.938777 47.203519 32.380115 47.493379 33.224609 47.863281 C 34.034208 48.219226 34.582989 48.396484 34.869141 48.396484 C 35.322795 48.396484 35.795069 48.106209 36.287109 47.523438 C 36.691909 47.041866 36.994449 46.539072 37.193359 46.015625 C 37.294559 46.116828 37.517806 46.183857 37.863281 46.21875 L 38.925781 46.21875 L 39.056641 46.21875 L 39.998047 46.21875 C 40.081798 46.201302 40.171404 46.147372 40.265625 46.056641 C 40.276094 46.039193 40.343123 45.959482 40.46875 45.816406 C 40.545523 45.97344 40.596667 46.111821 40.621094 46.230469 L 42.365234 46.230469 C 42.518756 46.073435 42.59331 45.994141 42.589844 45.994141 C 42.631719 45.994141 42.690805 46.073435 42.767578 46.230469 L 44.783203 46.230469 C 44.783203 46.192083 44.89622 45.914905 45.123047 45.398438 C 45.241696 45.122755 45.300781 44.773811 45.300781 44.351562 L 45.300781 42.796875 z M 30.460938 43.666016 C 30.712192 43.666016 30.984214 43.774293 31.277344 43.994141 C 31.573964 44.213989 31.768644 44.444345 31.859375 44.681641 L 28.273438 44.701172 C 28.084994 44.701172 27.969608 44.698386 27.927734 44.691406 C 28.880408 44.007436 29.724622 43.666016 30.460938 43.666016 z " /></g></svg>
