<?xml version="1.0" encoding="UTF-8" standalone="no"?>
<!-- Created with Inkscape (http://www.inkscape.org/) -->

<svg
   width="64"
   height="64"
   viewBox="0 0 64 64"
   version="1.1"
   id="svg1"
   inkscape:version="1.4 (86a8ad7, 2024-10-11)"
   sodipodi:docname="17.svg"
   xml:space="preserve"
   xmlns:inkscape="http://www.inkscape.org/namespaces/inkscape"
   xmlns:sodipodi="http://sodipodi.sourceforge.net/DTD/sodipodi-0.dtd"
   xmlns="http://www.w3.org/2000/svg"
   xmlns:svg="http://www.w3.org/2000/svg"><sodipodi:namedview
     id="namedview1"
     pagecolor="#ffffff"
     bordercolor="#000000"
     borderopacity="0.25"
     inkscape:showpageshadow="2"
     inkscape:pageopacity="0.0"
     inkscape:pagecheckerboard="0"
     inkscape:deskcolor="#d1d1d1"
     inkscape:document-units="px"
     inkscape:zoom="2.8284271"
     inkscape:cx="82.024387"
     inkscape:cy="25.279068"
     inkscape:window-width="2560"
     inkscape:window-height="1387"
     inkscape:window-x="-8"
     inkscape:window-y="-8"
     inkscape:window-maximized="1"
     inkscape:current-layer="layer1" /><defs
     id="defs1" /><g
     inkscape:label="Layer 1"
     inkscape:groupmode="layer"
     id="layer1"><g
       id="layer1-9"
       inkscape:label="Calque 1"
       transform="matrix(0.09422171,0,0,0.09422171,-25.631958,-10.567368)"><g
         id="g11649"><g
           id="g10138"
           transform="matrix(1.0262023,0,0,1.0262023,232.38686,49.444838)"><circle
             id="path8784-4"
             style="fill:#ffffff;stroke:#000000;stroke-width:10.28441108;stroke-dasharray:none"
             transform="matrix(0.99557,0,0,0.99557,292.08,-174.21)"
             cx="77.85714"
             cy="568.79077"
             r="322.14285" /><circle
             id="path8784-6-8"
             style="fill:none;stroke:#ff0000;stroke-width:110.5"
             transform="matrix(0.8145,0,0,0.8145,306.18,-71.219)"
             cx="77.85714"
             cy="568.79077"
             r="322.14285" /></g></g></g><rect
       style="fill:#000000;stroke-width:8"
       id="rect1"
       width="34.648232"
       height="7.3362327"
       x="14.676117"
       y="28.331884"
       ry="3.6681163" /><path
       id="text1"
       style="-inkscape-font-specification:'Almohanad long kaf';stroke-width:2.48109"
       d="M 37.414062 17.601562 C 37.37934 17.625869 37.249133 17.740451 37.023438 17.945312 C 36.832464 18.136286 36.717881 18.232422 36.679688 18.232422 C 36.596354 18.232422 36.414063 18.151477 36.132812 17.988281 C 35.851561 17.825087 35.669271 17.700522 35.585938 17.617188 C 35.342881 17.842883 35.046008 18.149738 34.695312 18.535156 C 34.789062 18.628906 34.98459 18.753906 35.283203 18.910156 C 35.560982 19.05599 35.774089 19.14974 35.919922 19.191406 C 36.135201 18.972656 36.343533 18.769532 36.544922 18.582031 C 36.610895 18.627171 36.822048 18.742188 37.179688 18.929688 C 37.537331 19.117188 37.732425 19.210938 37.763672 19.210938 C 37.867839 19.210938 38.159938 18.898439 38.642578 18.273438 L 37.414062 17.601562 z M 30.861328 17.701172 C 30.788411 17.701172 30.57487 17.867837 30.220703 18.201172 C 29.866535 18.534506 29.689453 18.73763 29.689453 18.810547 C 29.689453 18.862631 29.866535 19.031684 30.220703 19.316406 C 30.57487 19.60113 30.788411 19.742188 30.861328 19.742188 C 30.955078 19.742188 31.181422 19.603951 31.539062 19.326172 C 31.900175 19.048393 32.080078 18.86849 32.080078 18.785156 C 32.080078 18.753906 31.886937 18.566408 31.498047 18.222656 C 31.109155 17.875433 30.896048 17.701172 30.861328 17.701172 z M 38.064453 19.654297 C 37.606118 19.654297 37.116538 19.938367 36.595703 20.507812 C 36.074868 21.077259 35.814453 21.590059 35.814453 22.044922 C 35.814453 22.329645 35.965493 22.566839 36.267578 22.757812 C 36.527995 22.921007 36.809244 23.003906 37.111328 23.003906 C 37.437718 23.003906 37.718966 22.936199 37.955078 22.800781 L 38.466797 22.294922 C 38.567489 22.378256 38.643226 22.534505 38.695312 22.763672 C 38.719619 22.878255 38.743271 23.058159 38.767578 23.304688 L 34.423828 23.304688 L 34.279297 23.304688 L 33.205078 23.304688 L 33.658203 22.544922 C 33.724176 22.430339 33.757812 22.258464 33.757812 22.029297 C 33.757813 21.727212 33.698134 21.443143 33.580078 21.175781 C 33.430772 20.838975 33.224827 20.669922 32.960938 20.669922 C 32.585936 20.669922 32.130427 20.852212 31.595703 21.216797 C 31.147785 21.539715 30.777996 21.878255 30.486328 22.232422 C 30.26758 22.499781 30.155384 22.638018 30.148438 22.648438 C 30.04427 22.80816 29.992188 22.969184 29.992188 23.128906 L 29.992188 23.304688 L 25.748047 23.304688 C 25.470268 23.304688 25.246311 23.184462 25.076172 22.941406 C 24.919921 22.722656 24.841797 22.467883 24.841797 22.179688 C 24.841797 22.065104 24.865449 21.903212 24.914062 21.691406 C 24.962676 21.476128 24.986328 21.317492 24.986328 21.216797 L 24.966797 21.085938 C 24.796657 21.256077 24.643229 21.578991 24.507812 22.054688 C 24.386285 22.481772 24.326172 22.843532 24.326172 23.138672 C 24.326172 23.61784 24.466796 24.021266 24.748047 24.347656 C 25.03277 24.674046 25.410589 24.835938 25.882812 24.835938 L 34.414062 24.847656 L 34.414062 24.835938 L 39.314453 24.835938 C 39.397787 24.74566 39.48112 24.440757 39.564453 23.919922 C 39.63737 23.465059 39.673828 23.129341 39.673828 22.914062 C 39.673828 22.3342 39.54362 21.688371 39.283203 20.976562 C 38.949869 20.094615 38.543622 19.654297 38.064453 19.654297 z M 37.357422 20.880859 C 37.459202 20.885037 37.587239 20.967882 37.742188 21.128906 C 37.881077 21.267796 37.990451 21.403645 38.070312 21.539062 C 37.882812 21.584202 37.721355 21.607422 37.585938 21.607422 C 37.370659 21.607422 37.212023 21.563368 37.111328 21.476562 L 36.830078 21.248047 C 37.000218 21.015411 37.161675 20.893232 37.314453 20.882812 C 37.327908 20.880208 37.342882 20.880263 37.357422 20.880859 z M 31.960938 22.179688 C 32.169271 22.179687 32.335937 22.273437 32.460938 22.460938 C 32.572049 22.627604 32.626953 22.820312 32.626953 23.039062 C 32.474175 23.212675 32.234593 23.300781 31.908203 23.300781 C 31.74848 23.300781 31.555339 23.24349 31.326172 23.128906 C 31.062282 23.000434 30.929687 22.867839 30.929688 22.732422 C 30.929688 22.624783 31.075519 22.502605 31.367188 22.367188 C 31.634549 22.242188 31.832465 22.179688 31.960938 22.179688 z " /><path
       id="text2"
       style="-inkscape-font-specification:'Almohanad long kaf Bold';stroke-width:2.3627"
       d="M 25.179688 39.152344 C 24.303785 40.202728 23.865234 40.910514 23.865234 41.273438 C 23.865234 41.472348 24.003615 41.667444 24.279297 41.859375 L 24.279297 44.445312 L 21.064453 44.445312 C 20.541006 44.445312 20.155552 44.373545 19.904297 44.230469 C 19.569291 44.042028 19.400391 43.708551 19.400391 43.230469 C 19.400391 42.811711 19.513407 42.303344 19.740234 41.703125 L 18.914062 42.701172 C 18.819842 42.830289 18.725079 43.10468 18.630859 43.523438 C 18.543618 43.907299 18.5 44.199944 18.5 44.402344 C 18.5 45.717941 19.346583 46.376953 21.039062 46.376953 L 24.550781 46.376953 C 24.714795 46.20596 24.922573 45.898263 25.173828 45.455078 C 25.459979 44.956058 25.603516 44.604326 25.603516 44.398438 L 25.603516 41.587891 L 25.990234 41.099609 C 25.655228 40.820437 25.442294 40.627711 25.351562 40.519531 C 25.156143 40.282235 25.058594 40.020526 25.058594 39.734375 C 25.058594 39.58432 25.099425 39.38964 25.179688 39.152344 z M 23.404297 39.576172 L 22.023438 40.398438 C 21.971093 40.440313 21.809719 40.634993 21.541016 40.980469 C 21.230437 41.381778 21.076172 41.633175 21.076172 41.734375 C 21.076172 41.807658 21.209812 41.944085 21.478516 42.146484 L 21.982422 42.503906 L 20.259766 43.183594 L 21.998047 43.183594 C 22.193468 43.183594 22.3632 43.086046 22.509766 42.890625 C 23.103006 42.115924 23.400391 41.651592 23.400391 41.498047 C 23.400391 41.417785 23.282635 41.286931 23.048828 41.105469 L 22.640625 40.8125 L 23.404297 39.576172 z M 40.302734 42.429688 C 39.964238 42.429688 39.594669 42.652935 39.193359 43.099609 C 38.903719 43.431126 38.652739 43.805851 38.443359 44.224609 C 38.610863 44.133878 38.779762 44.041486 38.947266 43.947266 C 39.093831 43.891432 39.309552 43.863281 39.595703 43.863281 C 39.72133 43.863281 40.011189 43.967939 40.464844 44.173828 C 40.921988 44.379717 41.196379 44.526457 41.287109 44.617188 C 41.025386 44.763753 40.620141 44.837891 40.072266 44.837891 L 37.527344 44.837891 L 37.392578 44.837891 L 36.931641 44.837891 C 36.795545 44.837891 36.613546 44.676516 36.386719 44.355469 C 36.191298 44.083276 36.062813 43.854873 36 43.669922 C 35.972087 43.477991 35.938777 43.288051 35.900391 43.099609 C 35.865494 42.907679 35.727113 42.8125 35.486328 42.8125 C 35.186218 42.8125 34.821805 42.933042 34.392578 43.173828 C 33.963351 43.414614 33.658025 43.660855 33.476562 43.912109 C 33.385832 44.090081 33.293439 44.267341 33.199219 44.445312 C 33.066612 44.707036 32.958751 44.837891 32.875 44.837891 L 31.759766 44.837891 L 31.582031 44.837891 L 30.962891 44.837891 C 30.544133 44.837891 30.161465 44.638054 29.8125 44.240234 C 29.739217 44.156483 29.479878 43.778971 29.033203 43.105469 C 28.701686 43.600999 28.435238 44.024498 28.236328 44.376953 C 28.798161 44.987641 29.080078 45.392887 29.080078 45.591797 C 29.080078 45.76279 28.965109 45.947574 28.738281 46.146484 C 28.403275 46.432636 28.177242 46.614634 28.058594 46.691406 C 27.618898 47.040372 27.251698 47.268774 26.955078 47.376953 C 26.567727 47.51305 26.272713 47.580078 26.070312 47.580078 C 25.777183 47.580078 25.467115 47.50831 25.142578 47.365234 C 24.818041 47.222159 24.640782 47.150391 24.609375 47.150391 C 24.647761 47.359769 25.089099 47.649629 25.933594 48.019531 C 26.743192 48.375476 27.290021 48.554688 27.576172 48.554688 C 28.029826 48.554688 28.504053 48.262459 28.996094 47.679688 C 29.400892 47.198116 29.701481 46.695322 29.900391 46.171875 C 30.001591 46.273078 30.224837 46.34206 30.570312 46.376953 L 31.582031 46.376953 L 31.763672 46.376953 L 32.230469 46.376953 C 32.450316 46.376953 32.617263 46.310341 32.732422 46.177734 C 32.798723 46.107942 32.862548 45.979873 32.921875 45.794922 C 32.974222 45.634398 33.025365 45.539219 33.074219 45.507812 L 35.757812 47.056641 C 35.855522 47.032213 35.947498 46.914041 36.03125 46.701172 C 36.114999 46.484814 36.186767 46.376953 36.246094 46.376953 L 37.392578 46.376953 L 37.392578 46.386719 L 39.767578 46.376953 C 40.029301 46.376953 40.437333 46.231047 40.992188 45.941406 C 41.550531 45.648276 41.973614 45.501953 42.259766 45.501953 C 42.80764 45.501953 43.572143 45.550311 44.552734 45.644531 C 44.978471 45.06176 45.294111 44.620422 45.5 44.320312 C 45.311559 44.320312 45.008602 44.254117 44.589844 44.125 C 44.0315 43.950517 43.585007 43.78357 43.25 43.623047 C 42.576498 43.277572 42.07649 43.013076 41.751953 42.828125 C 41.249444 42.562912 40.766858 42.429688 40.302734 42.429688 z M 34.710938 44.152344 C 34.899378 44.152344 34.994141 44.342284 34.994141 44.722656 C 34.994141 44.778492 34.991748 44.814585 34.988281 44.832031 C 34.949895 44.849477 34.859872 44.820913 34.716797 44.744141 C 34.38528 44.569658 34.144195 44.426122 33.994141 44.314453 C 34.119768 44.206274 34.358483 44.152344 34.710938 44.152344 z M 41.056641 46.757812 C 40.993827 46.757813 40.778523 46.942181 40.412109 47.308594 C 40.049186 47.675004 39.867187 47.887939 39.867188 47.947266 C 39.867187 48.013569 40.367611 48.31611 41.369141 48.853516 C 41.435444 48.853516 41.658691 48.640998 42.039062 48.21875 C 42.199586 48.002392 42.36096 47.789457 42.521484 47.580078 C 42.469139 47.580078 42.215373 47.444068 41.761719 47.171875 C 41.311556 46.896193 41.077581 46.757812 41.056641 46.757812 z " /></g></svg>
