<?xml version="1.0" encoding="UTF-8" standalone="no"?>
<!-- Created with Inkscape (http://www.inkscape.org/) -->

<svg
   width="64"
   height="64"
   viewBox="0 0 64 64"
   version="1.1"
   id="svg1"
   inkscape:version="1.4 (86a8ad7, 2024-10-11)"
   sodipodi:docname="18.svg"
   xml:space="preserve"
   xmlns:inkscape="http://www.inkscape.org/namespaces/inkscape"
   xmlns:sodipodi="http://sodipodi.sourceforge.net/DTD/sodipodi-0.dtd"
   xmlns="http://www.w3.org/2000/svg"
   xmlns:svg="http://www.w3.org/2000/svg"><sodipodi:namedview
     id="namedview1"
     pagecolor="#ffffff"
     bordercolor="#000000"
     borderopacity="0.25"
     inkscape:showpageshadow="2"
     inkscape:pageopacity="0.0"
     inkscape:pagecheckerboard="0"
     inkscape:deskcolor="#d1d1d1"
     inkscape:document-units="px"
     inkscape:zoom="5.6568542"
     inkscape:cx="60.45763"
     inkscape:cy="13.523417"
     inkscape:window-width="2560"
     inkscape:window-height="1387"
     inkscape:window-x="-8"
     inkscape:window-y="-8"
     inkscape:window-maximized="1"
     inkscape:current-layer="layer1" /><defs
     id="defs1" /><g
     inkscape:label="Layer 1"
     inkscape:groupmode="layer"
     id="layer1"><g
       id="layer1-9"
       inkscape:label="Calque 1"
       transform="matrix(0.09422171,0,0,0.09422171,-25.631958,-10.567368)"><g
         id="g11649"><g
           id="g10138"
           transform="matrix(1.0262023,0,0,1.0262023,232.38686,49.444838)"><circle
             id="path8784-4"
             style="fill:#ffffff;stroke:#000000;stroke-width:10.28441108;stroke-dasharray:none"
             transform="matrix(0.99557,0,0,0.99557,292.08,-174.21)"
             cx="77.85714"
             cy="568.79077"
             r="322.14285" /><circle
             id="path8784-6-8"
             style="fill:none;stroke:#ff0000;stroke-width:110.5"
             transform="matrix(0.8145,0,0,0.8145,306.18,-71.219)"
             cx="77.85714"
             cy="568.79077"
             r="322.14285" /></g></g></g><path
       id="text1"
       style="-inkscape-font-specification:'Almohanad long kaf';stroke-width:1.87569"
       d="M 36.09375 29.261719 C 36.0675 29.280094 35.9675 29.36661 35.796875 29.521484 C 35.652499 29.665859 35.565983 29.738281 35.537109 29.738281 C 35.474109 29.738281 35.337625 29.676109 35.125 29.552734 C 34.912376 29.42936 34.773937 29.336438 34.710938 29.273438 C 34.527188 29.444062 34.302234 29.675423 34.037109 29.966797 C 34.107984 30.037672 34.256673 30.131875 34.482422 30.25 C 34.692422 30.360249 34.852641 30.431391 34.962891 30.462891 C 35.125641 30.297516 35.283298 30.143702 35.435547 30.001953 C 35.485422 30.036078 35.645641 30.123876 35.916016 30.265625 C 36.186388 30.407375 36.333795 30.478516 36.357422 30.478516 C 36.436172 30.478516 36.65661 30.24203 37.021484 29.769531 L 36.09375 29.261719 z M 31.140625 29.335938 C 31.0855 29.335938 30.923999 29.462844 30.65625 29.714844 C 30.388501 29.966841 30.253906 30.120655 30.253906 30.175781 C 30.253906 30.215157 30.388501 30.341391 30.65625 30.556641 C 30.923998 30.77189 31.085498 30.878906 31.140625 30.878906 C 31.2115 30.878906 31.381969 30.774452 31.652344 30.564453 C 31.925342 30.354454 32.060547 30.21925 32.060547 30.15625 C 32.060547 30.132625 31.913139 29.990343 31.619141 29.730469 C 31.325138 29.467969 31.166872 29.335938 31.140625 29.335938 z M 36.585938 30.8125 C 36.239439 30.8125 35.868359 31.028486 35.474609 31.458984 C 35.080861 31.889483 34.884766 32.277219 34.884766 32.621094 C 34.884766 32.836343 34.998188 33.015782 35.226562 33.160156 C 35.423437 33.283531 35.63686 33.34375 35.865234 33.34375 C 36.111984 33.34375 36.323454 33.293781 36.501953 33.191406 L 36.888672 32.808594 C 36.964799 32.871594 37.023127 32.990813 37.0625 33.164062 C 37.080873 33.250688 37.098814 33.385892 37.117188 33.572266 L 33.832031 33.572266 L 33.722656 33.572266 L 32.912109 33.572266 L 33.253906 32.998047 C 33.30378 32.911422 33.328125 32.780672 33.328125 32.607422 C 33.328125 32.379048 33.284562 32.165015 33.195312 31.962891 C 33.082438 31.708266 32.926063 31.580078 32.726562 31.580078 C 32.443063 31.580078 32.099561 31.718516 31.695312 31.994141 C 31.356688 32.238265 31.075969 32.493969 30.855469 32.761719 C 30.690111 32.963845 30.604876 33.068299 30.599609 33.076172 C 30.520859 33.196921 30.482422 33.318703 30.482422 33.439453 L 30.482422 33.572266 L 27.273438 33.572266 C 27.063438 33.572266 26.89425 33.480624 26.765625 33.296875 C 26.6475 33.1315 26.587891 32.940531 26.587891 32.722656 C 26.587891 32.636032 26.605825 32.511687 26.642578 32.351562 C 26.679331 32.188813 26.697266 32.070265 26.697266 31.994141 L 26.681641 31.896484 C 26.553016 32.025109 26.438312 32.269282 26.335938 32.628906 C 26.244062 32.95178 26.197266 33.224141 26.197266 33.447266 C 26.197266 33.809514 26.304953 34.114579 26.517578 34.361328 C 26.732827 34.608077 27.018001 34.730469 27.375 34.730469 L 33.824219 34.738281 L 33.824219 34.730469 L 37.529297 34.730469 C 37.592297 34.662219 37.65575 34.430859 37.71875 34.037109 C 37.773877 33.693235 37.802734 33.440093 37.802734 33.277344 C 37.802734 32.83897 37.702734 32.350624 37.505859 31.8125 C 37.25386 31.145752 36.948187 30.8125 36.585938 30.8125 z M 36.050781 31.740234 C 36.127726 31.743393 36.224657 31.806 36.341797 31.927734 C 36.446798 32.032734 36.52947 32.135907 36.589844 32.238281 C 36.448094 32.272408 36.325031 32.289062 36.222656 32.289062 C 36.059907 32.289062 35.941359 32.257033 35.865234 32.191406 L 35.652344 32.017578 C 35.780968 31.841701 35.902078 31.750061 36.017578 31.742188 C 36.02775 31.740219 36.039789 31.739783 36.050781 31.740234 z M 31.970703 32.722656 C 32.128203 32.722656 32.253157 32.793797 32.347656 32.935547 C 32.431656 33.061546 32.474609 33.207672 32.474609 33.373047 C 32.359109 33.504297 32.17839 33.568359 31.931641 33.568359 C 31.810891 33.568359 31.663484 33.526078 31.490234 33.439453 C 31.290735 33.342328 31.191406 33.243 31.191406 33.140625 C 31.191406 33.05925 31.300985 32.967609 31.521484 32.865234 C 31.723609 32.770734 31.873578 32.722656 31.970703 32.722656 z " /><path
       sodipodi:type="star"
       style="fill:none;fill-opacity:1;stroke:#ff0000;stroke-width:3.94493255;stroke-dasharray:none;stroke-opacity:1"
       id="path1"
       inkscape:flatsided="false"
       sodipodi:sides="3"
       sodipodi:cx="-32.125"
       sodipodi:cy="-4.25"
       sodipodi:r1="18.390301"
       sodipodi:r2="9.1951504"
       sodipodi:arg1="1.5707963"
       sodipodi:arg2="2.6179939"
       inkscape:rounded="0"
       inkscape:randomized="0"
       d="M -32.125,14.140301 -40.088234,0.34757501 -48.051468,-13.44515 l 15.926468,0 15.926467,-10e-7 -7.963233,13.79272636 z"
       inkscape:transform-center-y="4.6924318"
       transform="matrix(1.0073296,0,0,1.0206321,64.360695,36.186599)"
       inkscape:transform-center-x="1.3917663e-06" /></g></svg>
