<?xml version="1.0" encoding="UTF-8" standalone="no"?>
<!-- Created with Inkscape (http://www.inkscape.org/) -->

<svg
   width="64"
   height="64"
   viewBox="0 0 64 64"
   version="1.1"
   id="svg1"
   inkscape:version="1.4 (86a8ad7, 2024-10-11)"
   sodipodi:docname="19.svg"
   xml:space="preserve"
   xmlns:inkscape="http://www.inkscape.org/namespaces/inkscape"
   xmlns:sodipodi="http://sodipodi.sourceforge.net/DTD/sodipodi-0.dtd"
   xmlns="http://www.w3.org/2000/svg"
   xmlns:svg="http://www.w3.org/2000/svg"><sodipodi:namedview
     id="namedview1"
     pagecolor="#ffffff"
     bordercolor="#000000"
     borderopacity="0.25"
     inkscape:showpageshadow="2"
     inkscape:pageopacity="0.0"
     inkscape:pagecheckerboard="0"
     inkscape:deskcolor="#d1d1d1"
     inkscape:document-units="px"
     inkscape:zoom="4"
     inkscape:cx="41"
     inkscape:cy="26.375"
     inkscape:window-width="2560"
     inkscape:window-height="1387"
     inkscape:window-x="-8"
     inkscape:window-y="-8"
     inkscape:window-maximized="1"
     inkscape:current-layer="layer1" /><defs
     id="defs1" /><g
     inkscape:label="Layer 1"
     inkscape:groupmode="layer"
     id="layer1"><g
       id="layer1-9"
       inkscape:label="Calque 1"
       transform="matrix(0.09422171,0,0,0.09422171,-25.631958,-10.567368)"><g
         id="g11649"><g
           id="g10138"
           transform="matrix(1.0262023,0,0,1.0262023,232.38686,49.444838)"><circle
             id="path8784-4"
             style="fill:#ffffff;stroke:#000000;stroke-width:10.28441108;stroke-dasharray:none"
             transform="matrix(0.99557,0,0,0.99557,292.08,-174.21)"
             cx="77.85714"
             cy="568.79077"
             r="322.14285" /><circle
             id="path8784-6-8"
             style="fill:#ff0000;stroke:#ff0000;stroke-width:110.5;fill-opacity:1"
             transform="matrix(0.8145,0,0,0.8145,306.18,-71.219)"
             cx="77.85714"
             cy="568.79077"
             r="322.14285" /></g></g></g><path
       sodipodi:type="star"
       style="fill:#ffffff;fill-opacity:1;stroke:none;stroke-width:3.94493;stroke-dasharray:none;stroke-opacity:1"
       id="path1"
       inkscape:flatsided="false"
       sodipodi:sides="3"
       sodipodi:cx="-32.125"
       sodipodi:cy="-4.25"
       sodipodi:r1="18.390301"
       sodipodi:r2="9.1951504"
       sodipodi:arg1="1.5707963"
       sodipodi:arg2="2.6179939"
       inkscape:rounded="0"
       inkscape:randomized="0"
       d="M -32.125,14.140301 -40.088234,0.34757501 -48.051468,-13.44515 l 15.926468,0 15.926467,-10e-7 -7.963233,13.79272636 z"
       inkscape:transform-center-y="-7.4662495"
       transform="matrix(0.81737418,-1.4157337,1.4344294,0.82816818,64.162918,-9.9908168)"
       inkscape:transform-center-x="-0.08594527" /><g
       id="g2"
       transform="matrix(1.0829701,0,0,1.0829701,-1.7977363,-3.7424887)"><g
         id="g4188"
         transform="matrix(-0.0078555,0,0,0.0078555,43.743561,29.287539)"><path
           sodipodi:nodetypes="sssssscssssc"
           id="path3776-4"
           d="m 550.4588,652.9979 c 32.1418,1.47 88.9492,12.3657 124.8069,54.458 46.8345,54.9779 71.5726,105.0471 4.0755,165.3059 -37.3921,33.3823 -118.3053,20.8318 -174.0909,-46.0782 -41.0257,-49.2068 -30.4459,-122.4301 0.4499,-158.0728 11.0921,-12.7963 33.6306,-16.1218 44.7586,-15.6129 z m 11.2463,51.976 c -6.2179,1.3893 -13.362,2.9157 -17.285,8.3397 -9.8099,13.5634 -17.5251,49.1392 3.9111,78.2829 28.3187,38.501 69.8427,54.2214 88.1239,37.239 28.859,-26.8088 9.4148,-82.3179 -23.2918,-110.7441 -11.4206,-9.9259 -32.8052,-17.2866 -51.4582,-13.1175 z"
           style="opacity:1;fill:#000000;fill-opacity:1;stroke:#000000;stroke-width:8.35453;stroke-miterlimit:4"
           inkscape:connector-curvature="0" /><path
           sodipodi:nodetypes="sssccsssccs"
           inkscape:connector-curvature="0"
           id="path3763"
           d="M 3111.0102,280.62312 C 3122.246,837.69087 2542.0069,1630.326 1637.9188,1631.4996 849.45299,1632.523 131.55701,1040.7524 125.69939,311.97394 124.9442,218.01129 87.182514,160.44398 62.771213,121.40424 l 274.859597,-3e-4 c -31.89879,51.73424 -53.99264,90.0145 -41.63713,183.34211 54.11831,408.78368 395.40253,895.31675 1039.47162,893.78325 739.1108,-1.7596 889.7576,-656.5452 923.7673,-922.62049 6.8206,-53.36009 -40.2861,-105.00484 -78.0729,-135.70034 l 1030.7483,1.94036 c -24.2824,12.7744 -102.2946,69.22386 -100.8978,138.47429 z"
           style="opacity:1;fill:#000000;fill-opacity:1;fill-rule:nonzero;stroke:#000000;stroke-width:7.97826;stroke-linecap:butt;stroke-linejoin:miter;stroke-miterlimit:4;stroke-dashoffset:44;stroke-opacity:1" /><path
           sodipodi:nodetypes="ssccs"
           inkscape:connector-curvature="0"
           id="path3770"
           d="m 2251.571,223.3365 c 20.7732,46.5792 829.3275,76.938 884.3721,-11.2309 13.3898,-21.4473 30.2441,-37.341 59.3841,-61.899 -990.8374,-2.1466 -997.566,-1.5859 -997.566,-1.5859 23.5759,25.1798 43.0852,50.6681 53.8098,74.7158 z"
           style="fill:#000000;fill-opacity:1;stroke:none" /><path
           sodipodi:nodetypes="ccccc"
           inkscape:connector-curvature="0"
           id="path3006"
           d="m 78.4291,143.9372 c 0,0 32.5218,45.1297 47.1005,161.7594 5.4313,29.633 168.4084,21.6977 168.7767,-3.3643 -5.6073,-138.4977 34.7646,-149.4236 34.7646,-149.4236 z"
           style="fill:#000000;fill-opacity:1;stroke:#000000;stroke-width:12;stroke-linecap:butt;stroke-linejoin:miter;stroke-miterlimit:4;stroke-dasharray:none;stroke-opacity:1" /><rect
           ry="57.78212"
           rx="78.500793"
           y="52.579727"
           x="6.0000315"
           height="117.14994"
           width="385.25339"
           id="rect3766"
           style="opacity:1;fill:#000000;fill-opacity:1;fill-rule:nonzero;stroke:#000000;stroke-width:12;stroke-linecap:butt;stroke-linejoin:miter;stroke-miterlimit:4;stroke-dasharray:none;stroke-dashoffset:44;stroke-opacity:1" /><path
           sodipodi:nodetypes="ccccc"
           inkscape:connector-curvature="0"
           id="path3768"
           d="m 469.0186,752.9471 c 5.6072,28.036 -176.066,139.4551 -186.159,127.1193 32.1479,71.0245 75.1138,124.7628 96.0474,145.3225 19.0643,17.1954 208.3273,-124.2647 194.87,-140.7125 C 534.9005,826.7353 501.1665,785.095 469.0186,752.9471 Z"
           style="fill:#000000;fill-opacity:1;stroke:#000000;stroke-width:12;stroke-linecap:butt;stroke-linejoin:miter;stroke-miterlimit:4;stroke-dasharray:none;stroke-opacity:1" /><rect
           rx="78.500793"
           ry="78.500793"
           y="6.0000138"
           x="2144.1213"
           height="157.00159"
           width="1110.2257"
           id="rect2993"
           style="fill:#000000;fill-opacity:1;fill-rule:nonzero;stroke:#000000;stroke-width:12;stroke-miterlimit:4;stroke-dasharray:none" /><path
           id="path3776"
           d="m 2139.6367,375.6944 c -47.383,-0.2649 -92.2829,40.8822 -117.375,90.1562 -32.7733,64.358 -14.3971,135.7321 42.4063,155.75 70.4706,24.8343 122.3879,0.7314 161.0937,-77.3125 28.4649,-57.3948 9.0636,-124.4736 -42.4062,-155.75 -14.4721,-8.7942 -29.2137,-12.7627 -43.7188,-12.8437 z m -3,63.125 c 6.3705,-0.094 12.7506,1.1243 18.75,4.0937 22.1503,10.963 26.551,39.2028 15.5313,78.4063 -12.9332,46.0108 -58.805,61.2404 -76.0313,50.75 -33.6424,-20.4876 -30.4537,-73.2816 -5.25,-108.5313 8.8007,-12.3085 27.8888,-24.4381 47,-24.7187 z"
           style="opacity:1;fill:#000000;fill-opacity:1;stroke:#000000;stroke-width:8.35453;stroke-miterlimit:4"
           inkscape:connector-curvature="0" /><path
           sodipodi:nodetypes="ccccc"
           inkscape:connector-curvature="0"
           id="path3774"
           d="m 2231.5308,432.739 c 1.5859,100.9725 570.4794,252.4633 810.7516,217.8366 -24.5822,91.9853 -77.7117,172.0761 -77.7117,172.0761 -264.0616,35.9483 -786.6339,-112.8671 -785.048,-209.3461 10.8374,-58.9446 26.1042,-119.243 52.0081,-180.5666 z"
           style="fill:#000000;fill-opacity:1;stroke:none;stroke-width:8;stroke-linecap:butt;stroke-linejoin:miter;stroke-miterlimit:4;stroke-dasharray:none;stroke-opacity:1" /></g><path
         style="fill:none;fill-opacity:1;stroke:#000000;stroke-width:1;stroke-dasharray:none;stroke-opacity:1"
         d="M 38.86587,37.400987 C 38.171641,29.637088 29.15245,29.951335 26.622349,35.350124"
         id="path2"
         sodipodi:nodetypes="cc" /></g></g></svg>
