<?xml version="1.0" encoding="UTF-8" standalone="no"?>
<!-- Created with Inkscape (http://www.inkscape.org/) -->

<svg
   width="64"
   height="64"
   viewBox="0 0 64 64"
   version="1.1"
   id="svg1"
   inkscape:version="1.4 (86a8ad7, 2024-10-11)"
   sodipodi:docname="29.svg"
   xml:space="preserve"
   xmlns:inkscape="http://www.inkscape.org/namespaces/inkscape"
   xmlns:sodipodi="http://sodipodi.sourceforge.net/DTD/sodipodi-0.dtd"
   xmlns="http://www.w3.org/2000/svg"
   xmlns:svg="http://www.w3.org/2000/svg"><sodipodi:namedview
     id="namedview1"
     pagecolor="#ffffff"
     bordercolor="#000000"
     borderopacity="0.25"
     inkscape:showpageshadow="2"
     inkscape:pageopacity="0.0"
     inkscape:pagecheckerboard="0"
     inkscape:deskcolor="#d1d1d1"
     inkscape:document-units="px"
     inkscape:zoom="5.6568542"
     inkscape:cx="22.450641"
     inkscape:cy="18.826718"
     inkscape:window-width="1920"
     inkscape:window-height="1027"
     inkscape:window-x="-8"
     inkscape:window-y="-8"
     inkscape:window-maximized="1"
     inkscape:current-layer="layer1" /><defs
     id="defs1" /><g
     inkscape:label="Layer 1"
     inkscape:groupmode="layer"
     id="layer1"><g
       id="g3283"
       transform="matrix(0.06761338,0,0,0.06761338,6.5128154,2.466207)"><g
         id="g6450"
         transform="translate(2208.1,382.57)"><path
           id="path6715-4-9"
           style="display:inline;opacity:1;fill:#000000;stroke:#000000;stroke-width:125.842;stroke-linecap:round;stroke-linejoin:round;stroke-dasharray:none;stroke-opacity:1"
           sodipodi:type="star"
           sodipodi:sides="3"
           inkscape:transform-center-x="3.4247237e-05"
           sodipodi:r1="482.38354"
           sodipodi:r2="241.19177"
           inkscape:transform-center-y="-112.51909"
           transform="matrix(-0.46631,0.80802,-0.80768,-0.46651,-1325.4,21.37)"
           sodipodi:arg2="1.5707963"
           sodipodi:arg1="0.52359878"
           inkscape:randomized="0"
           sodipodi:cy="391.72241"
           sodipodi:cx="406.08133"
           inkscape:rounded="-3.469447e-18"
           inkscape:flatsided="true"
           d="M 823.83773,632.91419 -11.675076,632.91418 406.08133,-90.661133 Z" /><path
           id="path6715-4-9-2"
           style="fill:none;stroke:#ffffff;stroke-width:107.2;stroke-linecap:round;stroke-linejoin:round"
           sodipodi:type="star"
           sodipodi:sides="3"
           inkscape:transform-center-x="3.4247237e-05"
           sodipodi:r1="482.38354"
           sodipodi:r2="241.19177"
           inkscape:transform-center-y="-112.51909"
           transform="matrix(-0.46631,0.80802,-0.80768,-0.46651,-1325.4,21.37)"
           sodipodi:arg2="1.5707963"
           sodipodi:arg1="0.52359878"
           inkscape:randomized="0"
           sodipodi:cy="391.72241"
           sodipodi:cx="406.08133"
           inkscape:rounded="-3.469447e-18"
           inkscape:flatsided="true"
           d="M 823.83773,632.91419 -11.675076,632.91418 406.08133,-90.661133 Z" /><path
           id="path6715-4-9-2-3"
           style="fill:#ffffff;stroke:#ff0000;stroke-width:75.041;stroke-linecap:round;stroke-linejoin:round"
           sodipodi:type="star"
           sodipodi:sides="3"
           inkscape:transform-center-x="3.4247237e-05"
           sodipodi:r1="482.38354"
           sodipodi:r2="241.19177"
           inkscape:transform-center-y="-112.51909"
           transform="matrix(-0.46631,0.80802,-0.80768,-0.46651,-1325.4,21.37)"
           sodipodi:arg2="1.5707963"
           sodipodi:arg1="0.52359878"
           inkscape:randomized="0"
           sodipodi:cy="391.72241"
           sodipodi:cx="406.08133"
           inkscape:rounded="-3.469447e-18"
           inkscape:flatsided="true"
           d="M 823.83773,632.91419 -11.675076,632.91418 406.08133,-90.661133 Z" /></g></g><path
       id="path718"
       style="fill:#000000;fill-rule:evenodd;stroke-width:0.32406pt"
       d="m 22.019504,35.623999 -1.512279,1.825535 v 1.18498 h -0.819871 v 1.847138 h 0.819871 v 5.404236 h -0.819871 v 1.846059 h 0.819871 v 2.042656 h 3.04832 v -2.042656 h 1.95516 v 2.042656 h 3.051562 v -2.042656 h 1.950838 v 2.042656 h 3.051562 v -2.042656 h 1.977845 v 2.042656 h 3.051561 v -2.042656 h 1.924913 v 2.042656 h 3.050482 v -2.042656 h 0.743178 v -1.846059 h -0.743178 v -5.404236 h 0.743178 v -1.847138 h -0.743178 v -1.18498 l -1.538203,-1.825535 -1.512279,1.825535 v 1.18498 h -1.924913 v -1.18498 l -1.539283,-1.825535 -1.512278,1.825535 v 1.18498 h -1.977845 v -1.18498 l -1.539283,-1.825535 -1.512279,1.825535 v 1.18498 h -1.950838 v -1.18498 l -1.539283,-1.825535 -1.512279,1.825535 v 1.18498 h -1.95516 v -1.18498 z m 1.536041,4.857653 h 1.95516 v 5.404236 h -1.95516 z m 5.006722,0 h 1.950838 v 5.404236 h -1.950838 z m 5.0024,0 h 1.977845 v 5.404236 h -1.977845 z m 5.029406,0 h 1.924913 v 5.404236 h -1.924913 z" /></g></svg>
