<?xml version="1.0" encoding="UTF-8" standalone="no"?>
<!-- Created with Inkscape (http://www.inkscape.org/) -->

<svg
   width="64"
   height="64"
   viewBox="0 0 64 64"
   version="1.1"
   id="svg1"
   inkscape:version="1.4 (86a8ad7, 2024-10-11)"
   sodipodi:docname="33.svg"
   xml:space="preserve"
   xmlns:inkscape="http://www.inkscape.org/namespaces/inkscape"
   xmlns:sodipodi="http://sodipodi.sourceforge.net/DTD/sodipodi-0.dtd"
   xmlns="http://www.w3.org/2000/svg"
   xmlns:svg="http://www.w3.org/2000/svg"><sodipodi:namedview
     id="namedview1"
     pagecolor="#ffffff"
     bordercolor="#000000"
     borderopacity="0.25"
     inkscape:showpageshadow="2"
     inkscape:pageopacity="0.0"
     inkscape:pagecheckerboard="0"
     inkscape:deskcolor="#d1d1d1"
     inkscape:document-units="px"
     inkscape:zoom="4"
     inkscape:cx="29"
     inkscape:cy="38.125"
     inkscape:window-width="1920"
     inkscape:window-height="1027"
     inkscape:window-x="-8"
     inkscape:window-y="-8"
     inkscape:window-maximized="1"
     inkscape:current-layer="layer1" /><defs
     id="defs1" /><g
     inkscape:label="Layer 1"
     inkscape:groupmode="layer"
     id="layer1"><g
       id="g3283"
       transform="matrix(0.06761338,0,0,0.06761338,6.5128154,2.466207)"><g
         id="g6450"
         transform="translate(2208.1,382.57)"><path
           id="path6715-4-9"
           style="display:inline;opacity:1;fill:#000000;stroke:#000000;stroke-width:125.842;stroke-linecap:round;stroke-linejoin:round;stroke-dasharray:none;stroke-opacity:1"
           sodipodi:type="star"
           sodipodi:sides="3"
           inkscape:transform-center-x="3.4247237e-05"
           sodipodi:r1="482.38354"
           sodipodi:r2="241.19177"
           inkscape:transform-center-y="-112.51909"
           transform="matrix(-0.46631,0.80802,-0.80768,-0.46651,-1325.4,21.37)"
           sodipodi:arg2="1.5707963"
           sodipodi:arg1="0.52359878"
           inkscape:randomized="0"
           sodipodi:cy="391.72241"
           sodipodi:cx="406.08133"
           inkscape:rounded="-3.469447e-18"
           inkscape:flatsided="true"
           d="M 823.83773,632.91419 -11.675076,632.91418 406.08133,-90.661133 Z" /><path
           id="path6715-4-9-2"
           style="fill:none;stroke:#ffffff;stroke-width:107.2;stroke-linecap:round;stroke-linejoin:round"
           sodipodi:type="star"
           sodipodi:sides="3"
           inkscape:transform-center-x="3.4247237e-05"
           sodipodi:r1="482.38354"
           sodipodi:r2="241.19177"
           inkscape:transform-center-y="-112.51909"
           transform="matrix(-0.46631,0.80802,-0.80768,-0.46651,-1325.4,21.37)"
           sodipodi:arg2="1.5707963"
           sodipodi:arg1="0.52359878"
           inkscape:randomized="0"
           sodipodi:cy="391.72241"
           sodipodi:cx="406.08133"
           inkscape:rounded="-3.469447e-18"
           inkscape:flatsided="true"
           d="M 823.83773,632.91419 -11.675076,632.91418 406.08133,-90.661133 Z" /><path
           id="path6715-4-9-2-3"
           style="fill:#ffffff;stroke:#ff0000;stroke-width:75.041;stroke-linecap:round;stroke-linejoin:round"
           sodipodi:type="star"
           sodipodi:sides="3"
           inkscape:transform-center-x="3.4247237e-05"
           sodipodi:r1="482.38354"
           sodipodi:r2="241.19177"
           inkscape:transform-center-y="-112.51909"
           transform="matrix(-0.46631,0.80802,-0.80768,-0.46651,-1325.4,21.37)"
           sodipodi:arg2="1.5707963"
           sodipodi:arg1="0.52359878"
           inkscape:randomized="0"
           sodipodi:cy="391.72241"
           sodipodi:cx="406.08133"
           inkscape:rounded="-3.469447e-18"
           inkscape:flatsided="true"
           d="M 823.83773,632.91419 -11.675076,632.91418 406.08133,-90.661133 Z" /></g></g><path
       id="path644"
       style="fill:#000000;fill-rule:evenodd;stroke:#000000;stroke-width:0.323367pt"
       d="m 33.419441,26.915327 c 1.907864,0 3.455771,1.547697 3.455771,3.45556 0,1.907865 -1.547907,3.455773 -3.455771,3.455773 -0.482895,0 -0.940956,-0.100226 -1.358098,-0.279157 -0.606852,0.672603 -1.477711,1.101679 -2.455357,1.101679 -0.243602,0 -0.481799,-0.0281 -0.710312,-0.07768 -0.473192,0.487206 -1.133998,0.791154 -1.865885,0.791154 -0.72003,0 -1.371033,-0.292091 -1.843149,-0.764206 -0.236057,-0.234981 -1.018629,-0.104455 -1.238519,0.480838 -0.04419,0.127191 0.01068,2.204191 -0.09495,2.222515 -0.105633,0.01725 -1.17047,0.140227 -1.253467,0.04968 -0.083,-0.09054 0.132487,-1.701996 0.255366,-2.406936 0.233902,-1.362452 1.362461,-3.080632 1.733255,-3.529033 0.369716,-0.449481 1.314992,-1.082353 1.905675,-1.206311 0.461337,-1.277298 1.676235,-2.195567 3.111983,-2.195567 0.396664,0 0.772788,0.08081 1.125257,0.207999 0.633799,-0.791171 1.596296,-1.306309 2.688198,-1.306309 z m 9.954475,10.459736 0.0021,1.717043 h -1.227782 c -0.256538,0.0043 -0.484942,0.296429 -0.480631,0.547577 l 0.0139,2.233462 c 0.0054,0.263004 0.216614,0.513092 0.46884,0.502313 l 2.330515,-0.0021 v 3.960192 h -1.049469 a 2.4138751,2.4138751 0 0 1 0.171578,0.8781 2.4138751,2.4138751 0 0 1 -2.413671,2.413883 2.4138751,2.4138751 0 0 1 -2.413882,-2.413883 2.4138751,2.4138751 0 0 1 0.166105,-0.8781 h -1.43494 a 2.4138751,2.4138751 0 0 1 0.171577,0.8781 2.4138751,2.4138751 0 0 1 -2.413883,2.413883 2.4138751,2.4138751 0 0 1 -2.413882,-2.413883 2.4138751,2.4138751 0 0 1 0.166106,-0.8781 h -1.434521 a 2.4138751,2.4138751 0 0 1 0.146946,0.534523 2.4138751,2.4138751 0 0 1 0.02463,0.343577 2.4138751,2.4138751 0 0 1 -2.413882,2.413883 2.4138751,2.4138751 0 0 1 -0.343577,-0.02463 2.4138751,2.4138751 0 0 1 -2.070305,-2.389251 2.4138751,2.4138751 0 0 1 0.003,-0.118526 2.4138751,2.4138751 0 0 1 0.163157,-0.759574 h -7.572803 v -2.140831 l 1.152205,10e-4 v -5.101603 h 1.466939 l 0.012,-0.905259 -0.416208,-0.452839 0.0023,-0.342736 h 1.45515 1.475572 l 0.0021,0.308209 -0.402103,0.439788 -0.02252,0.952837 h 6.466288 l 0.01073,-0.713499 c -0.0086,-0.371872 0.347121,-1.000374 0.716838,-0.984205 l 0.747996,-0.0031 0.716839,-0.01073 c 0.375105,-10e-4 0.755567,0.467779 0.746944,0.971154 l 0.01073,0.740417 h 4.734081 l 0.0023,-1.707359 z m -18.615484,9.233636 a 1.5086719,1.5086719 0 0 1 1.508834,1.508624 1.5086719,1.5086719 0 0 1 -1.508834,1.508624 1.5086719,1.5086719 0 0 1 -1.508624,-1.508624 1.5086719,1.5086719 0 0 1 1.508624,-1.508624 z m -3.565666,0 a 1.5086719,1.5086719 0 0 1 1.508834,1.508624 1.5086719,1.5086719 0 0 1 -1.508834,1.508624 1.5086719,1.5086719 0 0 1 -1.508625,-1.508624 1.5086719,1.5086719 0 0 1 1.508625,-1.508624 z" /></g></svg>
