<?xml version="1.0" encoding="UTF-8" standalone="no"?>
<!-- Created with Inkscape (http://www.inkscape.org/) -->

<svg
   width="64"
   height="93"
   viewBox="0 0 64 93"
   version="1.1"
   id="svg1"
   inkscape:version="1.4 (86a8ad7, 2024-10-11)"
   sodipodi:docname="34.svg"
   xml:space="preserve"
   xmlns:inkscape="http://www.inkscape.org/namespaces/inkscape"
   xmlns:sodipodi="http://sodipodi.sourceforge.net/DTD/sodipodi-0.dtd"
   xmlns="http://www.w3.org/2000/svg"
   xmlns:svg="http://www.w3.org/2000/svg"><sodipodi:namedview
     id="namedview1"
     pagecolor="#ffffff"
     bordercolor="#000000"
     borderopacity="0.25"
     inkscape:showpageshadow="2"
     inkscape:pageopacity="0.0"
     inkscape:pagecheckerboard="0"
     inkscape:deskcolor="#d1d1d1"
     inkscape:document-units="px"
     inkscape:zoom="7.9999999"
     inkscape:cx="30.25"
     inkscape:cy="44.5625"
     inkscape:window-width="2560"
     inkscape:window-height="1520"
     inkscape:window-x="-11"
     inkscape:window-y="-11"
     inkscape:window-maximized="1"
     inkscape:current-layer="layer1" /><defs
     id="defs1" /><g
     inkscape:label="Layer 1"
     inkscape:groupmode="layer"
     id="layer1"><g
       id="g3283"
       transform="matrix(0.06799344,0,0,0.06799344,6.36955,-1.3319952)"><g
         id="g6450"
         transform="translate(2208.1,382.57)"><path
           id="path6715-4-9"
           style="display:inline;opacity:1;fill:#000000;stroke:#000000;stroke-width:125.842;stroke-linecap:round;stroke-linejoin:round;stroke-dasharray:none;stroke-opacity:1"
           sodipodi:type="star"
           sodipodi:sides="3"
           inkscape:transform-center-x="3.4247237e-05"
           sodipodi:r1="482.38354"
           sodipodi:r2="241.19177"
           inkscape:transform-center-y="-112.51909"
           transform="matrix(-0.46631,0.80802,-0.80768,-0.46651,-1325.4,21.37)"
           sodipodi:arg2="1.5707963"
           sodipodi:arg1="0.52359878"
           inkscape:randomized="0"
           sodipodi:cy="391.72241"
           sodipodi:cx="406.08133"
           inkscape:rounded="-3.469447e-18"
           inkscape:flatsided="true"
           d="M 823.83773,632.91419 -11.675076,632.91418 406.08133,-90.661133 Z" /><path
           id="path6715-4-9-2"
           style="fill:none;stroke:#ffffff;stroke-width:107.2;stroke-linecap:round;stroke-linejoin:round"
           sodipodi:type="star"
           sodipodi:sides="3"
           inkscape:transform-center-x="3.4247237e-05"
           sodipodi:r1="482.38354"
           sodipodi:r2="241.19177"
           inkscape:transform-center-y="-112.51909"
           transform="matrix(-0.46631,0.80802,-0.80768,-0.46651,-1325.4,21.37)"
           sodipodi:arg2="1.5707963"
           sodipodi:arg1="0.52359878"
           inkscape:randomized="0"
           sodipodi:cy="391.72241"
           sodipodi:cx="406.08133"
           inkscape:rounded="-3.469447e-18"
           inkscape:flatsided="true"
           d="M 823.83773,632.91419 -11.675076,632.91418 406.08133,-90.661133 Z" /><path
           id="path6715-4-9-2-3"
           style="fill:#ffffff;stroke:#ff0000;stroke-width:75.041;stroke-linecap:round;stroke-linejoin:round"
           sodipodi:type="star"
           sodipodi:sides="3"
           inkscape:transform-center-x="3.4247237e-05"
           sodipodi:r1="482.38354"
           sodipodi:r2="241.19177"
           inkscape:transform-center-y="-112.51909"
           transform="matrix(-0.46631,0.80802,-0.80768,-0.46651,-1325.4,21.37)"
           sodipodi:arg2="1.5707963"
           sodipodi:arg1="0.52359878"
           inkscape:randomized="0"
           sodipodi:cy="391.72241"
           sodipodi:cx="406.08133"
           inkscape:rounded="-3.469447e-18"
           inkscape:flatsided="true"
           d="M 823.83773,632.91419 -11.675076,632.91418 406.08133,-90.661133 Z" /></g></g><rect
       style="fill:#ffffff;stroke:#000000;stroke-width:0.782655;stroke-dasharray:none;fill-opacity:1"
       id="rect1"
       width="15.521539"
       height="36.090191"
       x="24.239229"
       y="55.093697" /><path
       style="fill:#ff0000;fill-opacity:1;stroke:none;stroke-width:0.745858;stroke-dasharray:none"
       d="m 24.215732,60.613018 15.426486,3.955509 v 6.196965 L 24.236103,66.692161 Z"
       id="path1"
       sodipodi:nodetypes="ccccc" /><path
       style="fill:#ff0000;fill-opacity:1;stroke:none;stroke-width:0.745858;stroke-dasharray:none"
       d="m 24.215732,69.776614 15.426486,3.955509 v 6.196965 L 24.236103,75.855757 Z"
       id="path2"
       sodipodi:nodetypes="ccccc" /><path
       style="fill:#ff0000;fill-opacity:1;stroke:none;stroke-width:0.745858;stroke-dasharray:none"
       d="m 24.215732,78.874285 15.426486,3.955509 v 6.196965 L 24.236103,84.953428 Z"
       id="path3"
       sodipodi:nodetypes="ccccc" /><path
       id="path644"
       style="fill:#000000;fill-rule:evenodd;stroke:#000000;stroke-width:0.30185pt"
       d="m 33.324973,24.444189 c 1.780915,0 3.225824,1.444715 3.225824,3.225629 0,1.780918 -1.444911,3.22583 -3.225824,3.22583 -0.450765,0 -0.878349,-0.09354 -1.267734,-0.260581 -0.566472,0.627846 -1.379384,1.028372 -2.291977,1.028372 -0.227393,0 -0.449741,-0.02624 -0.663048,-0.07251 -0.441707,0.454787 -1.058543,0.738511 -1.74173,0.738511 -0.672122,0 -1.279807,-0.272656 -1.720509,-0.713358 -0.220349,-0.219346 -0.950849,-0.0975 -1.156108,0.448844 -0.04125,0.118726 0.01,2.057526 -0.08862,2.074631 -0.0986,0.01609 -1.092588,0.130897 -1.170062,0.04638 -0.07748,-0.08452 0.123679,-1.588746 0.238373,-2.24678 0.21834,-1.271796 1.271805,-2.875649 1.617927,-3.294212 0.345113,-0.419573 1.227494,-1.010335 1.778871,-1.126045 0.43064,-1.192307 1.5647,-2.049477 2.904915,-2.049477 0.370269,0 0.721367,0.07544 1.050382,0.19416 0.591627,-0.738528 1.490079,-1.219389 2.509328,-1.219389 z m 9.292109,9.763753 0.0019,1.602793 h -1.146087 c -0.239466,0.004 -0.452672,0.276704 -0.448651,0.511141 l 0.01298,2.084847 c 0.0051,0.245505 0.202201,0.478952 0.437643,0.46889 l 2.175445,-0.0019 v 3.696685 H 42.67066 a 2.2532573,2.2532573 0 0 1 0.160162,0.81967 2.2532573,2.2532573 0 0 1 -2.253065,2.253266 2.2532573,2.2532573 0 0 1 -2.253265,-2.253266 2.2532573,2.2532573 0 0 1 0.155053,-0.81967 h -1.339462 a 2.2532573,2.2532573 0 0 1 0.160163,0.81967 2.2532573,2.2532573 0 0 1 -2.253266,2.253266 2.2532573,2.2532573 0 0 1 -2.253265,-2.253266 2.2532573,2.2532573 0 0 1 0.155056,-0.81967 h -1.339073 a 2.2532573,2.2532573 0 0 1 0.137178,0.498955 2.2532573,2.2532573 0 0 1 0.02299,0.320715 2.2532573,2.2532573 0 0 1 -2.253264,2.253266 2.2532573,2.2532573 0 0 1 -0.320718,-0.02299 2.2532573,2.2532573 0 0 1 -1.932548,-2.230272 2.2532573,2.2532573 0 0 1 0.0028,-0.110626 2.2532573,2.2532573 0 0 1 0.152298,-0.709032 H 20.349597 V 40.57206 l 1.075538,9.34e-4 v -4.762146 h 1.369329 l 0.01119,-0.845024 -0.388515,-0.422707 0.0021,-0.319931 h 1.358325 1.377387 l 0.0019,0.287701 -0.375347,0.410524 -0.02102,0.889437 h 6.036023 l 0.01,-0.666024 c -0.0081,-0.347128 0.324024,-0.93381 0.669141,-0.918715 l 0.698222,-0.003 0.669142,-0.01 c 0.350146,-9.35e-4 0.705293,0.436652 0.697243,0.906533 l 0.01,0.69115 h 4.419077 l 0.0021,-1.593752 z M 25.24026,42.827177 a 1.4082858,1.4082858 0 0 1 1.408437,1.408241 1.4082858,1.4082858 0 0 1 -1.408437,1.408242 1.4082858,1.4082858 0 0 1 -1.40824,-1.408242 1.4082858,1.4082858 0 0 1 1.40824,-1.408241 z m -3.328409,0 a 1.4082858,1.4082858 0 0 1 1.408438,1.408241 1.4082858,1.4082858 0 0 1 -1.408438,1.408242 1.4082858,1.4082858 0 0 1 -1.408242,-1.408242 1.4082858,1.4082858 0 0 1 1.408242,-1.408241 z" /></g></svg>
