<?xml version="1.0" encoding="UTF-8" standalone="no"?>
<!-- Created with Inkscape (http://www.inkscape.org/) -->

<svg
   width="64"
   height="93"
   viewBox="0 0 64 93"
   version="1.1"
   id="svg1"
   inkscape:version="1.4 (86a8ad7, 2024-10-11)"
   sodipodi:docname="35.svg"
   xml:space="preserve"
   xmlns:inkscape="http://www.inkscape.org/namespaces/inkscape"
   xmlns:sodipodi="http://sodipodi.sourceforge.net/DTD/sodipodi-0.dtd"
   xmlns="http://www.w3.org/2000/svg"
   xmlns:svg="http://www.w3.org/2000/svg"><sodipodi:namedview
     id="namedview1"
     pagecolor="#ffffff"
     bordercolor="#000000"
     borderopacity="0.25"
     inkscape:showpageshadow="2"
     inkscape:pageopacity="0.0"
     inkscape:pagecheckerboard="0"
     inkscape:deskcolor="#d1d1d1"
     inkscape:document-units="px"
     inkscape:zoom="7.9999996"
     inkscape:cx="43.625002"
     inkscape:cy="53.687502"
     inkscape:window-width="2560"
     inkscape:window-height="1520"
     inkscape:window-x="-11"
     inkscape:window-y="-11"
     inkscape:window-maximized="1"
     inkscape:current-layer="layer1" /><defs
     id="defs1" /><g
     inkscape:label="Layer 1"
     inkscape:groupmode="layer"
     id="layer1"><g
       id="g1"
       transform="translate(1.6725163,0.48493569)"><g
         id="g3283"
         transform="matrix(0.06669156,0,0,0.06669156,5.1877835,-0.90108713)"><g
           id="g6450"
           transform="translate(2208.1,382.57)"><path
             id="path6715-4-9"
             style="display:inline;opacity:1;fill:#000000;stroke:#000000;stroke-width:125.842;stroke-linecap:round;stroke-linejoin:round;stroke-dasharray:none;stroke-opacity:1"
             sodipodi:type="star"
             sodipodi:sides="3"
             inkscape:transform-center-x="3.4247237e-05"
             sodipodi:r1="482.38354"
             sodipodi:r2="241.19177"
             inkscape:transform-center-y="-112.51909"
             transform="matrix(-0.46631,0.80802,-0.80768,-0.46651,-1325.4,21.37)"
             sodipodi:arg2="1.5707963"
             sodipodi:arg1="0.52359878"
             inkscape:randomized="0"
             sodipodi:cy="391.72241"
             sodipodi:cx="406.08133"
             inkscape:rounded="-3.469447e-18"
             inkscape:flatsided="true"
             d="M 823.83773,632.91419 -11.675076,632.91418 406.08133,-90.661133 Z" /><path
             id="path6715-4-9-2"
             style="fill:none;stroke:#ffffff;stroke-width:107.2;stroke-linecap:round;stroke-linejoin:round"
             sodipodi:type="star"
             sodipodi:sides="3"
             inkscape:transform-center-x="3.4247237e-05"
             sodipodi:r1="482.38354"
             sodipodi:r2="241.19177"
             inkscape:transform-center-y="-112.51909"
             transform="matrix(-0.46631,0.80802,-0.80768,-0.46651,-1325.4,21.37)"
             sodipodi:arg2="1.5707963"
             sodipodi:arg1="0.52359878"
             inkscape:randomized="0"
             sodipodi:cy="391.72241"
             sodipodi:cx="406.08133"
             inkscape:rounded="-3.469447e-18"
             inkscape:flatsided="true"
             d="M 823.83773,632.91419 -11.675076,632.91418 406.08133,-90.661133 Z" /><path
             id="path6715-4-9-2-3"
             style="fill:#ffffff;stroke:#ff0000;stroke-width:75.041;stroke-linecap:round;stroke-linejoin:round"
             sodipodi:type="star"
             sodipodi:sides="3"
             inkscape:transform-center-x="3.4247237e-05"
             sodipodi:r1="482.38354"
             sodipodi:r2="241.19177"
             inkscape:transform-center-y="-112.51909"
             transform="matrix(-0.46631,0.80802,-0.80768,-0.46651,-1325.4,21.37)"
             sodipodi:arg2="1.5707963"
             sodipodi:arg1="0.52359878"
             inkscape:randomized="0"
             sodipodi:cy="391.72241"
             sodipodi:cx="406.08133"
             inkscape:rounded="-3.469447e-18"
             inkscape:flatsided="true"
             d="M 823.83773,632.91419 -11.675076,632.91418 406.08133,-90.661133 Z" /></g></g><rect
         style="fill:#ffffff;fill-opacity:1;stroke:#000000;stroke-width:0.767668;stroke-dasharray:none"
         id="rect1"
         width="15.224346"
         height="35.399166"
         x="22.715309"
         y="54.444221" /><path
         style="fill:#ff0000;fill-opacity:1;stroke:none;stroke-width:0.731577;stroke-dasharray:none"
         d="m 22.692263,59.857859 15.131115,3.879772 v 6.078312 L 22.712244,65.820605 Z"
         id="path1"
         sodipodi:nodetypes="ccccc" /><path
         style="fill:#ff0000;fill-opacity:1;stroke:none;stroke-width:0.731577;stroke-dasharray:none"
         d="m 22.692263,68.845998 15.131115,3.879773 v 6.078311 L 22.712244,74.808745 Z"
         id="path2"
         sodipodi:nodetypes="ccccc" /><path
         id="path644"
         style="fill:#000000;fill-rule:evenodd;stroke:#000000;stroke-width:0.296071pt"
         d="m 31.627089,24.381559 c 1.746816,0 3.164059,1.417053 3.164059,3.163868 0,1.746818 -1.417244,3.164064 -3.164059,3.164064 -0.442134,0 -0.861531,-0.09176 -1.243461,-0.255593 -0.555626,0.615826 -1.352973,1.008683 -2.248092,1.008683 -0.223039,0 -0.441129,-0.02574 -0.650354,-0.07112 -0.433249,0.446078 -1.038274,0.72437 -1.708381,0.72437 -0.659251,0 -1.255301,-0.267435 -1.687565,-0.699699 -0.216129,-0.215145 -0.932643,-0.09563 -1.133972,0.440249 -0.04045,0.116454 0.0098,2.018132 -0.08693,2.034908 -0.09672,0.01579 -1.071668,0.128393 -1.147658,0.04548 -0.076,-0.08291 0.12131,-1.558325 0.233809,-2.203761 0.214159,-1.247444 1.247452,-2.820588 1.586948,-3.231137 0.338505,-0.411539 1.20399,-0.99099 1.744812,-1.104486 0.422392,-1.169476 1.53474,-2.010233 2.849292,-2.010233 0.363181,0 0.707556,0.07399 1.030273,0.190442 0.580298,-0.724387 1.461548,-1.19604 2.461281,-1.19604 z m 9.114191,9.576805 0.0019,1.572103 h -1.124141 c -0.234882,0.004 -0.444007,0.271406 -0.440062,0.501354 l 0.01273,2.04493 c 0.0049,0.240803 0.19833,0.469781 0.429263,0.459912 l 2.133792,-0.0019 v 3.625903 h -0.960883 a 2.2101141,2.2101141 0 0 1 0.157097,0.803977 2.2101141,2.2101141 0 0 1 -2.209926,2.210121 2.2101141,2.2101141 0 0 1 -2.210121,-2.210121 2.2101141,2.2101141 0 0 1 0.152084,-0.803977 h -1.313815 a 2.2101141,2.2101141 0 0 1 0.157095,0.803977 2.2101141,2.2101141 0 0 1 -2.210121,2.210121 2.2101141,2.2101141 0 0 1 -2.210123,-2.210121 2.2101141,2.2101141 0 0 1 0.152087,-0.803977 h -1.313473 a 2.2101141,2.2101141 0 0 1 0.134552,0.489401 2.2101141,2.2101141 0 0 1 0.02254,0.314576 2.2101141,2.2101141 0 0 1 -2.21012,2.210121 2.2101141,2.2101141 0 0 1 -0.314577,-0.02254 2.2101141,2.2101141 0 0 1 -1.895545,-2.187569 2.2101141,2.2101141 0 0 1 0.0027,-0.108508 2.2101141,2.2101141 0 0 1 0.149382,-0.695458 h -6.933501 v -1.96009 l 1.054944,9.15e-4 V 35.53055 h 1.343111 l 0.01098,-0.828844 -0.381076,-0.414614 0.002,-0.313805 h 1.332319 1.351013 l 0.0019,0.282193 -0.36816,0.402664 -0.02061,0.872406 h 5.92045 l 0.0098,-0.653271 c -0.0079,-0.340482 0.317819,-0.915931 0.656327,-0.901126 l 0.684856,-0.0029 0.656329,-0.0098 c 0.343442,-9.15e-4 0.691789,0.428294 0.683893,0.889177 l 0.0098,0.677918 h 4.334464 l 0.002,-1.563238 z m -17.044106,8.454201 a 1.3813212,1.3813212 0 0 1 1.381471,1.381277 1.3813212,1.3813212 0 0 1 -1.381471,1.381279 1.3813212,1.3813212 0 0 1 -1.381277,-1.381279 1.3813212,1.3813212 0 0 1 1.381277,-1.381277 z m -3.26468,0 a 1.3813212,1.3813212 0 0 1 1.38147,1.381277 1.3813212,1.3813212 0 0 1 -1.38147,1.381279 1.3813212,1.3813212 0 0 1 -1.381277,-1.381279 1.3813212,1.3813212 0 0 1 1.381277,-1.381277 z" /></g></g></svg>
