<?xml version="1.0" encoding="UTF-8" standalone="no"?>
<!-- Created with Inkscape (http://www.inkscape.org/) -->

<svg
   width="64"
   height="93"
   viewBox="0 0 64 93"
   version="1.1"
   id="svg1"
   inkscape:version="1.4 (86a8ad7, 2024-10-11)"
   sodipodi:docname="36.svg"
   xml:space="preserve"
   xmlns:inkscape="http://www.inkscape.org/namespaces/inkscape"
   xmlns:sodipodi="http://sodipodi.sourceforge.net/DTD/sodipodi-0.dtd"
   xmlns="http://www.w3.org/2000/svg"
   xmlns:svg="http://www.w3.org/2000/svg"><sodipodi:namedview
     id="namedview1"
     pagecolor="#ffffff"
     bordercolor="#000000"
     borderopacity="0.25"
     inkscape:showpageshadow="2"
     inkscape:pageopacity="0.0"
     inkscape:pagecheckerboard="0"
     inkscape:deskcolor="#d1d1d1"
     inkscape:document-units="px"
     inkscape:zoom="7.9999996"
     inkscape:cx="39.500002"
     inkscape:cy="44.187502"
     inkscape:window-width="2560"
     inkscape:window-height="1520"
     inkscape:window-x="-11"
     inkscape:window-y="-11"
     inkscape:window-maximized="1"
     inkscape:current-layer="layer1" /><defs
     id="defs1" /><g
     inkscape:label="Layer 1"
     inkscape:groupmode="layer"
     id="layer1"><g
       id="g1"
       transform="matrix(0.96921873,0,0,0.96921873,1.0404338,0.12042494)"><g
         id="g3283"
         transform="matrix(0.06794031,0,0,0.06794031,6.332384,0.0579173)"><g
           id="g6450"
           transform="translate(2208.1,382.57)"><path
             id="path6715-4-9"
             style="display:inline;opacity:1;fill:#000000;stroke:#000000;stroke-width:125.842;stroke-linecap:round;stroke-linejoin:round;stroke-dasharray:none;stroke-opacity:1"
             sodipodi:type="star"
             sodipodi:sides="3"
             inkscape:transform-center-x="3.4247237e-05"
             sodipodi:r1="482.38354"
             sodipodi:r2="241.19177"
             inkscape:transform-center-y="-112.51909"
             transform="matrix(-0.46631,0.80802,-0.80768,-0.46651,-1325.4,21.37)"
             sodipodi:arg2="1.5707963"
             sodipodi:arg1="0.52359878"
             inkscape:randomized="0"
             sodipodi:cy="391.72241"
             sodipodi:cx="406.08133"
             inkscape:rounded="-3.469447e-18"
             inkscape:flatsided="true"
             d="M 823.83773,632.91419 -11.675076,632.91418 406.08133,-90.661133 Z" /><path
             id="path6715-4-9-2"
             style="fill:none;stroke:#ffffff;stroke-width:107.2;stroke-linecap:round;stroke-linejoin:round"
             sodipodi:type="star"
             sodipodi:sides="3"
             inkscape:transform-center-x="3.4247237e-05"
             sodipodi:r1="482.38354"
             sodipodi:r2="241.19177"
             inkscape:transform-center-y="-112.51909"
             transform="matrix(-0.46631,0.80802,-0.80768,-0.46651,-1325.4,21.37)"
             sodipodi:arg2="1.5707963"
             sodipodi:arg1="0.52359878"
             inkscape:randomized="0"
             sodipodi:cy="391.72241"
             sodipodi:cx="406.08133"
             inkscape:rounded="-3.469447e-18"
             inkscape:flatsided="true"
             d="M 823.83773,632.91419 -11.675076,632.91418 406.08133,-90.661133 Z" /><path
             id="path6715-4-9-2-3"
             style="fill:#ffffff;stroke:#ff0000;stroke-width:75.041;stroke-linecap:round;stroke-linejoin:round"
             sodipodi:type="star"
             sodipodi:sides="3"
             inkscape:transform-center-x="3.4247237e-05"
             sodipodi:r1="482.38354"
             sodipodi:r2="241.19177"
             inkscape:transform-center-y="-112.51909"
             transform="matrix(-0.46631,0.80802,-0.80768,-0.46651,-1325.4,21.37)"
             sodipodi:arg2="1.5707963"
             sodipodi:arg1="0.52359878"
             inkscape:randomized="0"
             sodipodi:cy="391.72241"
             sodipodi:cx="406.08133"
             inkscape:rounded="-3.469447e-18"
             inkscape:flatsided="true"
             d="M 823.83773,632.91419 -11.675076,632.91418 406.08133,-90.661133 Z" /></g></g><rect
         style="fill:#ffffff;fill-opacity:1;stroke:#000000;stroke-width:0.782043;stroke-dasharray:none"
         id="rect1"
         width="15.50941"
         height="36.061989"
         x="24.188101"
         y="56.439522" /><path
         style="fill:#ff0000;fill-opacity:1;stroke:none;stroke-width:0.745275;stroke-dasharray:none"
         d="m 24.164621,61.954526 15.414432,3.952418 v 6.192123 L 24.184976,68.02892 Z"
         id="path1"
         sodipodi:nodetypes="ccccc" /><path
         id="path644"
         style="fill:#000000;fill-rule:evenodd;stroke:#000000;stroke-width:0.301614pt"
         d="m 33.266743,25.813961 c 1.779525,0 3.223304,1.443586 3.223304,3.223108 0,1.779526 -1.443781,3.223309 -3.223304,3.223309 C 32.816331,32.260378 32.389081,32.166908 32,32 c -0.566029,0.627356 -1.378306,1.027569 -2.290186,1.027569 -0.227215,0 -0.449389,-0.02622 -0.66253,-0.07246 -0.441362,0.454432 -1.057715,0.737934 -1.740369,0.737934 -0.671596,0 -1.278806,-0.272442 -1.719164,-0.7128 -0.220177,-0.219174 -0.950106,-0.09742 -1.155205,0.448493 -0.04121,0.118633 0.01,2.055919 -0.08855,2.07301 -0.09853,0.01608 -1.091734,0.130795 -1.169148,0.04634 -0.07742,-0.08445 0.123582,-1.587505 0.238187,-2.245025 0.218169,-1.270802 1.270811,-2.873401 1.616662,-3.291638 0.344844,-0.419245 1.226535,-1.009545 1.777482,-1.125165 0.430303,-1.191375 1.563477,-2.047875 2.902644,-2.047875 0.36998,0 0.720804,0.07538 1.049562,0.194009 0.591164,-0.737951 1.488915,-1.218436 2.507367,-1.218436 z m 9.284848,9.756123 0.0019,1.60154 H 41.4083 c -0.239279,0.004 -0.452319,0.276488 -0.448301,0.510741 l 0.01297,2.083218 c 0.0051,0.245314 0.202043,0.478579 0.437301,0.468525 l 2.173745,-0.0019 v 3.693796 h -0.978874 a 2.2514966,2.2514966 0 0 1 0.160037,0.81903 2.2514966,2.2514966 0 0 1 -2.251304,2.251505 2.2514966,2.2514966 0 0 1 -2.251505,-2.251505 2.2514966,2.2514966 0 0 1 0.154932,-0.81903 h -1.338415 a 2.2514966,2.2514966 0 0 1 0.160037,0.81903 2.2514966,2.2514966 0 0 1 -2.251505,2.251505 2.2514966,2.2514966 0 0 1 -2.251504,-2.251505 2.2514966,2.2514966 0 0 1 0.154934,-0.81903 h -1.338026 a 2.2514966,2.2514966 0 0 1 0.137071,0.498565 2.2514966,2.2514966 0 0 1 0.02297,0.320465 2.2514966,2.2514966 0 0 1 -2.251503,2.251505 2.2514966,2.2514966 0 0 1 -0.320467,-0.02297 2.2514966,2.2514966 0 0 1 -1.931038,-2.228529 2.2514966,2.2514966 0 0 1 0.0028,-0.110539 2.2514966,2.2514966 0 0 1 0.152179,-0.708479 H 20.301489 V 41.92923 l 1.074697,9.33e-4 v -4.758425 h 1.36826 l 0.01118,-0.844363 -0.388211,-0.422377 0.0021,-0.319681 h 1.357264 1.376311 l 0.0019,0.287476 -0.375054,0.410204 -0.021,0.888741 h 6.031307 l 0.01,-0.665503 c -0.008,-0.346857 0.32377,-0.93308 0.668617,-0.917998 l 0.697678,-0.003 0.668619,-0.01 c 0.349872,-9.33e-4 0.704741,0.436312 0.696698,0.905825 l 0.01,0.690611 h 4.415624 l 0.0021,-1.592507 z m -17.363243,8.612499 a 1.4071854,1.4071854 0 0 1 1.407337,1.407141 1.4071854,1.4071854 0 0 1 -1.407337,1.407142 1.4071854,1.4071854 0 0 1 -1.407139,-1.407142 1.4071854,1.4071854 0 0 1 1.407139,-1.407141 z m -3.325808,0 a 1.4071854,1.4071854 0 0 1 1.407337,1.407141 1.4071854,1.4071854 0 0 1 -1.407337,1.407142 1.4071854,1.4071854 0 0 1 -1.407141,-1.407142 1.4071854,1.4071854 0 0 1 1.407141,-1.407141 z" /></g></g></svg>
