<?xml version="1.0" encoding="UTF-8" standalone="no"?>
<!-- Created with Inkscape (http://www.inkscape.org/) -->

<svg
   width="64"
   height="64"
   viewBox="0 0 64 64"
   version="1.1"
   id="svg1"
   inkscape:version="1.4 (86a8ad7, 2024-10-11)"
   sodipodi:docname="40.svg"
   xml:space="preserve"
   xmlns:inkscape="http://www.inkscape.org/namespaces/inkscape"
   xmlns:sodipodi="http://sodipodi.sourceforge.net/DTD/sodipodi-0.dtd"
   xmlns="http://www.w3.org/2000/svg"
   xmlns:svg="http://www.w3.org/2000/svg"><sodipodi:namedview
     id="namedview1"
     pagecolor="#ffffff"
     bordercolor="#000000"
     borderopacity="0.25"
     inkscape:showpageshadow="2"
     inkscape:pageopacity="0.0"
     inkscape:pagecheckerboard="0"
     inkscape:deskcolor="#d1d1d1"
     inkscape:document-units="px"
     inkscape:zoom="2.8284271"
     inkscape:cx="39.59798"
     inkscape:cy="-14.318912"
     inkscape:window-width="1920"
     inkscape:window-height="1027"
     inkscape:window-x="-8"
     inkscape:window-y="-8"
     inkscape:window-maximized="1"
     inkscape:current-layer="layer1" /><defs
     id="defs1" /><g
     inkscape:label="Layer 1"
     inkscape:groupmode="layer"
     id="layer1"><path
       id="rect4"
       style="fill:#ffffff;fill-opacity:1;stroke:#000000;stroke-width:1.19844"
       d="M 25.408585,3.0171435 H 38.591416 V 52.902173 l -13.182831,7.64005 z"
       sodipodi:nodetypes="ccccc" /><path
       id="path1"
       style="fill:#ffffff;fill-opacity:1;stroke:#ff0000;stroke-width:0.850185;stroke-dasharray:none;stroke-opacity:1"
       d="m 21.136078,3.7887966 -3.339297,0.6476 1.12749,3.181548 8.652947,4.9964914 -8.672873,5.006455 -1.107564,3.214758 3.31937,0.616051 10.883019,-6.285051 10.88468,6.285051 3.31937,-0.616051 -1.107564,-3.214758 -8.672873,-5.006455 8.652948,-4.9964914 1.127489,-3.181548 -3.339297,-0.6476 -10.863093,6.2701064 z" /><path
       id="rect1"
       style="fill:#ffffff;fill-opacity:1;stroke:#ff0000;stroke-width:1.19844;stroke-dasharray:none;stroke-opacity:1"
       d="m 16.685962,14.358189 -4.707152,0.912873 1.589337,4.484784 12.197396,7.043171 -12.225484,7.057215 -1.561249,4.531598 4.679062,0.8684 15.340958,-8.859555 15.343299,8.859555 4.679062,-0.8684 -1.561249,-4.531598 -12.225484,-7.057215 12.197397,-7.043171 1.589336,-4.484784 -4.707151,-0.912873 -15.31287,8.838489 z" /><circle
       style="fill:#ffffff;stroke:#000000"
       id="circle1"
       cx="38.805824"
       cy="43.281223"
       r="6.3125" /><circle
       style="fill:#ffffff;stroke:#000000"
       id="circle2"
       cx="25.180826"
       cy="43.281223"
       r="6.3125" /></g></svg>
