<?xml version="1.0" encoding="UTF-8" standalone="no"?>
<!-- Created with Inkscape (http://www.inkscape.org/) -->

<svg
   width="64"
   height="64"
   viewBox="0 0 64 64"
   version="1.1"
   id="svg1"
   inkscape:version="1.4 (86a8ad7, 2024-10-11)"
   sodipodi:docname="42.svg"
   xml:space="preserve"
   xmlns:inkscape="http://www.inkscape.org/namespaces/inkscape"
   xmlns:sodipodi="http://sodipodi.sourceforge.net/DTD/sodipodi-0.dtd"
   xmlns="http://www.w3.org/2000/svg"
   xmlns:svg="http://www.w3.org/2000/svg"><sodipodi:namedview
     id="namedview1"
     pagecolor="#ffffff"
     bordercolor="#000000"
     borderopacity="0.25"
     inkscape:showpageshadow="2"
     inkscape:pageopacity="0.0"
     inkscape:pagecheckerboard="0"
     inkscape:deskcolor="#d1d1d1"
     inkscape:document-units="px"
     inkscape:zoom="1.4142136"
     inkscape:cx="24.748737"
     inkscape:cy="-20.85965"
     inkscape:window-width="1920"
     inkscape:window-height="1027"
     inkscape:window-x="-8"
     inkscape:window-y="-8"
     inkscape:window-maximized="1"
     inkscape:current-layer="layer1" /><defs
     id="defs1" /><g
     inkscape:label="Layer 1"
     inkscape:groupmode="layer"
     id="layer1"><g
       id="g3283"
       transform="matrix(0.06761338,0,0,0.06761338,6.5128154,2.466207)"><g
         id="g6450"
         transform="translate(2208.1,382.57)"><path
           id="path6715-4-9"
           style="display:inline;opacity:1;fill:#000000;stroke:#000000;stroke-width:125.842;stroke-linecap:round;stroke-linejoin:round;stroke-dasharray:none;stroke-opacity:1"
           sodipodi:type="star"
           sodipodi:sides="3"
           inkscape:transform-center-x="3.4247237e-05"
           sodipodi:r1="482.38354"
           sodipodi:r2="241.19177"
           inkscape:transform-center-y="-112.51909"
           transform="matrix(-0.46631,0.80802,-0.80768,-0.46651,-1325.4,21.37)"
           sodipodi:arg2="1.5707963"
           sodipodi:arg1="0.52359878"
           inkscape:randomized="0"
           sodipodi:cy="391.72241"
           sodipodi:cx="406.08133"
           inkscape:rounded="-3.469447e-18"
           inkscape:flatsided="true"
           d="M 823.83773,632.91419 -11.675076,632.91418 406.08133,-90.661133 Z" /><path
           id="path6715-4-9-2"
           style="fill:none;stroke:#ffffff;stroke-width:107.2;stroke-linecap:round;stroke-linejoin:round"
           sodipodi:type="star"
           sodipodi:sides="3"
           inkscape:transform-center-x="3.4247237e-05"
           sodipodi:r1="482.38354"
           sodipodi:r2="241.19177"
           inkscape:transform-center-y="-112.51909"
           transform="matrix(-0.46631,0.80802,-0.80768,-0.46651,-1325.4,21.37)"
           sodipodi:arg2="1.5707963"
           sodipodi:arg1="0.52359878"
           inkscape:randomized="0"
           sodipodi:cy="391.72241"
           sodipodi:cx="406.08133"
           inkscape:rounded="-3.469447e-18"
           inkscape:flatsided="true"
           d="M 823.83773,632.91419 -11.675076,632.91418 406.08133,-90.661133 Z" /><path
           id="path6715-4-9-2-3"
           style="fill:#ffffff;stroke:#ff0000;stroke-width:75.041;stroke-linecap:round;stroke-linejoin:round"
           sodipodi:type="star"
           sodipodi:sides="3"
           inkscape:transform-center-x="3.4247237e-05"
           sodipodi:r1="482.38354"
           sodipodi:r2="241.19177"
           inkscape:transform-center-y="-112.51909"
           transform="matrix(-0.46631,0.80802,-0.80768,-0.46651,-1325.4,21.37)"
           sodipodi:arg2="1.5707963"
           sodipodi:arg1="0.52359878"
           inkscape:randomized="0"
           sodipodi:cy="391.72241"
           sodipodi:cx="406.08133"
           inkscape:rounded="-3.469447e-18"
           inkscape:flatsided="true"
           d="M 823.83773,632.91419 -11.675076,632.91418 406.08133,-90.661133 Z" /></g></g><path
       d="m 43.441169,42.519354 c -0.01614,-0.08069 -0.01614,-0.16944 -0.0081,-0.250125 v -0.153302 c 0,0 0,-0.104891 0,-0.153302 -0.0081,-0.09682 0,-0.193644 0.01614,-0.290467 0.04841,-0.258192 0.08068,-0.500248 0.09682,-0.750372 0.01614,-0.177507 0.02421,-0.355015 0.03227,-0.532523 l 0.01614,-0.274329 0.04841,-0.379221 0.04841,-0.484111 c 0.0081,-0.03227 0.0081,-0.06455 0.0081,-0.08875 0,-0.03227 0,-0.06455 -0.0081,-0.08875 l -0.04841,-0.467973 c 0.04841,0.217849 0.09682,0.435699 0.121027,0.65355 l 0.121029,0.790715 0.0081,0.104891 0.02421,0.225918 0.01614,0.169439 v 0.258193 l -0.0081,0.225918 0.02421,0.38729 0.02421,0.48411 0.02421,0.363084 -0.0081,0.613208 -0.01614,0.21785 -0.01614,0.193645 -0.04034,0.242055 c 0,0.04841 0.0081,0.104891 0.0081,0.153302 0,0.06455 -0.0081,0.137165 -0.0081,0.209781 v 0.02421 c 0,0.04841 0.0081,0.09682 0.01614,0.137164 0.03227,0.08875 0.04841,0.177508 0.05648,0.27433 0.01614,0.09682 0.02421,0.193644 0.04841,0.290467 0.02421,0.09682 0.04034,0.193644 0.04034,0.298535 l 0.0081,0.201713 c 0,0.04034 0.02421,0.08069 0.05648,0.09682 0.04841,0.03227 0.11296,0.05648 0.177508,0.05648 0.0081,0 0.01614,0.0081 0.02421,0.0081 0.04841,0 0.08875,-0.01614 0.129096,-0.03227 0.08069,-0.0242 0.121028,-0.09682 0.121028,-0.177507 v -0.403426 c 0,-0.177508 -0.01614,-0.355015 -0.04841,-0.532522 -0.02421,-0.145234 -0.02421,-0.298535 -0.0081,-0.451838 0.0081,-0.04034 0.01614,-0.08875 0.03227,-0.137165 0.0081,-0.04841 0.0081,-0.09682 0.0081,-0.153301 0,-0.04034 -0.0081,-0.08069 -0.03227,-0.104891 -0.04841,-0.06455 -0.08069,-0.121028 -0.104891,-0.193645 -0.04034,-0.08875 -0.07262,-0.177507 -0.09682,-0.274329 -0.02421,-0.07262 -0.04034,-0.153303 -0.03227,-0.233987 0.0081,-0.129096 0.0081,-0.258193 0.0081,-0.38729 v -0.0081 c 0,-0.16944 0.01614,-0.338878 0.04034,-0.508317 0.02421,-0.145234 0.04034,-0.298535 0.04034,-0.451838 v -1.016633 l 0.01614,-1.290964 -0.01614,-0.572865 c -0.0081,-0.09682 -0.0081,-0.193644 -0.01614,-0.290466 -0.0081,-0.314672 -0.06455,-0.613208 -0.169439,-0.903675 -0.104892,-0.282398 -0.250125,-0.532522 -0.451838,-0.75844 -0.185575,-0.201714 -0.387289,-0.38729 -0.613207,-0.548661 -0.145234,-0.104891 -0.298535,-0.193644 -0.459906,-0.258192 -0.233987,-0.09682 -0.484111,-0.185576 -0.734236,-0.250124 -0.169439,-0.04841 -0.338877,-0.07262 -0.516385,-0.08068 -0.121027,-0.0081 -0.27433,-0.0081 -0.419563,-0.01614 h -0.16944 c -0.242054,0 -0.476042,0.01614 -0.710029,0.05648 -0.112959,0.02421 -0.217849,0.04034 -0.330809,0.05648 -0.161371,0.02421 -0.314672,0.04034 -0.467975,0.05648 -0.37922,0.04034 -0.766509,0.07262 -1.153798,0.09682 -0.677756,0.03227 -1.42006,0.09682 -2.170432,0.169438 -0.314673,0.04034 -0.572866,0.06455 -0.831059,0.08069 -0.06455,0.0081 -0.177507,0.01614 -0.282398,0.02421 -0.121028,0.0081 -0.209782,0.0081 -0.298535,-0.0081 -0.07262,-0.0081 -0.145233,-0.01614 -0.225919,-0.02421 -0.274329,-0.04034 -0.540591,-0.05648 -0.806852,-0.05648 -0.71003,0 -1.428128,-0.04841 -2.138158,-0.153301 -0.782646,-0.11296 -1.549156,-0.177508 -2.331802,-0.177508 h -0.07262 c -0.201713,0 -0.403426,0 -0.597071,0.01614 -0.209781,0.01614 -0.435699,0.04034 -0.661618,0.06455 -0.201713,0.02421 -0.419563,0.04034 -0.645482,0.05648 -0.282399,0.02421 -0.54059,0.03227 -0.798784,0.02421 -0.185575,-0.0081 -0.371151,-0.02421 -0.564796,-0.04034 -0.209782,-0.01614 -0.419564,-0.05648 -0.629344,-0.112959 -0.250125,-0.06455 -0.50025,-0.145234 -0.742304,-0.250125 -0.09682,-0.03227 -0.185577,-0.08069 -0.27433,-0.129096 l -0.145234,-0.08875 0.06455,-0.153301 c 0.0242,-0.02421 0.03227,-0.05648 0.03227,-0.09682 v -0.02421 c -0.01614,-0.06455 -0.04841,-0.112959 -0.11296,-0.137166 -0.07262,-0.02421 -0.153302,-0.05648 -0.242056,-0.08069 -0.05648,-0.0242 -0.121027,-0.04841 -0.177507,-0.07262 -0.08069,-0.04034 -0.169439,-0.07262 -0.258192,-0.08875 -0.08875,-0.01614 -0.16944,-0.06455 -0.225919,-0.137165 L 22.729288,33.72467 c -0.01614,-0.01614 -0.03227,-0.0242 -0.04841,-0.03227 h -0.02421 c -0.02421,0 -0.04034,0.01614 -0.05648,0.04034 -0.0081,0.0242 -0.0081,0.04841 -0.0081,0.07262 0,0.02421 0,0.04841 0.0081,0.06455 l 0.04034,0.09682 0.08069,0.21785 0.09682,0.258193 h -0.0081 c -0.137165,0.0081 -0.258193,0.04034 -0.371152,0.09682 -0.05648,0.03227 -0.145233,0.08069 -0.225919,0.129097 -0.112959,0.05648 -0.177507,0.112959 -0.233986,0.185576 -0.02421,0.02421 -0.04841,0.04841 -0.08069,0.06455 -0.04034,0.02421 -0.08875,0.03227 -0.137165,0.01614 -0.07262,-0.01614 -0.145233,-0.06455 -0.193644,-0.129097 l -0.355015,-0.459906 c -0.02421,-0.02421 -0.04841,-0.04034 -0.08069,-0.04034 -0.0081,-0.0081 -0.01614,-0.0081 -0.01614,-0.0081 -0.03227,0 -0.05648,0.01614 -0.07262,0.04034 -0.01614,0.03227 -0.02421,0.06455 -0.02421,0.09682 0,0.01614 0,0.04034 0.0081,0.06455 l 0.05648,0.129097 0.104891,0.258192 0.08069,0.161371 0.08875,0.121027 0.06455,0.09682 0.137165,0.233987 c 0.0081,0.01614 0.01614,0.03227 0.01614,0.04841 0,0.02421 -0.0081,0.04034 -0.0242,0.05648 -0.05648,0.07262 -0.121028,0.145233 -0.193645,0.21785 -0.05648,0.05648 -0.129096,0.09682 -0.201712,0.112959 -0.08875,0.02421 -0.161371,0.09682 -0.185577,0.185577 -0.02421,0.08069 -0.04841,0.169438 -0.05648,0.250123 -0.01614,0.137165 -0.08068,0.258193 -0.169438,0.355016 -0.07262,0.06455 -0.129097,0.137164 -0.177508,0.21785 -0.08069,0.121027 -0.16137,0.242056 -0.258193,0.355014 -0.07262,0.08875 -0.129096,0.193645 -0.177507,0.290467 -0.04841,0.121028 -0.11296,0.233987 -0.201714,0.322742 l -0.508316,0.548658 c -0.0081,0.04034 -0.01614,0.08069 -0.01614,0.121029 0,0.03227 0,0.05648 0.0081,0.08069 0.01614,0.112958 0.04841,0.225918 0.08068,0.330809 0.03227,0.08875 0.08068,0.16137 0.137164,0.233987 0.05648,0.06455 0.11296,0.129097 0.185576,0.185577 0.07262,0.05648 0.16137,0.10489 0.250124,0.137163 0.04034,0.0081 0.08069,0.01614 0.121029,0.01614 0.06455,0 0.129096,-0.01614 0.185576,-0.04841 0.05648,-0.03227 0.112959,-0.04841 0.177507,-0.06455 0.08875,-0.02421 0.185576,-0.02421 0.282398,-0.0081 0.137165,0.02421 0.258194,0.04841 0.371153,0.07262 -0.04034,-0.0081 0.02421,-0.0081 0.08875,-0.0081 0.06455,0 0.137165,-0.0081 0.209782,-0.01614 0.121027,-0.03227 0.242055,-0.05648 0.355015,-0.07262 0.06455,-0.01614 0.169439,-0.04841 0.266261,-0.08875 0.07262,-0.03227 0.153302,-0.03227 0.233987,-0.0081 0.08875,0.03227 0.177508,0.07262 0.266261,0.121028 0.201713,0.112958 0.419563,0.185575 0.645482,0.225918 0.08069,0.01614 0.161371,0.03227 0.233987,0.04841 0.104891,0.01614 0.233987,0.03227 0.355015,0.03227 0.08875,0.0081 0.177508,0.02421 0.266261,0.06455 0.161371,0.08069 0.306605,0.201714 0.411494,0.355015 0.137166,0.201713 0.258194,0.411495 0.363084,0.637414 0.08068,0.169438 0.177508,0.346946 0.274331,0.516384 0.07262,0.121029 0.137163,0.266262 0.193644,0.411495 0.08068,0.201713 0.16137,0.37922 0.250124,0.564797 0.05648,0.129096 0.112959,0.258193 0.161371,0.395357 0.01614,0.04034 0.04034,0.08068 0.06455,0.112959 0.225918,0.306605 0.532522,0.532524 0.887537,0.645482 l 0.21785,0.07262 -0.225918,0.201713 -0.459906,0.411495 -0.242056,0.233987 -0.193644,0.209781 c -0.05648,0.08875 -0.11296,0.185577 -0.185577,0.274331 -0.05648,0.08875 -0.10489,0.16137 -0.137164,0.242055 -0.03227,0.07262 -0.04841,0.145233 -0.04841,0.225918 0,0.03227 0.0081,0.06455 0.0081,0.09682 0.02421,0.121028 0.07262,0.233987 0.129096,0.338878 l 0.121028,0.201713 0.145234,0.193645 0.4357,0.411495 0.193645,0.193643 0.177507,0.185577 0.09682,0.121027 0.290467,0.363083 0.508317,0.540592 0.266261,0.250123 0.209782,0.161372 0.169438,0.112959 0.121029,0.05648 0.06455,0.0081 c 0.07262,0.185576 0.193645,0.355015 0.338878,0.484111 0.05648,0.05648 0.129097,0.09682 0.209782,0.11296 0.07262,0.01614 0.137165,0.03227 0.209781,0.04841 h 0.04841 c 0.03227,0 0.05648,0 0.08875,-0.0081 l 0.04841,-0.01614 -0.379221,-1.299032 c -0.01614,-0.04841 -0.04841,-0.08875 -0.104891,-0.09682 l -0.346947,-0.08068 c -0.03227,-0.01614 -0.04841,-0.04841 -0.04034,-0.07262 l 0.07262,-0.21785 c 0.0081,-0.01614 0.01614,-0.04841 0.01614,-0.07262 0,-0.07262 -0.04034,-0.137166 -0.104891,-0.16944 -0.05648,-0.03227 -0.121027,-0.05648 -0.185575,-0.08068 -0.08875,-0.01614 -0.16944,-0.06455 -0.242056,-0.112959 -0.09682,-0.07262 -0.193645,-0.145234 -0.290467,-0.225919 -0.129097,-0.10489 -0.242056,-0.242056 -0.322741,-0.387289 -0.07262,-0.137165 -0.145233,-0.27433 -0.225918,-0.403426 -0.07262,-0.129096 -0.104892,-0.242056 -0.121029,-0.363083 -0.01614,-0.129097 0.01614,-0.258194 0.09682,-0.371153 0.08068,-0.112958 0.193645,-0.209781 0.314672,-0.266261 0.153302,-0.07262 0.306604,-0.145233 0.459906,-0.217849 0.137165,-0.06455 0.27433,-0.129097 0.419564,-0.185577 0.137164,-0.04841 0.258192,-0.121028 0.37922,-0.201713 0.08068,-0.06455 0.16137,-0.112959 0.250124,-0.16137 0.177507,-0.112959 0.314672,-0.258193 0.419563,-0.443769 l 0.04841,-0.08875 0.201713,0.411495 0.08068,0.177507 0.06455,0.137165 0.129096,0.185576 0.161371,0.233988 0.242055,0.346946 0.201714,0.322741 0.217849,0.355015 0.104891,0.169438 0.306604,0.540592 0.121028,0.233986 0.153302,0.306604 0.08068,0.185577 0.05648,0.169439 c 0.04034,0.08875 0.06455,0.177507 0.08069,0.274329 0.0081,0.07262 0.0242,0.145233 0.04034,0.225919 0,0.03227 0.0081,0.06455 0.0081,0.09682 0,0.112959 -0.04034,0.217849 -0.121028,0.298534 l -0.258192,0.290467 -0.04034,0.06455 c -0.250125,0.06455 -0.4357,0.274329 -0.476043,0.532522 l -0.0081,0.05648 h 1.379718 c 0.112959,-0.121026 0.177507,-0.274329 0.177507,-0.435699 0,-0.09682 -0.02421,-0.193645 -0.06455,-0.282399 l -0.04034,-0.07262 c -0.0081,-0.03227 0.0081,-0.05648 0.03227,-0.05648 h 0.161371 c 0.10489,-0.01614 0.169439,-0.104892 0.169439,-0.201713 0,-0.01614 0,-0.02421 -0.0081,-0.04034 l -0.06455,-0.322741 -0.112959,-0.395358 -0.129096,-0.476042 -0.129096,-0.443769 -0.08069,-0.32274 -0.07262,-0.298536 -0.04841,-0.193644 -0.04841,-0.193645 -0.03227,-0.177508 -0.04034,-0.185576 -0.03227,-0.137164 -0.08875,-0.338879 C 31.677293,44.552511 31.620812,44.39114 31.58047,44.237839 31.51592,44.003851 31.427168,43.769864 31.314209,43.560082 l -0.07262,-0.137164 0.629344,-0.01614 h 0.137165 c 0.177508,0 0.371152,0 0.556728,-0.01614 0.298536,-0.01614 0.613208,0.0081 0.919812,0.08069 0.435699,0.08875 0.8714,0.137165 1.315169,0.145233 0.04841,0.0081 0.08875,0.0081 0.137165,0.0081 0.48411,0 0.960153,-0.04841 1.428128,-0.145233 0.33081,-0.06455 0.572865,-0.112959 0.81492,-0.16137 l 0.04841,-0.0081 c 0.177508,0.145233 0.371264,0.274329 0.580933,0.371151 l 0.02421,0.01614 -0.112959,0.637413 c 0.0081,0.129097 0.112959,0.233988 0.242055,0.233988 0.104891,0 0.201714,-0.05648 0.233988,-0.153302 l 0.201712,-0.532523 0.298535,0.06455 -0.07262,0.524454 v 0.04841 c 0,0.04841 0.0081,0.09682 0.03227,0.137164 0.04034,0.06455 0.09682,0.09682 0.169439,0.104891 h 0.03227 c 0.04841,0 0.09682,-0.0081 0.145234,-0.01614 0.06455,-0.01614 0.121027,-0.06455 0.129096,-0.137165 l 0.11296,-0.589002 0.274329,0.01614 c 0.01614,0.104891 0.02421,0.217851 0.02421,0.33081 v 0.04841 c 0,0.16137 -0.01614,0.314672 -0.03227,0.476043 -0.01614,0.137165 -0.04841,0.266261 -0.09682,0.387289 -0.11296,0.258193 -0.242056,0.524454 -0.387289,0.774577 l -0.09682,0.169439 -0.170336,0.313777 c -0.07262,0.169439 -0.177508,0.32274 -0.298535,0.459906 l -0.09682,0.112959 -0.11296,0.112959 -0.290467,0.242056 -0.225918,0.193644 -0.282398,0.233987 c -0.03227,0.02421 -0.06455,0.05648 -0.09682,0.08068 -0.185576,0.16944 -0.330809,0.379221 -0.427631,0.60514 l -0.02421,0.07262 c -0.121027,0.04841 -0.233987,0.112959 -0.330809,0.185577 -0.121028,0.10489 -0.21785,0.225918 -0.282399,0.371151 l -0.03227,0.07262 h 1.371649 l 0.03227,-0.0081 0.395357,-0.734235 c 0.0081,-0.02421 0.03227,-0.04034 0.05648,-0.04034 0.01614,0 0.03227,0.0081 0.04035,0.01614 l 0.10489,0.08875 c 0.01614,0.01614 0.04034,0.03227 0.05648,0.03227 0.01614,0 0.02421,-0.0081 0.03227,-0.0081 0.04034,-0.0242 0.08068,-0.04841 0.112959,-0.08068 l 0.04034,-0.04841 0.153302,-0.177507 0.121028,-0.16137 0.4357,-0.734236 c 0.06455,-0.09682 0.121028,-0.177508 0.177508,-0.258193 0.05648,-0.08069 0.145233,-0.177508 0.250123,-0.258193 l 0.22592,-0.169438 0.855263,-0.637414 c 0.03227,-0.04034 0.06455,-0.08875 0.07262,-0.145233 l 0.242055,-1.048908 0.04841,-0.185576 0.11296,-0.27433 0.121028,-0.209781 0.09682,-0.09682 c 0.129097,0.250125 0.298535,0.484112 0.484111,0.685824 0.112959,0.121029 0.21785,0.22592 0.322742,0.33081 0.129096,0.137165 0.242054,0.282398 0.330809,0.451838 0.177507,0.338877 0.306603,0.718098 0.37922,1.097318 0.04034,0.209781 0.07262,0.419564 0.11296,0.629345 0.0081,0.08069 0.01614,0.177508 0.01614,0.274329 0,0.09682 -0.0081,0.193645 -0.02421,0.290468 -0.0081,0.06455 -0.03227,0.121027 -0.07262,0.169438 -0.04034,0.04841 -0.08069,0.104892 -0.11296,0.161371 -0.02421,0.04034 -0.03227,0.08875 -0.04034,0.145234 l -0.0081,0.153301 -0.153301,0.161371 -0.161371,0.145233 c -0.05648,0.08068 -0.08875,0.161371 -0.10489,0.250124 l -0.03227,0.185576 h 1.371648 l 0.129097,-0.21785 c 0.03227,-0.04841 0.04034,-0.10489 0.04034,-0.16137 0,-0.02421 0,-0.05648 -0.0081,-0.08069 -0.0081,-0.04841 -0.03227,-0.104891 -0.06455,-0.153302 -0.01614,-0.03227 -0.03227,-0.07262 -0.04841,-0.112959 -0.01614,-0.04841 -0.02421,-0.09682 -0.03227,-0.145234 0,-0.03227 0.0081,-0.06455 0.02421,-0.08875 0.02421,-0.03227 0.05648,-0.04841 0.08875,-0.05648 l 0.1533,-0.03227 c 0.02421,0 0.04034,-0.01614 0.05648,-0.03227 0.03227,-0.04034 0.04841,-0.08875 0.04841,-0.137166 0,-0.03227 -0.0081,-0.06455 -0.01614,-0.08875 -0.01614,-0.03227 -0.0242,-0.06455 -0.03227,-0.09682 -0.04034,-0.298535 -0.09682,-0.621276 -0.161369,-0.935949 l -0.04841,-0.266261 -0.08875,-0.661618 c -0.01614,-0.08875 -0.04034,-0.193645 -0.04841,-0.298535 -0.01614,-0.11296 -0.01614,-0.217851 0.0081,-0.322742 0.04034,-0.193644 0.07262,-0.395357 0.09682,-0.59707 0.02421,-0.185576 0.04841,-0.363084 0.07262,-0.540591 0.0081,-0.04841 0.0081,-0.09682 0.0081,-0.153302 v -0.128995 c -0.01614,-0.137165 -0.06456,-0.266262 -0.137173,-0.371153 -0.03227,-0.05648 -0.06455,-0.112959 -0.08875,-0.177507 l -0.08875,-0.258192 c -0.0081,-0.03227 -0.02421,-0.05648 -0.03227,-0.08069 -0.05491,-0.192748 -0.09525,-0.377651 -0.103098,-0.563676 z"
       id="path2"
       style="stroke-width:0.112063" /></g></svg>
