<?xml version="1.0" encoding="UTF-8" standalone="no"?>
<!-- Created with Inkscape (http://www.inkscape.org/) -->

<svg
   width="64"
   height="64"
   viewBox="0 0 64 64"
   version="1.1"
   id="svg1"
   inkscape:version="1.4 (86a8ad7, 2024-10-11)"
   sodipodi:docname="45.svg"
   xml:space="preserve"
   xmlns:inkscape="http://www.inkscape.org/namespaces/inkscape"
   xmlns:sodipodi="http://sodipodi.sourceforge.net/DTD/sodipodi-0.dtd"
   xmlns="http://www.w3.org/2000/svg"
   xmlns:svg="http://www.w3.org/2000/svg"><sodipodi:namedview
     id="namedview1"
     pagecolor="#ffffff"
     bordercolor="#000000"
     borderopacity="0.25"
     inkscape:showpageshadow="2"
     inkscape:pageopacity="0.0"
     inkscape:pagecheckerboard="0"
     inkscape:deskcolor="#d1d1d1"
     inkscape:document-units="px"
     inkscape:zoom="0.70710685"
     inkscape:cx="18.384774"
     inkscape:cy="-75.660418"
     inkscape:window-width="1920"
     inkscape:window-height="1027"
     inkscape:window-x="-8"
     inkscape:window-y="-8"
     inkscape:window-maximized="1"
     inkscape:current-layer="layer1" /><defs
     id="defs1" /><g
     inkscape:label="Layer 1"
     inkscape:groupmode="layer"
     id="layer1"><g
       id="g3283"
       transform="matrix(0.06761338,0,0,0.06761338,6.5128154,2.466207)"><g
         id="g6450"
         transform="translate(2208.1,382.57)"><path
           id="path6715-4-9"
           style="display:inline;opacity:1;fill:#000000;stroke:#000000;stroke-width:125.842;stroke-linecap:round;stroke-linejoin:round;stroke-dasharray:none;stroke-opacity:1"
           sodipodi:type="star"
           sodipodi:sides="3"
           inkscape:transform-center-x="3.4247237e-05"
           sodipodi:r1="482.38354"
           sodipodi:r2="241.19177"
           inkscape:transform-center-y="-112.51909"
           transform="matrix(-0.46631,0.80802,-0.80768,-0.46651,-1325.4,21.37)"
           sodipodi:arg2="1.5707963"
           sodipodi:arg1="0.52359878"
           inkscape:randomized="0"
           sodipodi:cy="391.72241"
           sodipodi:cx="406.08133"
           inkscape:rounded="-3.469447e-18"
           inkscape:flatsided="true"
           d="M 823.83773,632.91419 -11.675076,632.91418 406.08133,-90.661133 Z" /><path
           id="path6715-4-9-2"
           style="fill:none;stroke:#ffffff;stroke-width:107.2;stroke-linecap:round;stroke-linejoin:round"
           sodipodi:type="star"
           sodipodi:sides="3"
           inkscape:transform-center-x="3.4247237e-05"
           sodipodi:r1="482.38354"
           sodipodi:r2="241.19177"
           inkscape:transform-center-y="-112.51909"
           transform="matrix(-0.46631,0.80802,-0.80768,-0.46651,-1325.4,21.37)"
           sodipodi:arg2="1.5707963"
           sodipodi:arg1="0.52359878"
           inkscape:randomized="0"
           sodipodi:cy="391.72241"
           sodipodi:cx="406.08133"
           inkscape:rounded="-3.469447e-18"
           inkscape:flatsided="true"
           d="M 823.83773,632.91419 -11.675076,632.91418 406.08133,-90.661133 Z" /><path
           id="path6715-4-9-2-3"
           style="fill:#ffffff;stroke:#ff0000;stroke-width:75.041;stroke-linecap:round;stroke-linejoin:round"
           sodipodi:type="star"
           sodipodi:sides="3"
           inkscape:transform-center-x="3.4247237e-05"
           sodipodi:r1="482.38354"
           sodipodi:r2="241.19177"
           inkscape:transform-center-y="-112.51909"
           transform="matrix(-0.46631,0.80802,-0.80768,-0.46651,-1325.4,21.37)"
           sodipodi:arg2="1.5707963"
           sodipodi:arg1="0.52359878"
           inkscape:randomized="0"
           sodipodi:cy="391.72241"
           sodipodi:cx="406.08133"
           inkscape:rounded="-3.469447e-18"
           inkscape:flatsided="true"
           d="M 823.83773,632.91419 -11.675076,632.91418 406.08133,-90.661133 Z" /></g></g><g
       id="g4248"
       transform="matrix(0.09906871,0,0,0.09906871,-3.7349474,-7.6201568)"><path
         id="path4221"
         d="m 292.78,406.97 -38.479,17.175 -11.848,-4.4777 -13.163,26.984 192.86,80.164 8.0995,-11.295 0.0582,-9.6561 -46.528,-26.531 -15.232,-39.311 -75.771,-33.051 z m 5.4679,10.533 25.617,11.748 -8.6923,21.511 -40.759,-19.308 23.835,-13.95 z m 33.878,15.111 29.765,13.18 10.34,26.563 -1.9542,2.7695 -47.652,-21.569 9.5014,-20.943 z"
         style="fill:#000000;stroke:#000000"
         inkscape:connector-curvature="0" /><circle
         id="path4223"
         style="fill:#000000;stroke:#ffffff;stroke-width:3.00005"
         transform="rotate(0.34529772)"
         cx="262.7749"
         cy="456.20447"
         r="14.795737" /><circle
         id="path4225"
         style="fill:#000000;stroke:#ffffff;stroke-width:3.00005"
         transform="rotate(0.34529772)"
         cx="395.9928"
         cy="510.21262"
         r="14.795737" /><path
         id="path4193"
         style="fill:#000000;stroke:#000000;stroke-width:1px"
         inkscape:connector-curvature="0"
         d="m 136.39,605.98 449.22,0.78125 -362.5,-149.22 z" /><path
         id="path4189"
         style="fill:#ffffff;stroke:#ffffff;stroke-width:1.3278"
         inkscape:connector-curvature="0"
         d="m 257.16,489.59 -37.035,76.946 -10.992,-5.2906 28.778,-59.912 c -6.5169,1.4153 -12.807,1.7139 -18.872,0.89587 l 5.5415,-11.514 c 7.5161,0.38853 14.364,-1.9176 20.545,-6.9183 z" /><path
         id="path4191"
         style="fill:#ffffff;stroke:#ffffff;stroke-width:1.3278"
         inkscape:connector-curvature="0"
         d="m 278.66,580.76 c 4.7637,1.9038 9.0616,1.5019 12.894,-1.2056 2.4913,-2.1856 4.851,-5.3099 7.079,-9.373 5.2054,-9.3604 8.8173,-16.784 10.836,-22.271 2.1213,-4.8924 2.8378,-8.8465 2.1496,-11.862 -0.85825,-4.9259 -3.141,-8.1449 -6.8483,-9.657 -4.5334,-2.2208 -8.7061,-1.8365 -12.518,1.1529 -2.7114,2.1576 -5.1272,5.1965 -7.2474,9.1168 -3.7425,6.5632 -7.1942,13.694 -10.355,21.393 -2.3261,4.8328 -3.2157,9.2677 -2.6688,13.305 0.21224,3.6814 2.4388,6.815 6.6798,9.4008 z m -10.357,-39.59 0.77535,-1.611 c 2.9038,-6.0331 6.0263,-11.591 9.3678,-16.675 3.0748,-4.0444 6.3399,-6.908 9.7954,-8.5908 5.4018,-2.5743 11.11,-3.0366 17.124,-1.387 1.1815,0.37423 2.3724,0.85018 3.5728,1.4278 1.1055,0.53217 2.2438,1.1579 3.415,1.8771 6.0202,3.0922 9.8931,8.302 11.618,15.629 1.0743,3.6684 0.84452,8.1874 -0.68941,13.557 -1.5213,5.1814 -3.9308,11.238 -7.2286,18.171 l -1.7103,3.5536 c -3.7856,7.8652 -7.7586,14.22 -11.919,19.065 -4.4366,4.2061 -8.3088,6.8358 -11.617,7.8892 -6.2126,1.834 -11.846,1.5347 -16.9,-0.89774 l -0.75809,-0.36487 c -6.4953,-3.3985 -10.763,-7.7479 -12.803,-13.048 -1.615,-4.162 -2.1485,-8.8733 -1.6006,-14.134 1.1994,-5.7252 3.593,-12.315 7.181,-19.77 0.74492,-1.5477 1.5367,-3.1119 2.3752,-4.6925 z" /><path
         id="path4143"
         d="m 378.55,554.4 c -1.471,4.9986 -6.7157,7.8583 -11.714,6.3872 -4.9987,-1.4711 -7.8582,-6.7158 -6.3872,-11.714 1.4711,-4.9987 6.7157,-7.8583 11.714,-6.3872 4.9987,1.4711 7.8583,6.7157 6.3872,11.714 z"
         style="fill:#000000;stroke:#ffffff;stroke-width:4.2114"
         inkscape:connector-curvature="0" /><path
         id="path4145"
         sodipodi:nodetypes="cc"
         style="fill:none;stroke:#ffffff;stroke-width:5"
         inkscape:connector-curvature="0"
         d="m 398.88,551.09 -43.62,36.665" /><path
         id="path4181"
         d="m 394.37,589.95 c -1.471,4.9986 -6.7157,7.8583 -11.714,6.3872 -4.9987,-1.4711 -7.8582,-6.7158 -6.3872,-11.714 1.4711,-4.9987 6.7157,-7.8583 11.714,-6.3872 4.9987,1.4711 7.8583,6.7157 6.3872,11.714 z"
         style="fill:#000000;stroke:#ffffff;stroke-width:4.2114"
         inkscape:connector-curvature="0" /></g></g></svg>
