<?xml version="1.0" encoding="UTF-8" standalone="no"?>
<!-- Created with Inkscape (http://www.inkscape.org/) -->

<svg
   width="64"
   height="80"
   viewBox="0 0 64 80"
   version="1.1"
   id="svg1"
   inkscape:version="1.4 (86a8ad7, 2024-10-11)"
   sodipodi:docname="50.svg"
   xml:space="preserve"
   xmlns:inkscape="http://www.inkscape.org/namespaces/inkscape"
   xmlns:sodipodi="http://sodipodi.sourceforge.net/DTD/sodipodi-0.dtd"
   xmlns="http://www.w3.org/2000/svg"
   xmlns:svg="http://www.w3.org/2000/svg"><sodipodi:namedview
     id="namedview1"
     pagecolor="#ffffff"
     bordercolor="#000000"
     borderopacity="0.25"
     inkscape:showpageshadow="2"
     inkscape:pageopacity="0.0"
     inkscape:pagecheckerboard="0"
     inkscape:deskcolor="#d1d1d1"
     inkscape:document-units="px"
     inkscape:zoom="2.8284271"
     inkscape:cx="41.365747"
     inkscape:cy="23.5113"
     inkscape:window-width="1920"
     inkscape:window-height="1027"
     inkscape:window-x="-8"
     inkscape:window-y="-8"
     inkscape:window-maximized="1"
     inkscape:current-layer="layer1" /><defs
     id="defs1"><rect
       x="12.25"
       y="59.764122"
       width="31"
       height="17.721766"
       id="rect2" /></defs><g
     inkscape:label="Layer 1"
     inkscape:groupmode="layer"
     id="layer1"><g
       id="g3283"
       transform="matrix(-0.06761338,0,0,-0.06761338,57.487185,61.533793)"><g
         id="g6450"
         transform="translate(2208.1,382.57)"><path
           id="path6715-4-9"
           style="display:inline;opacity:1;fill:#000000;stroke:#000000;stroke-width:125.842;stroke-linecap:round;stroke-linejoin:round;stroke-dasharray:none;stroke-opacity:1"
           sodipodi:type="star"
           sodipodi:sides="3"
           inkscape:transform-center-x="3.4247237e-05"
           sodipodi:r1="482.38354"
           sodipodi:r2="241.19177"
           inkscape:transform-center-y="-112.51909"
           transform="matrix(-0.46631,0.80802,-0.80768,-0.46651,-1325.4,21.37)"
           sodipodi:arg2="1.5707963"
           sodipodi:arg1="0.52359878"
           inkscape:randomized="0"
           sodipodi:cy="391.72241"
           sodipodi:cx="406.08133"
           inkscape:rounded="-3.469447e-18"
           inkscape:flatsided="true"
           d="M 823.83773,632.91419 -11.675076,632.91418 406.08133,-90.661133 Z" /><path
           id="path6715-4-9-2"
           style="fill:none;stroke:#ffffff;stroke-width:107.2;stroke-linecap:round;stroke-linejoin:round"
           sodipodi:type="star"
           sodipodi:sides="3"
           inkscape:transform-center-x="3.4247237e-05"
           sodipodi:r1="482.38354"
           sodipodi:r2="241.19177"
           inkscape:transform-center-y="-112.51909"
           transform="matrix(-0.46631,0.80802,-0.80768,-0.46651,-1325.4,21.37)"
           sodipodi:arg2="1.5707963"
           sodipodi:arg1="0.52359878"
           inkscape:randomized="0"
           sodipodi:cy="391.72241"
           sodipodi:cx="406.08133"
           inkscape:rounded="-3.469447e-18"
           inkscape:flatsided="true"
           d="M 823.83773,632.91419 -11.675076,632.91418 406.08133,-90.661133 Z" /><path
           id="path6715-4-9-2-3"
           style="fill:#ffffff;stroke:#ff0000;stroke-width:75.041;stroke-linecap:round;stroke-linejoin:round"
           sodipodi:type="star"
           sodipodi:sides="3"
           inkscape:transform-center-x="3.4247237e-05"
           sodipodi:r1="482.38354"
           sodipodi:r2="241.19177"
           inkscape:transform-center-y="-112.51909"
           transform="matrix(-0.46631,0.80802,-0.80768,-0.46651,-1325.4,21.37)"
           sodipodi:arg2="1.5707963"
           sodipodi:arg1="0.52359878"
           inkscape:randomized="0"
           sodipodi:cy="391.72241"
           sodipodi:cx="406.08133"
           inkscape:rounded="-3.469447e-18"
           inkscape:flatsided="true"
           d="M 823.83773,632.91419 -11.675076,632.91418 406.08133,-90.661133 Z" /></g></g><rect
       style="fill:#ffffff;fill-opacity:1;stroke:#000000;stroke-width:1.02824"
       id="rect1"
       width="56.389141"
       height="17.721766"
       x="3.8054295"
       y="59.764122" /><path
       d="m 16.656264,70.548229 h -1.60938 v -4.406264 l 0.01563,-0.72396 0.02604,-0.79167 q -0.401043,0.401043 -0.557294,0.526044 l -0.875003,0.703127 -0.776044,-0.968753 2.453133,-1.953131 h 1.322921 z m 4.880224,-4.864599 q 1.10417,0 1.755214,0.619794 0.656252,0.619794 0.656252,1.697922 0,1.276046 -0.786461,1.963548 -0.786461,0.687502 -2.250007,0.687502 -1.270837,0 -2.05209,-0.411459 v -1.39063 q 0.41146,0.218751 0.958336,0.359376 0.546877,0.135417 1.036462,0.135417 1.473963,0 1.473963,-1.208337 0,-1.151045 -1.526046,-1.151045 -0.276043,0 -0.609377,0.05729 -0.333335,0.05208 -0.541669,0.114583 l -0.640627,-0.343751 0.286459,-3.88022 h 4.130222 v 1.364587 H 20.70836 l -0.140625,1.494797 0.182292,-0.03646 q 0.317709,-0.07292 0.786461,-0.07292 z m 8.598985,1.057295 q 0,1.994798 -0.656252,2.953135 -0.651043,0.958336 -2.010423,0.958336 -1.317712,0 -1.989589,-0.989586 -0.666669,-0.989587 -0.666669,-2.921885 0,-2.015631 0.651044,-2.968759 0.651043,-0.958336 2.005214,-0.958336 1.317713,0 1.98959,1.000003 0.677085,1.000003 0.677085,2.927092 z m -3.72397,0 q 0,1.401047 0.239584,2.010423 0.244793,0.604169 0.817711,0.604169 0.562502,0 0.812503,-0.614585 0.250001,-0.614585 0.250001,-2.000007 0,-1.401046 -0.255209,-2.010423 -0.250001,-0.614585 -0.807295,-0.614585 -0.56771,0 -0.812502,0.614585 -0.244793,0.609377 -0.244793,2.010423 z"
       id="text1"
       style="font-weight:bold;font-size:10.6667px;line-height:1.5;font-family:'Almohanad long kaf';-inkscape-font-specification:'Almohanad long kaf Bold';text-align:end;direction:rtl;text-anchor:end;white-space:pre"
       transform="matrix(1.6511121,0,0,1.6511121,-3.511858,-41.558846)"
       aria-label="150" /></g></svg>
