<?xml version="1.0" encoding="UTF-8" standalone="no"?>
<!-- Created with Inkscape (http://www.inkscape.org/) -->

<svg
   width="64"
   height="64"
   viewBox="0 0 64 64"
   version="1.1"
   id="svg1"
   inkscape:version="1.4 (86a8ad7, 2024-10-11)"
   sodipodi:docname="52.svg"
   xml:space="preserve"
   xmlns:inkscape="http://www.inkscape.org/namespaces/inkscape"
   xmlns:sodipodi="http://sodipodi.sourceforge.net/DTD/sodipodi-0.dtd"
   xmlns="http://www.w3.org/2000/svg"
   xmlns:svg="http://www.w3.org/2000/svg"><sodipodi:namedview
     id="namedview1"
     pagecolor="#ffffff"
     bordercolor="#000000"
     borderopacity="0.25"
     inkscape:showpageshadow="2"
     inkscape:pageopacity="0.0"
     inkscape:pagecheckerboard="0"
     inkscape:deskcolor="#d1d1d1"
     inkscape:document-units="px"
     inkscape:zoom="2"
     inkscape:cx="11"
     inkscape:cy="-45.75"
     inkscape:window-width="1920"
     inkscape:window-height="1027"
     inkscape:window-x="-8"
     inkscape:window-y="-8"
     inkscape:window-maximized="1"
     inkscape:current-layer="layer1" /><defs
     id="defs1" /><g
     inkscape:label="Layer 1"
     inkscape:groupmode="layer"
     id="layer1"><g
       id="g3283"
       transform="matrix(0.06761338,0,0,0.06761338,6.5128154,2.466207)"><g
         id="g6450"
         transform="translate(2208.1,382.57)"><path
           id="path6715-4-9"
           style="display:inline;opacity:1;fill:#000000;stroke:#000000;stroke-width:125.842;stroke-linecap:round;stroke-linejoin:round;stroke-dasharray:none;stroke-opacity:1"
           sodipodi:type="star"
           sodipodi:sides="3"
           inkscape:transform-center-x="3.4247237e-05"
           sodipodi:r1="482.38354"
           sodipodi:r2="241.19177"
           inkscape:transform-center-y="-112.51909"
           transform="matrix(-0.46631,0.80802,-0.80768,-0.46651,-1325.4,21.37)"
           sodipodi:arg2="1.5707963"
           sodipodi:arg1="0.52359878"
           inkscape:randomized="0"
           sodipodi:cy="391.72241"
           sodipodi:cx="406.08133"
           inkscape:rounded="-3.469447e-18"
           inkscape:flatsided="true"
           d="M 823.83773,632.91419 -11.675076,632.91418 406.08133,-90.661133 Z" /><path
           id="path6715-4-9-2"
           style="fill:none;stroke:#ffffff;stroke-width:107.2;stroke-linecap:round;stroke-linejoin:round"
           sodipodi:type="star"
           sodipodi:sides="3"
           inkscape:transform-center-x="3.4247237e-05"
           sodipodi:r1="482.38354"
           sodipodi:r2="241.19177"
           inkscape:transform-center-y="-112.51909"
           transform="matrix(-0.46631,0.80802,-0.80768,-0.46651,-1325.4,21.37)"
           sodipodi:arg2="1.5707963"
           sodipodi:arg1="0.52359878"
           inkscape:randomized="0"
           sodipodi:cy="391.72241"
           sodipodi:cx="406.08133"
           inkscape:rounded="-3.469447e-18"
           inkscape:flatsided="true"
           d="M 823.83773,632.91419 -11.675076,632.91418 406.08133,-90.661133 Z" /><path
           id="path6715-4-9-2-3"
           style="fill:#ffffff;stroke:#ff0000;stroke-width:75.041;stroke-linecap:round;stroke-linejoin:round"
           sodipodi:type="star"
           sodipodi:sides="3"
           inkscape:transform-center-x="3.4247237e-05"
           sodipodi:r1="482.38354"
           sodipodi:r2="241.19177"
           inkscape:transform-center-y="-112.51909"
           transform="matrix(-0.46631,0.80802,-0.80768,-0.46651,-1325.4,21.37)"
           sodipodi:arg2="1.5707963"
           sodipodi:arg1="0.52359878"
           inkscape:randomized="0"
           sodipodi:cy="391.72241"
           sodipodi:cx="406.08133"
           inkscape:rounded="-3.469447e-18"
           inkscape:flatsided="true"
           d="M 823.83773,632.91419 -11.675076,632.91418 406.08133,-90.661133 Z" /></g></g><g
       id="g1"
       transform="matrix(0.41290019,0,0,0.41290019,65.854498,38.574006)"><path
         d="m -38.22956,27.563447 v 1.633106 H -127 l 0.19442,-0.77767 c 0.29162,-1.127621 0.62213,-2.216358 0.99153,-3.266212 0.27218,-0.855436 0.68046,-1.730315 1.1665,-2.527426 0.33051,-0.544369 0.64158,-1.030412 0.95265,-1.535897 0.0389,-0.05832 0.11665,-0.116651 0.21385,-0.174976 l 0.19442,-0.330509 0.71935,-1.574781 c 0.17497,-0.408277 0.40827,-0.797112 0.64157,-1.147063 0.2333,-0.330509 0.46661,-0.641577 0.71935,-0.933203 0.48604,-0.583253 0.9332,-1.205388 1.32204,-1.846966 0.38883,-0.68046 0.85543,-1.283154 1.3998,-1.846965 0.21386,-0.233301 0.4666,-0.44716 0.73879,-0.602694 0.33051,-0.213859 0.58325,-0.486043 0.75823,-0.816553 0.38883,-0.758228 0.89432,-1.477572 1.45813,-2.1191493 0.75822,-0.8748782 1.94417,-1.2442712 3.07179,-0.9526452 0.58325,0.155534 1.14706,0.3693931 1.67199,0.6221357 0.97209,0.4860435 1.86641,1.0887378 2.66352,1.8080818 l 0.54437,-0.272184 c 2.44966,-1.1859465 4.74378,-2.488543 6.96014,-3.90779 l 0.991528,0.3888348 1.205388,-1.0109704 0.661019,-0.7193443 1.263713,-0.9137618 c 1.535898,-1.1276208 3.188445,-2.080266 4.91876,-2.8579356 l 1.010971,-0.89431996 1.594222,-1.49701389 c 0.174976,-0.17497565 0.291626,-0.38883478 0.349952,-0.60269395 0.194417,-0.6221356 0.311067,-1.263713 0.349951,-1.8858486 0.05833,-0.9137618 0.09721,-1.7497565 0.136092,-2.605193 0.01944,-0.6610192 0.07777,-1.3220383 0.155534,-1.9830574 0.11665,-0.8748782 0.155534,-1.710873 0.155534,-2.5857509 v -0.524927 c 0,-0.136092 -0.01944,-0.427719 -0.01944,-0.738786 -0.01944,-0.524927 -0.07777,-0.738786 -0.194417,-0.913762 l -1.069296,-2.294125 -1.45813,-2.488543 c -0.311068,-0.544369 -0.505486,-1.166504 -0.544369,-1.808082 -0.03888,-0.641577 0.01944,-1.283154 0.155534,-1.90529 0.05832,-0.252743 0.136092,-0.486043 0.233301,-0.719344 0.03888,-0.07777 0.05832,-0.174976 0.05832,-0.272185 0,-0.136092 -0.05832,-0.272184 -0.136092,-0.388834 -0.07777,-0.116651 -0.213859,-0.174976 -0.349952,-0.174976 -0.03888,0 -0.07777,0 -0.11665,0.01944 -0.427718,0.09721 -0.874878,0 -1.205388,-0.291626 -0.758228,-0.641578 -1.283155,-1.497014 -1.535897,-2.44966 -0.09721,-0.349951 -0.213859,-0.719344 -0.33051,-1.088737 -0.07777,-0.272184 -0.233301,-0.486043 -0.44716,-0.661019 -0.408276,-0.349951 -0.699902,-0.816553 -0.835994,-1.322038 -0.136093,-0.563811 -0.136093,-1.127621 0,-1.691432 0.155533,-0.622135 0.486043,-1.205387 0.991528,-1.633106 0.505485,-0.427718 1.088738,-0.758227 1.710873,-0.972087 0.680461,-0.213859 1.380364,-0.388834 2.080266,-0.486043 0.369393,-0.05833 0.758228,0 1.088738,0.174976 0.427718,0.2333 0.835994,0.486043 1.185946,0.797111 0.369393,0.291626 0.641577,0.699902 0.797111,1.166504 0.155534,0.44716 0.291626,0.89432 0.388835,1.34148 0.07777,0.291626 0.136092,0.563811 0.174975,0.835995 0.116651,0.641577 0.349952,1.244271 0.680461,1.808082 0.252743,0.466601 0.466602,0.816553 0.699903,1.166504 -0.03888,-0.05832 0.272184,0.174976 0.641577,0.291626 0.194418,0.05832 0.427719,0.09721 0.641578,0.09721 0.174975,0 0.330509,-0.01944 0.486043,-0.05832 0.641578,-0.136093 1.263713,-0.21386 1.905291,-0.272185 0.524926,-0.03888 1.049853,-0.136092 1.535897,-0.291626 0.991529,-0.330509 1.963616,-0.602694 2.955144,-0.89432 0.544369,-0.155534 1.166505,-0.194417 1.769198,-0.09721 3.110679,0.486044 6.065823,1.535898 8.748783,3.110679 0.272184,0.155534 0.544369,0.311068 0.797111,0.486043 0.388835,0.252743 0.699903,0.602694 0.874878,1.030412 0.21386,0.486044 0.33051,0.991529 0.388835,1.497014 0.136092,1.458131 0.291626,2.760727 0.486044,4.063324 0.11665,0.855436 0.544368,1.749756 1.224829,2.4691 0.174976,0.194418 0.388835,0.369394 0.622136,0.505486 0.466602,0.272184 0.855436,0.661019 1.147063,1.127621 0.136092,0.194417 0.194417,0.427718 0.194417,0.661019 0,0.369393 -0.155534,0.738786 -0.44716,0.972087 -0.272184,0.213859 -0.563811,0.427718 -0.855437,0.602694 -0.2333,0.155533 -0.486043,0.2333 -0.758227,0.272184 -0.136093,0.01944 -0.233301,0.1166503 -0.252743,0.2527425 l 0.252743,5.6186625 0.03888,4.62713384 -0.07777,2.21635826 0.03888,1.9247321 -0.116651,1.7497565 -0.213859,2.0997078 c -0.07777,0.6415774 -0.11665,1.3025965 -0.11665,1.9441735 0,0.972087 0.07777,1.924733 0.213859,2.877378 0.09721,0.602694 0.155534,1.263713 0.155534,1.885848 0,0.194418 -0.01944,0.369393 -0.01944,0.544369 l 0.03888,2.527426 -0.05833,2.896819 -0.07777,2.68296 0.03888,1.283155 c 0.01944,0.466602 0.408276,0.835995 0.874878,0.835995 l 0.194417,-0.01944 1.147063,-0.933203 c 0.174976,-0.136093 0.272184,-0.349952 0.272184,-0.563811 0,-0.05832 0,-0.09721 -0.01944,-0.155534 -0.03888,-0.233301 -0.07777,-0.505485 -0.07777,-0.758228 -0.01944,-0.2333 0.05833,-0.44716 0.213859,-0.622135 0.11665,-0.116651 0.252742,-0.233301 0.427718,-0.33051 l 0.719344,-0.311068 0.77767,-0.427718 c 0.680461,-0.369393 1.322038,-0.797111 1.90529,-1.302596 0.155534,-0.136093 0.291626,-0.252743 0.427718,-0.349952 0.21386,-0.213859 0.563811,-0.330509 0.913762,-0.311068 0.44716,0 0.89432,0.136093 1.283155,0.388835 0.311068,0.213859 0.56381,0.505485 0.719344,0.855437 1.010971,2.333008 2.546868,4.354949 4.491042,5.949172 0.369393,0.291626 0.816553,0.486043 1.263713,0.56381 l 9.863982,0.0243 z"
         id="path2"
         style="stroke-width:0.270024" /><path
         d="m -84.714218,-3.1545006 c 0.01944,0.019442 0.03888,0.019442 0.07777,0.019442 0.07777,0 0.155534,-0.019442 0.213859,-0.097209 0.388835,-0.44716 0.738786,-0.8748782 1.069296,-1.3220382 0.252742,-0.3110679 0.466601,-0.6415774 0.699902,-0.972087 0.174976,-0.2721843 0.349952,-0.5638104 0.544369,-0.8359947 0.194417,-0.2721844 0.369393,-0.5638105 0.524927,-0.8554366 0.252743,-0.4666017 0.486043,-0.8943199 0.719344,-1.3414799 0.155534,-0.3110679 0.291626,-0.6999026 0.349952,-1.1081792 0.05832,-0.2138591 0.09721,-0.4471598 0.155534,-0.6804608 0.03888,-0.09721 0.05832,-0.233301 0.05832,-0.369393 0,-0.194417 -0.07777,-0.388835 -0.213859,-0.544369 l -0.486044,-0.544368 -0.583252,-0.44716 c -0.11665,-0.116651 -0.252743,-0.174976 -0.408277,-0.174976 -0.194417,0 -0.388834,0.11665 -0.486043,0.291626 l -0.388835,0.641577 c -0.07777,0.194418 -0.136092,0.388835 -0.155534,0.602694 0,0.369393 -0.03888,0.738786 -0.11665,1.1081794 -0.03888,0.1749757 -0.155534,0.6804609 -0.252743,1.1859461 -0.272184,1.3025965 -0.56381,2.3135669 -0.874878,3.2662121 l -0.233301,0.6610191 -0.272184,0.7971113 c -0.05832,0.1360922 -0.09721,0.2916261 -0.09721,0.44716 0,0.038883 0,0.077767 0.01944,0.1166505 -0.0027,0.083707 0.0567,0.1620144 0.135012,0.1620144 z"
         fill="#feb82f"
         id="path3"
         style="fill:#ffffff;fill-opacity:1;stroke-width:0.270024" /><line
         y2="-3.1544967"
         x1="-84.851929"
         x2="-84.733124"
         stroke="#000000"
         y1="-3.330019"
         stroke-width="0.0583252"
         fill="none"
         id="line3" /><path
         d="m -72.641438,-20.652066 0.952645,0.01944 0.835995,0.09721 1.302596,0.252742 c 0.05832,0.01944 0.136092,0.05833 0.155534,0.136093 l 0.349951,0.758227 0.252743,0.563811 0.174976,0.486043 0.272184,0.641578 0.44716,0.89432 0.272184,0.486043 0.311068,0.758228 0.291626,0.874878 0.155534,0.661019 0.05833,0.252743 c 0.01944,0.03888 0.01944,0.09721 0.01944,0.136092 0,0.272184 -0.233301,0.505485 -0.505485,0.505485 h -0.01944 c -0.09721,0 -0.213859,-0.03888 -0.311068,-0.09721 l -0.622135,-0.622136 -0.661019,-0.699903 -0.388835,-0.427718 -0.311068,-0.466602 -0.233301,-0.44716 c -0.174975,-0.369393 -0.349951,-0.738786 -0.486043,-1.12762 l -0.874879,-0.991529 -1.088737,-1.205388 -0.874878,-0.855436 c -0.05832,-0.05833 -0.05832,-0.136093 0.01944,-0.174976 l 0.252742,-0.311068 c 0.0459,-0.06211 0.143113,-0.09991 0.240322,-0.09991 z"
         fill="#feb82f"
         id="path4"
         style="fill:#ffffff;fill-opacity:1;stroke-width:0.270024" /><path
         d="m -82.810548,25.69488 2.391334,-1.633106 0.116651,-0.07777 0.44716,-0.136093 0.89432,-0.213859 1.730314,-1.030412 -0.09721,-0.349951 c -0.136093,-0.602694 -0.427719,-1.185946 -0.797112,-1.691431 -0.311067,-0.44716 -0.602694,-0.913762 -0.835994,-1.419247 -0.194418,-0.388835 -0.291627,-0.77767 -0.311068,-1.205388 -0.07777,-1.34148 -0.311068,-2.68296 -0.661019,-4.004998 -0.408277,-1.438689 -0.89432,-2.916261 -1.419247,-4.3938334 -0.272185,-0.7193443 -0.408277,-1.3998052 -0.466602,-2.0608243 -0.01944,-0.1555339 -0.03888,-0.3110678 -0.01944,-0.4666017 0,-0.097209 0.03888,-0.1944174 0.09721,-0.2721844 l 0.524927,-0.4860434 0.622136,-0.4860435 0.583252,-0.5249269 0.719344,-0.6415774 0.44716,-0.4666018 1.963616,-2.1385912 0.252742,-0.3305096 0.116651,-0.1749756 c 0.11665,-0.1749757 0.252742,-0.3499513 0.388834,-0.52492699 0.07777,-0.0972087 0.155534,-0.15553391 0.252743,-0.21385913 l 0.797111,-0.48604347 0.583253,-0.21385913 c 0.194417,-0.07776695 0.427718,-0.05832521 0.583252,0.07776696 0.252742,0.19441739 0.427718,0.50548521 0.505485,0.81655303 l 0.09721,1.04985393 0.11665,1.0304121 0.291626,2.0608243 c 0.05833,0.5054853 0.09721,0.9915287 0.09721,1.4775722 0,0.4666017 -0.03888,0.9137617 -0.09721,1.3609217 -0.01944,0.1749757 -0.01944,0.3499513 -0.01944,0.524927 0,0.5054852 0.07777,1.0109704 0.252743,1.4775721 0.136092,0.3499516 0.291626,0.6804606 0.466602,0.9915286 0.44716,0.835995 0.777669,1.710873 1.01097,2.624635 0.155534,0.641577 0.252743,1.283155 0.272184,1.944174 0.03888,1.069295 0.174976,2.138591 0.408277,3.188445 0.136092,0.622136 0.233301,1.127621 0.349951,1.671989 0.01944,0.136093 0.194418,0.272185 0.388835,0.272185 0.03888,0 0.07777,0 0.11665,-0.01944 l 0.466602,0.01944 c 0.09721,0 0.194418,0.07777 0.213859,0.174975 0.136093,0.466602 0.194418,0.933204 0.194418,1.399806 0,0.44716 -0.05832,0.89432 -0.174976,1.322038 -0.09721,0.427718 -0.408276,0.758228 -0.816553,0.89432 -0.349951,0.11665 -0.719344,0.213859 -1.088737,0.252742 -0.349952,0.05833 -0.641578,0.311068 -0.699903,0.641578 -0.03888,0.155534 -0.05832,0.291626 -0.05832,0.427718 v 0.01944 c 0,0.330509 -0.213859,0.583252 -0.505485,0.661019 -0.291626,0.09721 -0.602694,0.155534 -0.89432,0.174976 -0.44716,0.03888 -0.89432,0.09721 -1.360922,0.174975 l -1.419247,0.03888 -1.652548,-0.07777 -1.322038,-0.213859 -0.835995,-0.194418 -1.283155,-0.252742 -0.874878,-0.174976 -1.047694,-0.194417 z"
         fill="#feb82f"
         id="path5"
         style="fill:#ffffff;fill-opacity:1;stroke-width:0.270024" /><path
         d="m -107.40435,12.163969 0.50549,-0.09721 1.34148,-0.291626 c 0.91376,-0.194418 1.78864,-0.466602 2.64407,-0.835995 0.73879,-0.311068 1.3026,-0.544369 1.86641,-0.77767 0.68046,-0.272184 1.360923,-0.719344 1.963617,-1.2831544 l 0.952645,-0.7971113 0.816553,-0.8165531 0.524927,-0.4471599 0.602694,-0.44716 0.56381,-0.4082766 0.699903,-0.4277182 0.505485,-0.2721844 0.544369,-0.2721843 0.56381,-0.2721843 0.602694,-0.3110679 0.44716,-0.2333008 0.408277,-0.2527426 0.388834,-0.2138592 0.835995,-0.3499513 1.652548,4.5104835 0.03888,0.1749756 0.03888,0.1749757 0.641577,2.1385915 0.544369,2.196916 0.408277,1.399805 0.272184,1.049854 0.583252,2.644077 0.155534,0.835995 c 0.09721,0.427718 0.291626,0.816553 0.602694,1.147062 0.11665,0.116651 0.252743,0.213859 0.388835,0.272185 0.330509,0.174975 0.680461,0.252742 1.049854,0.252742 0.05832,0 0.136092,0 0.194417,-0.01944 0.252743,-0.01944 0.505485,0.07777 0.661019,0.272185 0.349951,0.408276 0.563811,0.89432 0.641577,1.419247 v 0.07777 c 0,0.09721 -0.01944,0.194417 -0.05832,0.272184 l -0.719344,1.147063 -0.136092,0.213859 -1.613665,0.913761 c -0.11665,0.05833 -0.194417,0.194418 -0.194417,0.33051 v 0.05832 l 0.136092,0.524927 -0.544368,-0.11665 c -0.699903,-0.174976 -1.419247,-0.252743 -2.177475,-0.252743 -0.427718,0 -0.874878,0.01944 -1.302597,0.07777 -0.835994,0.11665 -1.691431,0.272184 -2.566309,0.486044 -0.89432,0.213859 -1.808082,0.330509 -2.760727,0.349951 -0.641578,0.01944 -1.283155,-0.05832 -1.885849,-0.233301 -0.252742,-0.05832 -0.544369,-0.136092 -0.816553,-0.194417 -0.56381,-0.09721 -1.069296,-0.369393 -1.438689,-0.77767 -0.272184,-0.272184 -0.602693,-0.641577 -0.952645,-0.972087 l -0.874872,-1.244271 -0.48605,-0.77767 -0.52492,-0.758228 -0.46661,-0.68046 -0.74256,-1.131402 -0.34995,-0.56381 -0.50549,-1.030412 -0.36939,-0.816553 -0.25274,-0.505485 -0.21386,-0.408277 c -0.73879,-1.34148 -1.67199,-2.585751 -2.81906,-3.655047 h -0.0189 z"
         fill="#feb82f"
         id="path6"
         style="fill:#ffffff;fill-opacity:1;stroke-width:0.270024" /></g></g></svg>
