<?xml version="1.0" encoding="UTF-8" standalone="no"?>
<!-- Created with Inkscape (http://www.inkscape.org/) -->

<svg
   width="64"
   height="64"
   viewBox="0 0 64 64"
   version="1.1"
   id="svg1"
   inkscape:version="1.4 (86a8ad7, 2024-10-11)"
   sodipodi:docname="53.svg"
   xml:space="preserve"
   xmlns:inkscape="http://www.inkscape.org/namespaces/inkscape"
   xmlns:sodipodi="http://sodipodi.sourceforge.net/DTD/sodipodi-0.dtd"
   xmlns="http://www.w3.org/2000/svg"
   xmlns:svg="http://www.w3.org/2000/svg"><sodipodi:namedview
     id="namedview1"
     pagecolor="#ffffff"
     bordercolor="#000000"
     borderopacity="0.25"
     inkscape:showpageshadow="2"
     inkscape:pageopacity="0.0"
     inkscape:pagecheckerboard="0"
     inkscape:deskcolor="#d1d1d1"
     inkscape:document-units="px"
     inkscape:zoom="1.4142136"
     inkscape:cx="-4.2426407"
     inkscape:cy="10.253048"
     inkscape:window-width="1920"
     inkscape:window-height="1027"
     inkscape:window-x="-8"
     inkscape:window-y="-8"
     inkscape:window-maximized="1"
     inkscape:current-layer="layer1" /><defs
     id="defs1" /><g
     inkscape:label="Layer 1"
     inkscape:groupmode="layer"
     id="layer1"><g
       id="g3283"
       transform="matrix(0.06761338,0,0,0.06761338,6.5128154,2.466207)"><g
         id="g6450"
         transform="translate(2208.1,382.57)"><path
           id="path6715-4-9"
           style="display:inline;opacity:1;fill:#000000;stroke:#000000;stroke-width:125.842;stroke-linecap:round;stroke-linejoin:round;stroke-dasharray:none;stroke-opacity:1"
           sodipodi:type="star"
           sodipodi:sides="3"
           inkscape:transform-center-x="3.4247237e-05"
           sodipodi:r1="482.38354"
           sodipodi:r2="241.19177"
           inkscape:transform-center-y="-112.51909"
           transform="matrix(-0.46631,0.80802,-0.80768,-0.46651,-1325.4,21.37)"
           sodipodi:arg2="1.5707963"
           sodipodi:arg1="0.52359878"
           inkscape:randomized="0"
           sodipodi:cy="391.72241"
           sodipodi:cx="406.08133"
           inkscape:rounded="-3.469447e-18"
           inkscape:flatsided="true"
           d="M 823.83773,632.91419 -11.675076,632.91418 406.08133,-90.661133 Z" /><path
           id="path6715-4-9-2"
           style="fill:none;stroke:#ffffff;stroke-width:107.2;stroke-linecap:round;stroke-linejoin:round"
           sodipodi:type="star"
           sodipodi:sides="3"
           inkscape:transform-center-x="3.4247237e-05"
           sodipodi:r1="482.38354"
           sodipodi:r2="241.19177"
           inkscape:transform-center-y="-112.51909"
           transform="matrix(-0.46631,0.80802,-0.80768,-0.46651,-1325.4,21.37)"
           sodipodi:arg2="1.5707963"
           sodipodi:arg1="0.52359878"
           inkscape:randomized="0"
           sodipodi:cy="391.72241"
           sodipodi:cx="406.08133"
           inkscape:rounded="-3.469447e-18"
           inkscape:flatsided="true"
           d="M 823.83773,632.91419 -11.675076,632.91418 406.08133,-90.661133 Z" /><path
           id="path6715-4-9-2-3"
           style="fill:#ffffff;stroke:#ff0000;stroke-width:75.041;stroke-linecap:round;stroke-linejoin:round"
           sodipodi:type="star"
           sodipodi:sides="3"
           inkscape:transform-center-x="3.4247237e-05"
           sodipodi:r1="482.38354"
           sodipodi:r2="241.19177"
           inkscape:transform-center-y="-112.51909"
           transform="matrix(-0.46631,0.80802,-0.80768,-0.46651,-1325.4,21.37)"
           sodipodi:arg2="1.5707963"
           sodipodi:arg1="0.52359878"
           inkscape:randomized="0"
           sodipodi:cy="391.72241"
           sodipodi:cx="406.08133"
           inkscape:rounded="-3.469447e-18"
           inkscape:flatsided="true"
           d="M 823.83773,632.91419 -11.675076,632.91418 406.08133,-90.661133 Z" /></g></g><g
       id="g5"
       transform="matrix(0.11624495,0,0,0.11624495,1.9064456,5.4121257)"><path
         stroke="#000000"
         stroke-width="0.216"
         d="m 214.63,222.77 19.872,-20.448 c 2.304,-2.304 5.184,-3.6 8.712,-3.6 20.808,1.008 41.328,6.84 59.184,17.28 2.952,1.584 4.896,4.176 5.544,7.488 l 5.832,27.576 c 3.24,4.896 4.896,10.08 4.896,15.624 0,4.608 -1.296,8.784 -3.24,12.672 l -8.136,14.04 -3.888,13.608 c -3.6,12.313 -22.176,9.72 -22.176,-3.24 0,-0.936 0,-1.944 0.36,-2.88 l 2.304,-7.2 -20.808,-6.192 c -5.256,13.392 -24.696,9.432 -24.696,-4.536 v -2.304 l -20.808,-6.12 -1.944,7.128 c -3.24,12.672 -21.816,10.08 -21.816,-2.952 0,-0.936 0,-2.232 0.36,-3.24 l 3.888,-13.32 0.36,-16.272 c 0.68,-10.09 6.87,-18.87 16.23,-23.12 z"
         id="path2" /><path
         stroke="#000000"
         stroke-width="0.216"
         d="m 227.66,226.01 73.44,20.88 -4.536,-20.88 c -16.272,-9.36 -34.776,-14.904 -54,-15.552 l -14.9,15.55 z"
         fill="#feb82f"
         id="path3"
         style="fill:#ffffff;fill-opacity:1" /><path
         stroke="#000000"
         stroke-width="0.216"
         d="m 238.68,374.26 c 1.368,-1.008 2.304,-2.952 2.304,-4.608 0,-1.584 -0.648,-2.88 -1.584,-3.888 -0.36,-0.288 -1.008,-0.648 -1.368,-0.936 h -0.288 l -68.616,-22.176 c -5.184,-1.584 -5.184,-8.784 0,-10.368 l 33.48,-12.384 c 1.008,0 1.296,-0.648 1.296,-1.584 0,-1.008 -0.648,-1.656 -1.584,-1.656 h -0.36 l -66.672,11.736 c -4.248,0.648 -7.488,4.536 -7.488,9.072 0,1.656 0.648,3.6 1.656,5.184 1.584,1.656 3.6,3.312 5.832,3.96 l 64.368,21.096 c 0.72,0.36 1.368,1.296 1.368,1.944 0,1.008 -0.648,1.656 -1.368,2.304 l -65.952,22.752 h 66.672 l 37.656,-20.16 0.64,-0.27 z"
         id="path4" /><path
         stroke="#000000"
         stroke-width="0.216"
         d="m 365.76,374.54 c 1.296,-1.368 1.944,-2.952 1.944,-4.608 0,-2.592 -1.944,-4.824 -4.608,-5.544 l -151.12,-25.99 h -0.648 c -2.592,-0.936 -2.592,-4.536 0,-5.544 0,0 0.36,-0.288 0.648,-0.288 l 74.088,-13.68 h 0.648 c 0.648,0 1.296,0.648 1.296,1.656 0,0.648 -0.36,0.936 -1.008,1.296 h -0.288 l -36.072,12.024 c -0.36,0 -0.648,0.288 -0.648,0.648 0,0.288 0.288,0.648 0.288,0.936 h 0.648 l 141.47,16.62 c 2.592,0 4.896,0.936 7.128,2.232 3.888,2.304 6.552,6.552 6.84,11.088 v 0.648 c 0,3.888 -1.296,7.776 -3.888,11.088 l -15.624,17.568 h -73.8 l 51.336,-19.512 1.36,-0.66 z"
         id="path5" /></g></g></svg>
