<?xml version="1.0" encoding="UTF-8" standalone="no"?>
<!-- Created with Inkscape (http://www.inkscape.org/) -->

<svg
   width="64"
   height="64"
   viewBox="0 0 64 64"
   version="1.1"
   id="svg1"
   inkscape:version="1.4 (86a8ad7, 2024-10-11)"
   sodipodi:docname="56.svg"
   xml:space="preserve"
   xmlns:inkscape="http://www.inkscape.org/namespaces/inkscape"
   xmlns:sodipodi="http://sodipodi.sourceforge.net/DTD/sodipodi-0.dtd"
   xmlns="http://www.w3.org/2000/svg"
   xmlns:svg="http://www.w3.org/2000/svg"><sodipodi:namedview
     id="namedview1"
     pagecolor="#ffffff"
     bordercolor="#000000"
     borderopacity="0.25"
     inkscape:showpageshadow="2"
     inkscape:pageopacity="0.0"
     inkscape:pagecheckerboard="0"
     inkscape:deskcolor="#d1d1d1"
     inkscape:document-units="px"
     inkscape:zoom="11.313709"
     inkscape:cx="36.592775"
     inkscape:cy="28.59363"
     inkscape:window-width="1920"
     inkscape:window-height="1027"
     inkscape:window-x="-8"
     inkscape:window-y="-8"
     inkscape:window-maximized="1"
     inkscape:current-layer="layer1" /><defs
     id="defs1" /><g
     inkscape:label="Layer 1"
     inkscape:groupmode="layer"
     id="layer1"><g
       id="layer1-9"
       inkscape:label="Calque 1"
       transform="matrix(0.09422171,0,0,0.09422171,-25.631958,-10.567368)"><g
         id="g11649"><g
           id="g10138"
           transform="matrix(1.0262023,0,0,1.0262023,232.38686,49.444838)"><circle
             id="path8784-4"
             style="fill:#ffffff;stroke:#000000;stroke-width:10.28441108;stroke-dasharray:none"
             transform="matrix(0.99557,0,0,0.99557,292.08,-174.21)"
             cx="77.85714"
             cy="568.79077"
             r="322.14285" /><circle
             id="path8784-6-8"
             style="fill:none;stroke:#ff0000;stroke-width:110.5"
             transform="matrix(0.8145,0,0,0.8145,306.18,-71.219)"
             cx="77.85714"
             cy="568.79077"
             r="322.14285" /></g></g></g><g
       id="g1"
       transform="matrix(-0.33663284,0,0,0.33663284,13.006341,32.245372)"><path
         id="path9351"
         sodipodi:nodetypes="cssc"
         style="fill:none;stroke:#000000;stroke-width:13.1471"
         inkscape:connector-curvature="0"
         d="m -18.118798,-22.402181 c -12.695625,0 -34.624692,-0.183377 -43.856419,0 -11.397128,0.226395 -22.433499,3.094073 -22.505764,23.09259098 -0.07785,21.58290902 0,45.88217102 0,45.88217102" /><path
         sodipodi:type="star"
         style="fill:#000000;fill-opacity:1"
         id="path1"
         inkscape:flatsided="false"
         sodipodi:sides="3"
         sodipodi:cx="18.5"
         sodipodi:cy="-49.25"
         sodipodi:r1="35.338539"
         sodipodi:r2="17.66927"
         sodipodi:arg1="0"
         sodipodi:arg2="1.0471976"
         inkscape:rounded="0"
         inkscape:randomized="0"
         d="m 53.838539,-49.25 -26.503905,15.302037 -26.50390356,15.302036 0,-30.604074 0,-30.604072 26.50390556,15.302037 z"
         inkscape:transform-center-x="-5.7744321"
         transform="matrix(0.65361299,0,0,0.65361299,-38.661774,9.7882593)" /></g><rect
       id="rect9331-9"
       style="fill:#ff0000;stroke-width:0.12866"
       transform="matrix(-0.70710678,-0.70710678,-0.70710678,0.70710678,0,0)"
       ry="0"
       height="57.182655"
       width="6.9712787"
       y="-28.591328"
       x="-48.740475" /></g></svg>
