<?xml version="1.0" encoding="UTF-8" standalone="no"?>
<!-- Created with Inkscape (http://www.inkscape.org/) -->

<svg
   width="64"
   height="64"
   viewBox="0 0 64 64"
   version="1.1"
   id="svg1"
   inkscape:version="1.4 (86a8ad7, 2024-10-11)"
   sodipodi:docname="60.svg"
   xml:space="preserve"
   xmlns:inkscape="http://www.inkscape.org/namespaces/inkscape"
   xmlns:sodipodi="http://sodipodi.sourceforge.net/DTD/sodipodi-0.dtd"
   xmlns="http://www.w3.org/2000/svg"
   xmlns:svg="http://www.w3.org/2000/svg"><sodipodi:namedview
     id="namedview1"
     pagecolor="#ffffff"
     bordercolor="#000000"
     borderopacity="0.25"
     inkscape:showpageshadow="2"
     inkscape:pageopacity="0.0"
     inkscape:pagecheckerboard="0"
     inkscape:deskcolor="#d1d1d1"
     inkscape:document-units="px"
     inkscape:zoom="1.4142136"
     inkscape:cx="-10.606601"
     inkscape:cy="20.859649"
     inkscape:window-width="1920"
     inkscape:window-height="1027"
     inkscape:window-x="-8"
     inkscape:window-y="-8"
     inkscape:window-maximized="1"
     inkscape:current-layer="layer1" /><defs
     id="defs1" /><g
     inkscape:label="Layer 1"
     inkscape:groupmode="layer"
     id="layer1"><g
       id="g11649"
       transform="matrix(0.09422171,0,0,0.09422171,-25.631958,-10.567368)"><g
         id="g10138"
         transform="matrix(1.0262023,0,0,1.0262023,232.38686,49.444838)"><circle
           id="path8784-4"
           style="fill:#ffffff;stroke:#000000;stroke-width:10.2844;stroke-dasharray:none"
           transform="matrix(0.99557,0,0,0.99557,292.08,-174.21)"
           cx="77.85714"
           cy="568.79077"
           r="322.14285" /><circle
           id="path8784-6-8"
           style="fill:none;stroke:#ff0000;stroke-width:110.5"
           transform="matrix(0.8145,0,0,0.8145,306.18,-71.219)"
           cx="77.85714"
           cy="568.79077"
           r="322.14285" /></g></g><g
       id="g6"
       transform="translate(-1.0000004,1.8885883)"><g
         id="g5"
         transform="matrix(0.27411439,0,0,0.27411439,-6.9047642,25.987754)"><rect
           id="rect9993-6"
           style="fill:#ff0000;fill-opacity:1;stroke-width:0.369761"
           ry="2.2672243"
           height="15.677481"
           width="9.5645981"
           y="26.335575"
           x="83.81736" /><rect
           id="rect9993-8-1"
           style="fill:#ff0000;fill-opacity:1;stroke-width:0.369761"
           ry="2.2672243"
           height="15.677481"
           width="9.5645981"
           y="26.335575"
           x="128.55099" /><rect
           id="rect9993-5-8"
           style="fill:#ff0000;fill-opacity:1;stroke-width:0.369761"
           transform="rotate(-90)"
           ry="4.1365123"
           height="62.178947"
           width="20.956923"
           y="79.749992"
           x="-27.759155" /><path
           id="path10024-9"
           sodipodi:nodetypes="cssc"
           style="fill:none;stroke:#ff0000;stroke-width:5.54641;stroke-opacity:1"
           inkscape:connector-curvature="0"
           d="m 85.222444,13.07966 c 5.556023,-22.2240926 4.482239,-22.2240926 10.36513,-22.2240926 h 31.095016 c 6.91009,0 5.25282,0 9.56275,22.2240926" /><circle
           id="path11300"
           style="fill:#ffffff;stroke-width:0.407697"
           cx="88.136116"
           cy="16.093044"
           r="3.494544" /><circle
           id="path11302"
           style="fill:#ffffff;stroke-width:0.407697"
           cx="133.41901"
           cy="16.093044"
           r="3.494544" /></g><g
         id="g4"
         transform="matrix(0.27411439,0,0,0.27411439,12.961722,25.850697)"><g
           id="g3"
           transform="matrix(0.36976063,0,0,0.36976063,462.4473,-75.236843)"><rect
             id="rect1"
             style="fill:#000000"
             ry="6.1315999"
             height="42.398998"
             width="25.867001"
             y="276.04999"
             x="-1032.1" /><rect
             id="rect2"
             style="fill:#000000"
             ry="6.1315999"
             height="42.398998"
             width="25.867001"
             y="276.04999"
             x="-911.12" /><rect
             id="rect3"
             style="fill:#000000"
             transform="rotate(-90)"
             ry="11.187"
             height="168.16"
             width="56.676998"
             y="-1043.1"
             x="-279.89999" /><path
             id="path3"
             sodipodi:nodetypes="cssc"
             style="fill:none;stroke:#000000;stroke-width:15"
             inkscape:connector-curvature="0"
             d="m -1028.3,240.2 c 15.026,-60.104 12.122,-60.104 28.032,-60.104 h 84.095 c 18.688,0 14.206,0 25.862,60.104" /></g><circle
           id="circle3"
           style="fill:#ffffff;stroke-width:0.407697"
           cx="85.136116"
           cy="16.593044"
           r="3.494544" /><circle
           id="circle4"
           style="fill:#ffffff;stroke-width:0.407697"
           cx="130.41901"
           cy="16.593044"
           r="3.494544" /></g></g></g></svg>
