<?xml version="1.0" encoding="UTF-8" standalone="no"?>
<!-- Created with Inkscape (http://www.inkscape.org/) -->

<svg
   width="64"
   height="64"
   viewBox="0 0 64 64"
   version="1.1"
   id="svg1"
   inkscape:version="1.4 (86a8ad7, 2024-10-11)"
   sodipodi:docname="62.svg"
   xml:space="preserve"
   xmlns:inkscape="http://www.inkscape.org/namespaces/inkscape"
   xmlns:sodipodi="http://sodipodi.sourceforge.net/DTD/sodipodi-0.dtd"
   xmlns="http://www.w3.org/2000/svg"
   xmlns:svg="http://www.w3.org/2000/svg"><sodipodi:namedview
     id="namedview1"
     pagecolor="#ffffff"
     bordercolor="#000000"
     borderopacity="0.25"
     inkscape:showpageshadow="2"
     inkscape:pageopacity="0.0"
     inkscape:pagecheckerboard="0"
     inkscape:deskcolor="#d1d1d1"
     inkscape:document-units="px"
     inkscape:zoom="4.0000001"
     inkscape:cx="25.624999"
     inkscape:cy="29.124999"
     inkscape:window-width="1920"
     inkscape:window-height="1027"
     inkscape:window-x="-8"
     inkscape:window-y="-8"
     inkscape:window-maximized="1"
     inkscape:current-layer="layer1" /><defs
     id="defs1" /><g
     inkscape:label="Layer 1"
     inkscape:groupmode="layer"
     id="layer1"><g
       id="g11649"
       transform="matrix(0.09422171,0,0,0.09422171,-25.631958,-10.567368)"><g
         id="g10138"
         transform="matrix(1.0262023,0,0,1.0262023,232.38686,49.444838)"><circle
           id="path8784-4"
           style="fill:#ffffff;stroke:#000000;stroke-width:10.2844;stroke-dasharray:none"
           transform="matrix(0.99557,0,0,0.99557,292.08,-174.21)"
           cx="77.85714"
           cy="568.79077"
           r="322.14285" /><circle
           id="path8784-6-8"
           style="fill:none;stroke:#ff0000;stroke-width:110.5"
           transform="matrix(0.8145,0,0,0.8145,306.18,-71.219)"
           cx="77.85714"
           cy="568.79077"
           r="322.14285" /></g></g><path
       style="fill:#ff0000;fill-opacity:1;stroke-width:0.107063"
       d="m 17.123142,41.063922 -0.05266,-0.137274 0.02927,-1.977213 0.02927,-1.977212 h 1.391817 1.391812 l 0.02903,2.114486 0.02904,2.114484 h -1.397455 -1.397435 z m 11.218401,-1.974091 0.02904,-2.117608 h 1.39182 1.391806 v 2.087719 2.08772 l -1.42085,0.02988 -1.42085,0.02988 z m -5.171736,0.834848 -0.31295,-0.312953 V 39.074148 38.53657 l 0.249516,-0.290079 0.249515,-0.290081 0.589474,-0.04888 0.589473,-0.04888 0.335526,0.173507 0.335525,0.173508 0.110234,0.205978 0.110236,0.205979 v 0.497055 0.497056 l -0.312951,0.312951 -0.31295,0.312952 h -0.658849 -0.658843 z m -2.700282,-0.290005 -0.0751,-0.07511 0.0018,-0.437173 0.0018,-0.437171 0.08772,-0.138256 0.08772,-0.138255 0.954509,0.03119 0.954508,0.03119 v 0.588845 0.588844 l -0.968749,0.03049 -0.968755,0.03049 z m 5.322988,-0.07666 -0.05847,-0.152387 0.0335,-0.467264 0.0335,-0.467265 0.987291,-0.03075 0.987293,-0.03074 0.06446,0.25682 0.06446,0.256819 -0.03468,0.362768 -0.03467,0.362767 -0.992141,0.03081 -0.99214,0.03081 z m -8.717036,-3.817007 v -0.749438 h 7.066129 7.066128 v 0.749438 0.749438 h -7.066128 -7.066129 z m 0.0238,-6.485971 0.02975,-5.201221 0.207821,-0.151906 0.207824,-0.151909 6.590652,0.0017 6.590651,0.0017 0.117804,0.07866 0.117797,0.07866 0.123085,0.233851 0.123093,0.233853 v 5.038979 5.038979 h -7.069097 -7.069096 z"
       id="path1" /><path
       style="fill:#000000;stroke-width:0.107063"
       d="m 33.873142,41.063922 -0.05266,-0.137274 0.02927,-1.977213 0.02927,-1.977212 h 1.391817 1.391812 l 0.02903,2.114486 0.02904,2.114484 h -1.397455 -1.397435 z m 11.218399,-1.974091 0.029,-2.117608 h 1.39182 1.39181 v 2.087719 2.08772 l -1.42085,0.02988 -1.42085,0.02988 z m -5.171734,0.834848 -0.31295,-0.312953 V 39.074148 38.53657 l 0.249516,-0.290079 0.249515,-0.290081 0.589474,-0.04888 0.589473,-0.04888 0.335526,0.173507 0.335525,0.173508 0.110235,0.205978 0.11023,0.205979 v 0.497055 0.497056 l -0.312946,0.312951 -0.31295,0.312952 h -0.658849 -0.658843 z m -2.700282,-0.290005 -0.0751,-0.07511 0.0018,-0.437173 0.0018,-0.437171 0.08772,-0.138256 0.08772,-0.138255 0.954509,0.03119 0.954508,0.03119 v 0.588845 0.588844 l -0.968749,0.03049 -0.968755,0.03049 z m 5.322986,-0.07666 -0.0585,-0.152387 0.0335,-0.467264 0.0335,-0.467265 0.98729,-0.03075 0.9873,-0.03074 0.0645,0.25682 0.0645,0.256819 -0.0347,0.362768 -0.0347,0.362767 -0.99215,0.03081 -0.99214,0.03081 z m -8.717034,-3.817007 v -0.749438 h 7.066129 7.066125 v 0.749438 0.749438 h -7.066125 -7.066129 z m 0.0238,-6.485971 0.02975,-5.201221 0.207821,-0.151906 0.207824,-0.151909 6.590652,0.0017 6.590647,0.0017 0.11781,0.07866 0.11779,0.07866 0.12309,0.233851 0.12309,0.233853 v 5.038979 5.038979 h -7.069094 -7.069096 z"
       id="path2" /></g></svg>
