<?xml version="1.0" encoding="UTF-8" standalone="no"?>
<!-- Created with Inkscape (http://www.inkscape.org/) -->

<svg
   width="64"
   height="64"
   viewBox="0 0 64 64"
   version="1.1"
   id="svg1"
   inkscape:version="1.4 (86a8ad7, 2024-10-11)"
   sodipodi:docname="64.svg"
   xml:space="preserve"
   xmlns:inkscape="http://www.inkscape.org/namespaces/inkscape"
   xmlns:sodipodi="http://sodipodi.sourceforge.net/DTD/sodipodi-0.dtd"
   xmlns="http://www.w3.org/2000/svg"
   xmlns:svg="http://www.w3.org/2000/svg"><sodipodi:namedview
     id="namedview1"
     pagecolor="#ffffff"
     bordercolor="#000000"
     borderopacity="0.25"
     inkscape:showpageshadow="2"
     inkscape:pageopacity="0.0"
     inkscape:pagecheckerboard="0"
     inkscape:deskcolor="#d1d1d1"
     inkscape:document-units="px"
     inkscape:zoom="2.0000001"
     inkscape:cx="18"
     inkscape:cy="36.749999"
     inkscape:window-width="1920"
     inkscape:window-height="1027"
     inkscape:window-x="-8"
     inkscape:window-y="-8"
     inkscape:window-maximized="1"
     inkscape:current-layer="layer1" /><defs
     id="defs1" /><g
     inkscape:label="Layer 1"
     inkscape:groupmode="layer"
     id="layer1"><g
       id="g11649"
       transform="matrix(0.09422171,0,0,0.09422171,-25.631958,-10.567368)"><g
         id="g10138"
         transform="matrix(1.0262023,0,0,1.0262023,232.38686,49.444838)"><circle
           id="path8784-4"
           style="fill:#ffffff;stroke:#000000;stroke-width:10.2844;stroke-dasharray:none"
           transform="matrix(0.99557,0,0,0.99557,292.08,-174.21)"
           cx="77.85714"
           cy="568.79077"
           r="322.14285" /><circle
           id="path8784-6-8"
           style="fill:none;stroke:#ff0000;stroke-width:110.5"
           transform="matrix(0.8145,0,0,0.8145,306.18,-71.219)"
           cx="77.85714"
           cy="568.79077"
           r="322.14285" /></g></g><path
       style="fill:#000000;stroke-width:0.130257"
       d="m 36.4592,40.868766 c -2.143765,-0.766347 -2.7637,-3.502657 -1.179555,-5.20639 1.0395,-1.117974 2.95492,-1.251262 4.20997,-0.292959 1.21017,0.924033 1.598766,2.74354 0.855853,4.007321 -0.833629,1.418096 -2.40522,2.021468 -3.886268,1.492028 z m 1.905108,-0.9783 c 2.199306,-0.999004 1.555576,-4.183899 -0.845648,-4.183899 -2.026947,0 -2.941968,2.744919 -1.303858,3.911358 0.764068,0.544064 1.37986,0.622142 2.149506,0.272541 z m 7.062884,1.034751 c -1.385032,-0.447397 -2.186758,-1.594935 -2.180773,-3.121412 0.0068,-1.73118 1.314023,-3.040118 3.058179,-3.062159 0.952524,-0.01205 1.536171,0.206885 2.19254,0.822421 0.936165,0.877923 1.2379,1.884092 0.925123,3.084917 -0.372723,1.430988 -1.375176,2.261715 -2.82977,2.345023 -0.444906,0.02548 -0.969291,-0.0055 -1.165299,-0.06879 z m 1.804325,-1.039108 c 1.194235,-0.542323 1.664404,-1.876126 1.060059,-3.007228 -0.837844,-1.568127 -3.096178,-1.54516 -3.863193,0.03928 -0.338413,0.699067 -0.346258,1.260439 -0.02638,1.887195 0.314813,0.616823 0.652702,0.919203 1.275244,1.14123 0.665295,0.237272 0.920456,0.227346 1.554263,-0.06048 z m -25.929342,0.542275 c 0.06358,-0.413369 -0.07794,-0.838905 -0.920521,-2.767963 -0.547611,-1.253724 -1.044261,-2.329788 -1.103664,-2.391258 -0.05941,-0.06147 -0.596983,0.175055 -1.194617,0.525602 -1.086603,0.637362 -1.086603,0.637362 -1.151733,1.928602 -0.06514,1.291243 -0.06514,1.291243 -0.488465,1.537937 -0.423334,0.246697 -0.423334,0.246697 -0.423334,-1.636808 0,-1.883506 0,-1.883506 1.270008,-2.707505 0.698502,-0.4532 1.314291,-0.859855 1.36842,-0.903683 0.05413,-0.04383 0.0031,-0.359311 -0.113314,-0.701078 -0.138895,-0.407637 -0.188543,-0.853225 -0.144327,-1.295331 0.05897,-0.589682 0.01009,-0.783869 -0.391287,-1.553179 -0.252276,-0.483576 -0.524694,-0.879351 -0.605373,-0.879499 -0.08067,-1.27e-4 -0.662324,0.09437 -1.292547,0.210043 -1.082468,0.198672 -1.159938,0.197569 -1.400263,-0.01993 -0.139921,-0.126626 -0.253539,-0.265109 -0.252485,-0.307734 0.001,-0.04262 0.469119,-0.605048 1.040143,-1.24982 0.963464,-1.087899 1.038362,-1.213928 1.040139,-1.750274 0.0017,-0.57796 0.0017,-0.57796 0.360121,-0.248445 0.209697,0.192899 0.729889,0.426952 1.254705,0.564533 1.189716,0.311891 1.585783,0.681363 2.916052,2.72027 1.094049,1.676851 1.094049,1.676851 2.939232,1.592663 1.014847,-0.04631 2.349989,-0.117844 2.966978,-0.158968 0.881973,-0.05879 1.207592,-0.03039 1.523127,0.132769 0.279098,0.144327 0.428158,0.164131 0.489411,0.06502 0.04845,-0.07838 0.356325,-0.312629 0.684178,-0.520549 1.042377,-0.661056 2.282417,-0.4451 2.932988,0.510789 0.309969,0.455436 0.605727,1.292179 0.607296,1.71813 7.06e-4,0.190645 -0.848571,0.805655 -1.099824,0.796445 -0.06799,-0.0025 -0.223734,-0.430575 -0.346097,-0.951298 -0.334908,-1.425205 -1.087322,-1.92571 -1.874973,-1.247225 -0.340234,0.293079 -0.340234,0.293079 -0.06393,0.917158 0.210404,0.475226 0.267779,0.832946 0.240554,1.499816 -0.03481,0.852656 -0.01757,0.90586 0.654438,2.018386 0.690193,1.142648 0.690193,1.142648 0.463211,2.733536 -0.124838,0.87499 -0.291259,1.660302 -0.369825,1.74514 -0.07857,0.08484 -0.304038,0.193767 -0.501052,0.242071 -0.429509,0.105294 -0.424455,0.157767 -0.157063,-1.630532 0.110625,-0.739869 0.183896,-1.419326 0.16282,-1.509898 -0.04223,-0.181488 -2.325952,-2.045559 -2.406896,-1.964615 -0.02774,0.02774 0.02036,0.582482 0.106943,1.232725 0.157407,1.182258 0.157407,1.182258 -0.61408,2.68721 -0.771483,1.504956 -0.771483,1.504956 -1.325076,1.505079 -0.304477,6.8e-5 -0.553591,-0.01782 -0.553591,-0.03973 0,-0.02191 0.351314,-0.681346 0.780699,-1.46539 0.429385,-0.784042 0.781078,-1.462156 0.78154,-1.50692 7.07e-4,-0.06171 -1.342841,-2.460323 -1.511645,-2.698855 -0.01746,-0.02467 -0.556361,0.02332 -1.197567,0.106683 -0.845055,0.10983 -1.499764,0.114241 -2.379504,0.01601 -0.667523,-0.07452 -1.239882,-0.109298 -1.271906,-0.07727 -0.03202,0.03202 0.305728,1.10802 0.750563,2.391089 0.656635,1.893955 0.792181,2.421437 0.720471,2.80368 -0.08091,0.431311 -0.125503,0.470831 -0.531271,0.470831 -0.438365,0 -0.442167,-0.005 -0.36781,-0.488465 z m 18.500473,-5.100543 c -0.396463,-0.438086 -1.511047,-0.843992 -2.290398,-0.834114 -0.705906,0.0089 -1.833351,0.391451 -2.013636,0.683157 -0.161281,0.260958 -0.33099,3.52e-4 -0.33099,-0.507842 0,-0.452121 -0.06368,-0.546872 -0.651284,-0.969023 -0.699879,-0.502812 -0.78142,-0.700961 -0.422228,-1.026026 0.210164,-0.190193 0.255831,-0.186726 0.553594,0.04205 0.178492,0.13714 0.396197,0.250644 0.483791,0.252238 0.0876,0.0014 0.578463,-0.642591 1.090825,-1.431517 0.993752,-1.530163 1.002274,-1.536326 2.201727,-1.592862 0.701672,-0.03307 0.716413,-0.04181 0.716413,-0.424535 0,-0.390774 0,-0.390774 -1.028589,-0.4559 -0.790369,-0.05005 -1.061719,-0.117922 -1.171646,-0.293079 -0.103905,-0.165566 -0.103905,-0.290333 0,-0.455899 0.109927,-0.175158 0.381277,-0.243034 1.171646,-0.293081 1.028589,-0.06513 1.028589,-0.06513 1.066995,-0.939501 0.03345,-0.761782 0.08185,-0.908547 0.375771,-1.139749 0.381212,-0.299861 0.667968,-0.330546 1.128414,-0.120753 0.519179,0.236551 0.60665,0.638901 0.60665,2.790435 0,2.010998 0,2.010998 4.070532,2.045421 4.070531,0.03442 4.070531,0.03442 4.107721,2.183659 0.02045,1.182082 0.0047,2.281124 -0.03505,2.442319 -0.08449,0.342787 -0.476024,0.389925 -0.72699,0.08753 -0.256041,-0.308508 -1.287071,-0.792948 -1.908059,-0.896516 -0.70666,-0.117854 -1.761439,0.182384 -2.486866,0.70788 -0.544154,0.39418 -0.544154,0.39418 -2.41382,0.39418 -1.674029,0 -1.893196,-0.02601 -2.094528,-0.248466 z m -1.409031,-2.930618 c 0.231661,-0.387314 0.421203,-0.73901 0.421203,-0.781544 0,-0.04253 -0.23228,-0.07733 -0.516175,-0.07733 -0.485072,0 -0.548156,0.04709 -1.046909,0.781541 -0.530736,0.781544 -0.530736,0.781544 0.09496,0.781544 0.618339,0 0.630668,-0.0082 1.046911,-0.704204 z m -4.333177,2.926641 c -0.143284,-0.05812 -0.913979,-0.26707 -1.71266,-0.464331 -1.639362,-0.404899 -1.807755,-0.479651 -1.701909,-0.755478 0.0659,-0.171708 0.193131,-0.165019 1.027439,0.05402 2.841489,0.746011 3.204872,0.888385 3.022131,1.184065 -0.07871,0.127354 -0.291048,0.121244 -0.635001,-0.01827 z m 5.174974,-10.125038 c -0.237144,-0.09542 -0.550851,-0.752506 -0.550851,-1.153814 0,-0.451235 0.652396,-1.103633 1.103633,-1.103633 0.558311,0 1.075685,0.345784 1.233685,0.824527 0.267897,0.81174 -0.247858,1.52613 -1.090019,1.509818 -0.291987,-0.0056 -0.605389,-0.04027 -0.696448,-0.0769 z"
       id="path1" /></g></svg>
