<?xml version="1.0" encoding="UTF-8" standalone="no"?>
<!-- Created with Inkscape (http://www.inkscape.org/) -->

<svg
   width="64"
   height="64"
   viewBox="0 0 64 64"
   version="1.1"
   id="svg1"
   inkscape:version="1.4 (86a8ad7, 2024-10-11)"
   sodipodi:docname="65.svg"
   xml:space="preserve"
   xmlns:inkscape="http://www.inkscape.org/namespaces/inkscape"
   xmlns:sodipodi="http://sodipodi.sourceforge.net/DTD/sodipodi-0.dtd"
   xmlns="http://www.w3.org/2000/svg"
   xmlns:svg="http://www.w3.org/2000/svg"><sodipodi:namedview
     id="namedview1"
     pagecolor="#ffffff"
     bordercolor="#000000"
     borderopacity="0.25"
     inkscape:showpageshadow="2"
     inkscape:pageopacity="0.0"
     inkscape:pagecheckerboard="0"
     inkscape:deskcolor="#d1d1d1"
     inkscape:document-units="px"
     inkscape:zoom="2.0000001"
     inkscape:cx="-47.249998"
     inkscape:cy="-76.749996"
     inkscape:window-width="1920"
     inkscape:window-height="1027"
     inkscape:window-x="-8"
     inkscape:window-y="-8"
     inkscape:window-maximized="1"
     inkscape:current-layer="layer1" /><defs
     id="defs1" /><g
     inkscape:label="Layer 1"
     inkscape:groupmode="layer"
     id="layer1"><g
       id="g11649"
       transform="matrix(0.09422171,0,0,0.09422171,-25.631958,-10.567368)"><g
         id="g10138"
         transform="matrix(1.0262023,0,0,1.0262023,232.38686,49.444838)"><circle
           id="path8784-4"
           style="fill:#ffffff;stroke:#000000;stroke-width:10.2844;stroke-dasharray:none"
           transform="matrix(0.99557,0,0,0.99557,292.08,-174.21)"
           cx="77.85714"
           cy="568.79077"
           r="322.14285" /><circle
           id="path8784-6-8"
           style="fill:none;stroke:#ff0000;stroke-width:110.5"
           transform="matrix(0.8145,0,0,0.8145,306.18,-71.219)"
           cx="77.85714"
           cy="568.79077"
           r="322.14285" /></g></g><path
       id="path12248"
       d="m 24.45197,22.316215 c -0.959477,0 -1.526425,1.744449 -1.875263,2.485816 -0.348889,0.74139 -1.308315,2.66032 -1.308315,2.66032 0,0 -4.062494,2.125494 -4.535584,2.398606 -0.473098,0.273146 -0.392503,1.133895 -0.130831,1.526425 0.206686,0.310034 0.785006,0.69778 1.395524,0.392503 0.610562,-0.305276 5.015322,-2.52942 5.015322,-2.52942 l 1.133897,-3.009159 0.675977,4.666398 c 0,0 -5.004011,10.882189 -5.276951,11.491792 -0.272965,0.60956 -0.489065,0.554626 -0.806809,0.457919 -0.250766,-0.07633 -0.711707,0.03361 -0.948511,0.556042 -0.3707,0.817715 0.03271,1.27559 0.556042,1.4937 0.491395,0.204743 2.703926,1.046686 2.703926,1.046686 l 5.66948,-11.906252 h 0.785006 l 4.906268,10.085215 c 0,0 -0.152644,0.07631 -0.414306,0.250766 -0.261671,0.174445 -0.479722,0.915873 -0.174445,1.35192 0.305276,0.436116 1.221105,0.610561 1.918868,0.261672 0.697779,-0.34889 2.355002,-1.221107 2.355002,-1.221107 l -6.846981,-14.173699 -0.959478,-4.62279 2.093374,1.744446 c 0,0 1.544643,4.642999 1.907987,5.473215 0.36338,0.83026 0.971825,0.928393 1.40226,0.775974 0.344633,-0.122076 0.963708,-0.536105 0.614784,-1.582808 -0.34889,-1.046687 -1.875264,-5.71308 -1.875264,-5.71308 l -3.990394,-4.012249 c 0,0 -1.373765,-0.828605 -1.766295,-0.828605 -0.109031,0 -0.0218,-1.024841 -0.0218,-1.024841 0,0 1.24295,-0.894028 1.24295,-2.202342 0,-1.308314 -1.308315,-2.573112 -2.725684,-2.573112 -1.33111,0 -2.420452,1.133894 -2.507661,2.529424 -0.08723,1.395518 0.827384,2.10183 1.700844,2.442208 0.207195,0.08074 0.08723,1.308315 0.08723,1.308315 z"
       sodipodi:nodetypes="cscsssccczsssccccssscccczssccscssssc"
       style="fill:#000000;stroke:#000000;stroke-width:0.086346px"
       inkscape:connector-curvature="0" /><path
       id="path1"
       d="m 38.232777,28.442846 c -0.703569,0 -1.119302,1.279176 -1.375099,1.822808 -0.255836,0.543649 -0.959366,1.950768 -0.959366,1.950768 0,0 -2.97896,1.558589 -3.325869,1.758858 -0.346915,0.200293 -0.287816,0.831466 -0.09594,1.119302 0.15156,0.227343 0.575632,0.511671 1.023314,0.287816 0.447715,-0.223854 3.677653,-1.854781 3.677653,-1.854781 l 0.831468,-2.206567 0.495682,3.421792 c 0,0 -3.669358,7.979729 -3.869501,8.426741 -0.20016,0.44698 -0.358622,0.406699 -0.591619,0.335784 -0.183883,-0.05597 -0.521883,0.02464 -0.695527,0.407737 -0.271829,0.599616 0.02398,0.935368 0.407736,1.095305 0.360332,0.150135 1.982744,0.767518 1.982744,0.767518 L 39.89579,37.04527 h 0.575632 l 3.597684,7.39532 c 0,0 -0.111927,0.05596 -0.303804,0.183883 -0.191878,0.127917 -0.351772,0.671594 -0.127917,0.99134 0.223854,0.319797 0.895417,0.447715 1.407074,0.19188 0.51167,-0.255835 1.726884,-0.895417 1.726884,-0.895417 l -5.020778,-10.393339 -0.703569,-3.389815 1.535036,1.279173 c 0,0 1.132662,3.404634 1.399096,4.013418 0.26646,0.608816 0.712624,0.680775 1.028254,0.569009 0.252714,-0.08952 0.706671,-0.393117 0.450811,-1.160647 -0.255835,-0.767518 -1.3751,-4.189307 -1.3751,-4.189307 l -2.92609,-2.942115 c 0,0 -1.007359,-0.607603 -1.295195,-0.607603 -0.07995,0 -0.01599,-0.751498 -0.01599,-0.751498 0,0 0.911435,-0.655577 0.911435,-1.614942 0,-0.959365 -0.959366,-1.88682 -1.998699,-1.88682 -0.976081,0 -1.774878,0.831466 -1.838827,1.854785 -0.06396,1.02331 0.606707,1.541237 1.247201,1.79083 0.151932,0.05921 0.06396,0.959365 0.06396,0.959365 z"
       sodipodi:nodetypes="cscsssccczsssccccssscccczssccscssssc"
       style="fill:#000000;stroke:#000000;stroke-width:0.0633161px"
       inkscape:connector-curvature="0" /></g></svg>
