<?xml version="1.0" encoding="UTF-8" standalone="no"?>
<!-- Created with Inkscape (http://www.inkscape.org/) -->

<svg
   width="64"
   height="64"
   viewBox="0 0 64 64"
   version="1.1"
   id="svg1"
   inkscape:version="1.4 (86a8ad7, 2024-10-11)"
   sodipodi:docname="66.svg"
   xml:space="preserve"
   xmlns:inkscape="http://www.inkscape.org/namespaces/inkscape"
   xmlns:sodipodi="http://sodipodi.sourceforge.net/DTD/sodipodi-0.dtd"
   xmlns="http://www.w3.org/2000/svg"
   xmlns:svg="http://www.w3.org/2000/svg"><sodipodi:namedview
     id="namedview1"
     pagecolor="#ffffff"
     bordercolor="#000000"
     borderopacity="0.25"
     inkscape:showpageshadow="2"
     inkscape:pageopacity="0.0"
     inkscape:pagecheckerboard="0"
     inkscape:deskcolor="#d1d1d1"
     inkscape:document-units="px"
     inkscape:zoom="2.8284273"
     inkscape:cx="-6.187184"
     inkscape:cy="37.653434"
     inkscape:window-width="1920"
     inkscape:window-height="1027"
     inkscape:window-x="-8"
     inkscape:window-y="-8"
     inkscape:window-maximized="1"
     inkscape:current-layer="layer1" /><defs
     id="defs1" /><g
     inkscape:label="Layer 1"
     inkscape:groupmode="layer"
     id="layer1"><g
       id="g11649"
       transform="matrix(0.09422171,0,0,0.09422171,-25.631958,-10.567368)"><g
         id="g10138"
         transform="matrix(1.0262023,0,0,1.0262023,232.38686,49.444838)"><circle
           id="path8784-4"
           style="fill:#ffffff;stroke:#000000;stroke-width:10.2844;stroke-dasharray:none"
           transform="matrix(0.99557,0,0,0.99557,292.08,-174.21)"
           cx="77.85714"
           cy="568.79077"
           r="322.14285" /><circle
           id="path8784-6-8"
           style="fill:none;stroke:#ff0000;stroke-width:110.5"
           transform="matrix(0.8145,0,0,0.8145,306.18,-71.219)"
           cx="77.85714"
           cy="568.79077"
           r="322.14285" /></g></g><g
       id="g12377"
       transform="matrix(0.0973939,0,0,0.0973939,-135.58657,-5.7044783)"><g
         id="g12359"><path
           id="path12275"
           d="m 1654.3,329.51 117.14,2.1428"
           style="fill:none;stroke:#000000;stroke-width:10"
           inkscape:connector-curvature="0" /><path
           id="path12277"
           d="M 1780.7,308.08 1735,440.93"
           sodipodi:nodetypes="cc"
           style="fill:none;stroke:#000000;stroke-width:10"
           inkscape:connector-curvature="0" /><path
           id="path12279"
           d="m 1650,344.51 80.714,92.857"
           style="fill:none;stroke:#000000;stroke-width:10"
           inkscape:connector-curvature="0" /><path
           id="path12285"
           d="m 1724.6,395.58 15.4,78.93"
           style="fill:none;stroke:#000000;stroke-width:10"
           inkscape:connector-curvature="0" /><path
           id="path12289"
           d="m 1790.7,295.89 h -35.608 c -5.5558,0 -8.5863,2.0203 -8.5863,6.8185 0,4.7982 6.3135,6.3134 12.374,8.5863 6.0609,2.2728 16.162,9.3439 28.537,4.0406 12.374,-5.3033 14.142,-7.8287 14.395,-11.364 0.2526,-3.5355 -2.2097,-8.0812 -11.112,-8.0812 z"
           style="fill:#000000;stroke:#000000;stroke-width:1px"
           inkscape:connector-curvature="0" /><circle
           id="path12293"
           style="fill:#ffffff;stroke:#000000;stroke-width:0.38635"
           transform="matrix(23.654,0,0,23.654,-23060,-9677)"
           cx="1042.9825"
           cy="427.07776"
           r="2.5253813" /><circle
           id="path12291"
           style="fill:#000000"
           transform="matrix(4.783,0,0,4.783,-3378.5,-1617.8)"
           cx="1042.9825"
           cy="427.07776"
           r="2.5253813" /><path
           id="path12287"
           d="m 1678.6,290.58 c 0,0 -20,-0.71428 -27.857,-0.71428 -5.7143,0 -11.69,7.1397 -11.786,10.714 -0.1431,5.3518 3.8126,9.7631 12.174,10.532 11.58,1.0649 3.8979,16.611 0.6837,25.897 -3.2143,9.2857 -15.714,50.357 -15.714,50.357 0,0 -9.4232,34.42 -26.429,38.214"
           sodipodi:nodetypes="csssscc"
           style="fill:none;stroke:#000000;stroke-width:10"
           inkscape:connector-curvature="0" /><rect
           id="rect12295"
           ry="0"
           style="fill:#000000"
           rx="0"
           transform="rotate(-7.4904)"
           height="9.2662001"
           width="19.544001"
           y="613.47998"
           x="1648.5" /><rect
           id="rect12297"
           style="fill:#000000"
           transform="rotate(-7.4904)"
           rx="0"
           ry="0"
           height="9.2662001"
           width="19.544001"
           y="690.97998"
           x="1653.8" /><circle
           id="path12325"
           style="fill:#ffffff;stroke:#000000;stroke-width:0.38635"
           transform="matrix(23.654,0,0,23.654,-22840,-9677)"
           cx="1042.9825"
           cy="427.07776"
           r="2.5253813" /><circle
           id="path12327"
           style="fill:#000000"
           transform="matrix(4.783,0,0,4.783,-3158.5,-1617.8)"
           cx="1042.9825"
           cy="427.07776"
           r="2.5253813" /><path
           id="path12281"
           d="m 1773.2,332.36 60,95"
           style="fill:none;stroke:#000000;stroke-width:10"
           inkscape:connector-curvature="0" /><path
           id="path12283"
           d="m 1733.6,432.72 100,-7.1429"
           style="fill:none;stroke:#000000;stroke-width:10"
           inkscape:connector-curvature="0" /></g><circle
         id="path12375"
         style="fill:#000000"
         transform="translate(569.29,-4.2857)"
         cx="1162.8572"
         cy="436.64789"
         r="18.571428" /></g></g></svg>
