<?xml version="1.0" encoding="UTF-8" standalone="no"?>
<!-- Created with Inkscape (http://www.inkscape.org/) -->

<svg
   width="64"
   height="64"
   viewBox="0 0 64 64"
   version="1.1"
   id="svg1"
   inkscape:version="1.4 (86a8ad7, 2024-10-11)"
   sodipodi:docname="67.svg"
   xml:space="preserve"
   xmlns:inkscape="http://www.inkscape.org/namespaces/inkscape"
   xmlns:sodipodi="http://sodipodi.sourceforge.net/DTD/sodipodi-0.dtd"
   xmlns="http://www.w3.org/2000/svg"
   xmlns:svg="http://www.w3.org/2000/svg"><sodipodi:namedview
     id="namedview1"
     pagecolor="#ffffff"
     bordercolor="#000000"
     borderopacity="0.25"
     inkscape:showpageshadow="2"
     inkscape:pageopacity="0.0"
     inkscape:pagecheckerboard="0"
     inkscape:deskcolor="#d1d1d1"
     inkscape:document-units="px"
     inkscape:zoom="2.8284273"
     inkscape:cx="-6.187184"
     inkscape:cy="37.653434"
     inkscape:window-width="1920"
     inkscape:window-height="1027"
     inkscape:window-x="-8"
     inkscape:window-y="-8"
     inkscape:window-maximized="1"
     inkscape:current-layer="layer1" /><defs
     id="defs1" /><g
     inkscape:label="Layer 1"
     inkscape:groupmode="layer"
     id="layer1"><g
       id="g11649"
       transform="matrix(0.09422171,0,0,0.09422171,-25.631958,-10.567368)"><g
         id="g10138"
         transform="matrix(1.0262023,0,0,1.0262023,232.38686,49.444838)"><circle
           id="path8784-4"
           style="fill:#ffffff;stroke:#000000;stroke-width:10.2844;stroke-dasharray:none"
           transform="matrix(0.99557,0,0,0.99557,292.08,-174.21)"
           cx="77.85714"
           cy="568.79077"
           r="322.14285" /><circle
           id="path8784-6-8"
           style="fill:none;stroke:#ff0000;stroke-width:110.5"
           transform="matrix(0.8145,0,0,0.8145,306.18,-71.219)"
           cx="77.85714"
           cy="568.79077"
           r="322.14285" /></g></g><g
       id="g11285"
       transform="matrix(0.16720871,0,0,0.16720871,94.280821,-44.266654)"><path
         id="path10753"
         d="m -302.69,426.28 c -7.1429,0 -58.929,1.7857 -58.929,1.7857 0,0 -4.2857,-5.7143 -10.714,-6.4286 -6.4286,-0.71429 -24.434,-2.5396 -26.934,-2.5396 -2.5,0 -8.7806,0.0396 -10.566,0.0396 -1.7857,0 -3.9682,-4.1991 -10.945,-4.1991 -5.7143,0 -8.171,5.7935 -8.171,10.436 0,4.6428 6.0498,9.2334 8.7284,9.2334 2.6786,0 10.142,5.2508 14.423,11.14 4.2804,5.8893 7.1592,5.8893 11.322,5.8893 3.153,0 4.5166,0.24881 4.6428,3.9286 0.13052,3.8038 -1.0102,5 -2.4387,5 -1.4286,0 -2.5613,3.9286 -2.5613,7.8571 0,3.9286 3.9286,13.929 10.714,13.929 6.7857,0 45.536,-0.17857 45.536,-0.17857 0,0 -0.89286,-23.393 13.393,-30.357 14.212,-6.9286 20.311,-4.9885 23.929,-5.8929 1.4286,-0.35713 -1.4286,-19.643 -1.4286,-19.643 z"
         sodipodi:nodetypes="ccsssssssssssscssc"
         style="fill:#000000"
         inkscape:connector-curvature="0" /><circle
         id="path10755"
         style="fill:#000000"
         transform="matrix(1.1346,0,0,1.1346,249.28,-74.213)"
         cx="-608.92859"
         cy="484.86218"
         r="27.857143" /><circle
         id="path10757"
         style="fill:#ffffff"
         transform="matrix(0.73077,0,0,0.73077,3.3685,121.6)"
         cx="-608.92859"
         cy="484.86218"
         r="27.857143" /><circle
         id="path10759"
         style="fill:#000000"
         transform="matrix(0.41026,0,0,0.41026,-191.8,277)"
         cx="-608.92859"
         cy="484.86218"
         r="27.857143" /><path
         id="path11269"
         d="m -439.65,475.74 c 0,0 27.857,-40.536 29.821,-43.929"
         sodipodi:nodetypes="cc"
         style="fill:none;stroke:#000000;stroke-width:10;stroke-linecap:round"
         inkscape:connector-curvature="0" /><path
         id="path11271"
         d="m -403.58,421.99 c 0,-6.6071 0.35714,-11.429 17.857,-14.821"
         style="fill:none;stroke:#000000;stroke-width:5"
         inkscape:connector-curvature="0" /><circle
         id="path11273"
         style="fill:#000000"
         transform="matrix(1.1346,0,0,1.1346,384.01,-74.213)"
         cx="-608.92859"
         cy="484.86218"
         r="27.857143" /><circle
         id="path11275"
         style="fill:#ffffff"
         transform="matrix(0.73077,0,0,0.73077,138.09,121.6)"
         cx="-608.92859"
         cy="484.86218"
         r="27.857143" /><circle
         id="path11277"
         style="fill:#000000"
         transform="matrix(0.41026,0,0,0.41026,-57.078,277)"
         cx="-608.92859"
         cy="484.86218"
         r="27.857143" /><path
         id="path11279"
         d="m -271.73,477.73 h -71.468"
         style="fill:none;stroke:#000000;stroke-width:8"
         inkscape:connector-curvature="0" /><path
         id="path11283"
         d="m -306.18,477.62 -16.189,-37.017"
         style="fill:none;stroke:#000000;stroke-width:5"
         inkscape:connector-curvature="0" /></g></g></svg>
