<?xml version="1.0" encoding="UTF-8" standalone="no"?>
<!-- Created with Inkscape (http://www.inkscape.org/) -->

<svg
   width="64"
   height="64"
   viewBox="0 0 64 64"
   version="1.1"
   id="svg1"
   inkscape:version="1.4 (86a8ad7, 2024-10-11)"
   sodipodi:docname="68.svg"
   xml:space="preserve"
   xmlns:inkscape="http://www.inkscape.org/namespaces/inkscape"
   xmlns:sodipodi="http://sodipodi.sourceforge.net/DTD/sodipodi-0.dtd"
   xmlns="http://www.w3.org/2000/svg"
   xmlns:svg="http://www.w3.org/2000/svg"><sodipodi:namedview
     id="namedview1"
     pagecolor="#ffffff"
     bordercolor="#000000"
     borderopacity="0.25"
     inkscape:showpageshadow="2"
     inkscape:pageopacity="0.0"
     inkscape:pagecheckerboard="0"
     inkscape:deskcolor="#d1d1d1"
     inkscape:document-units="px"
     inkscape:zoom="2.8284273"
     inkscape:cx="9.1923876"
     inkscape:cy="-1.5909902"
     inkscape:window-width="1920"
     inkscape:window-height="1027"
     inkscape:window-x="-8"
     inkscape:window-y="-8"
     inkscape:window-maximized="1"
     inkscape:current-layer="layer1" /><defs
     id="defs1" /><g
     inkscape:label="Layer 1"
     inkscape:groupmode="layer"
     id="layer1"><g
       id="g11649"
       transform="matrix(0.09422171,0,0,0.09422171,-25.631958,-10.567368)"><g
         id="g10138"
         transform="matrix(1.0262023,0,0,1.0262023,232.38686,49.444838)"><circle
           id="path8784-4"
           style="fill:#ffffff;stroke:#000000;stroke-width:10.2844;stroke-dasharray:none"
           transform="matrix(0.99557,0,0,0.99557,292.08,-174.21)"
           cx="77.85714"
           cy="568.79077"
           r="322.14285" /><circle
           id="path8784-6-8"
           style="fill:none;stroke:#ff0000;stroke-width:110.5"
           transform="matrix(0.8145,0,0,0.8145,306.18,-71.219)"
           cx="77.85714"
           cy="568.79077"
           r="322.14285" /></g></g><g
       id="g5"
       transform="matrix(-0.05265339,0,0,0.05265339,23.50627,19.699307)"><path
         style="fill:#000000"
         d="m -453.06598,410.19941 c -7.63348,-1.85174 -12.0456,-5.93557 -14.46349,-13.38731 -2.5254,-7.78308 -1.40703,-10.21242 20.87933,-45.3541 l 20.81457,-32.82092 3.08558,-12.5 c 1.69707,-6.875 4.48233,-18.35 6.18947,-25.5 1.70714,-7.15 4.65429,-19.38375 6.54921,-27.1861 1.89493,-7.80236 3.44533,-14.88041 3.44533,-15.72901 0,-0.84859 -0.94773,-4.42987 -2.10606,-7.95839 l -2.10606,-6.4155 2.06085,-17.3555 c 5.99582,-50.49411 11.36453,-90.94009 12.68073,-95.53215 1.79985,-6.27943 9.98469,-15.742891 15.96601,-18.460187 4.77539,-2.169446 11.34909,-2.378804 15.78665,-0.502771 7.1466,3.021314 17.64155,17.158788 17.69592,23.837708 0.0147,1.80719 5.52014,10.88775 16.6729,27.5 9.15802,13.64104 16.98202,25.17839 17.38666,25.63855 0.40464,0.46015 11.9576,4.34444 25.67325,8.63173 13.71565,4.2873 25.83445,8.35521 26.93066,9.03981 3.61508,2.25765 6.56453,7.70966 6.87831,12.71443 0.25444,4.05836 0.85152,3.87799 -0.92265,8.19585 -1.45144,3.53243 -3.63641,6.47703 -9.8834,7.64987 -1.76757,0.39124 -4.34729,0.68146 -5.7327,0.64495 -3.84111,-0.10124 -55.90225,-16.11677 -61.15391,-18.81274 -1.5431,-0.79216 -6.375,-6.87294 -11.43166,-14.38634 -8.20094,-12.18531 -10.3955,-14.68644 -10.3955,-11.8477 0,2.07727 -5.91441,49.14923 -6.93973,55.23237 -0.54685,3.24439 -0.69258,6.39439 -0.32384,7 0.36873,0.60561 11.7653,16.6494 25.32571,35.65286 13.5604,19.00346 25.11573,35.42846 25.67851,36.5 0.56277,1.07154 3.80099,13.64826 7.19604,27.94826 3.39505,14.3 7.72318,32.4449 9.61807,40.322 4.8985,20.36323 4.47903,26.11745 -2.37348,32.55941 -3.08443,2.89964 -11.47568,5.78168 -14.86008,5.10382 -1.00166,-0.20062 -3.05045,-0.62337 -4.55286,-0.93945 -3.80319,-0.8001 -9.11017,-5.72292 -11.04614,-10.24652 -0.89428,-2.08959 -4.8482,-17.52426 -8.78649,-34.29926 -3.93829,-16.775 -7.89744,-33.5326 -8.79812,-37.23912 -1.4691,-6.04575 -3.27756,-9.02236 -17.57723,-28.93106 -8.76681,-12.20558 -16.06052,-21.77298 -16.20825,-21.26089 -0.14773,0.51209 -3.21417,13.26332 -6.81431,28.33608 l -6.54572,27.40501 -21.93415,34.5986 c -20.86703,32.91536 -24.94878,38.55475 -29.55793,40.83757 -3.05237,1.51178 -8.65871,2.12667 -12,1.31614 z M -358.2418,88.753897 c -18.41095,-6.005054 -30.45604,-25.138724 -27.56864,-43.792894 2.7303,-17.63927 16.18722,-31.361101 32.99446,-33.643981 22.27971,-3.0262102 41.53879,10.860881 45.39095,32.729931 3.00302,17.04842 -6.06005,34.46475 -22.03921,42.352355 -5.5348,2.732074 -7.62658,3.195971 -15.5,3.437453 -5.71081,0.175153 -10.65748,-0.228277 -13.27756,-1.082864 z"
         id="path1"
         sodipodi:nodetypes="ssscssssscssssssssssssssssssssssssssssssscssssssssss" /><path
         style="fill:#5e5e5e;stroke:#0f0f0f;stroke-width:19.793;stroke-linecap:round;stroke-dasharray:none"
         d="M -173.29993,257.04695 39.867876,300.28101"
         id="path5"
         sodipodi:nodetypes="cc" /><path
         style="fill:#5e5e5e;stroke:#0f0f0f;stroke-width:19.793;stroke-linecap:round;stroke-dasharray:none"
         d="m -246.83903,207.54948 411.8648,82.12493"
         id="path2"
         sodipodi:nodetypes="cc" /><circle
         style="fill:#ffffff;fill-opacity:1;stroke:#0f0f0f;stroke-width:19.793;stroke-linecap:round;stroke-dasharray:none"
         id="path3"
         cx="-5.5132108"
         cy="333.39191"
         r="68.999992" /><path
         style="fill:#5e5e5e;stroke:#0f0f0f;stroke-width:19.793;stroke-linecap:round;stroke-dasharray:none"
         d="m -172.5658,225.85166 -24.51007,135.26929"
         id="path4"
         sodipodi:nodetypes="cc" /><circle
         style="fill:#000000;fill-opacity:1;stroke:#0f0f0f;stroke-width:3.36869;stroke-linecap:round;stroke-dasharray:none"
         id="circle5"
         cx="-5.5132108"
         cy="333.39191"
         r="11.743518" /></g></g></svg>
