<?xml version="1.0" encoding="UTF-8" standalone="no"?>
<!-- Created with Inkscape (http://www.inkscape.org/) -->

<svg
   width="64"
   height="64"
   viewBox="0 0 64 64"
   version="1.1"
   id="svg1"
   inkscape:version="1.4 (86a8ad7, 2024-10-11)"
   sodipodi:docname="70.svg"
   xml:space="preserve"
   xmlns:inkscape="http://www.inkscape.org/namespaces/inkscape"
   xmlns:sodipodi="http://sodipodi.sourceforge.net/DTD/sodipodi-0.dtd"
   xmlns="http://www.w3.org/2000/svg"
   xmlns:svg="http://www.w3.org/2000/svg"><sodipodi:namedview
     id="namedview1"
     pagecolor="#ffffff"
     bordercolor="#000000"
     borderopacity="0.25"
     inkscape:showpageshadow="2"
     inkscape:pageopacity="0.0"
     inkscape:pagecheckerboard="0"
     inkscape:deskcolor="#d1d1d1"
     inkscape:document-units="px"
     inkscape:zoom="1.4142136"
     inkscape:cx="-25.455843"
     inkscape:cy="-15.909902"
     inkscape:window-width="1920"
     inkscape:window-height="1027"
     inkscape:window-x="-8"
     inkscape:window-y="-8"
     inkscape:window-maximized="1"
     inkscape:current-layer="g6" /><defs
     id="defs1" /><g
     inkscape:label="Layer 1"
     inkscape:groupmode="layer"
     id="layer1"><g
       id="g11649"
       transform="matrix(0.09422171,0,0,0.09422171,-25.631958,-10.567368)"><g
         id="g10138"
         transform="matrix(1.0262023,0,0,1.0262023,232.38686,49.444838)"><circle
           id="path8784-4"
           style="fill:#ffffff;stroke:#000000;stroke-width:10.2844;stroke-dasharray:none"
           transform="matrix(0.99557,0,0,0.99557,292.08,-174.21)"
           cx="77.85714"
           cy="568.79077"
           r="322.14285" /><circle
           id="path8784-6-8"
           style="fill:none;stroke:#ff0000;stroke-width:110.5"
           transform="matrix(0.8145,0,0,0.8145,306.18,-71.219)"
           cx="77.85714"
           cy="568.79077"
           r="322.14285" /></g></g><g
       id="g6"
       transform="translate(-1.0000004,1.8885883)"><g
         id="g11503"
         transform="matrix(0.07607518,0,0,0.07607518,63.112177,-3.4689804)"><path
           id="path10344"
           sodipodi:nodetypes="cccssscsscc"
           style="fill:#000000"
           inkscape:connector-curvature="0"
           d="m -602.86,381.94 h 5.5357 l -12.321,49.286 c 0,0 -10.893,1.9643 -10.893,10.179 v 44.643 c 0,7.1429 6.6072,12.054 12.054,12.054 5.4464,0 437.38,0.0142 437.38,0.0142 v -131.7 c 0,-5.9346 -3.4093,-10.354 -11.238,-10.354 -7.8287,0 -420.52,0.35477 -420.52,0.35477 0.032,1.1364 0,25.523 0,25.523 z" /><rect
           id="rect10328"
           style="fill:#ffffff"
           ry="3.9181001"
           height="51.429001"
           width="86.786003"
           y="379.79001"
           x="-553.40002" /><rect
           id="rect10330"
           style="fill:#ffffff"
           ry="3.9181001"
           height="51.429001"
           width="86.786003"
           y="379.79001"
           x="-457.67999" /><rect
           id="rect10332"
           style="fill:#ffffff"
           ry="3.9181001"
           height="51.429001"
           width="86.786003"
           y="379.79001"
           x="-363.39999" /><rect
           id="rect10334"
           style="fill:#ffffff"
           ry="3.9181001"
           height="51.429001"
           width="86.786003"
           y="379.79001"
           x="-267.67999" /><circle
           id="path10336"
           style="fill:#000000;stroke:#ffffff;stroke-width:10"
           transform="translate(137.49,-1.3173)"
           cx="-651.42859"
           cy="490.21933"
           r="32.857143" /><circle
           id="path10338"
           style="fill:#000000;stroke:#ffffff;stroke-width:10"
           transform="translate(368.21,-1.3173)"
           cx="-651.42859"
           cy="490.21933"
           r="32.857143" /><path
           id="path10346"
           sodipodi:nodetypes="ccssssc"
           style="fill:#ffffff"
           inkscape:connector-curvature="0"
           d="m -590.36,380.33 -12.946,49.107 h 37.768 c 3.75,0 3.6231,-0.0508 3.6231,-6.2754 v -39.082 c 0,-3.5714 -1.9643,-3.7758 -4.3116,-3.7758 -2.3473,0 -24.133,0.0258 -24.133,0.0258 z" /></g></g></g></svg>
