<?xml version="1.0" encoding="UTF-8" standalone="no"?>
<!-- Created with Inkscape (http://www.inkscape.org/) -->

<svg
   width="64"
   height="64"
   viewBox="0 0 64 64"
   version="1.1"
   id="svg1"
   inkscape:version="1.4 (86a8ad7, 2024-10-11)"
   sodipodi:docname="71.svg"
   xml:space="preserve"
   xmlns:inkscape="http://www.inkscape.org/namespaces/inkscape"
   xmlns:sodipodi="http://sodipodi.sourceforge.net/DTD/sodipodi-0.dtd"
   xmlns="http://www.w3.org/2000/svg"
   xmlns:svg="http://www.w3.org/2000/svg"><sodipodi:namedview
     id="namedview1"
     pagecolor="#ffffff"
     bordercolor="#000000"
     borderopacity="0.25"
     inkscape:showpageshadow="2"
     inkscape:pageopacity="0.0"
     inkscape:pagecheckerboard="0"
     inkscape:deskcolor="#d1d1d1"
     inkscape:document-units="px"
     inkscape:zoom="1.4142136"
     inkscape:cx="-96.873626"
     inkscape:cy="2.4748737"
     inkscape:window-width="1920"
     inkscape:window-height="1027"
     inkscape:window-x="-8"
     inkscape:window-y="-8"
     inkscape:window-maximized="1"
     inkscape:current-layer="g6" /><defs
     id="defs1" /><g
     inkscape:label="Layer 1"
     inkscape:groupmode="layer"
     id="layer1"><g
       id="g11649"
       transform="matrix(0.09422171,0,0,0.09422171,-25.631958,-10.567368)"><g
         id="g10138"
         transform="matrix(1.0262023,0,0,1.0262023,232.38686,49.444838)"><circle
           id="path8784-4"
           style="fill:#ffffff;stroke:#000000;stroke-width:10.2844;stroke-dasharray:none"
           transform="matrix(0.99557,0,0,0.99557,292.08,-174.21)"
           cx="77.85714"
           cy="568.79077"
           r="322.14285" /><circle
           id="path8784-6-8"
           style="fill:none;stroke:#ff0000;stroke-width:110.5"
           transform="matrix(0.8145,0,0,0.8145,306.18,-71.219)"
           cx="77.85714"
           cy="568.79077"
           r="322.14285" /></g></g><g
       id="g6"
       transform="translate(-1.0000004,1.8885883)"><g
         id="g624"
         transform="matrix(0.08195941,0,0,0.08195941,2.4844631,-1.8695599)"><circle
           id="path696"
           style="fill:none;stroke:#000000;stroke-width:13.986"
           transform="matrix(1.1565,0,0,1.1565,-76.263,-40.795)"
           cx="262.36105"
           cy="433.34842"
           r="23.392962" /><path
           id="path623"
           style="fill-rule:evenodd;stroke-width:13.986"
           d="m 297.62,284.88 c -4.43,0 -8,3.56 -8,8 v 81.56 h -19.84 v -53.03 c 0,-3.33 -2.67,-6 -6,-6 l -64.87,0.28 c -5.62,0 -16.18,6.73 -16.94,15.9 l -7.38,51.5 -14.25,12.22 12.72,65.66 h 14.38 c -0.01,-0.19 -0.06,-0.37 -0.06,-0.56 0,-21.88 17.93,-39.85 39.81,-39.85 21.88,0 39.81,17.97 39.81,39.85 0,0.19 -0.03,0.37 -0.03,0.56 h 204.06 c 0.31,19.05 15.95,34.56 35.06,34.56 19.12,0 34.79,-15.51 35.1,-34.56 h 43.12 v -8.53 -78 -81.56 c 0,-4.44 -3.57,-8 -8,-8 z m -92.5,44.24 h 34.1 l -0.5,42.79 h -50.91 c -0.51,1.01 4.07,-32.59 5.6,-36.66 1.52,-4.07 4.59,-6.13 11.71,-6.13 z M 506,441.53 c 10.56,0 18.97,8.41 18.97,18.97 0,0.16 -0.03,0.31 -0.03,0.47 h 0.09 c -0.03,1.16 -0.21,2.28 -0.44,3.37 -0.23,1.13 -0.54,2.21 -0.97,3.25 -0.04,0.12 -0.07,0.24 -0.12,0.35 -0.01,0.02 0.01,0.04 0,0.06 -0.42,0.98 -0.96,1.9 -1.53,2.78 -0.08,0.12 -0.14,0.26 -0.22,0.38 -0.01,0 0.01,0.02 0,0.03 -0.31,0.45 -0.68,0.86 -1.03,1.28 -0.44,0.54 -0.88,1.07 -1.38,1.56 -3.41,3.35 -8.12,5.41 -13.34,5.41 -10.56,0 -18.97,-8.38 -18.97,-18.94 0,-10.56 8.41,-18.97 18.97,-18.97 z" /></g></g></g></svg>
