<?xml version="1.0" encoding="UTF-8" standalone="no"?>
<!-- Created with Inkscape (http://www.inkscape.org/) -->

<svg
   width="64"
   height="64"
   viewBox="0 0 64 64"
   version="1.1"
   id="svg1"
   inkscape:version="1.4 (86a8ad7, 2024-10-11)"
   sodipodi:docname="73.svg"
   xml:space="preserve"
   xmlns:inkscape="http://www.inkscape.org/namespaces/inkscape"
   xmlns:sodipodi="http://sodipodi.sourceforge.net/DTD/sodipodi-0.dtd"
   xmlns="http://www.w3.org/2000/svg"
   xmlns:svg="http://www.w3.org/2000/svg"><sodipodi:namedview
     id="namedview1"
     pagecolor="#ffffff"
     bordercolor="#000000"
     borderopacity="0.25"
     inkscape:showpageshadow="2"
     inkscape:pageopacity="0.0"
     inkscape:pagecheckerboard="0"
     inkscape:deskcolor="#d1d1d1"
     inkscape:document-units="px"
     inkscape:zoom="32.000001"
     inkscape:cx="29.937499"
     inkscape:cy="37.609373"
     inkscape:window-width="2560"
     inkscape:window-height="1520"
     inkscape:window-x="-11"
     inkscape:window-y="-11"
     inkscape:window-maximized="1"
     inkscape:current-layer="layer1" /><defs
     id="defs1" /><g
     inkscape:label="Layer 1"
     inkscape:groupmode="layer"
     id="layer1"><circle
       id="path8784-4"
       style="fill:#ffffff;stroke:#000000;stroke-width:0.989999;stroke-dasharray:none"
       cx="32"
       cy="32"
       r="31.01018" /><circle
       style="fill:#000000;stroke-width:29.3482;stroke-linecap:round"
       id="path1"
       cx="31.21875"
       cy="37.78125"
       r="1.34375" /><g
       id="g6"
       transform="translate(-1.0000004,1.8885883)"><g
         id="g1"
         transform="matrix(0.09443296,0,0,0.09443296,29.367452,26.662243)"><g
           id="text4951"
           style="fill:#000000"
           transform="translate(-316.35005,-352.2473)"><path
             id="path6049"
             style="fill:#000000;stroke-width:1.39887"
             d="m 397.12454,349.93482 v -46.01038 c -5e-5,-3.18356 -0.21482,-6.10189 -0.6443,-8.75485 -0.42958,-2.65297 -1.13705,-4.92698 -2.12238,-6.82203 -0.98545,-1.89492 -2.27401,-3.37297 -3.86579,-4.4343 -1.59191,-1.06113 -3.52474,-1.59178 -5.79875,-1.59178 -2.17301,6e-5 -4.14375,0.56856 -5.91248,1.70551 -1.76874,1.13708 -3.29729,2.75411 -4.58593,4.85116 -1.28864,2.09719 -2.2866,4.59866 -2.99415,7.50426 -0.7075,2.90574 -1.06123,6.10189 -1.0612,9.58872 v 43.96383 H 348.8403 v -63.67257 c -2e-5,-1.76859 -0.0126,-3.58783 -0.0379,-5.45757 -0.0253,-1.86973 -0.0758,-3.65092 -0.1516,-5.34397 -0.0758,-1.69278 -0.13905,-3.20874 -0.1895,-4.54802 -0.0505,-1.33906 -0.12632,-2.3371 -0.2274,-2.99416 h 20.31445 c 0.101,0.60649 0.20209,1.57919 0.30319,2.91834 0.101,1.33921 0.20211,2.81733 0.30321,4.43429 0.10099,1.6171 0.18946,3.2342 0.26529,4.85115 0.0758,1.6171 0.11373,2.98156 0.11373,4.09325 h 0.30321 c 2.62764,-6.26612 5.89975,-10.81414 9.81618,-13.64406 3.91629,-2.82978 8.60322,-4.24474 14.06148,-4.24474 6.26612,8e-5 11.30682,1.52869 15.12183,4.58593 3.81515,3.05737 6.37971,7.49167 7.69367,13.30287 h 0.45481 c 1.46532,-3.3857 3.04451,-6.21548 4.73742,-8.48963 1.69278,-2.27387 3.56252,-4.10569 5.60921,-5.49548 2.04655,-1.38958 4.26992,-2.38759 6.67039,-2.99415 2.40019,-0.60631 5.01539,-0.90952 7.84531,-0.9096 4.49738,8e-5 8.30008,0.80862 11.40796,2.42565 3.10774,1.6171 5.63438,3.84061 7.57994,6.67039 1.94541,2.82992 3.36038,6.16512 4.24474,10.00559 0.8842,3.84061 1.32637,7.98435 1.3265,12.43123 v 52.0745 h -21.14818 v -46.01037 c -1.1e-4,-3.18356 -0.21488,-6.10189 -0.64431,-8.75486 -0.42964,-2.65296 -1.1371,-4.92698 -2.12237,-6.82203 -0.98551,-1.89492 -2.27415,-3.37297 -3.86579,-4.43429 -1.59192,-1.06113 -3.52488,-1.59178 -5.79875,-1.59178 -2.12252,5e-5 -4.05534,0.54329 -5.79876,1.62969 -1.74356,1.08653 -3.25952,2.62778 -4.54802,4.62384 -1.28868,1.99619 -2.28674,4.38379 -2.99415,7.16307 -0.70755,2.77943 -1.11181,5.86199 -1.2128,9.24768 v 44.95003 z" /><path
             d="m 429.71681,405.78441 q 0,7.0751 -4.28638,12.03284 -4.28637,4.95773 -12.03283,6.81688 v 0.30986 q 9.14082,1.13615 13.84034,5.57745 4.69952,4.38966 4.69952,11.87791 0,10.89668 -7.90139,16.99056 -7.90139,6.04224 -22.56802,6.04224 -12.29105,0 -21.79338,-4.0798 v -13.58213 q 4.38966,2.22066 9.65726,3.61502 5.26759,1.39436 10.4319,1.39436 7.90139,0 11.67133,-2.68544 3.76994,-2.68544 3.76994,-8.62439 0,-5.31924 -4.33801,-7.53989 -4.33802,-2.22065 -13.84035,-2.22065 h -5.73238 v -12.23941 h 5.83567 q 8.77932,0 12.80748,-2.27229 4.0798,-2.32394 4.0798,-7.90139 0,-8.57275 -10.74175,-8.57275 -3.71831,0 -7.59154,1.23944 -3.82158,1.23943 -8.5211,4.28637 l -7.38496,-10.99997 q 10.32861,-7.43661 24.63374,-7.43661 11.72298,0 18.48822,4.75117 6.81689,4.75116 6.81689,13.22062 z m 62.90125,20.8638 q 0,19.77929 -6.50703,29.28162 -6.45538,9.50232 -19.93422,9.50232 -13.0657,0 -19.72765,-9.81218 -6.61032,-9.81218 -6.61032,-28.97176 0,-19.98587 6.45539,-29.43655 6.45538,-9.50232 19.88258,-9.50232 13.06569,0 19.72765,9.91547 6.7136,9.91547 6.7136,29.0234 z m -36.92479,0 q 0,13.89199 2.37558,19.93422 2.42722,5.9906 8.10796,5.9906 5.57745,0 8.05632,-6.09388 2.47886,-6.09388 2.47886,-19.83094 0,-13.89198 -2.53051,-19.93422 -2.47886,-6.09388 -8.00467,-6.09388 -5.6291,0 -8.05632,6.09388 -2.42722,6.04224 -2.42722,19.93422 z"
             id="text1"
             style="font-weight:bold;font-size:105.765px;line-height:1.5;font-family:'Almohanad long kaf';-inkscape-font-specification:'Almohanad long kaf Bold';text-align:end;direction:rtl;text-anchor:end;stroke-width:196.256;stroke-linecap:round"
             aria-label="30" /><path
             style="font-weight:bold;font-size:216.509px;line-height:1.5;font-family:'Almohanad long kaf';-inkscape-font-specification:'Almohanad long kaf Bold';stroke-width:401.751;stroke-linecap:round"
             d="M 311.19399,461.60007 H 203.15092 v -22.72922 l 38.79824,-39.22111 c 11.48795,-11.76986 18.99388,-19.91009 22.51779,-24.4207 3.52391,-4.58108 6.06112,-8.80977 7.61164,-12.68607 1.55052,-3.8763 2.32578,-7.89356 2.32578,-12.05177 0,-6.20208 -1.72672,-10.8184 -5.18015,-13.84897 -3.38295,-3.03056 -7.9288,-4.54584 -13.63753,-4.54584 -5.99065,0 -11.8051,1.37433 -17.44335,4.12298 -5.63825,2.74865 -11.52318,6.66018 -17.65479,11.73461 l -17.7605,-21.03774 c 7.61165,-6.48399 13.91944,-11.06507 18.92339,-13.74324 5.00395,-2.67817 10.46601,-4.72204 16.38618,-6.13161 5.92017,-1.48004 12.54512,-2.22006 19.87485,-2.22006 9.65551,0 18.18338,1.76196 25.58359,5.28587 7.40021,3.52391 13.14418,8.45738 17.23191,14.80042 4.08774,6.34303 6.13161,13.60229 6.13161,21.77776 0,7.11829 -1.26861,13.81372 -3.80583,20.08628 -2.46673,6.20208 -6.34303,12.58036 -11.6289,19.13483 -5.21539,6.55447 -14.44803,15.89283 -27.69793,28.01508 l -19.87485,18.71196 v 1.48004 h 67.34192 z"
             id="text2"
             aria-label="2,"
             sodipodi:nodetypes="cccccsscssccscssssccccccc" /></g><path
           id="path4993"
           sodipodi:r2="26.940031"
           style="fill:#000000"
           sodipodi:type="star"
           d="m 226.61615,323.05856 -80.8201,46.66151 0,-93.32301 z"
           sodipodi:r1="53.880062"
           inkscape:transform-center-x="-13.470016"
           transform="translate(-335.79605,-285.9663)"
           sodipodi:arg2="1.0471976"
           sodipodi:arg1="0"
           inkscape:randomized="0"
           sodipodi:cy="323.05856"
           sodipodi:cx="172.73608"
           inkscape:rounded="-3.469447e-18"
           inkscape:flatsided="true"
           sodipodi:sides="3" /><path
           id="path4995"
           style="fill:#000000"
           sodipodi:type="star"
           sodipodi:sides="3"
           inkscape:transform-center-x="-54.210208"
           sodipodi:r1="53.880062"
           sodipodi:r2="26.940031"
           sodipodi:arg1="0"
           sodipodi:arg2="1.0471976"
           transform="matrix(-1,0,0,1,412.72995,-285.9663)"
           inkscape:randomized="0"
           sodipodi:cy="323.05856"
           sodipodi:cx="172.73608"
           inkscape:rounded="-3.469447e-18"
           inkscape:flatsided="true"
           d="m 226.61615,323.05856 -80.8201,46.66151 0,-93.32301 z" /></g></g><circle
       id="path8784-6-8"
       style="fill:none;stroke:#ff0000;stroke-width:8.70237"
       cx="32.000233"
       cy="32.000004"
       r="25.37018" /></g></svg>
