<?xml version="1.0" encoding="UTF-8" standalone="no"?>
<!-- Created with Inkscape (http://www.inkscape.org/) -->

<svg
   width="64"
   height="64"
   viewBox="0 0 64 64"
   version="1.1"
   id="svg1"
   inkscape:version="1.4 (86a8ad7, 2024-10-11)"
   sodipodi:docname="74.svg"
   xml:space="preserve"
   xmlns:inkscape="http://www.inkscape.org/namespaces/inkscape"
   xmlns:sodipodi="http://sodipodi.sourceforge.net/DTD/sodipodi-0.dtd"
   xmlns="http://www.w3.org/2000/svg"
   xmlns:svg="http://www.w3.org/2000/svg"><sodipodi:namedview
     id="namedview1"
     pagecolor="#ffffff"
     bordercolor="#000000"
     borderopacity="0.25"
     inkscape:showpageshadow="2"
     inkscape:pageopacity="0.0"
     inkscape:pagecheckerboard="0"
     inkscape:deskcolor="#d1d1d1"
     inkscape:document-units="px"
     inkscape:zoom="22.627418"
     inkscape:cx="32.571105"
     inkscape:cy="35.730989"
     inkscape:window-width="2560"
     inkscape:window-height="1520"
     inkscape:window-x="-11"
     inkscape:window-y="-11"
     inkscape:window-maximized="1"
     inkscape:current-layer="text4951" /><defs
     id="defs1" /><g
     inkscape:label="Layer 1"
     inkscape:groupmode="layer"
     id="layer1"><circle
       id="path8784-4"
       style="fill:#ffffff;stroke:#000000;stroke-width:0.989999;stroke-dasharray:none"
       cx="32"
       cy="32"
       r="31.01018" /><g
       id="text4951"
       style="fill:#000000"
       transform="matrix(0.09443296,0,0,0.09443296,-1.5064196,-4.7129242)"><path
         id="path6049"
         style="fill:#000000;stroke-width:1.39887"
         d="m 397.12454,349.93482 v -46.01038 c -5e-5,-3.18356 -0.21482,-6.10189 -0.6443,-8.75485 -0.42958,-2.65297 -1.13705,-4.92698 -2.12238,-6.82203 -0.98545,-1.89492 -2.27401,-3.37297 -3.86579,-4.4343 -1.59191,-1.06113 -3.52474,-1.59178 -5.79875,-1.59178 -2.17301,6e-5 -4.14375,0.56856 -5.91248,1.70551 -1.76874,1.13708 -3.29729,2.75411 -4.58593,4.85116 -1.28864,2.09719 -2.2866,4.59866 -2.99415,7.50426 -0.7075,2.90574 -1.06123,6.10189 -1.0612,9.58872 v 43.96383 H 348.8403 v -63.67257 c -2e-5,-1.76859 -0.0126,-3.58783 -0.0379,-5.45757 -0.0253,-1.86973 -0.0758,-3.65092 -0.1516,-5.34397 -0.0758,-1.69278 -0.13905,-3.20874 -0.1895,-4.54802 -0.0505,-1.33906 -0.12632,-2.3371 -0.2274,-2.99416 h 20.31445 c 0.101,0.60649 0.20209,1.57919 0.30319,2.91834 0.101,1.33921 0.20211,2.81733 0.30321,4.43429 0.10099,1.6171 0.18946,3.2342 0.26529,4.85115 0.0758,1.6171 0.11373,2.98156 0.11373,4.09325 h 0.30321 c 2.62764,-6.26612 5.89975,-10.81414 9.81618,-13.64406 3.91629,-2.82978 8.60322,-4.24474 14.06148,-4.24474 6.26612,8e-5 11.30682,1.52869 15.12183,4.58593 3.81515,3.05737 6.37971,7.49167 7.69367,13.30287 h 0.45481 c 1.46532,-3.3857 3.04451,-6.21548 4.73742,-8.48963 1.69278,-2.27387 3.56252,-4.10569 5.60921,-5.49548 2.04655,-1.38958 4.26992,-2.38759 6.67039,-2.99415 2.40019,-0.60631 5.01539,-0.90952 7.84531,-0.9096 4.49738,8e-5 8.30008,0.80862 11.40796,2.42565 3.10774,1.6171 5.63438,3.84061 7.57994,6.67039 1.94541,2.82992 3.36038,6.16512 4.24474,10.00559 0.8842,3.84061 1.32637,7.98435 1.3265,12.43123 v 52.0745 h -21.14818 v -46.01037 c -1.1e-4,-3.18356 -0.21488,-6.10189 -0.64431,-8.75486 -0.42964,-2.65296 -1.1371,-4.92698 -2.12237,-6.82203 -0.98551,-1.89492 -2.27415,-3.37297 -3.86579,-4.43429 -1.59192,-1.06113 -3.52488,-1.59178 -5.79875,-1.59178 -2.12252,5e-5 -4.05534,0.54329 -5.79876,1.62969 -1.74356,1.08653 -3.25952,2.62778 -4.54802,4.62384 -1.28868,1.99619 -2.28674,4.38379 -2.99415,7.16307 -0.70755,2.77943 -1.11181,5.86199 -1.2128,9.24768 v 44.95003 z" /><path
         d="m 407.35536,416.16467 q 10.94833,0 17.40371,6.14552 6.50703,6.14553 6.50703,16.83564 0,12.65255 -7.79811,19.46944 -7.7981,6.81688 -22.3098,6.81688 -12.60091,0 -20.34737,-4.0798 v -13.7887 q 4.0798,2.16901 9.50233,3.56337 5.42252,1.34272 10.27697,1.34272 14.61498,0 14.61498,-11.98119 0,-11.41312 -15.13141,-11.41312 -2.73709,0 -6.04224,0.56808 -3.30516,0.51643 -5.37088,1.13615 l -6.3521,-3.40845 2.84037,-38.47408 h 40.95295 v 13.53048 h -26.95768 l -1.39436,14.82156 1.8075,-0.3615 q 3.15023,-0.723 7.79811,-0.723 z m 85.2627,10.48354 q 0,19.77929 -6.50703,29.28162 -6.45538,9.50232 -19.93422,9.50232 -13.0657,0 -19.72765,-9.81218 -6.61032,-9.81218 -6.61032,-28.97176 0,-19.98587 6.45539,-29.43655 6.45538,-9.50232 19.88258,-9.50232 13.06569,0 19.72765,9.91547 6.7136,9.91547 6.7136,29.0234 z m -36.92479,0 q 0,13.89199 2.37558,19.93422 2.42722,5.9906 8.10796,5.9906 5.57745,0 8.05632,-6.09388 2.47886,-6.09388 2.47886,-19.83094 0,-13.89198 -2.53051,-19.93422 -2.47886,-6.09388 -8.00467,-6.09388 -5.6291,0 -8.05632,6.09388 -2.42722,6.04224 -2.42722,19.93422 z"
         id="text1"
         style="font-weight:bold;font-size:105.765px;line-height:1.5;font-family:'Almohanad long kaf';-inkscape-font-specification:'Almohanad long kaf Bold';text-align:end;direction:rtl;text-anchor:end;stroke-width:196.256;stroke-linecap:round"
         aria-label="50" /><path
         style="font-weight:bold;font-size:216.509px;line-height:1.5;font-family:'Almohanad long kaf';-inkscape-font-specification:'Almohanad long kaf Bold';stroke-width:401.751;stroke-linecap:round"
         d="m 305.1681,341.61095 c 0,9.65551 -2.92484,17.86622 -8.77453,24.63212 -5.84969,6.76591 -14.0604,11.41747 -24.63213,13.95469 v 0.6343 c 12.47464,1.55052 21.91872,5.35634 28.33223,11.41747 6.41351,5.99065 9.62027,14.09564 9.62027,24.31497 0,14.8709 -5.39158,26.46456 -16.17474,34.78099 -10.78317,8.24595 -26.18265,12.36892 -46.19846,12.36892 -16.77381,0 -31.6447,-2.78389 -44.61269,-8.35166 V 427.5591 c 5.99065,3.03056 12.58036,5.4973 19.76913,7.40021 7.18878,1.90291 14.30708,2.85437 21.35489,2.85437 10.78317,0 18.7472,-1.83243 23.89211,-5.4973 5.14491,-3.66487 7.71736,-9.5498 7.71736,-17.65479 0,-7.25925 -2.96008,-12.40416 -8.88025,-15.43472 -5.92017,-3.03057 -15.36424,-4.54585 -28.33223,-4.54585 h -11.73462 v -25.05499 h 11.94605 c 11.98129,0 20.72059,-1.55052 26.21789,-4.65156 5.56778,-3.17152 8.35167,-8.5631 8.35167,-16.17475 0,-11.69938 -7.32973,-17.54907 -21.9892,-17.54907 -5.07443,0 -10.25457,0.84574 -15.54044,2.53722 -5.21539,1.69147 -11.02984,4.61632 -17.44335,8.77453 l -15.11758,-22.51778 c 14.09564,-10.14886 30.90469,-15.22329 50.42715,-15.22329 15.99855,0 28.61414,3.242 37.84679,9.72599 9.30312,6.48399 13.95468,15.5052 13.95468,27.06363 z"
         id="text2"
         aria-label="3,"
         sodipodi:nodetypes="sscccscsccssssssccscsscccscs" /><circle
         style="fill:#000000;stroke-width:332.253;stroke-linecap:round"
         id="path1"
         cx="341.83978"
         cy="447.34332"
         r="15.212698" /></g><g
       id="g1"
       transform="rotate(90,32,32.053563)"><path
         id="path4993"
         sodipodi:r2="26.940031"
         style="fill:#000000"
         sodipodi:type="star"
         d="m 226.61615,323.05856 -80.8201,46.66151 0,-93.32301 z"
         sodipodi:r1="53.880062"
         inkscape:transform-center-x="-13.470016"
         transform="matrix(0.09443296,0,0,0.09443296,-3.342763,1.5461868)"
         sodipodi:arg2="1.0471976"
         sodipodi:arg1="0"
         inkscape:randomized="0"
         sodipodi:cy="323.05856"
         sodipodi:cx="172.73608"
         inkscape:rounded="-3.469447e-18"
         inkscape:flatsided="true"
         sodipodi:sides="3" /><path
         id="path4995"
         style="fill:#000000"
         sodipodi:type="star"
         sodipodi:sides="3"
         inkscape:transform-center-x="-54.210208"
         sodipodi:r1="53.880062"
         sodipodi:r2="26.940031"
         sodipodi:arg1="0"
         sodipodi:arg2="1.0471976"
         transform="matrix(-0.09443296,0,0,0.09443296,67.342763,1.5461868)"
         inkscape:randomized="0"
         sodipodi:cy="323.05856"
         sodipodi:cx="172.73608"
         inkscape:rounded="-3.469447e-18"
         inkscape:flatsided="true"
         d="m 226.61615,323.05856 -80.8201,46.66151 0,-93.32301 z" /></g><circle
       id="path8784-6-8"
       style="fill:none;stroke:#ff0000;stroke-width:8.70237"
       cx="32.000233"
       cy="32.000004"
       r="25.37018" /></g></svg>
