<?xml version="1.0" encoding="UTF-8" standalone="no"?>
<!-- Created with Inkscape (http://www.inkscape.org/) -->

<svg
   width="64"
   height="64"
   viewBox="0 0 64 64"
   version="1.1"
   id="svg1"
   inkscape:version="1.4 (86a8ad7, 2024-10-11)"
   sodipodi:docname="75.svg"
   xml:space="preserve"
   xmlns:inkscape="http://www.inkscape.org/namespaces/inkscape"
   xmlns:sodipodi="http://sodipodi.sourceforge.net/DTD/sodipodi-0.dtd"
   xmlns="http://www.w3.org/2000/svg"
   xmlns:svg="http://www.w3.org/2000/svg"><sodipodi:namedview
     id="namedview1"
     pagecolor="#ffffff"
     bordercolor="#000000"
     borderopacity="0.25"
     inkscape:showpageshadow="2"
     inkscape:pageopacity="0.0"
     inkscape:pagecheckerboard="0"
     inkscape:deskcolor="#d1d1d1"
     inkscape:document-units="px"
     inkscape:zoom="22.627418"
     inkscape:cx="26.69328"
     inkscape:cy="36.880037"
     inkscape:window-width="2560"
     inkscape:window-height="1520"
     inkscape:window-x="-11"
     inkscape:window-y="-11"
     inkscape:window-maximized="1"
     inkscape:current-layer="text4951" /><defs
     id="defs1" /><g
     inkscape:label="Layer 1"
     inkscape:groupmode="layer"
     id="layer1"><circle
       id="path8784-4"
       style="fill:#ffffff;stroke:#000000;stroke-width:0.989999;stroke-dasharray:none"
       cx="32"
       cy="32"
       r="31.01018" /><g
       id="g6"
       transform="translate(-1.0000004,1.8885883)"><g
         id="g1"
         transform="matrix(0.09443296,0,0,0.09443296,29.367452,26.662243)"><g
           id="text4951"
           style="fill:#000000"
           transform="translate(-316.35005,-352.2473)"><path
             d="m 423.62878,434.50572 q 0,25.66941 -8.44477,38.00146 -8.37774,12.33204 -25.87048,12.33204 -16.95656,0 -25.60239,-12.73418 -8.57881,-12.73417 -8.57881,-37.59932 0,-25.93751 8.37774,-38.20253 8.37775,-12.33204 25.80346,-12.33204 16.95656,0 25.6024,12.86822 8.71285,12.86822 8.71285,37.66635 z m -47.92071,0 q 0,18.02891 3.08301,25.87048 3.15003,7.77455 10.52245,7.77455 7.23837,0 10.45543,-7.9086 3.21705,-7.90859 3.21705,-25.73643 0,-18.02891 -3.28407,-25.87049 -3.21706,-7.90859 -10.38841,-7.90859 -7.30539,0 -10.45543,7.90859 -3.15003,7.84158 -3.15003,25.87049 z m 126.2694,0 q 0,25.66941 -8.44477,38.00146 -8.37775,12.33204 -25.87048,12.33204 -16.95656,0 -25.6024,-12.73418 -8.57881,-12.73417 -8.57881,-37.59932 0,-25.93751 8.37775,-38.20253 8.37774,-12.33204 25.80346,-12.33204 16.95656,0 25.60239,12.86822 8.71286,12.86822 8.71286,37.66635 z m -47.92071,0 q 0,18.02891 3.08301,25.87048 3.15003,7.77455 10.52245,7.77455 7.23837,0 10.45543,-7.9086 3.21705,-7.90859 3.21705,-25.73643 0,-18.02891 -3.28408,-25.87049 -3.21705,-7.90859 -10.3884,-7.90859 -7.3054,0 -10.45543,7.90859 -3.15003,7.84158 -3.15003,25.87049 z"
             id="text1"
             style="font-weight:bold;font-size:137.261px;line-height:1.5;font-family:'Almohanad long kaf';-inkscape-font-specification:'Almohanad long kaf Bold';text-align:end;direction:rtl;text-anchor:end;stroke-width:254.7;stroke-linecap:round"
             aria-label="00" /><path
             style="font-weight:bold;font-size:216.509px;line-height:1.5;font-family:'Almohanad long kaf';-inkscape-font-specification:'Almohanad long kaf Bold';stroke-width:401.751;stroke-linecap:round"
             d="M 222.16878,484.83923 280.20757,357.97849 H 203.98541 V 330.492 h 110.89743 v 20.50915 l -58.46166,133.83808 z"
             id="text2"
             aria-label="7" /><path
             style="font-weight:bold;font-size:112.165px;line-height:1.5;font-family:'Almohanad long kaf';-inkscape-font-specification:'Almohanad long kaf Bold';stroke-width:208.131;stroke-linecap:round"
             d="m 429.36686,276.74348 q 0,-1.91689 3.72423,-7.11985 3.55992,-4.9839 5.53157,-6.3531 0.27384,1.64304 2.68364,5.80542 2.46456,4.1076 13.47294,9.31057 -2.9027,6.57217 -3.72423,7.94137 -3.01224,4.87436 -6.46263,4.87436 0.76676,5.25773 0.76676,9.14626 0,3.12178 -3.28609,14.02063 4.76482,-3.61469 18.62114,-10.4607 4.60052,-2.24549 11.88468,-5.1482 9.03673,-3.45039 11.8299,-3.45039 4.71005,0 11.8299,7.06508 7.17462,7.06508 7.17462,11.72037 l -5.69588,21.41431 -73.27968,0.10954 V 319.4078 h 7.44846 q 4.60052,0 4.60052,-3.50515 l -2.7384,-24.5361 q -0.32861,-2.95747 -0.82153,-5.96972 -0.49291,-3.06701 -2.24549,-5.1482 -1.31443,-1.47873 -1.31443,-3.50515 z m 44.69074,32.03932 q -11.55606,0 -26.50774,10.73454 0.65722,0.10953 3.61469,0.10953 l 37.51613,-0.21907 q -1.42397,-3.72423 -6.07926,-7.17462 -4.60052,-3.45038 -8.54382,-3.45038 z m -94.91306,-25.35762 q 0.82152,-1.86211 6.13402,-7.22938 5.36727,-5.36727 6.73647,-5.36727 0.38338,0 6.57217,4.38144 6.24356,4.38145 6.90078,5.1482 -2.4098,3.28608 -5.96972,6.62694 -4.87436,4.60051 -7.17462,4.60051 -1.80735,0 -13.1991,-8.16044 z m 41.95233,35.98262 h 4.60052 v 16.10181 h -10.07732 q 0,2.24549 -3.28609,8.70813 -3.28608,6.40786 -5.14819,8.10567 -2.73841,2.51933 -11.11792,5.3125 -8.32475,2.84794 -12.26805,2.84794 -26.2339,0 -26.2339,-15.82797 0,-5.47681 3.17654,-14.18493 1.2049,-3.55992 5.80542,-10.40593 5.20297,-7.94137 7.55799,-7.94137 0.38338,-0.93106 3.06702,-1.3692 -2.13596,2.51933 -6.24356,7.66753 -3.66947,4.92912 -3.66947,11.93943 0,14.02063 19.16883,14.02063 4.65528,0 11.61083,-1.09536 8.65335,-1.53351 10.18686,-3.55993 0,-4.21714 -3.66946,-11.88467 -3.06701,-6.35309 -6.46263,-10.73454 l 8.98196,-14.5683 q 2.24549,3.99807 6.95554,11.93944 3.06702,4.92912 7.06508,4.92912 z"
             id="text4"
             aria-label="طن" /><circle
             style="fill:#000000;stroke-width:352.696;stroke-linecap:round"
             id="path1"
             cx="316.32953"
             cy="466.70547"
             r="16.148687" /></g></g></g><circle
       id="path8784-6-8"
       style="fill:none;stroke:#ff0000;stroke-width:8.70237"
       cx="32.000233"
       cy="32.000004"
       r="25.37018" /></g></svg>
