<?xml version="1.0" encoding="UTF-8" standalone="no"?>
<!-- Created with Inkscape (http://www.inkscape.org/) -->

<svg
   width="64"
   height="64"
   viewBox="0 0 64 64"
   version="1.1"
   id="svg1"
   inkscape:version="1.4 (86a8ad7, 2024-10-11)"
   sodipodi:docname="76.svg"
   xml:space="preserve"
   xmlns:inkscape="http://www.inkscape.org/namespaces/inkscape"
   xmlns:sodipodi="http://sodipodi.sourceforge.net/DTD/sodipodi-0.dtd"
   xmlns="http://www.w3.org/2000/svg"
   xmlns:svg="http://www.w3.org/2000/svg"><sodipodi:namedview
     id="namedview1"
     pagecolor="#ffffff"
     bordercolor="#000000"
     borderopacity="0.25"
     inkscape:showpageshadow="2"
     inkscape:pageopacity="0.0"
     inkscape:pagecheckerboard="0"
     inkscape:deskcolor="#d1d1d1"
     inkscape:document-units="px"
     inkscape:zoom="4.0000001"
     inkscape:cx="-28.749999"
     inkscape:cy="10.375"
     inkscape:window-width="2560"
     inkscape:window-height="1520"
     inkscape:window-x="-11"
     inkscape:window-y="-11"
     inkscape:window-maximized="1"
     inkscape:current-layer="layer1" /><defs
     id="defs1" /><g
     inkscape:label="Layer 1"
     inkscape:groupmode="layer"
     id="layer1"><circle
       id="path8784-4"
       style="fill:#ffffff;stroke:#000000;stroke-width:0.989999;stroke-dasharray:none"
       cx="32"
       cy="32"
       r="31.01018" /><path
       d="m 43.606143,25.196179 q 0.924718,0 1.469952,0.519063 0.549596,0.519064 0.549596,1.421973 0,1.068659 -0.658643,1.644427 -0.658643,0.575767 -1.884331,0.575767 -1.064297,0 -1.718579,-0.344587 v -1.164621 q 0.344588,0.183198 0.802585,0.300969 0.457997,0.113408 0.868014,0.113408 1.234411,0 1.234411,-1.011955 0,-0.963974 -1.27803,-0.963974 -0.231179,0 -0.510339,0.04798 -0.27916,0.04362 -0.453635,0.09596 l -0.536511,-0.287884 0.239903,-3.249597 h 3.458967 v 1.142811 h -2.276898 l -0.117771,1.251859 0.152666,-0.03053 q 0.266074,-0.06107 0.658643,-0.06107 z"
       id="text1"
       style="font-weight:bold;font-size:94.5975px;line-height:1.5;font-family:'Almohanad long kaf';-inkscape-font-specification:'Almohanad long kaf Bold';text-align:end;direction:rtl;text-anchor:end;fill:#000000;stroke-width:16.5762;stroke-linecap:round"
       aria-label="5" /><path
       style="font-weight:bold;font-size:149.214px;line-height:1.5;font-family:'Almohanad long kaf';-inkscape-font-specification:'Almohanad long kaf Bold';fill:#000000;stroke-width:26.1465;stroke-linecap:round"
       d="m 29.947055,25.084783 q 0,-2.986022 1.259082,-4.444631 1.265964,-1.45861 3.784129,-1.45861 0.860029,0 1.348526,0.103204 v 1.699417 q -0.612341,-0.137604 -1.210921,-0.137604 -1.093957,0 -1.788861,0.330251 -0.688023,0.330251 -1.032035,0.976993 -0.344012,0.646743 -0.405934,1.837023 h 0.08944 q 0.681143,-1.16964 2.181034,-1.16964 1.348526,0 2.112232,0.846269 0.763707,0.846269 0.763707,2.339279 0,1.609976 -0.908191,2.552568 -0.908191,0.935711 -2.518167,0.935711 -1.114597,0 -1.947105,-0.516017 -0.825629,-0.516018 -1.279725,-1.506772 -0.447214,-0.990753 -0.447214,-2.387441 z m 3.632763,2.710813 q 0.681143,0 1.045796,-0.454096 0.364652,-0.460976 0.364652,-1.307244 0,-0.736185 -0.344012,-1.155879 -0.337131,-0.426576 -1.025155,-0.426576 -0.646742,0 -1.107717,0.419695 -0.454095,0.419694 -0.454095,0.976993 0,0.818748 0.426574,1.382928 0.433455,0.564179 1.093957,0.564179 z"
       id="text2"
       aria-label="6" /><path
       style="font-weight:bold;font-size:92.7259px;line-height:1.5;font-family:'Almohanad long kaf';-inkscape-font-specification:'Almohanad long kaf Bold';fill:#000000;stroke-width:16.2481;stroke-linecap:round"
       d="m 22.043806,23.498383 q 0,-0.149645 0.290739,-0.555824 0.277912,-0.389078 0.431833,-0.495967 0.02138,0.128267 0.209503,0.453211 0.192401,0.320668 1.051792,0.726848 -0.226605,0.513069 -0.290739,0.619959 -0.235156,0.380526 -0.504518,0.380526 0.05986,0.410455 0.05986,0.714021 0,0.243708 -0.256534,1.094548 0.371975,-0.282189 1.453696,-0.816636 0.359148,-0.175299 0.9278,-0.401904 0.70547,-0.269361 0.923524,-0.269361 0.3677,0 0.923525,0.55155 0.5601,0.551549 0.5601,0.914973 l -0.444659,1.67175 -5.720723,0.0086 v -1.265571 h 0.581479 q 0.359148,0 0.359148,-0.273636 l -0.213778,-1.915459 q -0.02565,-0.230881 -0.06413,-0.466038 -0.03848,-0.239432 -0.175299,-0.401904 -0.102613,-0.115441 -0.102613,-0.273637 z m 3.488871,2.501213 q -0.902148,0 -2.06938,0.838012 0.05131,0.0086 0.282189,0.0086 l 2.928769,-0.0171 Q 26.56309,26.538322 26.199666,26.268961 25.840518,25.9996 25.532677,25.9996 Z m -7.409575,-1.979592 q 0.06413,-0.145369 0.478865,-0.564376 0.419006,-0.419007 0.525895,-0.419007 0.02993,0 0.513069,0.342046 0.487416,0.342047 0.538723,0.401905 -0.188125,0.256534 -0.466037,0.517344 -0.380527,0.359148 -0.560101,0.359148 -0.141094,0 -1.030414,-0.63706 z m 3.275092,2.809053 h 0.359148 v 1.25702 h -0.786706 q 0,0.175299 -0.256534,0.679817 -0.256535,0.500242 -0.401905,0.632785 -0.213778,0.196677 -0.867942,0.414731 -0.649888,0.22233 -0.957729,0.22233 -2.048001,0 -2.048001,-1.235642 0,-0.427557 0.247983,-1.107374 0.09406,-0.277912 0.453212,-0.812359 0.406179,-0.619959 0.590029,-0.619959 0.02993,-0.07268 0.239432,-0.10689 -0.166747,0.196677 -0.487416,0.598581 -0.286463,0.384803 -0.286463,0.932076 0,1.094547 1.496452,1.094547 0.363424,0 0.906422,-0.08551 0.675541,-0.119716 0.795257,-0.277912 0,-0.32922 -0.286464,-0.927801 -0.239431,-0.495967 -0.504518,-0.838012 l 0.701195,-1.137304 q 0.175299,0.312117 0.542998,0.932075 0.239433,0.384802 0.55155,0.384801 z"
       id="text4"
       aria-label="طن" /><path
       id="path5353"
       d="m 19.429844,34.418621 c -0.377656,0 -0.68106,0.306337 -0.68106,0.683991 v 3.983592 c -0.626542,0.232002 -1.074483,0.833974 -1.074483,1.541168 0,0.707024 0.448159,1.306132 1.074483,1.538256 v 3.919054 c 0,0.377655 0.303404,0.68106 0.68106,0.68106 h 2.915034 c 0.377646,0 0.681059,-0.303405 0.681059,-0.68106 v -4.218438 h 6.420188 c 0.47056,0.954423 1.453049,1.611622 2.589152,1.611622 1.136102,0 2.118616,-0.65719 2.589153,-1.611622 h 6.267544 v 4.218438 c 0,0.377655 0.303404,0.68106 0.68106,0.68106 h 2.915025 c 0.377656,0 0.681059,-0.303405 0.681059,-0.68106 v -3.889651 c 0.670578,-0.207305 1.156581,-0.828939 1.156581,-1.567659 0,-0.738673 -0.486045,-1.363248 -1.156581,-1.570571 v -3.954282 c 0,-0.377655 -0.303403,-0.683991 -0.681059,-0.683991 h -2.915025 c -0.377656,0 -0.68106,0.306336 -0.68106,0.683991 v 4.350517 h -6.208828 c -0.442244,-1.025911 -1.459725,-1.746708 -2.647961,-1.746708 -1.188236,0 -2.208612,0.720666 -2.650872,1.746708 h -6.358569 v -4.350517 c 0,-0.377655 -0.303404,-0.683991 -0.681059,-0.683991 h -2.915034 z"
       style="fill:#000000;stroke-width:0.0939391"
       inkscape:connector-curvature="0" /><circle
       id="path8784-6-8"
       style="fill:none;stroke:#ff0000;stroke-width:8.70237"
       cx="32.000233"
       cy="32.000004"
       r="25.37018" /><circle
       style="fill:#000000;stroke-width:19.793;stroke-linecap:round"
       id="path1"
       cx="38.919018"
       cy="28.477411"
       r="0.90625" /></g></svg>
