<?xml version="1.0" encoding="UTF-8" standalone="no"?>
<!-- Created with Inkscape (http://www.inkscape.org/) -->

<svg
   width="64"
   height="64"
   viewBox="0 0 64 64"
   version="1.1"
   id="svg1"
   inkscape:version="1.4 (86a8ad7, 2024-10-11)"
   sodipodi:docname="77.svg"
   xml:space="preserve"
   xmlns:inkscape="http://www.inkscape.org/namespaces/inkscape"
   xmlns:sodipodi="http://sodipodi.sourceforge.net/DTD/sodipodi-0.dtd"
   xmlns="http://www.w3.org/2000/svg"
   xmlns:svg="http://www.w3.org/2000/svg"><sodipodi:namedview
     id="namedview1"
     pagecolor="#ffffff"
     bordercolor="#000000"
     borderopacity="0.25"
     inkscape:showpageshadow="2"
     inkscape:pageopacity="0.0"
     inkscape:pagecheckerboard="0"
     inkscape:deskcolor="#d1d1d1"
     inkscape:document-units="px"
     inkscape:zoom="1"
     inkscape:cx="74.999998"
     inkscape:cy="31.499999"
     inkscape:window-width="1920"
     inkscape:window-height="1027"
     inkscape:window-x="-8"
     inkscape:window-y="-8"
     inkscape:window-maximized="1"
     inkscape:current-layer="text4951" /><defs
     id="defs1" /><g
     inkscape:label="Layer 1"
     inkscape:groupmode="layer"
     id="layer1"><circle
       id="path8784-4"
       style="fill:#ffffff;stroke:#000000;stroke-width:0.989999;stroke-dasharray:none"
       cx="32"
       cy="32"
       r="31.01018" /><g
       id="g6"
       transform="translate(-1.0000004,1.8885883)"><g
         id="g1"
         transform="matrix(0.09443296,0,0,0.09443296,29.367452,26.662243)"><g
           id="text4951"
           style="fill:#000000"
           transform="translate(-316.35005,-352.2473)"><g
             id="text11545"
             style="fill:#000000"
             transform="matrix(0.92606608,0,0,0.92606608,26.725392,28.06301)"><path
               id="path6238"
               d="m 322.79,266.37 -0.16707,46.948 h -82.536 l -5.6806,41.769 c 7.7968,-2.2275 16.039,-3.1743 24.727,-2.8403 8.1309,-0.22261 16.429,0.66847 24.894,2.6732 12.252,3.8986 23.168,10.749 32.747,20.55 13.255,14.48 20.773,30.519 22.555,48.118 0.1112,2.5619 0.16689,5.0681 0.16708,7.5184 -1.9e-4,10.693 -1.3925,19.938 -4.1769,27.735 -5.1238,11.918 -12.141,22.611 -21.052,32.079 -14.703,13.812 -32.636,20.717 -53.799,20.717 h -3.3415 l -15.371,-1.0025 c -16.039,-1.7821 -29.962,-7.407 -41.769,-16.875 -15.26,-14.034 -24.672,-28.459 -28.236,-43.273 l 48.118,-12.197 c 1.4479,6.5717 5.235,12.475 11.361,17.71 9.2448,6.7945 22.277,8.1868 39.096,4.1769 13.923,-5.6805 20.439,-15.594 19.548,-29.74 0.33401,-12.809 -5.458,-21.887 -17.376,-27.233 -8.2425,-2.4503 -17.543,-3.1186 -27.902,-2.0049 -7.9084,1.6709 -14.981,4.7339 -21.219,9.1892 l -41.602,-32.58 12.364,-111.44 z" /><path
               id="path6240"
               d="m 441.92,465.86 c 6.9057,0.44558 11.194,0.3342 12.865,-0.33415 l 0.16708,0.33415 9.1892,-2.0049 c 7.3512,-2.4504 12.976,-7.7411 16.875,-15.872 3.0072,-8.131 5.2349,-17.821 6.683,-29.071 l 0.83538,-37.759 -0.50123,-17.71 -1.6708,-13.199 -0.6683,-0.66831 -2.172,-9.3563 -0.66831,-0.33415 c -1.6709,-6.6829 -4.8453,-12.865 -9.5233,-18.545 -3.5644,-2.8958 -6.4047,-4.7893 -8.5209,-5.6806 l -9.6904,-2.3391 -10.192,-0.50123 c -4.5668,-0.11118 -9.6348,0.83558 -15.204,2.8403 -5.1237,2.4506 -9.412,6.8503 -12.865,13.199 -2.4505,5.9035 -4.6782,13.311 -6.683,22.221 l 0.33415,1.0025 c -0.66836,0.55708 -1.0582,2.3949 -1.1695,5.5135 -1.5594,13.032 -1.7265,32.134 -0.50123,57.307 l 2.6732,18.211 3.5086,12.865 c 2.5618,6.6831 6.0704,11.528 10.526,14.536 4.0097,2.5619 9.4676,4.344 16.373,5.3464 z m -83.204,-50.457 c -0.33416,-6.2374 -0.50124,-12.364 -0.50123,-18.378 -10e-6,-3.0073 0.0557,-6.0146 0.16708,-9.0221 0.33414,-11.807 1.2809,-23.279 2.8403,-34.418 v -1.1695 l 0.66831,-1.5037 1.1695,-11.528 0.83538,-1.6708 1.6708,-9.3563 0.66831,-1.0024 c 1.6707,-8.0195 5.2907,-17.042 10.86,-27.066 l 4.8452,-7.3514 9.3563,-9.5233 c 9.9131,-8.0194 22.778,-13.756 38.595,-17.209 5.0122,-0.89083 10.192,-1.3364 15.538,-1.3366 h 1.3366 c 8.3537,0.22302 17.097,1.6153 26.231,4.1769 3.7869,0.44578 9.8574,2.9519 18.211,7.5184 8.5764,5.3467 16.373,12.642 23.391,21.887 l 5.3464,8.1867 4.344,9.1892 1.8378,6.683 0.50123,0.50123 v 1.6708 c 1.1137,2.3392 1.782,4.1771 2.0049,5.5135 l 0.6683,0.83538 2.8403,14.87 0.50123,0.33415 -0.33415,2.172 0.66831,1.3366 1.6708,17.877 0.6683,1.6708 -0.50123,0.16707 1.1695,10.526 -0.33416,0.33415 c 0.44535,1.114 0.44535,1.7823 0,2.0049 l 0.50123,1.6708 -0.33415,0.50123 0.83538,11.361 -0.33415,0.33416 0.50123,4.8452 -0.16708,0.33416 v 6.683 c -0.11157,4.1213 -0.44572,9.0779 -1.0025,14.87 l -0.83538,6.1818 0.33416,0.33415 -0.83539,1.6708 c -0.33433,4.1213 -1.2811,9.0222 -2.8403,14.703 l -1.0025,3.1744 -0.16707,1.8378 -4.344,12.364 -0.83538,0.6683 c -1.8e-4,1.1139 -1.4482,4.5111 -4.344,10.192 l -8.0197,11.528 c -8.7995,10.136 -18.546,17.543 -29.238,22.221 -7.0173,2.7846 -14.09,4.6224 -21.219,5.5135 l -12.865,0.83538 -3.0074,-0.16707 c -25.396,-0.66831 -45.89,-8.9107 -61.484,-24.727 -7.6855,-8.5766 -13.477,-18.545 -17.376,-29.907 -4.4554,-11.584 -7.1843,-23.78 -8.1867,-36.59 z" /></g></g></g></g><circle
       id="path8784-6-8"
       style="fill:none;stroke:#ff0000;stroke-width:8.70237"
       cx="32.000233"
       cy="32.000004"
       r="25.37018" /></g></svg>
