<?xml version="1.0" encoding="UTF-8" standalone="no"?>
<!-- Created with Inkscape (http://www.inkscape.org/) -->

<svg
   width="64"
   height="64"
   viewBox="0 0 64 64"
   version="1.1"
   id="svg1"
   inkscape:version="1.4 (86a8ad7, 2024-10-11)"
   sodipodi:docname="78.svg"
   xml:space="preserve"
   xmlns:inkscape="http://www.inkscape.org/namespaces/inkscape"
   xmlns:sodipodi="http://sodipodi.sourceforge.net/DTD/sodipodi-0.dtd"
   xmlns="http://www.w3.org/2000/svg"
   xmlns:svg="http://www.w3.org/2000/svg"><sodipodi:namedview
     id="namedview1"
     pagecolor="#ffffff"
     bordercolor="#000000"
     borderopacity="0.25"
     inkscape:showpageshadow="2"
     inkscape:pageopacity="0.0"
     inkscape:pagecheckerboard="0"
     inkscape:deskcolor="#d1d1d1"
     inkscape:document-units="px"
     inkscape:zoom="11.313709"
     inkscape:cx="34.913396"
     inkscape:cy="29.65429"
     inkscape:window-width="2560"
     inkscape:window-height="1520"
     inkscape:window-x="-11"
     inkscape:window-y="-11"
     inkscape:window-maximized="1"
     inkscape:current-layer="layer1" /><defs
     id="defs1" /><g
     inkscape:label="Layer 1"
     inkscape:groupmode="layer"
     id="layer1"><circle
       id="path8784-4"
       style="fill:#ffffff;stroke:#000000;stroke-width:0.989999;stroke-dasharray:none"
       cx="32"
       cy="32"
       r="31.01018" /><ellipse
       id="path8784-6-8"
       style="fill:none;stroke:#0f0f0f;stroke-width:2.88439;stroke-dasharray:none;stroke-opacity:1"
       cx="32"
       cy="32"
       rx="29.64151"
       ry="29.641758" /><rect
       style="fill:#0f0f0f;fill-opacity:1;stroke:none;stroke-width:5.402;stroke-dasharray:none;stroke-opacity:1"
       id="rect4"
       width="9.3691645"
       height="58.336308"
       x="34.643627"
       y="-6.0317788"
       transform="rotate(15)" /><path
       id="path6238"
       d="m 21.295139,21.275632 -0.01461,4.105657 h -7.217868 l -0.496776,3.652748 c 0.68184,-0.194798 1.40263,-0.277597 2.162405,-0.248388 0.711057,-0.01947 1.436735,0.05846 2.177009,0.233774 1.071452,0.340938 2.026069,0.940013 2.863764,1.797122 1.159165,1.266293 1.816623,2.668922 1.972461,4.207975 0.0097,0.224041 0.01459,0.443211 0.01461,0.657493 -1.7e-5,0.935116 -0.121776,1.743601 -0.365275,2.425458 -0.448082,1.042243 -1.061744,1.977358 -1.841022,2.805346 -1.285794,1.207876 -2.854056,1.811725 -4.704785,1.811725 h -0.292218 l -1.344211,-0.08767 C 12.805993,42.481025 11.588411,41.989121 10.555875,41.161135 9.2213698,39.933844 8.3982798,38.672361 8.0866038,37.37686 l 4.2079752,-1.066642 c 0.126621,0.574703 0.457807,1.090953 0.993533,1.54876 0.808468,0.594187 1.948149,0.715945 3.41899,0.365275 1.217583,-0.496767 1.787414,-1.363714 1.709495,-2.600798 0.02921,-1.120162 -0.477308,-1.914043 -1.519551,-2.381557 -0.720816,-0.214282 -1.534156,-0.272725 -2.440062,-0.175331 -0.691599,0.146122 -1.310106,0.413985 -1.855626,0.803606 L 8.9632138,31.021014 10.044461,21.275457 Z"
       style="fill:#5e5e5e;fill-opacity:1;stroke-width:0.0874512" /><path
       id="path6240"
       d="m 48.860536,38.677151 c 0.603911,0.03897 0.978928,0.02923 1.125059,-0.02922 l 0.01461,0.02922 0.803606,-0.175331 c 0.642871,-0.21429 1.134767,-0.676968 1.475739,-1.388025 0.262981,-0.711065 0.457801,-1.558467 0.584431,-2.542292 l 0.073,-3.302069 -0.0438,-1.54876 -0.14611,-1.154268 -0.0584,-0.05844 -0.18994,-0.818219 -0.05844,-0.02922 c -0.14615,-0.584434 -0.423755,-1.125065 -0.832851,-1.621788 -0.311711,-0.253241 -0.560099,-0.41883 -0.745163,-0.496775 l -0.847437,-0.204557 -0.891302,-0.04383 c -0.399372,-0.0097 -0.842574,0.07307 -1.329607,0.248387 -0.448074,0.214308 -0.823091,0.599067 -1.12506,1.154268 -0.214299,0.516268 -0.409114,1.164063 -0.584436,1.943252 l 0.02922,0.08767 c -0.05845,0.04872 -0.09254,0.209437 -0.102274,0.482162 -0.136371,1.139664 -0.150984,2.810156 -0.04383,5.011564 l 0.233774,1.592573 0.306831,1.125059 c 0.224033,0.584445 0.530864,1.008137 0.920511,1.27119 0.350653,0.224041 0.827953,0.379888 1.431838,0.467549 z m -7.276287,-4.412523 c -0.02922,-0.545468 -0.04383,-1.081246 -0.04383,-1.607178 -10e-7,-0.262992 0.0049,-0.525983 0.01461,-0.788993 0.02922,-1.032536 0.112016,-2.035775 0.248387,-3.009894 v -0.102274 l 0.05844,-0.1315 0.102274,-1.008137 0.07305,-0.146114 0.146113,-0.818219 0.05844,-0.08766 c 0.146105,-0.701315 0.462678,-1.490343 0.94972,-2.366953 l 0.423718,-0.642889 0.81822,-0.832823 c 0.866912,-0.701306 1.991962,-1.202978 3.375177,-1.504947 0.438323,-0.0779 0.891302,-0.11687 1.358816,-0.116887 h 0.116888 c 0.73054,0.0195 1.495152,0.141259 2.293931,0.365274 0.331169,0.03898 0.862041,0.258147 1.592568,0.657493 0.75002,0.467575 1.43184,1.105558 2.04557,1.914044 l 0.46755,0.715936 0.37989,0.803606 0.16072,0.584436 0.0438,0.04383 v 0.146113 c 0.0974,0.204566 0.15584,0.365292 0.17533,0.482162 l 0.0584,0.07306 0.24839,1.300399 0.0438,0.02922 -0.0292,0.189944 0.0584,0.116888 0.14611,1.563364 0.0584,0.146113 -0.0438,0.01461 0.10227,0.920511 -0.0292,0.02922 c 0.0389,0.09742 0.0389,0.155864 0,0.17533 l 0.0438,0.146114 -0.0292,0.04383 0.0731,0.993533 -0.0292,0.02922 0.0438,0.423719 -0.0146,0.02922 v 0.584436 c -0.01,0.360413 -0.039,0.793873 -0.0877,1.300399 l -0.0731,0.540606 0.0292,0.02922 -0.0731,0.146114 c -0.0292,0.360412 -0.11203,0.789002 -0.24838,1.285794 l -0.0877,0.277605 -0.0146,0.160718 -0.37989,1.081246 -0.0731,0.05844 c -2e-5,0.09741 -0.12665,0.394501 -0.37989,0.891302 l -0.70133,1.008137 c -0.76953,0.886405 -1.62187,1.534156 -2.5569,1.943252 -0.613666,0.243517 -1.232182,0.404234 -1.855621,0.482162 l -1.12506,0.07306 -0.263,-0.01461 c -2.22067,-0.05844 -4.012894,-0.779251 -5.376607,-2.162405 -0.672106,-0.750034 -1.17858,-1.621782 -1.519552,-2.615402 -0.38963,-1.013034 -0.628275,-2.079589 -0.715936,-3.199838 z"
       style="fill:#5e5e5e;fill-opacity:1;stroke-width:0.0874512" /></g></svg>
