<?xml version="1.0" encoding="UTF-8" standalone="no"?>
<!-- Created with Inkscape (http://www.inkscape.org/) -->

<svg
   width="64"
   height="64"
   viewBox="0 0 64 64"
   version="1.1"
   id="svg1"
   inkscape:version="1.4 (86a8ad7, 2024-10-11)"
   sodipodi:docname="79.svg"
   xml:space="preserve"
   xmlns:inkscape="http://www.inkscape.org/namespaces/inkscape"
   xmlns:sodipodi="http://sodipodi.sourceforge.net/DTD/sodipodi-0.dtd"
   xmlns="http://www.w3.org/2000/svg"
   xmlns:svg="http://www.w3.org/2000/svg"><sodipodi:namedview
     id="namedview1"
     pagecolor="#ffffff"
     bordercolor="#000000"
     borderopacity="0.25"
     inkscape:showpageshadow="2"
     inkscape:pageopacity="0.0"
     inkscape:pagecheckerboard="0"
     inkscape:deskcolor="#d1d1d1"
     inkscape:document-units="px"
     inkscape:zoom="1"
     inkscape:cx="-201.99999"
     inkscape:cy="-2.4999999"
     inkscape:window-width="2560"
     inkscape:window-height="1520"
     inkscape:window-x="-11"
     inkscape:window-y="-11"
     inkscape:window-maximized="1"
     inkscape:current-layer="layer1" /><defs
     id="defs1"><inkscape:path-effect
       effect="fillet_chamfer"
       id="path-effect4"
       is_visible="true"
       lpeversion="1"
       nodesatellites_param="F,0,0,1,0,0,0,1 @ F,0,0,1,0,14.499399,0,1 @ F,0,0,1,0,12.638409,0,1 @ F,0,0,1,0,12.354275,0,1 @ F,0,0,1,0,0,0,1 @ F,0,0,1,0,0,0,1 @ F,0,1,1,0,17.0479,0,1 @ F,0,0,1,0,17.0479,0,1 @ F,0,0,1,0,0,0,1 @ F,0,0,1,0,5.3124999,0,1 @ F,0,0,1,0,3.837499,0,1 @ F,0,0,1,0,0,0,1"
       radius="0"
       unit="px"
       method="auto"
       mode="F"
       chamfer_steps="1"
       flexible="false"
       use_knot_distance="true"
       apply_no_radius="true"
       apply_with_radius="true"
       only_selected="false"
       hide_knots="false" /><inkscape:path-effect
       effect="fillet_chamfer"
       id="path-effect3"
       is_visible="true"
       lpeversion="1"
       nodesatellites_param="F,0,0,1,0,0,0,1 @ F,0,0,1,0,0,0,1 @ F,0,0,1,0,0,0,1 @ F,0,0,1,0,3.8778313,0,1 @ F,0,0,1,0,2.7925089,0,1 @ F,0,0,1,0,3.9607446,0,1 @ F,0,0,1,0,10.629983,0,1 @ F,0,0,1,0,5.760203,0,1 @ F,0,0,1,0,10.196914,0,1 @ F,0,0,1,0,0,0,1 @ F,0,0,1,0,6.2536979,0,1 @ F,0,0,1,0,1.8931631,0,1 @ F,0,0,1,0,0,0,1 @ F,0,0,1,0,7.117395,0,1 @ F,0,0,1,0,17.926398,0,1 @ F,0,0,1,0,5.760203,0,1 @ F,0,0,1,0,4.4516896,0,1 @ F,0,0,1,0,4.4516896,0,1 @ F,0,0,1,0,4.4516896,0,1 @ F,0,0,1,0,3.3561553,0,1 @ F,0,0,1,0,0,0,1 @ F,0,0,1,0,0,0,1 @ F,0,0,1,0,0,0,1"
       radius="0"
       unit="px"
       method="auto"
       mode="F"
       chamfer_steps="1"
       flexible="false"
       use_knot_distance="true"
       apply_no_radius="true"
       apply_with_radius="true"
       only_selected="false"
       hide_knots="false" /><inkscape:path-effect
       effect="fillet_chamfer"
       id="path-effect2"
       is_visible="true"
       lpeversion="1"
       nodesatellites_param="F,0,0,1,0,0,0,1 @ F,0,0,1,0,0,0,1 @ F,0,0,1,0,0,0,1 @ F,0,0,1,0,0,0,1 @ F,0,0,1,0,0,0,1 @ F,0,0,1,0,0,0,1 @ F,0,0,1,0,7.230069,0,1 @ F,0,0,1,0,0,0,1 @ F,0,0,1,0,0,0,1 @ F,0,0,1,0,0,0,1 @ F,0,0,1,0,0,0,1 @ F,0,0,1,0,0,0,1 @ F,0,0,1,0,0,0,1 @ F,0,0,1,0,0,0,1 @ F,0,0,1,0,0,0,1 @ F,0,0,1,0,0,0,1 @ F,0,0,1,0,0,0,1 @ F,0,0,1,0,0,0,1 @ F,0,0,1,0,0,0,1 @ F,0,0,1,0,0,0,1 @ F,0,0,1,0,0,0,1 @ F,0,0,1,0,0,0,1 @ F,0,0,1,0,0,0,1"
       radius="0"
       unit="px"
       method="auto"
       mode="F"
       chamfer_steps="1"
       flexible="false"
       use_knot_distance="true"
       apply_no_radius="true"
       apply_with_radius="true"
       only_selected="false"
       hide_knots="false" /></defs><g
     inkscape:label="Layer 1"
     inkscape:groupmode="layer"
     id="layer1"><g
       id="layer1-9"
       inkscape:label="Calque 1"
       transform="matrix(0.09422171,0,0,0.09422171,-25.631958,-10.567368)"><g
         id="g11649"><g
           id="g10138"
           transform="matrix(1.0262023,0,0,1.0262023,232.38686,49.444838)"><circle
             id="path8784-4"
             style="fill:#ffffff;stroke:#000000;stroke-width:10.28441108;stroke-dasharray:none"
             transform="matrix(0.99557,0,0,0.99557,292.08,-174.21)"
             cx="77.85714"
             cy="568.79077"
             r="322.14285" /><circle
             id="path8784-6-8"
             style="fill:none;stroke:#ff0000;stroke-width:110.5"
             transform="matrix(0.8145,0,0,0.8145,306.18,-71.219)"
             cx="77.85714"
             cy="568.79077"
             r="322.14285" /></g></g></g><path
       id="path1"
       style="fill:#000000;stroke-width:2.65202;stroke-linecap:round"
       d="m 14.186674,23.361047 v 16.489128 l 1.909387,-3.23999 a 7.653363,7.653363 0 0 1 2.78008,-2.749971 6.8602831,6.8602831 0 0 1 2.840322,-0.66334 l 7.506161,-0.701566 4.532148,-0.364682 a 15.690409,15.690409 0 0 1 1.258321,-0.05049 h 2.621614 a 0.45523035,0.45523035 0 0 1 0.455278,0.455266 v 1.688122 c -0.718276,0.06539 -1.54215,0.140166 -1.54215,0.140166 H 24.551921 a 3.7367492,3.7367492 0 0 0 -0.906143,0.111734 l -0.537306,0.134147 a 1.0577897,1.0577897 0 0 0 -0.539603,0.329696 l -0.302826,0.34615 c -0.170876,0.195286 -0.302338,0.563845 -0.294026,0.823199 0.03227,1.006752 0.05073,1.67387 0.05953,2.107719 0.0085,0.39671 0.432456,0.962462 1.058143,1.268283 a 2.3644564,2.3644564 0 0 0 1.059771,0.18118 l 11.514903,-0.04768 a 3.7984676,3.7984676 0 0 0 2.19368,-0.708754 l 0.765745,-0.547489 0.184419,-0.184419 a 1.7909996,1.7909996 0 0 0 0.524558,-1.266433 v -1.272001 h 0.506951 l 2.016646,0.266911 2.323885,0.536377 a 3.292362,3.292362 0 0 0 2.777073,1.525695 3.292362,3.292362 0 0 0 3.292361,-3.292361 3.292362,3.292362 0 0 0 -3.292361,-3.29235 3.292362,3.292362 0 0 0 -3.087541,2.173279 c -0.829398,0.1581 -2.099648,0.334207 -4.059719,0.510642 -0.06528,0.0061 -0.367861,0.03349 -0.547964,0.04988 0.01222,-0.512013 0.02702,-1.205143 0.0341,-1.955021 0.0085,-0.946411 -0.819178,-1.739038 -1.768524,-1.77268 C 33.823275,30.258105 25.142324,29.94638 21.646046,29.820822 20.81859,29.791107 19.537813,29.486604 18.785564,29.140564 L 18.292065,28.9135 A 4.5131315,4.5131315 0 0 1 16.242974,27.023123 Z M 24.412452,35.63892 h 13.24982 0.3684 v 0.846145 a 1.6761383,1.6761383 0 0 1 -0.678401,1.346839 5.0112863,5.0112863 0 0 1 -3.049545,0.69021 l -9.416232,0.02848 a 2.3657746,2.3657746 0 0 1 -1.262501,-0.36051 0.82321521,0.82321521 0 0 1 -0.326922,-0.73632 l 0.0098,-0.819498 a 1.1294197,1.1294197 0 0 1 0.414962,-0.862134 1.0482635,1.0482635 0 0 1 0.691138,-0.133224 z" /><rect
       id="rect9331-9"
       style="fill:#ff0000;stroke-width:0.12866"
       transform="rotate(-45)"
       ry="0"
       height="57.182655"
       width="6.9712787"
       y="16.663507"
       x="-3.4856391" /></g></svg>
