<?xml version="1.0" encoding="UTF-8" standalone="no"?>
<!-- Created with Inkscape (http://www.inkscape.org/) -->

<svg
   width="64"
   height="64"
   viewBox="0 0 64 64"
   version="1.1"
   id="svg1"
   inkscape:version="1.4 (86a8ad7, 2024-10-11)"
   sodipodi:docname="80.svg"
   xml:space="preserve"
   xmlns:inkscape="http://www.inkscape.org/namespaces/inkscape"
   xmlns:sodipodi="http://sodipodi.sourceforge.net/DTD/sodipodi-0.dtd"
   xmlns="http://www.w3.org/2000/svg"
   xmlns:svg="http://www.w3.org/2000/svg"><sodipodi:namedview
     id="namedview1"
     pagecolor="#ffffff"
     bordercolor="#000000"
     borderopacity="0.25"
     inkscape:showpageshadow="2"
     inkscape:pageopacity="0.0"
     inkscape:pagecheckerboard="0"
     inkscape:deskcolor="#d1d1d1"
     inkscape:document-units="px"
     inkscape:zoom="16"
     inkscape:cx="38"
     inkscape:cy="24.84375"
     inkscape:window-width="2560"
     inkscape:window-height="1520"
     inkscape:window-x="-11"
     inkscape:window-y="-11"
     inkscape:window-maximized="1"
     inkscape:current-layer="layer1" /><defs
     id="defs1"><inkscape:path-effect
       effect="fillet_chamfer"
       id="path-effect4"
       is_visible="true"
       lpeversion="1"
       nodesatellites_param="F,0,0,1,0,0,0,1 @ F,0,0,1,0,14.499399,0,1 @ F,0,0,1,0,12.638409,0,1 @ F,0,0,1,0,12.354275,0,1 @ F,0,0,1,0,0,0,1 @ F,0,0,1,0,0,0,1 @ F,0,1,1,0,17.0479,0,1 @ F,0,0,1,0,17.0479,0,1 @ F,0,0,1,0,0,0,1 @ F,0,0,1,0,5.3124999,0,1 @ F,0,0,1,0,3.837499,0,1 @ F,0,0,1,0,0,0,1"
       radius="0"
       unit="px"
       method="auto"
       mode="F"
       chamfer_steps="1"
       flexible="false"
       use_knot_distance="true"
       apply_no_radius="true"
       apply_with_radius="true"
       only_selected="false"
       hide_knots="false" /><inkscape:path-effect
       effect="fillet_chamfer"
       id="path-effect3"
       is_visible="true"
       lpeversion="1"
       nodesatellites_param="F,0,0,1,0,0,0,1 @ F,0,0,1,0,0,0,1 @ F,0,0,1,0,0,0,1 @ F,0,0,1,0,3.8778313,0,1 @ F,0,0,1,0,2.7925089,0,1 @ F,0,0,1,0,3.9607446,0,1 @ F,0,0,1,0,10.629983,0,1 @ F,0,0,1,0,5.760203,0,1 @ F,0,0,1,0,10.196914,0,1 @ F,0,0,1,0,0,0,1 @ F,0,0,1,0,6.2536979,0,1 @ F,0,0,1,0,1.8931631,0,1 @ F,0,0,1,0,0,0,1 @ F,0,0,1,0,7.117395,0,1 @ F,0,0,1,0,17.926398,0,1 @ F,0,0,1,0,5.760203,0,1 @ F,0,0,1,0,4.4516896,0,1 @ F,0,0,1,0,4.4516896,0,1 @ F,0,0,1,0,4.4516896,0,1 @ F,0,0,1,0,3.3561553,0,1 @ F,0,0,1,0,0,0,1 @ F,0,0,1,0,0,0,1 @ F,0,0,1,0,0,0,1"
       radius="0"
       unit="px"
       method="auto"
       mode="F"
       chamfer_steps="1"
       flexible="false"
       use_knot_distance="true"
       apply_no_radius="true"
       apply_with_radius="true"
       only_selected="false"
       hide_knots="false" /><inkscape:path-effect
       effect="fillet_chamfer"
       id="path-effect2"
       is_visible="true"
       lpeversion="1"
       nodesatellites_param="F,0,0,1,0,0,0,1 @ F,0,0,1,0,0,0,1 @ F,0,0,1,0,0,0,1 @ F,0,0,1,0,0,0,1 @ F,0,0,1,0,0,0,1 @ F,0,0,1,0,0,0,1 @ F,0,0,1,0,7.230069,0,1 @ F,0,0,1,0,0,0,1 @ F,0,0,1,0,0,0,1 @ F,0,0,1,0,0,0,1 @ F,0,0,1,0,0,0,1 @ F,0,0,1,0,0,0,1 @ F,0,0,1,0,0,0,1 @ F,0,0,1,0,0,0,1 @ F,0,0,1,0,0,0,1 @ F,0,0,1,0,0,0,1 @ F,0,0,1,0,0,0,1 @ F,0,0,1,0,0,0,1 @ F,0,0,1,0,0,0,1 @ F,0,0,1,0,0,0,1 @ F,0,0,1,0,0,0,1 @ F,0,0,1,0,0,0,1 @ F,0,0,1,0,0,0,1"
       radius="0"
       unit="px"
       method="auto"
       mode="F"
       chamfer_steps="1"
       flexible="false"
       use_knot_distance="true"
       apply_no_radius="true"
       apply_with_radius="true"
       only_selected="false"
       hide_knots="false" /></defs><g
     inkscape:label="Layer 1"
     inkscape:groupmode="layer"
     id="layer1"><g
       id="layer1-9"
       inkscape:label="Calque 1"
       transform="matrix(0.09422171,0,0,0.09422171,-25.631958,-10.567368)"><g
         id="g11649"><g
           id="g10138"
           transform="matrix(1.0262023,0,0,1.0262023,232.38686,49.444838)"><circle
             id="path8784-4"
             style="fill:#ffffff;stroke:#000000;stroke-width:10.28441108;stroke-dasharray:none"
             transform="matrix(0.99557,0,0,0.99557,292.08,-174.21)"
             cx="77.85714"
             cy="568.79077"
             r="322.14285" /><circle
             id="path8784-6-8"
             style="fill:none;stroke:#ff0000;stroke-width:110.5"
             transform="matrix(0.8145,0,0,0.8145,306.18,-71.219)"
             cx="77.85714"
             cy="568.79077"
             r="322.14285" /></g></g></g><rect
       id="rect9331-9"
       style="fill:#ff0000;stroke-width:0.12866"
       transform="rotate(-45)"
       ry="0"
       height="57.182655"
       width="6.9712787"
       y="16.663507"
       x="-3.4856391" /><path
       d="m 47.129704,31.383194 q 0.326352,-0.130541 0.600488,-0.130541 0.293718,0 0.372042,0.163176 0.22192,0.737557 0.652705,2.206144 0.104433,0.345933 0.104433,0.783246 0,0.143595 -0.496056,0.926841 -0.489528,0.776719 -0.554799,0.776719 l -2.793578,-1.044328 q -0.124014,0 -0.417731,0.62007 -0.293717,0.613542 -0.62007,0.613542 h -0.744084 v -1.918952 h 1.103072 q 0.254555,-0.574381 0.522164,-1.168343 0.698394,-1.168342 2.271414,-1.827574 z m -0.541745,1.52733 q -0.378569,0 -0.868098,0.345934 l 1.324991,0.567853 q -0.202338,-0.913787 -0.456893,-0.913787 z m -3.243943,1.468587 v 1.918952 h -4.366597 q -0.09138,-0.476474 -0.09138,-0.926841 0,-0.221919 0.01958,-0.711448 -0.319825,0 -0.744084,0.365515 -0.09791,0.07832 -0.600488,0.613542 -0.404678,0.411205 -0.44384,0.456894 -0.261082,0.202338 -0.580907,0.202338 h -2.565131 v -1.918952 h 3.100349 q 0.274136,0 0.711448,-0.234974 0.44384,-0.241501 0.626597,-0.463421 -0.150122,-0.11096 -1.057382,-0.372042 -0.90726,-0.261082 -1.142234,-0.261082 -0.430785,0 -0.900733,0.195812 -0.535218,0.228446 -0.698394,0.561326 0.365515,-1.364154 0.620069,-1.775358 0.502583,-0.841989 1.52733,-0.841989 0.633124,0 1.814521,0.39815 1.573019,0.535218 1.827574,0.600488 0.554799,0.124014 1.781885,0.124014 h 0.424258 q -0.130541,0.365515 -0.770192,1.514276 -0.802827,0 -1.625236,0.326353 -0.254555,0.09791 -0.502583,0.228447 z M 24.493893,29.294538 q 0,-0.228447 0.450367,-0.848517 0.417731,-0.593961 0.652705,-0.757138 0.03263,0.195812 0.319825,0.691868 0.293718,0.489529 1.605655,1.109598 -0.339407,0.783247 -0.44384,0.946423 -0.35246,0.580907 -0.770192,0.580907 0.09138,0.626597 0.09138,1.090018 0,0.372042 -0.391623,1.670925 0.567853,-0.430785 2.219197,-1.246667 0.548273,-0.267609 1.41637,-0.613543 1.076964,-0.411204 1.409843,-0.411204 0.561327,0 1.409843,0.84199 0.855044,0.841989 0.855044,1.396789 -0.202339,0.365514 -0.313298,0.633124 h 1.168342 v 1.918952 l -10.267051,0.01306 v -1.932007 h 0.887679 q 0.548272,0 0.548272,-0.417732 L 25.016057,31.03726 q -0.03916,-0.35246 -0.09791,-0.711448 -0.05222,-0.365515 -0.26761,-0.613543 -0.156649,-0.17623 -0.156649,-0.417731 z m 5.332601,3.818325 q -1.383735,0 -3.16562,1.279302 0.07832,0.01305 0.430785,0.01305 l 4.47103,-0.02611 q -0.169703,-0.44384 -0.724502,-0.855044 -0.548273,-0.411204 -1.011693,-0.411204 z M 17.868936,28.778901 q 0.104432,0 0.502583,-0.39815 0.437312,-0.450367 0.522164,-0.496056 l 1.670925,0.952949 q -0.189285,0.254555 -0.587435,0.717976 -0.515637,0.593962 -0.613543,0.593962 -0.143595,0 -1.670925,-0.894206 -0.411204,0.378569 -0.868097,0.86157 -0.300245,-0.09138 -0.894206,-0.404677 -0.633124,-0.332879 -0.789774,-0.50911 0.44384,-0.515637 1.214032,-1.279302 0.169703,0.163177 0.750611,0.50911 0.587434,0.345934 0.763665,0.345934 z m 2.225724,1.63829 q 0.541745,-0.789773 1.103072,-1.794939 0.08485,0.137068 0.332879,1.429424 l 0.476475,2.571658 q 0.09138,0.476475 0.17623,0.959476 0.169704,0.5548 0.580908,0.711449 0.248028,0.08485 0.678813,0.08485 h 0.593962 v 1.918952 h -1.697033 q -0.489529,0 -0.763665,-0.300244 -0.215393,-0.234974 -0.358988,-0.724502 -0.11096,-0.424259 -0.22192,-0.855044 -0.137068,0.06527 -0.522164,0.7963 -0.339407,0.672286 -0.672286,0.672286 -0.176231,0 -0.835463,-0.137068 -0.424258,-0.08485 -0.841989,-0.17623 -1.194451,-0.208866 -1.52733,-0.208866 0,-0.404677 0.404677,-1.449005 0.404677,-1.050855 0.68534,-1.311937 0.280663,-0.261082 1.024747,-0.685341 l 1.533857,-0.887679 q 0,-0.110959 -0.07832,-0.313298 -0.0718,-0.202339 -0.0718,-0.300244 z m 0.365515,1.514275 q -0.01958,0 -0.326353,0.372042 -0.300244,0.365515 -0.365515,0.424259 -0.06527,0.05874 -0.469947,0.261082 -0.306772,0.169703 -0.411204,0.358988 0.704921,0.234973 1.905898,0.234973 0.01305,-0.150122 -0.332879,-1.651344 z"
       id="text1"
       style="font-weight:bold;font-size:13.3674px;line-height:1.5;font-family:'Almohanad long kaf';-inkscape-font-specification:'Almohanad long kaf Bold';stroke-width:10.518;stroke-linecap:round;stroke-linejoin:round"
       aria-label="محطة" /></g></svg>
