<?xml version="1.0" encoding="UTF-8" standalone="no"?>
<svg
   viewBox="0 0 19 19"
   height="19"
   width="19"
   version="1.1"
   id="svg1"
   sodipodi:docname="03.svg"
   inkscape:version="1.4 (86a8ad7, 2024-10-11)"
   xmlns:inkscape="http://www.inkscape.org/namespaces/inkscape"
   xmlns:sodipodi="http://sodipodi.sourceforge.net/DTD/sodipodi-0.dtd"
   xmlns="http://www.w3.org/2000/svg"
   xmlns:svg="http://www.w3.org/2000/svg"
   xmlns:rdf="http://www.w3.org/1999/02/22-rdf-syntax-ns#"
   xmlns:cc="http://creativecommons.org/ns#"
   xmlns:dc="http://purl.org/dc/elements/1.1/">
  <defs
     id="defs1">
    <pattern
       id="EMFhbasepattern"
       patternUnits="userSpaceOnUse"
       width="6"
       height="6"
       x="0"
       y="0" />
    <pattern
       id="EMFhbasepattern-4"
       patternUnits="userSpaceOnUse"
       width="6"
       height="6"
       x="0"
       y="0" />
    <pattern
       id="EMFhbasepattern-1"
       patternUnits="userSpaceOnUse"
       width="6"
       height="6"
       x="0"
       y="0" />
    <pattern
       id="EMFhbasepattern-5"
       patternUnits="userSpaceOnUse"
       width="6"
       height="6"
       x="0"
       y="0" />
  </defs>
  <sodipodi:namedview
     id="namedview1"
     pagecolor="#ffffff"
     bordercolor="#000000"
     borderopacity="0.25"
     inkscape:showpageshadow="2"
     inkscape:pageopacity="0.0"
     inkscape:pagecheckerboard="0"
     inkscape:deskcolor="#d1d1d1"
     inkscape:zoom="32.605264"
     inkscape:cx="10.473769"
     inkscape:cy="9.3389829"
     inkscape:window-width="1920"
     inkscape:window-height="1027"
     inkscape:window-x="-8"
     inkscape:window-y="-8"
     inkscape:window-maximized="1"
     inkscape:current-layer="svg1" />
  <title
     id="title1">grocery.svg</title>
  <circle
     style="display:inline;fill:#efa152;fill-opacity:1;stroke-width:1.1337"
     id="path2"
     cx="9.5"
     cy="9.5"
     r="9.195241" />
  <g
     id="g1"
     style="fill:#f9f9f9"
     transform="translate(-0.42572841,0.17093473)">
    <path
       style="fill:#f9f9f9;fill-opacity:1;fill-rule:nonzero;stroke:none;stroke-width:0.0389108"
       d="M 12.677556,3.5227428 C 12.2236,3.9637322 12.2236,3.9118485 12.885082,4.5863024 13.416861,5.1180823 13.416861,5.1180823 13.416861,5.1180823 12.690529,5.8444201 12.690529,5.8444201 12.690529,5.8444201 11.964197,6.5707525 11.964197,6.5707525 11.964197,6.5707525 11.198947,5.8184756 11.198947,5.8184756 11.198947,5.8184756 10.433703,5.0532314 10.433703,5.0532314 10.433703,5.0532314 7.7229199,7.7640191 7.7229199,7.7640191 7.7229199,7.7640191 5.5179723,9.9689618 5.0121319,10.500742 4.9861926,10.591532 c -0.038936,0.142674 -0.01296,0.29832 0.077824,0.453962 0.038887,0.07782 0.7652444,0.817127 1.5953396,1.647223 1.4786098,1.47861 1.5175214,1.517521 1.6991071,1.5694 0.3501942,0.09079 0.1297023,0.272376 3.1388047,-2.723756 C 14.20805,8.8275788 14.20805,8.8275788 14.20805,8.8275788 13.442806,8.0623345 13.442806,8.0623345 13.442806,8.0623345 c -0.752277,-0.752277 -0.752277,-0.752277 -0.752277,-0.752277 0.726332,-0.739305 0.726332,-0.739305 0.726332,-0.739305 0.726338,-0.7263324 0.726338,-0.7263324 0.726338,-0.7263324 0.531781,0.5317796 0.531781,0.5317796 0.531781,0.5317796 0.674453,0.6744539 0.622569,0.6614818 1.063559,0.207525 0.259409,-0.2464367 0.311288,-0.3242597 0.311288,-0.4020779 0,-0.077824 -0.207525,-0.2983153 -1.426726,-1.5304933 -1.232179,-1.2321732 -1.452671,-1.4396983 -1.530494,-1.4396983 -0.07783,0 -0.155642,0.051884 -0.415051,0.3112876 z M 11.250831,10.319161 C 9.7592489,11.82371 9.7592489,11.82371 9.7592489,11.82371 8.6048988,10.656388 8.6048988,10.656388 8.6048988,10.656388 7.4375717,9.4890608 7.4375717,9.4890608 7.4375717,9.4890608 7.6840082,9.2426288 7.6840082,9.2426288 7.6840082,9.2426288 7.9304449,8.9961923 7.9304449,8.9961923 7.9304449,8.9961923 c 0.6355423,0.6355425 0.6355423,0.6355425 0.6355423,0.6355425 0.6355424,0.6355422 0.6355424,0.6355422 0.6355424,0.6355422 0.1815808,0 0.1815808,0 0.1815808,0 0.1426741,0 0.1815856,-0.01296 0.272376,-0.11673 0.090796,-0.0908 0.1037629,-0.129706 0.1037629,-0.2464362 0,-0.181586 -0.025925,-0.220493 -0.7652444,-0.9338582 C 8.7346008,8.6978769 8.5141035,8.4773796 8.5141035,8.4514403 c 0,-0.01296 0.1426742,-0.1686136 0.3112876,-0.337227 C 9.1366787,7.8029257 9.1366787,7.8029257 9.1366787,7.8029257 9.7592489,8.4255009 9.7592489,8.4255009 9.7592489,8.4255009 10.23915,8.8924297 10.407763,9.0480711 10.498554,9.0610432 10.809841,9.1258942 11.069245,8.8275788 10.939543,8.5292633 10.900607,8.4644124 10.615289,8.1531248 10.291029,7.82887 9.694398,7.2322343 9.694398,7.2322343 9.694398,7.2322343 c 0.363166,-0.3501942 0.363166,-0.3501942 0.363166,-0.3501942 0.363172,-0.3631664 0.363172,-0.3631664 0.363172,-0.3631664 1.167322,1.15435 1.167322,1.15435 1.167322,1.15435 1.15435,1.1543551 1.15435,1.1543551 1.15435,1.1543551 z"
       id="path1-2" />
    <path
       style="fill:#f9f9f9;fill-opacity:1;fill-rule:nonzero;stroke:none;stroke-width:0.0389108"
       d="m 4.6230262,12.083114 c -0.2983155,0.311288 -0.3761387,0.453961 -0.324255,0.674454 0.012961,0.09079 0.077818,0.181585 0.3891059,0.492869 0.3761385,0.376138 0.3761385,0.376138 0.3761385,0.376138 -0.609603,0.622575 -0.609603,0.622575 -0.609603,0.622575 -0.5317799,0.531779 -0.6225702,0.635542 -0.6485145,0.739305 -0.038936,0.259404 0.1945529,0.492867 0.4539616,0.453957 0.11673,-0.02592 0.2204923,-0.116737 0.7522722,-0.635543 0.609603,-0.62257 0.609603,-0.62257 0.609603,-0.62257 0.3631664,0.363166 0.3631664,0.363166 0.3631664,0.363166 0.272376,0.272376 0.3891106,0.363167 0.4928731,0.389106 0.064851,0.01299 0.1297024,0.02592 0.1556414,0.02592 0.025925,-0.01299 0.077824,-0.02592 0.1297023,-0.03888 C 6.8279693,14.910624 6.9706432,14.7939 7.1522289,14.612323 7.4635111,14.314005 7.4635111,14.314005 7.4635111,14.314005 6.1924264,13.068861 6.1924264,13.068861 6.1924264,13.068861 5.5050052,12.368468 4.9343138,11.797775 4.9213416,11.797775 c -0.012961,0 -0.1426742,0.129697 -0.2983154,0.285345 z"
       id="path2-7" />
  </g>
  <metadata
     id="metadata1">
    <rdf:RDF>
      <cc:Work
         rdf:about="">
        <dc:title>grocery.svg</dc:title>
      </cc:Work>
    </rdf:RDF>
  </metadata>
</svg>
