<?xml version="1.0" encoding="UTF-8" standalone="no"?>
<svg
   viewBox="0 0 19 19"
   height="19"
   width="19"
   version="1.1"
   id="svg1"
   sodipodi:docname="01.svg"
   inkscape:version="1.4 (86a8ad7, 2024-10-11)"
   xmlns:inkscape="http://www.inkscape.org/namespaces/inkscape"
   xmlns:sodipodi="http://sodipodi.sourceforge.net/DTD/sodipodi-0.dtd"
   xmlns="http://www.w3.org/2000/svg"
   xmlns:svg="http://www.w3.org/2000/svg"
   xmlns:rdf="http://www.w3.org/1999/02/22-rdf-syntax-ns#"
   xmlns:cc="http://creativecommons.org/ns#"
   xmlns:dc="http://purl.org/dc/elements/1.1/">
  <defs
     id="defs1">
    <pattern
       id="EMFhbasepattern"
       patternUnits="userSpaceOnUse"
       width="6"
       height="6"
       x="0"
       y="0" />
  </defs>
  <sodipodi:namedview
     id="namedview1"
     pagecolor="#ffffff"
     bordercolor="#000000"
     borderopacity="0.25"
     inkscape:showpageshadow="2"
     inkscape:pageopacity="0.0"
     inkscape:pagecheckerboard="0"
     inkscape:deskcolor="#d1d1d1"
     inkscape:zoom="23.055403"
     inkscape:cx="12.990447"
     inkscape:cy="11.689234"
     inkscape:window-width="1920"
     inkscape:window-height="1027"
     inkscape:window-x="-8"
     inkscape:window-y="-8"
     inkscape:window-maximized="1"
     inkscape:current-layer="svg1" />
  <title
     id="title1">grocery.svg</title>
  <circle
     style="display:inline;fill:#8674dd;fill-opacity:1;stroke-width:1.1337"
     id="path2"
     cx="9.5"
     cy="9.5"
     r="9.195241" />
  <path
     style="fill:#ffffff;fill-opacity:1;fill-rule:nonzero;stroke:none;stroke-width:0.733251"
     d="m 5.5893263,4.6116585 c -0.9776683,0 -1.9553367,0.9776683 -1.9553367,1.9553366 1.9553367,0 2.933005,1.7109197 2.933005,2.933005 5.8660104,0 5.8660104,0 5.8660104,0 0,-1.4665025 0.977669,-2.933005 2.933005,-2.933005 0,-0.9776683 -0.977668,-1.9553366 -1.955336,-1.9553366 z m -1.9553367,2.933005 c -0.9776683,0 -0.9776683,0.9776683 -0.9776683,0.9776683 0,0.4888342 0.4888342,0.9776683 0.9776683,0.9776683 0,2.9330039 0,2.9330039 0,2.9330039 0,0.733251 0.4888342,0.97767 0.9776684,0.97767 0.4888341,0 0.4888341,0 0.4888341,0 0,0 0,0.977667 0.9776684,0.977667 0.9776683,0 0.9776683,-0.977667 0.9776683,-0.977667 4.8883422,0 4.8883422,0 4.8883422,0 0,0 0,0.977667 0.977668,0.977667 0.977669,0 0.977669,-0.977667 0.977669,-0.977667 0.488834,0 0.488834,0 0.488834,0 0.488834,0 0.977668,-0.488835 0.977668,-0.97767 0,-2.9330039 0,-2.9330039 0,-2.9330039 0.488834,0 0.977669,-0.244417 0.977669,-0.9776683 0,0 0,-0.9776683 -0.977669,-0.9776683 -0.977668,0 -1.955336,0.9776683 -1.955336,2.9330055 -7.8213477,0 -7.8213477,0 -7.8213477,0 0,-1.9553372 -0.9776683,-2.9330055 -1.9553367,-2.9330055 z"
     id="path1" />
  <metadata
     id="metadata1">
    <rdf:RDF>
      <cc:Work
         rdf:about="">
        <dc:title>grocery.svg</dc:title>
      </cc:Work>
    </rdf:RDF>
  </metadata>
</svg>
