<?xml version="1.0" encoding="UTF-8" standalone="no"?>
<svg
   viewBox="0 0 19 19"
   height="19"
   width="19"
   version="1.1"
   id="svg1"
   sodipodi:docname="02.svg"
   inkscape:version="1.4 (86a8ad7, 2024-10-11)"
   xmlns:inkscape="http://www.inkscape.org/namespaces/inkscape"
   xmlns:sodipodi="http://sodipodi.sourceforge.net/DTD/sodipodi-0.dtd"
   xmlns="http://www.w3.org/2000/svg"
   xmlns:svg="http://www.w3.org/2000/svg"
   xmlns:rdf="http://www.w3.org/1999/02/22-rdf-syntax-ns#"
   xmlns:cc="http://creativecommons.org/ns#"
   xmlns:dc="http://purl.org/dc/elements/1.1/">
  <defs
     id="defs1">
    <pattern
       id="EMFhbasepattern"
       patternUnits="userSpaceOnUse"
       width="6"
       height="6"
       x="0"
       y="0" />
    <pattern
       id="EMFhbasepattern-4"
       patternUnits="userSpaceOnUse"
       width="6"
       height="6"
       x="0"
       y="0" />
  </defs>
  <sodipodi:namedview
     id="namedview1"
     pagecolor="#ffffff"
     bordercolor="#000000"
     borderopacity="0.25"
     inkscape:showpageshadow="2"
     inkscape:pageopacity="0.0"
     inkscape:pagecheckerboard="0"
     inkscape:deskcolor="#d1d1d1"
     inkscape:zoom="23.055403"
     inkscape:cx="12.990447"
     inkscape:cy="11.689234"
     inkscape:window-width="1920"
     inkscape:window-height="1027"
     inkscape:window-x="-8"
     inkscape:window-y="-8"
     inkscape:window-maximized="1"
     inkscape:current-layer="svg1" />
  <title
     id="title1">grocery.svg</title>
  <circle
     style="display:inline;fill:#84c966;fill-opacity:1;stroke-width:1.1337"
     id="path2"
     cx="9.5"
     cy="9.5"
     r="9.195241" />
  <path
     style="fill:#ffffff;fill-opacity:1;fill-rule:nonzero;stroke:none;stroke-width:0.596241"
     d="m 3.5375883,5.7238062 c 0,0 -0.7949879,2.1862171 -0.7949879,4.9686758 5.3661705,0 5.3661705,0 5.3661705,0 0.3974939,0 1.1924818,0.993735 1.1924818,0.993735 6.9561473,0 6.9561473,0 6.9561473,0 0,-2.9812057 -2.981206,-3.1799522 -3.974941,-3.1799522 -1.788723,0 -1.788723,0 -1.788723,0 C 9.5000001,6.7175406 7.5125295,5.7238062 7.5125295,5.7238062 c -0.1987465,0 -0.1987465,0 -0.1987465,0 -0.5962414,1.3912293 -2.583712,1.3912293 -3.5774473,0 z m 4.5711826,0.9937344 c 0.1987465,0 0.3974939,0.1987475 0.3974939,0.3974949 0,0.1987466 -0.1987474,0.3974939 -0.3974939,0.3974939 -0.3974948,0 -0.5962414,-0.1987474 -0.5962414,-0.3974939 0,-0.1987474 0.1987466,-0.3974949 0.5962414,-0.3974949 z m 0.9937353,0.7949889 c 0.1987465,0 0.3974939,0.1987474 0.3974939,0.5962405 0,0.1987474 -0.1987474,0.3974948 -0.3974939,0.3974948 -0.3974948,0 -0.5962414,-0.1987474 -0.5962414,-0.3974948 0,-0.3974931 0.1987466,-0.5962405 0.5962414,-0.5962405 z M 2.7426004,11.48747 c 0,1.788724 0,1.788724 0,1.788724 5.1674231,0 5.1674231,0 5.1674231,0 0,-1.788724 0,-1.788724 0,-1.788724 z m 6.9561472,0.794988 c 0,0 0.7949884,0.993736 1.1924824,0.993736 5.36617,0 5.36617,0 5.36617,0 0,-0.993736 0,-0.993736 0,-0.993736 z"
     id="path1-5" />
  <metadata
     id="metadata1">
    <rdf:RDF>
      <cc:Work
         rdf:about="">
        <dc:title>grocery.svg</dc:title>
      </cc:Work>
    </rdf:RDF>
  </metadata>
</svg>
