<?xml version="1.0" encoding="UTF-8" standalone="no"?>
<!-- Created with Inkscape (http://www.inkscape.org/) -->

<svg
   width="64"
   height="64"
   viewBox="0 0 64 64"
   version="1.1"
   id="svg1"
   inkscape:version="1.4 (86a8ad7, 2024-10-11)"
   sodipodi:docname="06.svg"
   xml:space="preserve"
   xmlns:inkscape="http://www.inkscape.org/namespaces/inkscape"
   xmlns:sodipodi="http://sodipodi.sourceforge.net/DTD/sodipodi-0.dtd"
   xmlns="http://www.w3.org/2000/svg"
   xmlns:svg="http://www.w3.org/2000/svg"><sodipodi:namedview
     id="namedview1"
     pagecolor="#ffffff"
     bordercolor="#000000"
     borderopacity="0.25"
     inkscape:showpageshadow="2"
     inkscape:pageopacity="0.0"
     inkscape:pagecheckerboard="0"
     inkscape:deskcolor="#d1d1d1"
     inkscape:document-units="mm"
     inkscape:zoom="2.8284272"
     inkscape:cx="91.747102"
     inkscape:cy="-2.6516504"
     inkscape:window-width="2560"
     inkscape:window-height="1387"
     inkscape:window-x="-8"
     inkscape:window-y="-8"
     inkscape:window-maximized="1"
     inkscape:current-layer="layer1" /><defs
     id="defs1"><inkscape:path-effect
       effect="fillet_chamfer"
       id="path-effect4"
       is_visible="true"
       lpeversion="1"
       nodesatellites_param="F,0,0,1,0,1.821847,0,1 @ F,0,0,1,0,1.6816942,0,1 @ F,0,0,1,0,0,0,1 @ F,0,0,1,0,0,0,1"
       radius="0"
       unit="px"
       method="auto"
       mode="F"
       chamfer_steps="1"
       flexible="false"
       use_knot_distance="true"
       apply_no_radius="true"
       apply_with_radius="true"
       only_selected="false"
       hide_knots="false" /><inkscape:path-effect
       effect="fillet_chamfer"
       id="path-effect8"
       is_visible="true"
       lpeversion="1"
       nodesatellites_param="F,0,0,1,0,0,0,1 @ F,0,0,1,0,0,0,1 @ F,0,0,1,0,2.9360575,0,1"
       radius="0"
       unit="px"
       method="auto"
       mode="F"
       chamfer_steps="1"
       flexible="false"
       use_knot_distance="true"
       apply_no_radius="true"
       apply_with_radius="true"
       only_selected="false"
       hide_knots="false" /><inkscape:path-effect
       effect="fillet_chamfer"
       id="path-effect5"
       is_visible="true"
       lpeversion="1"
       nodesatellites_param="F,0,0,1,0,0,0,1 @ F,0,0,1,0,0,0,1 @ F,0,0,1,0,2.9360575,0,1"
       radius="0"
       unit="px"
       method="auto"
       mode="F"
       chamfer_steps="1"
       flexible="false"
       use_knot_distance="true"
       apply_no_radius="true"
       apply_with_radius="true"
       only_selected="false"
       hide_knots="false" /></defs><g
     inkscape:label="Layer 1"
     inkscape:groupmode="layer"
     id="layer1"><path
       id="rect2"
       style="fill:#c074e0;stroke:#000000;stroke-width:3.77953;stroke-linecap:round;stroke-linejoin:round"
       transform="rotate(45)"
       d="M 25.177124,-20.077709 H 65.332542 V 20.077709 H 25.177124 Z" /><path
       fill="#000000"
       d="M 25.085278,42.081515 C 24.579939,42.022555 24.108289,41.812 23.678751,41.458263 23.249212,41.104526 22.91232,40.674987 22.65965,40.144381 c -0.244247,-0.522183 -0.387426,-1.069634 -0.412693,-1.659197 0.614829,-0.395848 1.103324,-0.993833 1.457061,-1.793953 0.353737,-0.800121 0.530606,-1.659197 0.530606,-2.57723 0,-0.859076 -0.168447,-1.659197 -0.496917,-2.40036 -0.32847,-0.741165 -0.825387,-1.330727 -1.49075,-1.751843 -0.117913,-0.522184 -0.176869,-1.002256 -0.176869,-1.457061 0,-0.715897 0.151602,-1.372838 0.454805,-1.945555 0.303204,-0.58114 0.758009,-1.120169 1.355993,-1.625508 0.816965,0.395849 1.566552,0.597985 2.257182,0.597985 0.395849,0 0.774853,-0.06738 1.120168,-0.202136 0.345315,-0.134757 0.648519,-0.303203 0.892766,-0.513761 0.244247,-0.210559 0.47165,-0.446383 0.665363,-0.699053 0.202136,-0.252669 0.36216,-0.513761 0.488494,-0.766431 0.117913,-0.25267 0.227403,-0.488494 0.311626,-0.707475 0.08422,-0.210558 0.14318,-0.387426 0.168447,-0.522183 l 0.05053,-0.202136 h 4.320649 c 0.0084,0.05053 0.02527,0.117913 0.05053,0.210558 0.02527,0.08422 0.08422,0.25267 0.168446,0.496917 0.09265,0.244247 0.193714,0.488494 0.311626,0.715897 0.117912,0.227402 0.277937,0.480072 0.488495,0.758009 0.210557,0.277936 0.429538,0.513761 0.673785,0.715897 0.244247,0.202135 0.539029,0.370581 0.892766,0.505339 0.353737,0.134757 0.724319,0.210558 1.120168,0.210558 0.69063,0 1.440217,-0.202136 2.257182,-0.597985 0.597984,0.496917 1.052789,1.044368 1.355993,1.617085 0.303203,0.58114 0.454805,1.229659 0.454805,1.945556 0,0.454805 -0.05896,0.943299 -0.176869,1.448639 -0.336892,0.21898 -0.640096,0.488494 -0.892766,0.791697 -0.252669,0.311626 -0.463227,0.648519 -0.623251,1.010679 -0.160024,0.362159 -0.277937,0.741164 -0.353737,1.137013 -0.0758,0.395849 -0.117913,0.80012 -0.117913,1.212814 0,0.90961 0.176869,1.768686 0.530606,2.568807 0.353738,0.80012 0.842232,1.398105 1.457061,1.793954 -0.02527,0.429538 -0.10949,0.859076 -0.261092,1.27177 -0.151601,0.412693 -0.353737,0.783275 -0.597984,1.111746 -0.244247,0.32847 -0.539028,0.606407 -0.884344,0.825387 -0.345315,0.21898 -0.707474,0.353737 -1.086479,0.395849 l -0.176868,-0.126335 c -0.25267,-0.193713 -0.446383,-0.336893 -0.589563,-0.43796 -0.134757,-0.101068 -0.336893,-0.227403 -0.597984,-0.395849 -0.261092,-0.168447 -0.488495,-0.286359 -0.682208,-0.370583 -0.193713,-0.08422 -0.421116,-0.160023 -0.682208,-0.21898 -0.261092,-0.05896 -0.513761,-0.09265 -0.766431,-0.09265 -0.968567,0 -1.9624,0.454805 -2.989923,1.364415 h -0.867499 c -1.027523,-0.90961 -2.021356,-1.364415 -2.989923,-1.364415 -0.252669,0 -0.505339,0.03369 -0.766431,0.09265 -0.261092,0.05896 -0.488494,0.134757 -0.682208,0.21898 -0.193713,0.08422 -0.421115,0.210558 -0.682207,0.370583 -0.261092,0.160024 -0.454806,0.294781 -0.597985,0.395849 -0.134757,0.101067 -0.336893,0.244247 -0.589562,0.43796 -0.02527,0.02527 -0.05053,0.04211 -0.06738,0.05053 -0.01684,0.0084 -0.03369,0.02527 -0.05053,0.04211 -0.01684,0.01684 -0.03369,0.03369 -0.05896,0.05053 z m 6.923146,-15.606557 c 0.421116,0 0.774853,-0.151601 1.078057,-0.446383 0.294781,-0.294781 0.446382,-0.65694 0.446382,-1.078056 0,-0.421116 -0.151601,-0.774854 -0.446382,-1.078057 -0.294781,-0.303204 -0.656941,-0.446383 -1.078057,-0.446383 -0.421116,0 -0.774853,0.151602 -1.078057,0.446383 -0.294781,0.294781 -0.446383,0.656941 -0.446383,1.078057 0,0.421116 0.151602,0.774853 0.446383,1.078056 0.303204,0.294782 0.656941,0.446383 1.078057,0.446383 z"
       id="path1-0"
       style="stroke-width:0.0842232" /></g></svg>
