<?xml version="1.0" encoding="UTF-8" standalone="no"?>
<!-- Created with Inkscape (http://www.inkscape.org/) -->

<svg
   width="64"
   height="64"
   viewBox="0 0 64 64"
   version="1.1"
   id="svg1"
   inkscape:version="1.4 (86a8ad7, 2024-10-11)"
   sodipodi:docname="07.svg"
   xml:space="preserve"
   xmlns:inkscape="http://www.inkscape.org/namespaces/inkscape"
   xmlns:sodipodi="http://sodipodi.sourceforge.net/DTD/sodipodi-0.dtd"
   xmlns="http://www.w3.org/2000/svg"
   xmlns:svg="http://www.w3.org/2000/svg"><sodipodi:namedview
     id="namedview1"
     pagecolor="#ffffff"
     bordercolor="#000000"
     borderopacity="0.25"
     inkscape:showpageshadow="2"
     inkscape:pageopacity="0.0"
     inkscape:pagecheckerboard="0"
     inkscape:deskcolor="#d1d1d1"
     inkscape:document-units="mm"
     inkscape:zoom="2.0000001"
     inkscape:cx="-48.749999"
     inkscape:cy="23.749999"
     inkscape:window-width="2560"
     inkscape:window-height="1387"
     inkscape:window-x="-8"
     inkscape:window-y="-8"
     inkscape:window-maximized="1"
     inkscape:current-layer="layer1" /><defs
     id="defs1"><inkscape:path-effect
       effect="fillet_chamfer"
       id="path-effect4"
       is_visible="true"
       lpeversion="1"
       nodesatellites_param="F,0,0,1,0,1.821847,0,1 @ F,0,0,1,0,1.6816942,0,1 @ F,0,0,1,0,0,0,1 @ F,0,0,1,0,0,0,1"
       radius="0"
       unit="px"
       method="auto"
       mode="F"
       chamfer_steps="1"
       flexible="false"
       use_knot_distance="true"
       apply_no_radius="true"
       apply_with_radius="true"
       only_selected="false"
       hide_knots="false" /><inkscape:path-effect
       effect="fillet_chamfer"
       id="path-effect8"
       is_visible="true"
       lpeversion="1"
       nodesatellites_param="F,0,0,1,0,0,0,1 @ F,0,0,1,0,0,0,1 @ F,0,0,1,0,2.9360575,0,1"
       radius="0"
       unit="px"
       method="auto"
       mode="F"
       chamfer_steps="1"
       flexible="false"
       use_knot_distance="true"
       apply_no_radius="true"
       apply_with_radius="true"
       only_selected="false"
       hide_knots="false" /><inkscape:path-effect
       effect="fillet_chamfer"
       id="path-effect5"
       is_visible="true"
       lpeversion="1"
       nodesatellites_param="F,0,0,1,0,0,0,1 @ F,0,0,1,0,0,0,1 @ F,0,0,1,0,2.9360575,0,1"
       radius="0"
       unit="px"
       method="auto"
       mode="F"
       chamfer_steps="1"
       flexible="false"
       use_knot_distance="true"
       apply_no_radius="true"
       apply_with_radius="true"
       only_selected="false"
       hide_knots="false" /></defs><g
     inkscape:label="Layer 1"
     inkscape:groupmode="layer"
     id="layer1"><path
       id="rect2"
       style="fill:#c074e0;stroke:#000000;stroke-width:3.77953;stroke-linecap:round;stroke-linejoin:round"
       transform="rotate(45)"
       d="M 25.177124,-20.077709 H 65.332542 V 20.077709 H 25.177124 Z" /><g
       id="g2"
       transform="matrix(0.08835241,0,0,0.08835241,20.655551,21.977197)"> <path
   fill="#000000"
   d="m 241.8,76.7 v -0.1 c 0.1,-0.9 0.2,-1.8 0.2,-2.7 0,-29.3 -58.8,-45 -114.1,-45 -55.3,0 -114.1,15.8 -114.1,45 0,1.6 0.2,3.1 0.6,4.6 V 182 c 0,26.3 49.4,45.3 113.2,45.3 55.5,0 114.5,-15.6 114.5,-44.7 V 78.5 c 0,-0.6 -0.1,-1.2 -0.3,-1.8 z m -114.4,-37 h 1.2 c 2.6,0 5.1,0.1 7.7,0.1 1,0 2,0.1 2.9,0.1 2.2,0.1 4.4,0.2 6.5,0.3 0.6,0 1.3,0.1 1.9,0.1 47,3.1 82.4,17 82.4,33.5 0,18.7 -45.4,34 -101.6,34.2 h -1 C 70.6,108 24.7,92.7 24.7,73.9 c 0,-18.8 46,-34.2 102.7,-34.2 z m 103.9,120.1 c -39.5,29.7 -87,24.3 -97.8,21.7 v -28 c 37.3,4.7 83.8,-12.1 97.8,-17.7 z m 0,-35.8 c -0.3,0.1 -0.5,0.1 -0.8,0.2 -0.6,0.3 -57.7,25.7 -102.7,17.7 -1.6,-0.3 -2.8,0.2 -4.1,1.2 -1.2,1 -1.1,2.6 -1.1,4.2 v 38.6 c 0,2.5 0.9,4.6 3.3,5.2 1.1,0.3 12.6,3.5 30.5,3.5 20.5,0 48.4,-4.2 74.9,-22 v 9.8 c 0,16 -42.6,33.8 -103.6,33.8 -59.3,0 -102.3,-17.8 -102.3,-34.4 V 94.3 c 19.8,16 62.1,24.5 102.7,24.5 41,0 83.9,-8.7 103.3,-25.1 z"
   id="path1" /> <path
   fill="#000000"
   d="m 127.6,231.1 c -67.8,0 -117,-20.7 -117,-49.1 L 10.5,78.8 C 10.2,77 10,75.4 10,73.9 10,41.8 69.3,25 127.9,25 c 58.6,0 117.9,16.8 117.9,48.9 0,0.8 -0.1,1.6 -0.2,2.3 v 0.1 0.2 c 0.2,0.7 0.3,1.4 0.3,2.1 v 104 c 0.1,31.8 -59.5,48.5 -118.3,48.5 z M 18.3,78.7 v 103.2 c 0,23.2 48,41.4 109.3,41.4 54.4,0 110.7,-15.3 110.7,-40.8 v -104 c 0,0 0,-0.2 -0.1,-0.5 l -0.3,-0.9 0.1,-1 c 0.1,-0.7 0.2,-1.5 0.2,-2.2 0,-25.8 -56,-41.2 -110.2,-41.2 -54.2,0 -110.2,15.4 -110.2,41.2 0,1.1 0.2,2.3 0.5,3.8 l 0.1,0.6 z M 127.6,220.2 C 69.1,220.2 21.4,203 21.4,181.9 V 86.2 l 6.3,5.1 c 17.8,14.4 57.1,23.7 100.2,23.7 43.8,0 83.4,-9.5 100.8,-24.2 l 6.4,-5.4 V 127 l -3.2,0.9 c -2.2,1 -59,26.1 -104.8,17.9 -0.2,0 -0.3,-0.1 -0.6,0.2 v 1.1 38.9 c 0,1 0.2,1.4 0.3,1.4 3.1,0.9 13.7,3.4 29.6,3.4 18.7,0 46.4,-3.7 72.8,-21.3 l 6,-4 v 17.1 c -0.1,20.7 -48.3,37.6 -107.6,37.6 z M 29.1,101.8 V 182 c 0,12.4 38.3,30.5 98.4,30.5 60.9,0 99.8,-17.7 99.8,-30 v -2.8 c -26.1,15.5 -52.7,18.8 -71.1,18.8 -16.8,0 -28.3,-2.8 -31.4,-3.6 -3.9,-1.1 -6.2,-4.4 -6.2,-8.9 v -38.6 c 0,-2.1 0,-5 2.5,-7.1 2.2,-1.8 4.7,-2.6 7.3,-2.1 39.5,7.1 89.7,-12.9 98.9,-16.7 v -20 c -20.8,13.2 -58.5,21.4 -99.5,21.4 -40.2,-0.1 -77.7,-8.2 -98.7,-21.1 z m 127.5,85.6 c -14.3,0 -23.8,-2.1 -24,-2.2 l -3,-0.7 v -35.4 l 4.4,0.6 c 36.7,4.6 82.7,-12.2 95.9,-17.4 l 5.3,-2.1 v 31.5 l -1.5,1.2 c -27.1,20.3 -56.9,24.5 -77.1,24.5 z m -28.7,-75.5 h -0.6 C 75.7,111.9 20.8,98.6 20.8,73.8 c 0,-24.8 54.9,-38 106.5,-38 h 0.9 c 2.8,0 5.4,0.1 8,0.1 l 3,0.1 c 2.2,0.1 4.5,0.2 6.6,0.3 l 2,0.1 c 42.8,2.9 86,15.5 86,37.4 0,24.5 -54.3,37.9 -105.5,38 z m -0.1,-7.7 h 0.6 C 186,104 226.2,88 226.2,73.9 c 0,-12 -29.5,-26.4 -78.8,-29.7 l -1.9,-0.1 C 143.4,44 141.2,43.9 139,43.8 l -2.9,-0.1 c -2.5,-0.1 -5,-0.1 -7.6,-0.1 h -1.1 c -58.2,0 -98.8,16 -98.8,30.3 0,14.3 40.6,30.3 98.8,30.3 z"
   id="path2"
   sodipodi:nodetypes="sccssscccscscssscsccssscccssccscccccccscssccscssscscssccccccsccccccccscssssccccsccccsccccssssc" /></g></g></svg>
