<?xml version="1.0" encoding="UTF-8" standalone="no"?>
<!-- Created with Inkscape (http://www.inkscape.org/) -->

<svg
   width="64"
   height="64"
   viewBox="0 0 64 64"
   version="1.1"
   id="svg1"
   inkscape:version="1.4 (86a8ad7, 2024-10-11)"
   sodipodi:docname="08.svg"
   xml:space="preserve"
   xmlns:inkscape="http://www.inkscape.org/namespaces/inkscape"
   xmlns:sodipodi="http://sodipodi.sourceforge.net/DTD/sodipodi-0.dtd"
   xmlns="http://www.w3.org/2000/svg"
   xmlns:svg="http://www.w3.org/2000/svg"><sodipodi:namedview
     id="namedview1"
     pagecolor="#ffffff"
     bordercolor="#000000"
     borderopacity="0.25"
     inkscape:showpageshadow="2"
     inkscape:pageopacity="0.0"
     inkscape:pagecheckerboard="0"
     inkscape:deskcolor="#d1d1d1"
     inkscape:document-units="mm"
     inkscape:zoom="2.0000001"
     inkscape:cx="-130.99999"
     inkscape:cy="-52.249997"
     inkscape:window-width="2560"
     inkscape:window-height="1387"
     inkscape:window-x="-8"
     inkscape:window-y="-8"
     inkscape:window-maximized="1"
     inkscape:current-layer="layer1" /><defs
     id="defs1"><inkscape:path-effect
       effect="fillet_chamfer"
       id="path-effect4"
       is_visible="true"
       lpeversion="1"
       nodesatellites_param="F,0,0,1,0,1.821847,0,1 @ F,0,0,1,0,1.6816942,0,1 @ F,0,0,1,0,0,0,1 @ F,0,0,1,0,0,0,1"
       radius="0"
       unit="px"
       method="auto"
       mode="F"
       chamfer_steps="1"
       flexible="false"
       use_knot_distance="true"
       apply_no_radius="true"
       apply_with_radius="true"
       only_selected="false"
       hide_knots="false" /><inkscape:path-effect
       effect="fillet_chamfer"
       id="path-effect8"
       is_visible="true"
       lpeversion="1"
       nodesatellites_param="F,0,0,1,0,0,0,1 @ F,0,0,1,0,0,0,1 @ F,0,0,1,0,2.9360575,0,1"
       radius="0"
       unit="px"
       method="auto"
       mode="F"
       chamfer_steps="1"
       flexible="false"
       use_knot_distance="true"
       apply_no_radius="true"
       apply_with_radius="true"
       only_selected="false"
       hide_knots="false" /><inkscape:path-effect
       effect="fillet_chamfer"
       id="path-effect5"
       is_visible="true"
       lpeversion="1"
       nodesatellites_param="F,0,0,1,0,0,0,1 @ F,0,0,1,0,0,0,1 @ F,0,0,1,0,2.9360575,0,1"
       radius="0"
       unit="px"
       method="auto"
       mode="F"
       chamfer_steps="1"
       flexible="false"
       use_knot_distance="true"
       apply_no_radius="true"
       apply_with_radius="true"
       only_selected="false"
       hide_knots="false" /></defs><g
     inkscape:label="Layer 1"
     inkscape:groupmode="layer"
     id="layer1"><path
       id="rect2"
       style="fill:#c074e0;stroke:#000000;stroke-width:3.77953;stroke-linecap:round;stroke-linejoin:round"
       transform="rotate(45)"
       d="M 25.177124,-20.077709 H 65.332542 V 20.077709 H 25.177124 Z" /><path
       fill="#000000"
       d="m 28.377895,20.660913 c -0.05772,0.0096 -0.259753,0.03848 -0.442541,0.06734 -0.384819,0.05772 -1.125596,0.288613 -1.471933,0.461782 -0.577227,0.288614 -1.000528,0.654192 -1.539275,1.318004 -0.278993,0.346337 -0.596469,0.885084 -0.731155,1.231421 -0.230891,0.615709 -0.221271,0.105825 -0.221271,9.120203 v 8.379429 l -0.711914,0.711915 c -0.654192,0.663812 -0.711915,0.731155 -0.711915,0.875462 0,0.08658 0.01924,0.211651 0.05772,0.278993 0.115446,0.259753 -0.500264,0.240513 9.399197,0.240513 8.41791,0 9.110584,0 9.22603,-0.07696 0.153927,-0.08658 0.221271,-0.23089 0.221271,-0.442541 0,-0.153928 -0.05772,-0.221271 -0.711915,-0.875462 l -0.711915,-0.711915 -0.0096,-7.080666 -0.0096,-7.080664 -0.115446,-0.327096 c -0.259792,-0.692679 -0.683093,-1.32763 -1.279562,-1.94334 -0.654192,-0.673432 -1.558516,-1.096733 -2.703351,-1.269901 -0.673433,-0.105825 -1.414209,-0.06735 -2.174227,0.0962 -0.105825,0.01924 -0.125065,-0.0096 -0.278993,-0.298234 -0.307855,-0.596469 -1.01977,-1.43345 -1.520034,-1.779787 -0.788879,-0.557987 -1.741305,-0.856221 -2.847658,-0.894704 -0.327097,-0.0096 -0.654192,-0.0096 -0.711915,0 z m 1.087113,0.952426 c 0.529125,0.06734 1.067872,0.221271 1.529654,0.452163 0.750397,0.365577 1.63548,1.433449 1.885612,2.251189 0.0481,0.173168 0.06734,0.423301 0.06734,0.875463 v 0.63495 H 31.773917 30.60022 v -0.740776 c 0,-0.82736 -0.03848,-1.000528 -0.250132,-1.260281 -0.278994,-0.317475 -0.432921,-0.355957 -1.404588,-0.355957 -0.952427,0 -1.077493,0.02886 -1.356486,0.307854 -0.278994,0.278995 -0.298235,0.346337 -0.307855,1.231421 l -0.01924,0.808119 h -1.173697 -1.173697 v -0.586849 c 0,-0.683053 0.06734,-1.010149 0.288614,-1.44307 0.259752,-0.519505 0.990908,-1.346866 1.43345,-1.616238 0.538746,-0.336717 1.45269,-0.577229 2.231949,-0.60609 0.105825,0.0096 0.375197,0.02886 0.596469,0.0481 z m 0.192409,3.511471 0.0096,0.702294 H 28.955122 28.243208 V 25.11519 24.403275 l 0.702294,0.0096 0.692674,0.0096 z m 6.5804,-0.557987 c 0.683053,0.163548 1.202559,0.423301 1.606619,0.81774 0.432921,0.41368 0.731155,0.779258 0.952426,1.202559 0.173168,0.317475 0.317475,0.779257 0.317475,1.029389 v 0.125067 h -2.597526 -2.597526 l -0.0096,-1.510414 c 0,-0.82736 -0.0096,-1.539275 -0.0096,-1.587377 0,-0.07696 0.115445,-0.115446 0.615709,-0.192409 0.432922,-0.05772 1.202559,-0.0096 1.722063,0.115445 z m -9.418438,8.466012 v 6.234064 l 0.105825,0.115446 c 0.20203,0.230891 0.586848,0.22127 0.740776,-0.03848 0.06734,-0.105826 0.08658,-0.221272 0.08658,-0.442542 v -0.298235 h 1.173698 1.173696 l 0.01924,0.336717 c 0.0096,0.298234 0.02886,0.346337 0.153928,0.471402 0.192409,0.19241 0.461782,0.19241 0.654191,0 l 0.134687,-0.134686 0.0096,-6.234064 0.0096,-6.234063 h 0.933186 0.933185 l -0.0096,7.090284 -0.0096,7.090287 -4.002115,0.0096 -4.011735,0.0096 v -7.099907 -7.099905 h 0.952426 0.952427 z m 3.2902,-5.522149 v 0.711915 h -1.183317 -1.173698 v -0.711915 -0.711914 h 1.173698 1.173696 v 0.711914 z m 9.004758,13.487897 H 36.516811 33.919285 Z M 30.109579,29.867701 v 0.711915 h -1.183317 -1.173698 v -0.711915 -0.711915 h 1.173698 1.173696 v 0.711915 z m 0,2.347395 v 0.711914 h -1.183317 -1.173698 v -0.711914 -0.711915 h 1.173698 1.173696 v 0.711915 z m 0,2.395496 v 0.711914 h -1.183317 -1.173698 v -0.711914 -0.711915 h 1.173698 1.173696 v 0.711915 z m 0,2.357014 v 0.711915 h -1.183317 -1.173698 v -0.711915 -0.711914 h 1.173698 1.173696 v 0.711914 z m 3.338303,5.175813 0.21165,0.221271 -0.567608,0.02886 c -0.779257,0.03848 -8.889312,0.03848 -8.889312,0 0,-0.01924 0.0962,-0.125066 0.21165,-0.240511 l 0.21165,-0.211651 h 4.30997 4.30997 z m 6.16672,0 c 0.115446,0.115446 0.21165,0.230891 0.21165,0.240512 0,0.01924 -1.067872,0.03848 -2.376255,0.03848 H 35.073741 L 34.823608,42.1819 34.573476,41.941388 h 2.414738 2.414737 z"
       id="path1"
       style="stroke-width:0.0962049"
       sodipodi:nodetypes="ccsccsccscscssccccccccccccsccscccscssccccscccssccccccccccccsccccscccccccsccccsscccccccccccccccccccccccccccccccccccccccccccccccccccccccccccccccccccccccsscccccsscccccc" /></g></svg>
