<?xml version="1.0" encoding="UTF-8" standalone="no"?>
<!-- Created with Inkscape (http://www.inkscape.org/) -->

<svg
   width="64"
   height="64"
   viewBox="0 0 64 64"
   version="1.1"
   id="svg1"
   inkscape:version="1.4 (86a8ad7, 2024-10-11)"
   sodipodi:docname="09.svg"
   xml:space="preserve"
   xmlns:inkscape="http://www.inkscape.org/namespaces/inkscape"
   xmlns:sodipodi="http://sodipodi.sourceforge.net/DTD/sodipodi-0.dtd"
   xmlns="http://www.w3.org/2000/svg"
   xmlns:svg="http://www.w3.org/2000/svg"><sodipodi:namedview
     id="namedview1"
     pagecolor="#ffffff"
     bordercolor="#000000"
     borderopacity="0.25"
     inkscape:showpageshadow="2"
     inkscape:pageopacity="0.0"
     inkscape:pagecheckerboard="0"
     inkscape:deskcolor="#d1d1d1"
     inkscape:document-units="mm"
     inkscape:zoom="11.313709"
     inkscape:cx="26.251338"
     inkscape:cy="37.697628"
     inkscape:window-width="2560"
     inkscape:window-height="1387"
     inkscape:window-x="-8"
     inkscape:window-y="-8"
     inkscape:window-maximized="1"
     inkscape:current-layer="layer1" /><defs
     id="defs1"><inkscape:path-effect
       effect="fillet_chamfer"
       id="path-effect4"
       is_visible="true"
       lpeversion="1"
       nodesatellites_param="F,0,0,1,0,1.821847,0,1 @ F,0,0,1,0,1.6816942,0,1 @ F,0,0,1,0,0,0,1 @ F,0,0,1,0,0,0,1"
       radius="0"
       unit="px"
       method="auto"
       mode="F"
       chamfer_steps="1"
       flexible="false"
       use_knot_distance="true"
       apply_no_radius="true"
       apply_with_radius="true"
       only_selected="false"
       hide_knots="false" /><inkscape:path-effect
       effect="fillet_chamfer"
       id="path-effect8"
       is_visible="true"
       lpeversion="1"
       nodesatellites_param="F,0,0,1,0,0,0,1 @ F,0,0,1,0,0,0,1 @ F,0,0,1,0,2.9360575,0,1"
       radius="0"
       unit="px"
       method="auto"
       mode="F"
       chamfer_steps="1"
       flexible="false"
       use_knot_distance="true"
       apply_no_radius="true"
       apply_with_radius="true"
       only_selected="false"
       hide_knots="false" /><inkscape:path-effect
       effect="fillet_chamfer"
       id="path-effect5"
       is_visible="true"
       lpeversion="1"
       nodesatellites_param="F,0,0,1,0,0,0,1 @ F,0,0,1,0,0,0,1 @ F,0,0,1,0,2.9360575,0,1"
       radius="0"
       unit="px"
       method="auto"
       mode="F"
       chamfer_steps="1"
       flexible="false"
       use_knot_distance="true"
       apply_no_radius="true"
       apply_with_radius="true"
       only_selected="false"
       hide_knots="false" /></defs><g
     inkscape:label="Layer 1"
     inkscape:groupmode="layer"
     id="layer1"><path
       id="rect2"
       style="fill:#c074e0;stroke:#000000;stroke-width:3.77953;stroke-linecap:round;stroke-linejoin:round"
       transform="rotate(45)"
       d="M 25.177124,-20.077709 H 65.332542 V 20.077709 H 25.177124 Z" /><g
       id="g2"
       transform="matrix(0.11105204,0,0,0.11105204,17.78018,15.783291)"><path
         fill="#000000"
         d="m 124.8,24.1 c -0.5,0.3 -26,25.5 -56.6,56.1 -41.9,41.8 -55.9,56.1 -56.9,57.9 -1,2 -1.3,3.2 -1.3,6.2 0,6 2.7,10.5 8.2,13.4 3,1.6 9.5,1.6 12.7,0 1.5,-0.8 16.7,-15.6 49.7,-48.5 l 47.4,-47.5 47.5,47.4 c 33,33 48.1,47.7 49.6,48.5 3.2,1.7 9.7,1.7 12.7,0 5.3,-2.8 8.2,-7.3 8.2,-12.9 0.1,-6.8 4.3,-2.1 -57.5,-64 C 157.9,50 132.2,24.5 131.4,24.1 c -1.7,-0.7 -5.2,-0.8 -6.6,0 z"
         id="path1" /><path
         fill="#000000"
         d="M 84.2,117.3 40.7,160.8 V 194 c 0,32.3 0,33.3 1,34.9 0.5,0.9 1.7,2 2.6,2.6 1.6,1 2.7,1 83.7,1 81,0 82,0 83.7,-1 0.9,-0.5 2,-1.7 2.6,-2.6 0.9,-1.6 1,-2.6 1,-34.9 V 160.7 L 171.8,117.2 C 147.9,93.3 128.2,73.7 128.1,73.7 c -0.3,0.1 -20,19.6 -43.9,43.6 z m 27.1,18.9 c 3.5,3.4 6.5,6.8 6.7,7.4 0.2,1 -0.4,1.9 -3.8,5.3 l -4.1,4.1 9,9 9,9 9,-9 9,-9 -4.1,-4.1 c -2.4,-2.4 -4,-4.5 -4,-5.1 0,-1.1 12.7,-14 13.8,-14 0.4,0 4.6,3.9 9.4,8.7 l 8.7,8.8 4.2,9.6 c 2.3,5.3 4.2,9.9 4.2,10.3 0,1.1 -7.4,8.5 -8.6,8.5 -0.6,0 -3.4,-2.4 -7.5,-6.5 l -6.6,-6.6 -9,9 -9,9 14.2,14.2 c 7.8,7.8 14.1,14.5 14.1,14.9 0,0.9 -7.9,8.9 -8.9,8.9 -0.4,0 -7.1,-6.4 -14.9,-14.1 L 128,190.3 113.8,204.5 c -7.8,7.8 -14.5,14.1 -14.9,14.1 -0.9,0 -8.9,-7.9 -8.9,-8.8 0,-0.4 6.4,-7.1 14.1,-14.9 l 14.2,-14.2 -9,-9 -9,-9 -6.6,6.6 c -3.6,3.5 -6.8,6.5 -7.2,6.5 -0.8,0 -8.9,-7.8 -8.9,-8.6 0,-0.2 1.9,-4.8 4.2,-10.1 l 4.2,-9.6 8.7,-8.8 c 4.8,-4.8 9,-8.7 9.4,-8.7 0.5,0 3.7,2.8 7.2,6.2 z"
         id="path2" /></g></g></svg>
