<?xml version="1.0" encoding="UTF-8" standalone="no"?>
<!-- Created with Inkscape (http://www.inkscape.org/) -->

<svg
   width="64"
   height="64"
   viewBox="0 0 64 64"
   version="1.1"
   id="svg1"
   inkscape:version="1.4 (86a8ad7, 2024-10-11)"
   sodipodi:docname="10.svg"
   xml:space="preserve"
   xmlns:inkscape="http://www.inkscape.org/namespaces/inkscape"
   xmlns:sodipodi="http://sodipodi.sourceforge.net/DTD/sodipodi-0.dtd"
   xmlns="http://www.w3.org/2000/svg"
   xmlns:svg="http://www.w3.org/2000/svg"><sodipodi:namedview
     id="namedview1"
     pagecolor="#ffffff"
     bordercolor="#000000"
     borderopacity="0.25"
     inkscape:showpageshadow="2"
     inkscape:pageopacity="0.0"
     inkscape:pagecheckerboard="0"
     inkscape:deskcolor="#d1d1d1"
     inkscape:document-units="mm"
     inkscape:zoom="2.8284273"
     inkscape:cx="29.34493"
     inkscape:cy="-16.793785"
     inkscape:window-width="2560"
     inkscape:window-height="1387"
     inkscape:window-x="-8"
     inkscape:window-y="-8"
     inkscape:window-maximized="1"
     inkscape:current-layer="layer1" /><defs
     id="defs1"><inkscape:path-effect
       effect="fillet_chamfer"
       id="path-effect4"
       is_visible="true"
       lpeversion="1"
       nodesatellites_param="F,0,0,1,0,1.821847,0,1 @ F,0,0,1,0,1.6816942,0,1 @ F,0,0,1,0,0,0,1 @ F,0,0,1,0,0,0,1"
       radius="0"
       unit="px"
       method="auto"
       mode="F"
       chamfer_steps="1"
       flexible="false"
       use_knot_distance="true"
       apply_no_radius="true"
       apply_with_radius="true"
       only_selected="false"
       hide_knots="false" /><inkscape:path-effect
       effect="fillet_chamfer"
       id="path-effect8"
       is_visible="true"
       lpeversion="1"
       nodesatellites_param="F,0,0,1,0,0,0,1 @ F,0,0,1,0,0,0,1 @ F,0,0,1,0,2.9360575,0,1"
       radius="0"
       unit="px"
       method="auto"
       mode="F"
       chamfer_steps="1"
       flexible="false"
       use_knot_distance="true"
       apply_no_radius="true"
       apply_with_radius="true"
       only_selected="false"
       hide_knots="false" /><inkscape:path-effect
       effect="fillet_chamfer"
       id="path-effect5"
       is_visible="true"
       lpeversion="1"
       nodesatellites_param="F,0,0,1,0,0,0,1 @ F,0,0,1,0,0,0,1 @ F,0,0,1,0,2.9360575,0,1"
       radius="0"
       unit="px"
       method="auto"
       mode="F"
       chamfer_steps="1"
       flexible="false"
       use_knot_distance="true"
       apply_no_radius="true"
       apply_with_radius="true"
       only_selected="false"
       hide_knots="false" /></defs><g
     inkscape:label="Layer 1"
     inkscape:groupmode="layer"
     id="layer1"><path
       id="rect2"
       style="fill:#c074e0;stroke:#000000;stroke-width:3.77953;stroke-linecap:round;stroke-linejoin:round"
       transform="rotate(45)"
       d="M 25.177124,-20.077709 H 65.332542 V 20.077709 H 25.177124 Z" /><g
       id="g2"
       transform="matrix(0.11580589,0,0,0.11580589,17.176846,17.186979)"><path
         fill="#000000"
         d="M 70.6,11.6 69,13.1 V 44 c 0,22.9 0.1,31.2 0.6,32.1 1.2,2.7 -1.7,2.5 58.4,2.5 38.8,0 55.6,-0.1 56.4,-0.5 2.5,-1.2 2.6,-1.7 2.6,-19.3 V 42.7 l -1.3,-1.5 -1.3,-1.5 -8.5,-0.3 C 168.8,39.2 167,39 164.5,38.1 159,36.2 154.8,32.8 151.5,27.8 149.3,24.3 148.4,21.5 147.9,17 147.7,15 147.3,12.9 147,12.3 145.7,9.9 146.6,9.9 108,9.9 H 72.2 Z"
         id="path1" /><path
         fill="#000000"
         d="m 108.2,165 c 0,83.5 -0.2,78.7 2.7,80.1 2.1,1.1 32.1,1.1 34.2,0 2.9,-1.5 2.7,3.4 2.7,-80.1 V 88.8 H 128 108.2 Z"
         id="path2" /></g></g></svg>
