<?xml version="1.0" encoding="UTF-8" standalone="no"?>
<!-- Created with Inkscape (http://www.inkscape.org/) -->

<svg
   width="64"
   height="64"
   viewBox="0 0 64 64"
   version="1.1"
   id="svg1"
   inkscape:version="1.4 (86a8ad7, 2024-10-11)"
   sodipodi:docname="airport1.svg"
   xml:space="preserve"
   xmlns:inkscape="http://www.inkscape.org/namespaces/inkscape"
   xmlns:sodipodi="http://sodipodi.sourceforge.net/DTD/sodipodi-0.dtd"
   xmlns="http://www.w3.org/2000/svg"
   xmlns:svg="http://www.w3.org/2000/svg"><sodipodi:namedview
     id="namedview1"
     pagecolor="#ffffff"
     bordercolor="#000000"
     borderopacity="0.25"
     inkscape:showpageshadow="2"
     inkscape:pageopacity="0.0"
     inkscape:pagecheckerboard="0"
     inkscape:deskcolor="#d1d1d1"
     inkscape:document-units="mm"
     inkscape:zoom="5.8796296"
     inkscape:cx="40.648819"
     inkscape:cy="48.557481"
     inkscape:window-width="2560"
     inkscape:window-height="1387"
     inkscape:window-x="-8"
     inkscape:window-y="-8"
     inkscape:window-maximized="1"
     inkscape:current-layer="layer1" /><defs
     id="defs1" /><g
     inkscape:label="Layer 1"
     inkscape:groupmode="layer"
     id="layer1"><path
       id="rect1"
       style="fill:#ffffff;stroke-width:1.5;stroke-linejoin:round"
       d="M 0,0 H 64 V 64 H 0 Z" /><g
       id="g1"
       transform="matrix(0.23951171,0,0,0.23951171,1.3489563,1.3626027)"
       style="fill:#0066ff"> <path
   fill="#000000"
   d="m 241.8,14.3 c -5.9,-4.9 -14.1,-5.6 -24.9,-2 -10.8,3.5 -20.4,9.6 -29,18.2 L 161,57.4 49,30.6 C 47.1,30.2 45.5,30.4 43.9,32 L 22.3,53.5 c -1.2,1.2 -1.7,2.7 -1.5,4.5 0.3,1.9 1.3,3.2 2.9,4 l 85.5,47 -43.6,43.6 -32.7,-8.9 c -0.2,-0.2 -0.7,-0.2 -1.3,-0.2 -1.5,0 -2.9,0.5 -3.9,1.5 l -16.2,16.3 c -1.3,1.3 -1.7,2.7 -1.5,4.2 0.2,1.8 1,3 2.2,3.9 l 42.4,31.8 31.8,42.4 c 0.9,1.2 2.4,2 4,2.2 h 0.3 c 1.5,0 2.9,-0.5 3.9,-1.5 l 16.2,-16.2 c 1.5,-1.5 1.9,-3.4 1.4,-5.2 l -8.9,-32.7 43.6,-43.6 47,85.5 c 0.8,1.5 1.8,2.4 3.5,2.7 0.3,0.2 0.7,0.2 1.2,0.2 1.4,0 2.3,-0.4 3.2,-1 l 21.6,-16.2 c 1.9,-1.4 2.5,-3.4 2,-5.6 L 198.5,95.3 225.6,68.2 c 8.6,-8.6 14.6,-18.2 18.2,-29 3.5,-10.8 2.8,-19 -2,-24.9 z"
   id="path1"
   style="fill:#0066ff" /></g></g></svg>
