<?xml version="1.0" encoding="UTF-8" standalone="no"?>
<!-- Created with Inkscape (http://www.inkscape.org/) -->

<svg
   width="96"
   height="96"
   viewBox="0 0 96 96"
   version="1.1"
   id="svg1"
   xml:space="preserve"
   inkscape:version="1.4 (86a8ad7, 2024-10-11)"
   sodipodi:docname="_I_roadWorks_01.svg"
   xmlns:inkscape="http://www.inkscape.org/namespaces/inkscape"
   xmlns:sodipodi="http://sodipodi.sourceforge.net/DTD/sodipodi-0.dtd"
   xmlns="http://www.w3.org/2000/svg"
   xmlns:svg="http://www.w3.org/2000/svg"><sodipodi:namedview
     id="namedview1"
     pagecolor="#ffffff"
     bordercolor="#000000"
     borderopacity="0.25"
     inkscape:showpageshadow="2"
     inkscape:pageopacity="0.0"
     inkscape:pagecheckerboard="0"
     inkscape:deskcolor="#d1d1d1"
     inkscape:document-units="mm"
     inkscape:zoom="1.0556608"
     inkscape:cx="281.81402"
     inkscape:cy="-31.73368"
     inkscape:window-width="2560"
     inkscape:window-height="1387"
     inkscape:window-x="-8"
     inkscape:window-y="-8"
     inkscape:window-maximized="1"
     inkscape:current-layer="layer1" /><defs
     id="defs1" /><g
     inkscape:label="Layer 1"
     inkscape:groupmode="layer"
     id="layer1"><g
       id="g4"
       transform="matrix(0.39105064,0,0,0.39105064,-2.0844807,-2.080892)"
       style="fill:#ff0000"><g
         id="g3"
         style="fill:#ff0000"><g
           id="g2"
           style="fill:#ff0000"><path
             fill="#000000"
             d="M 117.7,10.6 C 106.8,11.8 93.2,16.2 84.1,21.4 60.2,35 44,58 39.4,85 c -1.6,9.3 -1.3,23.1 0.7,31.6 7.7,33.6 34.8,75.1 78.7,120.6 l 8.6,8.9 1.7,-0.9 c 2,-1.1 18.5,-18.4 28.8,-30.3 31.9,-36.7 52.4,-71.6 58.5,-99.4 1.7,-8 1.9,-24 0.2,-32 C 211.5,57.6 196,35.6 173.4,22.2 157.5,12.7 136.8,8.4 117.7,10.6 Z"
             id="path1"
             sodipodi:nodetypes="cccccccccccc"
             style="fill:#ff0000" /></g></g></g><circle
       style="fill:#ffffff;fill-opacity:1;stroke-width:1.21715"
       id="path7"
       cx="48"
       cy="36.262024"
       r="27.219402" /><path
       id="rect1"
       style="fill:#000000;stroke-width:1.20073"
       d="m 25.962535,28.963838 h 44.07493 v 13.64901 h -44.07493 z" /></g></svg>
