<?xml version="1.0" encoding="UTF-8" standalone="no"?>
<!-- Created with Inkscape (http://www.inkscape.org/) -->

<svg
   width="32"
   height="32"
   viewBox="0 0 32 32"
   version="1.1"
   id="svg1"
   xml:space="preserve"
   inkscape:version="1.4 (86a8ad7, 2024-10-11)"
   sodipodi:docname="billboard_01.svg"
   xmlns:inkscape="http://www.inkscape.org/namespaces/inkscape"
   xmlns:sodipodi="http://sodipodi.sourceforge.net/DTD/sodipodi-0.dtd"
   xmlns="http://www.w3.org/2000/svg"
   xmlns:svg="http://www.w3.org/2000/svg"><sodipodi:namedview
     id="namedview1"
     pagecolor="#ffffff"
     bordercolor="#000000"
     borderopacity="0.25"
     inkscape:showpageshadow="2"
     inkscape:pageopacity="0.0"
     inkscape:pagecheckerboard="0"
     inkscape:deskcolor="#d1d1d1"
     inkscape:document-units="mm"
     inkscape:zoom="2.9398148"
     inkscape:cx="31.634646"
     inkscape:cy="7.3133858"
     inkscape:window-width="1920"
     inkscape:window-height="1027"
     inkscape:window-x="-8"
     inkscape:window-y="-8"
     inkscape:window-maximized="1"
     inkscape:current-layer="layer1" /><defs
     id="defs1" /><g
     inkscape:label="Layer 1"
     inkscape:groupmode="layer"
     id="layer1"><path
       style="fill:#ffffff;stroke:none"
       d="M 21.532135,2.836517 10.648258,2.5959893 9.2652231,3.9790234 l -0.06013,15.8748256 0.9621119,1.503298 11.184536,0.240528 1.322902,-1.322902 0.120264,-15.5140347 z"
       id="path2" /><path
       style="fill:#666666;stroke-width:0.143789"
       d="m 10.307774,30.045986 c -0.4115361,-0.288251 -0.4115361,-0.84575 0,-1.134001 0.256455,-0.179632 0.76763,-0.223835 2.588197,-0.223835 h 2.268626 v -3.163355 -3.163353 l -2.192779,-0.0034 c -1.809398,-0.0026 -2.293551,-0.04899 -2.769166,-0.265045 -0.7193915,-0.326774 -1.4461335,-1.13975 -1.6540655,-1.850294 -0.109472,-0.374086 -0.144831,-2.994865 -0.114328,-8.473681 l 0.044162,-7.9320833 0.437751,-0.6233436 c 0.240764,-0.3428402 0.726051,-0.785106 1.0784154,-0.982816 L 10.635252,1.8713077 h 5.392077 5.392078 L 22.09858,2.270548 c 0.440421,0.2588933 0.819523,0.6379945 1.078416,1.0784152 l 0.39924,0.6791751 v 7.9802737 c 0,4.389147 -0.04947,8.157025 -0.109918,8.373057 -0.06046,0.216026 -0.312705,0.623742 -0.560552,0.906027 -0.805064,0.916914 -1.076942,0.993993 -3.78698,1.073699 l -2.444407,0.07191 -0.03875,3.12741 -0.03876,3.127402 h 2.491625 c 2.626026,0 2.857553,0.05142 3.042686,0.675638 0.06464,0.217946 0.0021,0.407801 -0.201165,0.611103 -0.28711,0.287112 -0.440897,0.294932 -5.798803,0.294932 -4.748718,0 -5.54772,-0.03068 -5.823444,-0.223836 z M 21.36598,20.698321 c 0.838821,-0.433766 0.844265,-0.488876 0.844265,-8.545881 0,-7.8842902 -0.01257,-8.0300954 -0.735749,-8.5366315 C 21.180155,3.409646 20.518833,3.3813325 15.997604,3.3813325 H 10.855472 L 10.38589,3.8009037 9.9163079,4.2204758 v 7.9050812 c 0,7.702664 0.0074,7.913258 0.2875781,8.224721 0.158167,0.175806 0.416987,0.372605 0.575155,0.437344 0.158167,0.06476 2.506934,0.121803 5.219481,0.126817 4.207967,0.0077 4.995836,-0.02397 5.367458,-0.216118 z m -7.415435,-2.826325 c -0.123109,-0.175764 -0.223836,-0.381743 -0.223836,-0.457735 0,-0.07598 1.081322,-1.226285 2.402937,-2.556202 2.381353,-2.396315 2.758554,-2.663004 3.176065,-2.245488 0.476169,0.476169 0.216312,0.865425 -2.165607,3.244071 -2.444059,2.440689 -2.754328,2.636732 -3.189559,2.015354 z m -1.345387,-5.604519 c -0.470504,-0.470509 -0.21126,-0.857496 2.168848,-3.2376114 2.389108,-2.3891077 2.702399,-2.5972369 3.1842,-2.1154411 0.481803,0.4818043 0.273667,0.7950944 -2.115442,3.1842025 -2.380108,2.380107 -2.767102,2.63935 -3.237606,2.16885 z"
       id="path1" /></g></svg>
