<?xml version="1.0" encoding="UTF-8" standalone="no"?>
<!-- Created with Inkscape (http://www.inkscape.org/) -->

<svg
   width="32"
   height="32"
   viewBox="0 0 32 32"
   version="1.1"
   id="svg1"
   inkscape:version="1.4 (86a8ad7, 2024-10-11)"
   sodipodi:docname="F2-1.svg"
   xml:space="preserve"
   xmlns:inkscape="http://www.inkscape.org/namespaces/inkscape"
   xmlns:sodipodi="http://sodipodi.sourceforge.net/DTD/sodipodi-0.dtd"
   xmlns="http://www.w3.org/2000/svg"
   xmlns:svg="http://www.w3.org/2000/svg"><sodipodi:namedview
     id="namedview1"
     pagecolor="#ffffff"
     bordercolor="#000000"
     borderopacity="0.25"
     inkscape:showpageshadow="2"
     inkscape:pageopacity="0.0"
     inkscape:pagecheckerboard="0"
     inkscape:deskcolor="#d1d1d1"
     inkscape:document-units="mm"
     inkscape:zoom="4.0000002"
     inkscape:cx="-19.249999"
     inkscape:cy="0.87499996"
     inkscape:window-width="1920"
     inkscape:window-height="1027"
     inkscape:window-x="-8"
     inkscape:window-y="-8"
     inkscape:window-maximized="1"
     inkscape:current-layer="layer1" /><defs
     id="defs1" /><g
     inkscape:label="Layer 1"
     inkscape:groupmode="layer"
     id="layer1"><rect
       style="fill:#8dd35f;fill-opacity:1;stroke:#000000;stroke-width:1.88976;stroke-linecap:butt;stroke-dasharray:none;stroke-opacity:1;paint-order:normal"
       id="rect1"
       width="30.110239"
       height="30.110241"
       x="0.94488001"
       y="0.94488001" /><path
       fill="#000000"
       d="m 9.3662332,4.3082236 c 1.8983968,0.832808 3.4408178,1.93766 4.9177538,3.496186 0.608904,0.636159 1.920818,2.6665614 2.258272,3.4759054 0.544568,1.321289 0.822941,2.536805 0.937239,3.881174 0.284652,3.80898 -1.330599,7.548376 -4.404417,10.217002 -0.943048,0.818003 -1.677852,1.307577 -2.957758,1.967865 l -1.1407865,0.588523 0.3029137,0.0095 c 2.7925848,0.07317 5.7575428,-0.716089 7.9769628,-2.104158 4.690306,-2.961115 6.784945,-8.063848 5.315382,-12.941128 C 22.219226,11.721854 21.984282,11.224271 21.193213,10.019099 20.406065,8.8008556 19.94776,8.2638046 18.964511,7.4119216 16.504431,5.2887566 13.189465,4.0817576 9.8099852,4.0572226 8.7724465,4.0399626 8.7724465,4.0399626 9.3662332,4.3082496 Z"
       id="path1"
       style="fill:#ffffff;stroke-width:1.00157;stroke-dasharray:none" /></g></svg>
