<?xml version="1.0" encoding="UTF-8" standalone="no"?>
<!-- Created with Inkscape (http://www.inkscape.org/) -->

<svg
   width="32"
   height="32"
   viewBox="0 0 32 32"
   version="1.1"
   id="svg1"
   inkscape:version="1.4 (86a8ad7, 2024-10-11)"
   sodipodi:docname="F2-6.svg"
   xml:space="preserve"
   xmlns:inkscape="http://www.inkscape.org/namespaces/inkscape"
   xmlns:sodipodi="http://sodipodi.sourceforge.net/DTD/sodipodi-0.dtd"
   xmlns="http://www.w3.org/2000/svg"
   xmlns:svg="http://www.w3.org/2000/svg"><sodipodi:namedview
     id="namedview1"
     pagecolor="#ffffff"
     bordercolor="#000000"
     borderopacity="0.25"
     inkscape:showpageshadow="2"
     inkscape:pageopacity="0.0"
     inkscape:pagecheckerboard="0"
     inkscape:deskcolor="#d1d1d1"
     inkscape:document-units="mm"
     inkscape:zoom="1.0000001"
     inkscape:cx="8.9999995"
     inkscape:cy="-139.49999"
     inkscape:window-width="1920"
     inkscape:window-height="1027"
     inkscape:window-x="-8"
     inkscape:window-y="-8"
     inkscape:window-maximized="1"
     inkscape:current-layer="layer1" /><defs
     id="defs1" /><g
     inkscape:label="Layer 1"
     inkscape:groupmode="layer"
     id="layer1"><rect
       style="fill:#8dd35f;fill-opacity:1;stroke:#000000;stroke-width:1.88976;stroke-linecap:butt;stroke-dasharray:none;stroke-opacity:1;paint-order:normal"
       id="rect1"
       width="30.110239"
       height="30.110241"
       x="0.94488001"
       y="0.94488001" /><path
       fill="#000000"
       d="m 13.241233,4.3082236 c 1.898397,0.832808 3.440818,1.93766 4.917754,3.496186 0.608904,0.636159 1.920818,2.6665614 2.258272,3.4759054 0.544568,1.321289 0.822941,2.536805 0.937239,3.881174 0.284652,3.80898 -1.330599,7.548376 -4.404417,10.217002 -0.943048,0.818003 -1.677852,1.307577 -2.957758,1.967865 l -1.140787,0.588523 0.302914,0.0095 c 2.792585,0.07317 5.757543,-0.716089 7.976963,-2.104158 4.690306,-2.961115 6.784945,-8.063848 5.315382,-12.941128 -0.352569,-1.177239 -0.587513,-1.674822 -1.378582,-2.879994 -0.787148,-1.2182434 -1.245453,-1.7552944 -2.228702,-2.6071774 -2.46008,-2.123165 -5.775046,-3.330164 -9.154526,-3.354699 -1.037539,-0.01726 -1.037539,-0.01726 -0.443752,0.251027 z"
       id="path1"
       style="fill:#ffffff;stroke-width:1.00157;stroke-dasharray:none" /><path
       fill="#000000"
       d="M 9.1066783,16.031573 H 6.7178986 C 6.2390294,15.652933 5.8770928,15.201904 5.6320905,14.678488 5.3870872,14.155074 5.2478791,13.626088 5.2200384,13.097105 c -0.033409,-0.528984 0.038978,-1.035694 0.206026,-1.520132 0.1670488,-0.484437 0.4287563,-0.874215 0.7739869,-1.180468 0.3452315,-0.300686 0.773987,-0.4788698 1.2862657,-0.5345528 0.5122793,-0.05569 1.0858099,0.06681 1.7261582,0.3730738 0.6125078,0.295116 1.1247858,0.746145 1.5368368,1.347516 0.41205,0.601371 0.757281,1.291834 1.030127,2.065821 0.267276,-0.773987 0.606939,-1.46445 1.01899,-2.065821 0.41205,-0.601371 0.924328,-1.0524 1.536836,-1.347516 0.651486,-0.3062548 1.236151,-0.4287568 1.742861,-0.3730738 0.506712,0.05569 0.941036,0.2338668 1.286267,0.5345528 0.345232,0.300685 0.60694,0.690461 0.773988,1.180468 0.167047,0.484438 0.239433,0.991148 0.206025,1.520132 -0.03341,0.528983 -0.167047,1.057969 -0.41205,1.581383 -0.245003,0.523416 -0.606939,0.974445 -1.08581,1.353085 h -2.405484 c 0.133639,-0.233866 0.256139,-0.451028 0.367505,-0.640349 0.08909,-0.172615 0.183752,-0.334094 0.267276,-0.478869 0.08909,-0.144775 0.139205,-0.245003 0.161479,-0.295117 0.03341,-0.07239 0.08909,-0.22273 0.167047,-0.451029 0.08352,-0.228298 0.139206,-0.451029 0.178185,-0.673758 0.03898,-0.217161 0.02228,-0.384208 -0.03898,-0.495573 -0.06125,-0.111367 -0.222731,-0.08352 -0.490007,0.08909 -0.356369,0.233867 -0.651485,0.595803 -0.879785,1.08024 -0.228297,0.48444 -0.417617,1.007854 -0.556823,1.564679 -0.144775,0.562394 -0.245003,1.11365 -0.311822,1.659339 -0.06682,0.54569 -0.116933,1.002285 -0.161479,1.36979 -0.03898,0.367504 -0.07795,0.751713 -0.1058,1.152629 -0.02784,0.400912 -0.05568,0.768418 -0.07795,1.091375 -0.03341,0.400916 -0.05011,0.779555 -0.06124,1.147061 h -0.139215 -1.960025 -0.139206 c -0.01113,-0.367507 -0.03341,-0.751717 -0.06125,-1.147063 -0.02228,-0.328526 -0.05012,-0.690463 -0.08352,-1.091375 -0.03898,-0.400916 -0.07239,-0.790693 -0.116933,-1.152629 -0.03898,-0.367505 -0.09466,-0.8241 -0.16148,-1.36979 C 10.170219,16.844538 10.06442,16.293281 9.925214,15.730887 9.78044,15.168496 9.5966873,14.64508 9.3683892,14.166209 9.1400903,13.681772 8.8449733,13.325403 8.4886063,13.085969 8.2213291,12.913354 8.0598499,12.879944 7.9985998,12.996878 c -0.061248,0.111366 -0.072387,0.278412 -0.038978,0.495573 0.033409,0.217161 0.09466,0.44546 0.1781844,0.673758 0.083525,0.228299 0.1392056,0.378642 0.1670472,0.451029 0.022278,0.05011 0.072387,0.150342 0.1614791,0.295117 0.089092,0.144775 0.1781845,0.306254 0.2672763,0.478869 0.1169329,0.189321 0.2394346,0.406483 0.3730722,0.640349 z"
       id="path1-4"
       style="fill:#ffffff;stroke-width:1" /></g></svg>
