<?xml version="1.0" encoding="UTF-8" standalone="no"?>
<!-- Created with Inkscape (http://www.inkscape.org/) -->

<svg
   width="32"
   height="32"
   viewBox="0 0 32 32"
   version="1.1"
   id="svg1"
   inkscape:version="1.4 (86a8ad7, 2024-10-11)"
   sodipodi:docname="F2-7.svg"
   xml:space="preserve"
   xmlns:inkscape="http://www.inkscape.org/namespaces/inkscape"
   xmlns:sodipodi="http://sodipodi.sourceforge.net/DTD/sodipodi-0.dtd"
   xmlns="http://www.w3.org/2000/svg"
   xmlns:svg="http://www.w3.org/2000/svg"><sodipodi:namedview
     id="namedview1"
     pagecolor="#ffffff"
     bordercolor="#000000"
     borderopacity="0.25"
     inkscape:showpageshadow="2"
     inkscape:pageopacity="0.0"
     inkscape:pagecheckerboard="0"
     inkscape:deskcolor="#d1d1d1"
     inkscape:document-units="mm"
     inkscape:zoom="2.8284273"
     inkscape:cx="15.556348"
     inkscape:cy="-0.88388343"
     inkscape:window-width="1920"
     inkscape:window-height="1027"
     inkscape:window-x="-8"
     inkscape:window-y="-8"
     inkscape:window-maximized="1"
     inkscape:current-layer="layer1" /><defs
     id="defs1" /><g
     inkscape:label="Layer 1"
     inkscape:groupmode="layer"
     id="layer1"><rect
       style="fill:#8dd35f;fill-opacity:1;stroke:#000000;stroke-width:1.88976;stroke-linecap:butt;stroke-dasharray:none;stroke-opacity:1;paint-order:normal"
       id="rect1"
       width="30.110239"
       height="30.110241"
       x="0.94488001"
       y="0.94488001" /><path
       fill="#000000"
       d="m 13.241233,4.3082236 c 1.898397,0.832808 3.440818,1.93766 4.917754,3.496186 0.608904,0.636159 1.920818,2.6665614 2.258272,3.4759054 0.544568,1.321289 0.822941,2.536805 0.937239,3.881174 0.284652,3.80898 -1.330599,7.548376 -4.404417,10.217002 -0.943048,0.818003 -1.677852,1.307577 -2.957758,1.967865 l -1.140787,0.588523 0.302914,0.0095 c 2.792585,0.07317 5.757543,-0.716089 7.976963,-2.104158 4.690306,-2.961115 6.784945,-8.063848 5.315382,-12.941128 -0.352569,-1.177239 -0.587513,-1.674822 -1.378582,-2.879994 -0.787148,-1.2182434 -1.245453,-1.7552944 -2.228702,-2.6071774 -2.46008,-2.123165 -5.775046,-3.330164 -9.154526,-3.354699 -1.037539,-0.01726 -1.037539,-0.01726 -0.443752,0.251027 z"
       id="path1"
       style="fill:#ffffff;stroke-width:1.00157;stroke-dasharray:none" /><path
       style="fill:none;fill-opacity:1;stroke:#ffffff;stroke-width:1.88976;stroke-linecap:butt;stroke-dasharray:none;stroke-opacity:1;paint-order:normal"
       d="M 7.1830477,16 H 18.496756"
       id="path4" /><path
       style="fill:none;fill-opacity:1;stroke:#ffffff;stroke-width:1.88976;stroke-linecap:butt;stroke-dasharray:none;stroke-opacity:1;paint-order:normal"
       d="M 12.839902,10.343146 V 21.656854"
       id="path5" /></g></svg>
