<?xml version="1.0" encoding="UTF-8" standalone="no"?>
<!-- Created with Inkscape (http://www.inkscape.org/) -->

<svg
   width="32"
   height="32"
   viewBox="0 0 32 32"
   version="1.1"
   id="svg1"
   inkscape:version="1.4 (86a8ad7, 2024-10-11)"
   sodipodi:docname="F2-8.svg"
   xml:space="preserve"
   xmlns:inkscape="http://www.inkscape.org/namespaces/inkscape"
   xmlns:sodipodi="http://sodipodi.sourceforge.net/DTD/sodipodi-0.dtd"
   xmlns="http://www.w3.org/2000/svg"
   xmlns:svg="http://www.w3.org/2000/svg"><sodipodi:namedview
     id="namedview1"
     pagecolor="#ffffff"
     bordercolor="#000000"
     borderopacity="0.25"
     inkscape:showpageshadow="2"
     inkscape:pageopacity="0.0"
     inkscape:pagecheckerboard="0"
     inkscape:deskcolor="#d1d1d1"
     inkscape:document-units="mm"
     inkscape:zoom="1.0000001"
     inkscape:cx="28.999999"
     inkscape:cy="-66.499997"
     inkscape:window-width="1920"
     inkscape:window-height="1027"
     inkscape:window-x="-8"
     inkscape:window-y="-8"
     inkscape:window-maximized="1"
     inkscape:current-layer="layer1" /><defs
     id="defs1" /><g
     inkscape:label="Layer 1"
     inkscape:groupmode="layer"
     id="layer1"><rect
       style="fill:#8dd35f;fill-opacity:1;stroke:#000000;stroke-width:1.88976;stroke-linecap:butt;stroke-dasharray:none;stroke-opacity:1;paint-order:normal"
       id="rect1"
       width="30.110239"
       height="30.110241"
       x="0.94488001"
       y="0.94488001" /><path
       fill="#000000"
       d="m 9.3690711,4.3082371 c 1.8983969,0.8328056 3.4408179,1.9376556 4.9177539,3.4961772 0.608904,0.6361571 1.920818,2.6665537 2.258272,3.4758967 0.544568,1.321285 0.822941,2.536798 0.937239,3.881164 0.284652,3.808971 -1.330599,7.548357 -4.404417,10.216976 -0.943048,0.818001 -1.677852,1.307574 -2.957758,1.967861 l -1.1407869,0.588521 0.302914,0.0095 c 2.7925849,0.07317 5.7575429,-0.716088 7.9769629,-2.104153 4.690306,-2.961108 6.784945,-8.063828 5.315382,-12.941096 C 22.222064,11.721807 21.98712,11.224226 21.196051,10.019056 20.408903,8.8008157 19.950598,8.2637667 18.967349,7.4118865 16.507269,5.2887255 13.192303,4.0817295 9.8128231,4.0571952 8.7752841,4.039933 8.7752841,4.039933 9.3690711,4.3082218 Z"
       id="path1"
       style="fill:none;stroke:#ffffff;stroke-width:1.88976;stroke-linecap:butt;stroke-linejoin:round;stroke-dasharray:none;stroke-opacity:1" /></g></svg>
