<?xml version="1.0" encoding="UTF-8" standalone="no"?>
<!-- Created with Inkscape (http://www.inkscape.org/) -->

<svg
   width="32"
   height="32"
   viewBox="0 0 32 32"
   version="1.1"
   id="svg1"
   inkscape:version="1.4 (86a8ad7, 2024-10-11)"
   sodipodi:docname="F2-9.svg"
   xml:space="preserve"
   xmlns:inkscape="http://www.inkscape.org/namespaces/inkscape"
   xmlns:sodipodi="http://sodipodi.sourceforge.net/DTD/sodipodi-0.dtd"
   xmlns="http://www.w3.org/2000/svg"
   xmlns:svg="http://www.w3.org/2000/svg"><sodipodi:namedview
     id="namedview1"
     pagecolor="#ffffff"
     bordercolor="#000000"
     borderopacity="0.25"
     inkscape:showpageshadow="2"
     inkscape:pageopacity="0.0"
     inkscape:pagecheckerboard="0"
     inkscape:deskcolor="#d1d1d1"
     inkscape:document-units="mm"
     inkscape:zoom="1.4142136"
     inkscape:cx="72.831995"
     inkscape:cy="10.253048"
     inkscape:window-width="1920"
     inkscape:window-height="1027"
     inkscape:window-x="-8"
     inkscape:window-y="-8"
     inkscape:window-maximized="1"
     inkscape:current-layer="layer1" /><defs
     id="defs1" /><g
     inkscape:label="Layer 1"
     inkscape:groupmode="layer"
     id="layer1"><rect
       style="fill:#bcd35f;fill-opacity:1;stroke:#000000;stroke-width:1.88976;stroke-linecap:butt;stroke-dasharray:none;stroke-opacity:1;paint-order:normal"
       id="rect1"
       width="30.110239"
       height="30.110241"
       x="0.94488001"
       y="0.94488001" /><g
       id="g4"
       transform="matrix(0.09452627,0,0,0.09452627,3.1782054,3.8194202)"
       style="fill:#ffffff;stroke-width:10.579"><path
         fill="#000000"
         d="m 23.8,125.8 c 16.8,41.8 54.1,21.1 54.1,21.1 L 133.8,119.4 99.7,48 43.7,75 c 0,0 -33.9,16 -19.9,50.8 z"
         id="path1-5"
         style="fill:#ffffff;stroke-width:10.579" /><path
         fill="#000000"
         d="m 168.6,15.1 -56,27.5 34.1,71.3 56,-26.9 c 0,0 33.9,-16.1 19.9,-50.9 -16.7,-41.7 -54,-21 -54,-21 z"
         id="path2"
         style="fill:#ffffff;stroke-width:10.579" /><path
         fill="#000000"
         d="m 149.1943,238.6765 c 26.2,16.6 61.1,9.9 79.2,-15.7 18.1,-25.6 12.8,-60.7 -11.6,-79.9 z"
         id="path3"
         style="fill:#ffffff;stroke-width:10.579" /><path
         fill="#000000"
         d="m 205.4,136 c -25.8,-14.3 -58.9,-7.2 -76.3,17.5 -17.5,24.7 -13.1,58.2 9,77.8 z"
         id="path4"
         style="fill:#ffffff;stroke-width:10.579" /></g></g></svg>
