<?xml version="1.0" encoding="UTF-8" standalone="no"?>
<!-- Created with Inkscape (http://www.inkscape.org/) -->

<svg
   width="64"
   height="64"
   viewBox="0 0 64 64"
   version="1.1"
   id="svg1"
   inkscape:version="1.4 (86a8ad7, 2024-10-11)"
   sodipodi:docname="01-mosque.svg"
   xml:space="preserve"
   xmlns:inkscape="http://www.inkscape.org/namespaces/inkscape"
   xmlns:sodipodi="http://sodipodi.sourceforge.net/DTD/sodipodi-0.dtd"
   xmlns="http://www.w3.org/2000/svg"
   xmlns:svg="http://www.w3.org/2000/svg"><sodipodi:namedview
     id="namedview1"
     pagecolor="#ffffff"
     bordercolor="#000000"
     borderopacity="0.25"
     inkscape:showpageshadow="2"
     inkscape:pageopacity="0.0"
     inkscape:pagecheckerboard="0"
     inkscape:deskcolor="#d1d1d1"
     inkscape:document-units="mm"
     inkscape:zoom="4.157526"
     inkscape:cx="35.598094"
     inkscape:cy="21.767753"
     inkscape:window-width="1920"
     inkscape:window-height="1027"
     inkscape:window-x="-8"
     inkscape:window-y="-8"
     inkscape:window-maximized="1"
     inkscape:current-layer="layer1" /><defs
     id="defs1" /><g
     inkscape:label="Layer 1"
     inkscape:groupmode="layer"
     id="layer1"><path
       d="M 31.861279,1.6179616 A 30.390103,30.38256 0 0 0 1.4700159,31.999161 30.390103,30.38256 0 0 0 31.861279,62.382038 30.390103,30.38256 0 0 0 60.526111,41.88295 24.398938,24.325886 0 0 1 39.553897,53.796848 24.398938,24.325886 0 0 1 15.153982,29.47075 24.398938,24.325886 0 0 1 39.553897,5.14465 24.398938,24.325886 0 0 1 49.451109,7.3089845 30.390103,30.38256 0 0 0 31.861279,1.6179616 Z"
       style="fill:#000000;stroke-width:1.14341;stroke-linecap:round"
       id="path6" /><path
       sodipodi:type="star"
       style="fill:#000000;fill-rule:evenodd"
       id="path8"
       inkscape:flatsided="false"
       sodipodi:sides="5"
       sodipodi:cx="-95.924408"
       sodipodi:cy="-115.9937"
       sodipodi:r1="37.771267"
       sodipodi:r2="13.137489"
       sodipodi:arg1="0.90027477"
       sodipodi:arg2="1.5285933"
       inkscape:rounded="0"
       inkscape:randomized="0"
       d="m -72.453542,-86.399998 -22.916589,-16.467912 -21.446659,18.341288 8.58029,-26.883838 -24.07098,-14.72922 28.21951,-0.14721 6.569973,-27.44444 8.860316,26.79285 28.131451,-2.23238 -22.743527,16.70611 z"
       inkscape:transform-center-x="0.19864299"
       inkscape:transform-center-y="-1.264713"
       transform="matrix(0.40338112,0,0,0.40338112,86.945123,74.040621)" /></g></svg>
