<?xml version="1.0" encoding="UTF-8" standalone="no"?>
<!-- Created with Inkscape (http://www.inkscape.org/) -->

<svg
   width="64"
   height="64"
   viewBox="0 0 64 64"
   version="1.1"
   id="svg1"
   inkscape:version="1.4 (86a8ad7, 2024-10-11)"
   sodipodi:docname="F3_10.svg"
   xml:space="preserve"
   xmlns:inkscape="http://www.inkscape.org/namespaces/inkscape"
   xmlns:sodipodi="http://sodipodi.sourceforge.net/DTD/sodipodi-0.dtd"
   xmlns="http://www.w3.org/2000/svg"
   xmlns:svg="http://www.w3.org/2000/svg"><sodipodi:namedview
     id="namedview1"
     pagecolor="#ffffff"
     bordercolor="#000000"
     borderopacity="0.25"
     inkscape:showpageshadow="2"
     inkscape:pageopacity="0.0"
     inkscape:pagecheckerboard="0"
     inkscape:deskcolor="#d1d1d1"
     inkscape:document-units="mm"
     inkscape:zoom="2.078763"
     inkscape:cx="9.1400511"
     inkscape:cy="18.52063"
     inkscape:window-width="1920"
     inkscape:window-height="1027"
     inkscape:window-x="-8"
     inkscape:window-y="-8"
     inkscape:window-maximized="1"
     inkscape:current-layer="layer1" /><defs
     id="defs1" /><g
     inkscape:label="Layer 1"
     inkscape:groupmode="layer"
     id="layer1"><g
       id="g3"
       transform="matrix(0.20093234,0,0,0.20093234,6.2949407,6.2706139)"
       style="fill:#3771c8;fill-opacity:1"><path
         fill="#000000"
         d="m 50.7,6.4 c -4.9,0.5 -9,1.4 -12.8,2.9 -10.5,4.1 -19.8,13 -24.5,23.5 -4.8,10.8 -4.6,25.3 0.5,36 3.4,7.1 12.1,13.4 20.7,15.3 10.9,2.3 23.1,-0.8 29.9,-7.7 4.5,-4.5 7,-9.8 7.2,-15.8 0.3,-6.5 -1,-10.6 -4.1,-13.9 -2.7,-2.9 -5.7,-3.9 -9.7,-3.5 -3,0.3 -6,2.4 -7.1,5 -1,2.3 -0.5,3.5 2.3,6.6 2.5,2.7 3.1,4.3 2.6,7.2 -0.8,5.2 -6.5,7.9 -11.3,5.4 C 41.5,65.9 38.2,62.2 36.5,58.6 35.2,55.7 35,54.8 35,49.9 35,45 35.2,44 36.4,41.3 41.1,31.4 53.2,25.5 64.3,27.9 75,30.1 82.5,37 86,47.5 c 1.3,3.8 1.4,5.1 1.4,11.7 0,6.6 -0.2,7.9 -1.4,11.6 -2.9,8.6 -6.9,14 -16.4,22.3 l -2.5,2.1 v 5 c 0,4.8 0.1,5.1 1.4,6.3 l 1.4,1.3 57.1,0.2 c 44.4,0.2 57.5,0 58.7,-0.5 2,-0.8 3,-3.2 3,-6.9 0,-4.7 -0.8,-6.6 -3.5,-8.4 -7.1,-4.9 -12.7,-12.7 -15.7,-22.2 -1.1,-3.4 -1.2,-5 -1.2,-11.1 0.1,-6.2 0.2,-7.7 1.4,-11.4 C 173.1,37 180.6,30.2 191,28 c 4.5,-1 5.9,-1 10.5,0 7.6,1.6 14.2,6.5 17.3,12.8 3,6 2.6,14.7 -0.8,20.2 -1.5,2.4 -5.7,6.2 -7.5,6.9 -5.1,2 -10.8,-1.9 -10.8,-7.3 0,-2.3 0.7,-3.5 3.5,-6.6 2.8,-3 3,-4.8 0.9,-7.3 -4.1,-4.8 -11.2,-4.8 -16.1,0.1 -3.4,3.4 -4.4,7.4 -4,15.1 0.4,6.2 1.3,8.9 4.1,12.1 2.3,2.5 7.5,6.3 11.3,8 6.3,2.9 15.8,3.6 22.8,1.9 5.6,-1.4 9.9,-3.9 14.4,-8 4.2,-4 6.3,-7.8 8.2,-15 1.5,-5.8 1.5,-15.2 0,-21 C 240.7,24.2 228.7,12.2 212.7,7.8 l -4.2,-1.2 -78,-0.1 C 87.7,6.2 51.7,6.3 50.7,6.4 Z"
         id="path1"
         style="fill:#3771c8;fill-opacity:1" /><path
         fill="#000000"
         d="m 69.5,115 c -2,1.1 -2.4,2.1 -2.4,6 0,2.1 0.2,4.2 0.3,4.7 1,2.4 -0.3,2.4 60.8,2.4 h 57.5 l 1.5,-1.5 c 1.4,-1.4 1.5,-1.9 1.5,-5.3 0,-3.5 -0.1,-3.9 -1.5,-5.3 l -1.5,-1.5 h -57.6 c -40.6,0 -57.8,0.1 -58.6,0.5 z"
         id="path2"
         style="fill:#3771c8;fill-opacity:1" /><path
         fill="#000000"
         d="m 68.3,136.3 -1.2,1.2 v 55 55.1 l 1.4,1.1 c 1.3,1 2.1,1.1 8.8,1.1 7.1,0 7.4,-0.1 8.6,-1.3 l 1.3,-1.3 v -47.9 -48 l 1.5,-1.5 c 1.4,-1.4 1.9,-1.5 4.8,-1.5 1.7,0 3.8,0.2 4.5,0.5 3,1.1 2.9,0 2.9,51.5 v 47.3 l 1.4,1.1 c 1.3,1 2.1,1.1 8.8,1.1 7.1,0 7.4,-0.1 8.6,-1.3 l 1.3,-1.3 v -47.9 -48 l 1.5,-1.5 c 1.4,-1.4 1.9,-1.5 4.8,-1.5 1.7,0 3.8,0.2 4.5,0.5 3,1.1 2.9,0 2.9,51.5 v 47.3 l 1.4,1.1 c 1.3,1 2.1,1.1 8.8,1.1 7.2,0 7.3,0 8.6,-1.4 l 1.3,-1.4 v -47.8 -47.9 l 1.5,-1.5 c 1.4,-1.4 1.9,-1.5 4.8,-1.5 1.7,0 3.8,0.2 4.5,0.5 3,1.1 2.9,0 2.9,51.5 v 47.3 l 1.4,1.1 c 1.3,1 2.1,1.1 8.5,1.1 3.9,0 7.4,-0.2 7.9,-0.3 2.4,-1 2.4,0.1 2.4,-57.6 v -54.3 l -1.3,-1.3 -1.3,-1.3 H 127.7 69.4 Z"
         id="path3"
         style="fill:#3771c8;fill-opacity:1" /></g></g></svg>
