<?xml version="1.0" encoding="UTF-8" standalone="no"?>
<!-- Created with Inkscape (http://www.inkscape.org/) -->

<svg
   width="64"
   height="64"
   viewBox="0 0 64 64"
   version="1.1"
   id="svg1"
   inkscape:version="1.4 (86a8ad7, 2024-10-11)"
   sodipodi:docname="F3_12.svg"
   xml:space="preserve"
   xmlns:inkscape="http://www.inkscape.org/namespaces/inkscape"
   xmlns:sodipodi="http://sodipodi.sourceforge.net/DTD/sodipodi-0.dtd"
   xmlns="http://www.w3.org/2000/svg"
   xmlns:svg="http://www.w3.org/2000/svg"><sodipodi:namedview
     id="namedview1"
     pagecolor="#ffffff"
     bordercolor="#000000"
     borderopacity="0.25"
     inkscape:showpageshadow="2"
     inkscape:pageopacity="0.0"
     inkscape:pagecheckerboard="0"
     inkscape:deskcolor="#d1d1d1"
     inkscape:document-units="mm"
     inkscape:zoom="2.078763"
     inkscape:cx="9.1400511"
     inkscape:cy="18.52063"
     inkscape:window-width="1920"
     inkscape:window-height="1027"
     inkscape:window-x="-8"
     inkscape:window-y="-8"
     inkscape:window-maximized="1"
     inkscape:current-layer="layer1" /><defs
     id="defs1" /><g
     inkscape:label="Layer 1"
     inkscape:groupmode="layer"
     id="layer1"><path
       fill="#000000"
       d="m 18.232967,23.131666 -3.716254,-1.879243 -0.971294,15.266204 c 2.343775,-2.787191 4.117441,-6.799056 4.687548,-13.386961 z m 27.259569,0 c 0.570108,6.587905 2.343774,10.59977 4.687549,13.386961 L 49.208792,21.252423 Z M 56.915796,11.729522 V 52.270478 H 46.04153 c -0.316727,-2.639386 -0.633454,-6.609021 3.90629,-9.1006 -4.370822,-5.616612 -6.693481,-12.225633 -7.200244,-19.679256 -4.28636,0.696798 -8.973909,-1.034639 -11.359913,-5.257655 -2.153738,3.800714 -6.186719,5.595497 -10.114124,5.384346 -0.527876,7.390278 -2.850536,13.935953 -7.200244,19.531449 4.539744,2.49158 4.223018,6.48233 3.906291,9.1006 H 7.0842045 v -40.51984 z"
       id="path1"
       style="fill:#3771c8;fill-opacity:1;stroke-width:0.211151" /></g></svg>
