<?xml version="1.0" encoding="UTF-8" standalone="no"?>
<!-- Created with Inkscape (http://www.inkscape.org/) -->

<svg
   width="64"
   height="64"
   viewBox="0 0 64 64"
   version="1.1"
   id="svg1"
   inkscape:version="1.4 (86a8ad7, 2024-10-11)"
   sodipodi:docname="F3_11.svg"
   xml:space="preserve"
   xmlns:inkscape="http://www.inkscape.org/namespaces/inkscape"
   xmlns:sodipodi="http://sodipodi.sourceforge.net/DTD/sodipodi-0.dtd"
   xmlns="http://www.w3.org/2000/svg"
   xmlns:svg="http://www.w3.org/2000/svg"><sodipodi:namedview
     id="namedview1"
     pagecolor="#ffffff"
     bordercolor="#000000"
     borderopacity="0.25"
     inkscape:showpageshadow="2"
     inkscape:pageopacity="0.0"
     inkscape:pagecheckerboard="0"
     inkscape:deskcolor="#d1d1d1"
     inkscape:document-units="mm"
     inkscape:zoom="2.078763"
     inkscape:cx="9.1400511"
     inkscape:cy="18.52063"
     inkscape:window-width="1920"
     inkscape:window-height="1027"
     inkscape:window-x="-8"
     inkscape:window-y="-8"
     inkscape:window-maximized="1"
     inkscape:current-layer="layer1" /><defs
     id="defs1" /><g
     inkscape:label="Layer 1"
     inkscape:groupmode="layer"
     id="layer1"><path
       fill="#000000"
       d="m 36.254631,41.030941 c -1.669392,-6.21385 3.59383,-12.26539 11.12928,-13.81885 -2.66639,-9.019356 -11.01335,-15.60418 -20.936958,-15.60418 -12.056717,0 -21.8180249,9.738119 -21.8180249,21.74847 0,12.01035 9.7613079,21.74847 21.8180249,21.74847 6.677568,0 12.659556,-2.991 16.647548,-7.72094 -3.338784,-0.97382 -5.958802,-3.08375 -6.83987,-6.35297 z m -9.784491,0.88107 c -4.753131,0 -8.602007,-3.82569 -8.602007,-8.57882 0,-4.72995 3.848876,-8.55563 8.602007,-8.55563 4.753129,0 8.602005,3.82568 8.602005,8.55563 0,4.75313 -3.848876,8.57882 -8.602005,8.57882 z M 59.371072,18.726013 C 53.852805,7.156199 44.624777,9.080637 44.624777,9.080637 L 41.239621,8.895149 c 11.894417,15.650552 11.082908,21.887582 10.711931,23.209192 -1.62302,-0.81152 -3.709759,-0.99701 -5.819685,-0.41735 -3.987993,1.13611 -6.538452,4.68357 -5.68057,7.9296 0.857882,3.24605 4.776315,4.985 8.787494,3.84888 3.083738,-0.88106 5.309593,-3.19967 5.750128,-5.72694 4.382153,-6.72393 -5.842872,-22.954138 -5.842872,-22.954138 z M 26.47014,28.742371 c -2.550461,0 -4.6372,2.06355 -4.6372,4.61401 0,2.55045 2.063553,4.61401 4.6372,4.61401 2.550459,0 4.637199,-2.06356 4.637199,-4.61401 0,-2.55046 -2.063554,-4.61401 -4.637199,-4.61401 z"
       id="path1-0"
       style="fill:#3771c8;fill-opacity:1;stroke-width:0.23186" /></g></svg>
