<?xml version="1.0" encoding="UTF-8" standalone="no"?>
<!-- Created with Inkscape (http://www.inkscape.org/) -->

<svg
   width="64"
   height="64"
   viewBox="0 0 64 64"
   version="1.1"
   id="svg1"
   inkscape:version="1.4 (86a8ad7, 2024-10-11)"
   sodipodi:docname="F3_4.svg"
   xml:space="preserve"
   xmlns:inkscape="http://www.inkscape.org/namespaces/inkscape"
   xmlns:sodipodi="http://sodipodi.sourceforge.net/DTD/sodipodi-0.dtd"
   xmlns="http://www.w3.org/2000/svg"
   xmlns:svg="http://www.w3.org/2000/svg"><sodipodi:namedview
     id="namedview1"
     pagecolor="#ffffff"
     bordercolor="#000000"
     borderopacity="0.25"
     inkscape:showpageshadow="2"
     inkscape:pageopacity="0.0"
     inkscape:pagecheckerboard="0"
     inkscape:deskcolor="#d1d1d1"
     inkscape:document-units="mm"
     inkscape:zoom="2.9398148"
     inkscape:cx="39.798425"
     inkscape:cy="33.845669"
     inkscape:window-width="1920"
     inkscape:window-height="1027"
     inkscape:window-x="-8"
     inkscape:window-y="-8"
     inkscape:window-maximized="1"
     inkscape:current-layer="layer1" /><defs
     id="defs1" /><g
     inkscape:label="Layer 1"
     inkscape:groupmode="layer"
     id="layer1"><g
       id="g7"
       transform="matrix(0.21014666,0,0,0.21014666,5.1012275,5.1013493)"
       style="fill:#3771c8;fill-opacity:1"><path
         fill="#000000"
         d="M 120.6,13.6 C 77.8,37.1 13,73.2 12.4,73.9 c -1.8,2.2 -0.8,5.1 2,5.8 2.4,0.6 224.8,0.7 227.2,0 2.9,-0.8 3.9,-3.7 2.1,-5.8 C 243.3,73.4 218,59.1 187.6,42.3 127.7,9.3 128.8,10 127.9,10 c -0.3,0 -3.6,1.6 -7.3,3.6 z m 13.5,15.5 c 13.5,4.6 17.3,21.6 7.1,31.5 -1.3,1.3 -3.7,2.9 -5.2,3.7 -2.6,1.2 -3.3,1.4 -8,1.4 -4.7,0 -5.4,-0.1 -8.1,-1.4 -13,-6.4 -14.7,-24.1 -3.1,-32.5 4.8,-3.5 11.7,-4.6 17.3,-2.7 z"
         id="path1"
         style="fill:#3771c8;fill-opacity:1" /><path
         fill="#000000"
         d="m 23.8,86.7 c -1.3,1.3 -1.6,2.8 -1.4,7.8 0.1,3.4 0.4,4.6 1.1,5.4 l 0.9,1 H 128 231.6 l 0.9,-1 c 0.7,-0.8 1,-2 1.1,-4.9 0.2,-4.8 -0.2,-7.1 -1.5,-8.4 -0.9,-0.9 -2.6,-0.9 -104.2,-0.9 -102.1,0 -103.1,0 -104.1,1 z"
         id="path2"
         style="fill:#3771c8;fill-opacity:1" /><path
         fill="#000000"
         d="m 37,155.3 v 48.4 H 56.4 75.8 V 155.3 106.9 H 56.5 37 Z"
         id="path3"
         style="fill:#3771c8;fill-opacity:1" /><path
         fill="#000000"
         d="m 108.8,155.3 v 48.4 H 128 147.2 V 155.3 106.9 H 128 108.8 Z"
         id="path4"
         style="fill:#3771c8;fill-opacity:1" /><path
         fill="#000000"
         d="m 180.1,155.3 v 48.4 h 19.4 19.5 v -48.4 -48.4 h -19.4 -19.4 v 48.4 z"
         id="path5"
         style="fill:#3771c8;fill-opacity:1" /><path
         fill="#000000"
         d="m 23.9,210.3 c -1.4,1.2 -1.4,1.3 -1.4,6.7 0,5.4 0,5.5 1.4,6.7 l 1.4,1.2 H 128 230.7 l 1.4,-1.2 c 1.4,-1.2 1.4,-1.3 1.4,-6.7 0,-5.4 0,-5.5 -1.4,-6.7 l -1.4,-1.2 H 128 25.3 Z"
         id="path6"
         style="fill:#3771c8;fill-opacity:1" /><path
         fill="#000000"
         d="m 12.2,230.8 c -1.7,0.8 -2.2,2.5 -2.2,7.3 0,4.9 0.5,6.5 2.3,7.3 1.7,0.8 229.7,0.8 231.4,0 1.8,-0.8 2.3,-2.5 2.3,-7.3 0,-4.8 -0.5,-6.5 -2.3,-7.3 -1.6,-0.8 -230,-0.7 -231.5,0 z"
         id="path7"
         style="fill:#3771c8;fill-opacity:1" /></g></g></svg>
