<?xml version="1.0" encoding="UTF-8" standalone="no"?>
<!-- Created with Inkscape (http://www.inkscape.org/) -->

<svg
   width="64"
   height="64"
   viewBox="0 0 64 64"
   version="1.1"
   id="svg1"
   inkscape:version="1.4 (86a8ad7, 2024-10-11)"
   sodipodi:docname="F3_5.svg"
   xml:space="preserve"
   xmlns:inkscape="http://www.inkscape.org/namespaces/inkscape"
   xmlns:sodipodi="http://sodipodi.sourceforge.net/DTD/sodipodi-0.dtd"
   xmlns="http://www.w3.org/2000/svg"
   xmlns:svg="http://www.w3.org/2000/svg"><sodipodi:namedview
     id="namedview1"
     pagecolor="#ffffff"
     bordercolor="#000000"
     borderopacity="0.25"
     inkscape:showpageshadow="2"
     inkscape:pageopacity="0.0"
     inkscape:pagecheckerboard="0"
     inkscape:deskcolor="#d1d1d1"
     inkscape:document-units="mm"
     inkscape:zoom="2.9398148"
     inkscape:cx="39.798425"
     inkscape:cy="33.505512"
     inkscape:window-width="1920"
     inkscape:window-height="1027"
     inkscape:window-x="-8"
     inkscape:window-y="-8"
     inkscape:window-maximized="1"
     inkscape:current-layer="layer1" /><defs
     id="defs1" /><g
     inkscape:label="Layer 1"
     inkscape:groupmode="layer"
     id="layer1"><g
       id="g1"
       transform="matrix(0.21708279,0,0,0.21708279,4.2134029,4.2134029)"
       style="fill:#3771c8;fill-opacity:1"> <path
   fill="#000000"
   d="M 128,119.6 C 100.8,94.4 64.6,78.9 24.6,78.9 v 126.4 c 40,0 76.2,15.5 103.4,40.7 27.2,-25.2 63.4,-40.7 103.4,-40.7 V 78.9 c -40,0 -76.2,15.5 -103.4,40.7 z m 0,-40.7 c 19,0 34.5,-15.4 34.5,-34.5 C 162.5,25.3 147,10 128,10 109,10 93.5,25.4 93.5,44.5 93.5,63.6 109,78.9 128,78.9 Z"
   id="path1-8"
   style="fill:#3771c8;fill-opacity:1" /></g></g></svg>
