<?xml version="1.0" encoding="UTF-8" standalone="no"?>
<!-- Created with Inkscape (http://www.inkscape.org/) -->

<svg
   width="64"
   height="64"
   viewBox="0 0 64 64"
   version="1.1"
   id="svg1"
   inkscape:version="1.4 (86a8ad7, 2024-10-11)"
   sodipodi:docname="F3_7.svg"
   xml:space="preserve"
   xmlns:inkscape="http://www.inkscape.org/namespaces/inkscape"
   xmlns:sodipodi="http://sodipodi.sourceforge.net/DTD/sodipodi-0.dtd"
   xmlns="http://www.w3.org/2000/svg"
   xmlns:svg="http://www.w3.org/2000/svg"><sodipodi:namedview
     id="namedview1"
     pagecolor="#ffffff"
     bordercolor="#000000"
     borderopacity="0.25"
     inkscape:showpageshadow="2"
     inkscape:pageopacity="0.0"
     inkscape:pagecheckerboard="0"
     inkscape:deskcolor="#d1d1d1"
     inkscape:document-units="mm"
     inkscape:zoom="2.078763"
     inkscape:cx="9.1400511"
     inkscape:cy="19.48274"
     inkscape:window-width="1920"
     inkscape:window-height="1027"
     inkscape:window-x="-8"
     inkscape:window-y="-8"
     inkscape:window-maximized="1"
     inkscape:current-layer="layer1" /><defs
     id="defs1" /><g
     inkscape:label="Layer 1"
     inkscape:groupmode="layer"
     id="layer1"><g
       id="g5"
       transform="matrix(0.20503938,0,0,0.20503938,5.7550713,5.7549594)"
       style="fill:#3771c8;fill-opacity:1"><path
         fill="#000000"
         d="m 221.3,38.1 c -6.8,11.1 -12.3,20.2 -12.2,20.3 0.2,0.2 31.2,-6.5 31.6,-6.9 0.2,-0.2 -6.6,-33 -6.9,-33.4 0,0 -5.6,9 -12.5,20 z"
         id="path1-0"
         style="fill:#3771c8;fill-opacity:1" /><path
         fill="#000000"
         d="m 175.8,30.5 c -10.3,2.3 -18.8,4.2 -18.8,4.3 -0.8,0.9 -24.7,40.2 -24.5,40.4 0.1,0.1 8.7,-1.6 19,-3.9 L 170.4,67.2 183,46.7 c 6.9,-11.2 12.3,-20.4 12.1,-20.4 -0.4,0.1 -9,1.9 -19.3,4.2 z"
         id="path2-9"
         style="fill:#3771c8;fill-opacity:1" /><path
         fill="#000000"
         d="m 99.3,47.2 -19,4.2 -12.5,20.4 C 60.9,83 55.3,92.2 55.3,92.2 c 0.1,0.1 37.2,-8 37.9,-8.3 0.3,-0.1 6,-9.1 12.7,-19.9 11.1,-18 13,-21.2 12.5,-21 -0.1,0 -8.7,1.9 -19.1,4.2 z"
         id="path3"
         style="fill:#3771c8;fill-opacity:1" /><path
         fill="#000000"
         d="m 25.2,63.4 c -11.3,2.5 -15,3.5 -15.2,4 -0.1,0.7 6.7,32.3 7,32.7 0.1,0.1 5.3,-8.1 11.5,-18.2 C 43.3,57.8 42.1,60 41,60.1 c -0.5,0 -7.6,1.5 -15.8,3.3 z"
         id="path4"
         style="fill:#3771c8;fill-opacity:1" /><path
         fill="#000000"
         d="m 16.8,169.3 v 68.6 H 131.4 246 V 169.3 100.7 H 131.4 16.8 Z m 207.5,-21.7 v 3.9 H 131.4 38.6 v -3.9 -3.9 h 92.9 92.9 v 3.9 z m 0,43.4 v 3.9 H 131.4 38.6 v -3.9 -3.9 h 92.9 92.9 v 3.9 z"
         id="path5"
         style="fill:#3771c8;fill-opacity:1" /></g></g></svg>
