<?xml version="1.0" encoding="UTF-8" standalone="no"?>
<!-- Created with Inkscape (http://www.inkscape.org/) -->

<svg
   width="64"
   height="64"
   viewBox="0 0 64 64"
   version="1.1"
   id="svg1"
   inkscape:version="1.4 (86a8ad7, 2024-10-11)"
   sodipodi:docname="F3_8.svg"
   xml:space="preserve"
   xmlns:inkscape="http://www.inkscape.org/namespaces/inkscape"
   xmlns:sodipodi="http://sodipodi.sourceforge.net/DTD/sodipodi-0.dtd"
   xmlns="http://www.w3.org/2000/svg"
   xmlns:svg="http://www.w3.org/2000/svg"><sodipodi:namedview
     id="namedview1"
     pagecolor="#ffffff"
     bordercolor="#000000"
     borderopacity="0.25"
     inkscape:showpageshadow="2"
     inkscape:pageopacity="0.0"
     inkscape:pagecheckerboard="0"
     inkscape:deskcolor="#d1d1d1"
     inkscape:document-units="mm"
     inkscape:zoom="2.078763"
     inkscape:cx="9.1400511"
     inkscape:cy="19.001685"
     inkscape:window-width="1920"
     inkscape:window-height="1027"
     inkscape:window-x="-8"
     inkscape:window-y="-8"
     inkscape:window-maximized="1"
     inkscape:current-layer="layer1" /><defs
     id="defs1" /><g
     inkscape:label="Layer 1"
     inkscape:groupmode="layer"
     id="layer1"><g
       id="g2"
       transform="matrix(0.18756038,0,0,0.18756038,8.0143807,7.9959574)"
       style="fill:#3771c8;fill-opacity:1"><path
         fill="#000000"
         d="M 22,2.7 C 19,3.6 16.2,6 14.9,8.8 11.3,17 9.1,40.3 10.3,57.5 c 3.1,45 19.6,80.7 45.3,97.7 18.4,12.1 41.8,14.2 62.9,5.6 29.9,-12.3 51.3,-50.4 55.4,-99.2 C 175.5,44.1 174,23.4 170.3,11.1 168.5,4.8 162.5,1 157.1,2.5 132.4,9.3 118.9,11 92.5,11.1 67.7,11.1 50.4,9 32.4,3.9 25.4,1.9 24.8,1.8 22,2.7 Z m 43.9,51.5 c 5.1,2.6 9.6,9.6 9.7,15 0,4.8 -1.4,5.4 -12.1,5.4 -5.5,0 -9.4,-0.3 -11,-0.9 C 49.4,72.6 45.4,69.1 44.3,66.5 40.6,57.6 55.5,49 65.9,54.2 Z m 65.3,-0.5 c 1.4,0.4 3.8,2 5.5,3.5 2.9,2.6 3,2.9 3,6.2 0,4.6 -1.8,7.1 -6.5,9.4 -6,2.9 -21,3.1 -23.8,0.2 -3.4,-3.4 0.7,-13.6 7.2,-17.9 4.4,-2.9 8.1,-3.3 14.6,-1.4 z m -54,55.3 c 4.4,1.2 6.8,1.5 15,1.5 11.4,0 16.9,-1.2 25,-5.6 2.7,-1.4 4.9,-2.5 5.1,-2.5 0.5,0 0.3,5.4 -0.4,10 -2.3,15.5 -16.9,27.1 -32.4,25.5 -11,-1.1 -21.2,-8.8 -25,-18.7 -1.6,-4 -2.6,-11.3 -2.2,-14.4 l 0.4,-2.3 4.7,2.5 c 2.5,1.4 7,3.1 9.8,4 z"
         id="path1"
         style="fill:#3771c8;fill-opacity:1" /><path
         fill="#000000"
         d="M 224.5,91.7 C 213.4,95.2 197,97.9 179.9,99 l -7.4,0.5 -2.5,7.2 c -5,14.3 -13.6,29.6 -21.6,38.4 l -3.6,3.9 1.2,2.6 c 0.7,1.4 1.2,4 1.2,5.7 0,4.8 -1.4,5.3 -12.1,5.5 -8.3,0.2 -8.7,0.3 -13.6,2.5 -8.1,3.7 -16.2,5.5 -27,5.9 l -9.3,0.4 0.4,2 c 1,5 4.6,16.9 6.9,22.9 12.1,31.2 32.1,50.7 57.3,56.1 7.9,1.7 21.8,1.6 29.4,-0.3 34,-8.3 57.5,-41.6 65,-92.1 2,-13.2 2.1,-36 0.4,-47.5 -2.3,-14.6 -3.9,-18.7 -8.3,-20.9 -3.6,-1.9 -6.2,-1.9 -11.8,-0.1 z m -20.6,50.5 c 10.1,4.6 10.5,13.9 0.8,18.6 -3.3,1.6 -4.7,1.8 -10.9,2 -11.6,0.4 -14.5,-1 -13.9,-6.6 0.7,-5.5 4.9,-11.6 9.8,-14 3.8,-1.9 10.2,-1.9 14.2,0 z m -55,54.8 c 4.4,1.2 6.8,1.5 15,1.5 11.5,0 15.4,-0.8 23.8,-5.1 3.1,-1.5 5.7,-2.9 6.1,-2.9 0.7,-0.3 0.6,5.3 -0.3,10.3 -2.7,17.2 -20.1,28.7 -36.6,24.4 -9.9,-2.6 -17.8,-9.6 -21,-18.6 -1.4,-3.8 -2.5,-12 -2,-14.3 l 0.4,-1.8 4.7,2.5 c 2.6,1.3 7,3.1 9.9,4 z"
         id="path2"
         style="fill:#3771c8;fill-opacity:1" /></g></g></svg>
